<svg width="40" height="34" viewBox="0 0 40 34" fill="none" xmlns="http://www.w3.org/2000/svg">
<path d="M27.9834 7.97461V8.91289C27.9834 9.23648 28.2457 9.49883 28.5693 9.49883C28.8929 9.49883 29.1553 9.23648 29.1553 8.91289V7.97461C29.1553 7.65102 28.8929 7.38867 28.5693 7.38867C28.2457 7.38867 27.9834 7.65102 27.9834 7.97461Z" fill="#C4C4C4"/>
<path d="M3.58045 5.04445C4.87325 5.04445 5.92495 3.99275 5.92495 2.69996C5.92495 1.40717 4.87325 0.355469 3.58045 0.355469C2.28774 0.355469 1.23596 1.40717 1.23596 2.69996C1.23596 3.99267 2.28766 5.04445 3.58045 5.04445ZM3.58045 1.52732C4.22708 1.52732 4.75309 2.05333 4.75309 2.69996C4.75309 3.34651 4.22708 3.87259 3.58045 3.87259C2.9339 3.87259 2.40782 3.34659 2.40782 2.69996C2.40782 2.05333 2.93382 1.52732 3.58045 1.52732Z" fill="#C4C4C4"/>
<path d="M9.44194 9.73388C11.0578 9.73388 12.3724 8.41929 12.3724 6.80346C12.3724 5.18763 11.0578 3.87305 9.44194 3.87305C7.82572 3.87305 6.51074 5.18763 6.51074 6.80346C6.51074 8.41929 7.82572 9.73388 9.44194 9.73388ZM9.44194 5.0449C10.4116 5.0449 11.2005 5.83379 11.2005 6.80346C11.2005 7.77313 10.4116 8.56203 9.44194 8.56203C8.47188 8.56203 7.6826 7.77313 7.6826 6.80346C7.6826 5.83379 8.47188 5.0449 9.44194 5.0449Z" fill="#C4C4C4"/>
<path d="M38.067 10.3203H35.6935C35.2086 8.65006 34.3373 7.10633 33.145 5.81706C32.9253 5.57949 32.5546 5.56488 32.317 5.78472C32.0793 6.0044 32.0649 6.3751 32.2846 6.61267C36.3089 10.9648 35.7392 17.8198 31.059 21.4599C30.842 21.6287 30.7715 21.9255 30.8894 22.1737C33.1573 26.9501 29.7023 32.5941 24.2938 32.5941H13.4496C10.0518 32.5941 6.87636 31.2516 4.50835 28.814C4.28289 28.5819 3.91196 28.5767 3.67985 28.802C3.44775 29.0275 3.44236 29.3984 3.6679 29.6306C6.19504 32.2319 9.68998 33.7659 13.4497 33.7659H24.2939C30.3498 33.7659 34.3969 27.6118 32.1356 22.0953C33.3939 21.0316 34.4094 19.7006 35.0992 18.2116C39.011 17.1542 39.8204 13.8641 39.9863 12.4741C40.1229 11.3294 39.2229 10.3203 38.067 10.3203ZM38.8226 12.3351C38.6693 13.6208 38.0422 15.7604 35.646 16.7859C36.1732 15.0656 36.2774 13.25 35.9659 11.492H38.067C38.5258 11.4921 38.8758 11.8904 38.8226 12.3351Z" fill="#C4C4C4"/>
<path d="M1.26069 22.7401C0.920146 21.1719 1.58021 19.5684 2.89222 18.6775C3.95447 21.9184 6.09732 24.0191 9.4332 25.0931C10.495 25.4353 13.6685 26.4572 14.341 26.6736C17.993 27.85 21.9331 25.7658 22.9571 21.9928C23.8667 18.6399 22.0251 15.073 18.7654 13.8728C17.4657 13.3918 16.065 13.3213 14.7466 13.6604C14.6948 11.0573 15.62 8.59317 17.3921 6.65437C20.6949 3.04092 26.1565 2.29429 30.3071 4.9562C30.5795 5.13096 30.942 5.05175 31.1166 4.77933C31.2913 4.50691 31.2122 4.1445 30.9398 3.96981C26.3034 0.996426 20.21 1.83438 16.5271 5.86384C14.4608 8.1245 13.4272 11.0252 13.5901 14.0729C13.4238 14.1498 13.257 14.2342 13.1025 14.3208C10.8118 15.6077 7.97229 15.6849 5.50655 14.5277C4.36899 13.9939 3.37237 13.5988 2.69613 14.1731C2.11739 14.6645 2.07091 15.6451 2.55418 17.5082C0.650931 18.6044 -0.356395 20.8144 0.115316 22.9872C0.452107 24.5566 1.05358 26.0369 1.90318 27.3872C2.07473 27.6599 2.43598 27.7442 2.71113 27.5711C2.98503 27.3988 3.06737 27.0371 2.89503 26.7632C2.11864 25.5295 1.56896 24.1763 1.26069 22.7401ZM3.4533 15.0701C3.57635 15.0295 3.94861 15.0913 5.00859 15.5887C7.81627 16.9064 11.0565 16.8144 13.6761 15.3427C15.1573 14.5113 16.8834 14.426 18.3594 14.9723C21.0553 15.9649 22.578 18.9139 21.826 21.6861C20.9812 24.7991 17.7309 26.5346 14.7001 25.5582C14.0274 25.3418 10.8543 24.32 9.79249 23.9778C6.74145 22.9954 4.81844 21.0459 3.91423 18.0204C3.7708 17.5326 3.1787 15.4941 3.4533 15.0701Z" fill="#C4C4C4"/>
</svg>
