<svg width="36" height="41" viewBox="0 0 36 41" fill="none" xmlns="http://www.w3.org/2000/svg">
<path d="M35.0981 8.23244C34.9719 7.38322 34.4015 6.65197 33.6095 6.324L18.9386 0.248457C18.3332 -0.00208984 17.6665 -0.00208984 17.0611 0.248457L2.39016 6.324C1.5982 6.65197 1.02781 7.38322 0.901564 8.23244C0.593517 10.3048 0.0771111 15.7876 1.92914 21.9262C2.95914 25.34 4.57313 28.4817 6.72625 31.264C9.31094 34.6039 12.7027 37.4599 16.8073 39.7525C17.1751 39.9578 17.5874 40.0606 17.9998 40.0606C18.4122 40.0606 18.8246 39.9578 19.1924 39.7524C23.297 37.4599 26.6888 34.6038 29.2734 31.2639C31.4265 28.4817 33.0405 25.3399 34.0705 21.9261C35.9226 15.7876 35.4061 10.3048 35.0981 8.23244ZM32.9499 21.588C30.7493 28.8817 25.9287 34.6492 18.6217 38.7305C18.2384 38.9446 17.7618 38.9447 17.3782 38.7305C10.0712 34.6492 5.25039 28.8817 3.04985 21.588C1.26617 15.676 1.76305 10.3988 2.05946 8.40447C2.12555 7.95979 2.42391 7.57697 2.83805 7.40557L17.509 1.33002C17.6673 1.26447 17.8336 1.23166 17.9999 1.23166C18.1662 1.23166 18.3326 1.26447 18.4909 1.33002L33.1618 7.40557C33.5759 7.57705 33.8742 7.95979 33.9402 8.40447C34.2367 10.3989 34.7335 15.676 32.9499 21.588Z" fill="#C4C4C4"/>
<path d="M30.5785 9.07512L24.8444 6.73496C24.5449 6.61293 24.2034 6.75645 24.0813 7.05574C23.9593 7.35504 24.1028 7.69668 24.4021 7.81879L30.1363 10.1589C30.4306 10.279 30.6424 10.5457 30.6891 10.8549C30.9259 12.4248 31.3227 16.5788 29.8978 21.2331C28.1401 26.9744 24.2873 31.5157 18.4465 34.7308C18.1712 34.8823 17.829 34.8823 17.5537 34.7308C11.7128 31.5157 7.86001 26.9745 6.10228 21.2331C4.6772 16.5789 5.07407 12.4249 5.31087 10.8549C5.35751 10.5457 5.56931 10.279 5.86376 10.1589L17.647 5.35012C17.8713 5.25855 18.1288 5.25848 18.3531 5.35012L21.892 6.79441C22.1913 6.91645 22.533 6.77285 22.655 6.47363C22.7771 6.17434 22.6335 5.83269 22.3342 5.71059L18.7952 4.26629C18.2824 4.05699 17.7176 4.05715 17.2047 4.26629L5.42142 9.07512C4.74712 9.35027 4.26118 9.96543 4.15337 10.6804C3.9047 12.3293 3.48767 16.692 4.9829 21.5757C5.8147 24.2927 7.11806 26.793 8.85681 29.0071C10.9427 31.6633 13.6788 33.934 16.9892 35.7562C17.3009 35.9279 17.6504 36.0136 18 36.0136C18.3495 36.0136 18.6992 35.9279 19.0109 35.7562C22.3213 33.9341 25.0574 31.6633 27.1432 29.0071C28.8819 26.793 30.1852 24.2926 31.017 21.5757C32.5123 16.6919 32.0952 12.3293 31.8465 10.6804C31.7387 9.96535 31.2528 9.35027 30.5785 9.07512Z" fill="#C4C4C4"/>
<path d="M16.8336 27.1578H19.1666C20.0018 27.1578 20.6813 26.4816 20.6813 25.6503V23.0631C20.6813 22.8773 20.8356 22.7262 21.0254 22.7262H23.6329C24.4681 22.7262 25.1475 22.0499 25.1475 21.2188V18.9039C25.1475 18.0727 24.4681 17.3964 23.6329 17.3964H21.0254C20.8356 17.3964 20.6813 17.2453 20.6813 17.0595V14.4723C20.6813 13.6411 20.0018 12.9648 19.1666 12.9648H16.8336C15.9984 12.9648 15.3189 13.641 15.3189 14.4723V17.0595C15.3189 17.2452 15.1645 17.3964 14.9748 17.3964H12.3672C11.5321 17.3964 10.8525 18.0727 10.8525 18.9039V21.2188C10.8525 21.9731 11.4188 22.6157 12.1696 22.7134C12.4904 22.7556 12.7838 22.5291 12.8256 22.2086C12.8673 21.8881 12.6412 21.5945 12.3207 21.5527C12.1511 21.5306 12.0232 21.387 12.0232 21.2188V18.904C12.0232 18.7182 12.1775 18.567 12.3672 18.567H14.9748C15.81 18.567 16.4895 17.8908 16.4895 17.0596V14.4723C16.4895 14.2866 16.6439 14.1355 16.8336 14.1355H19.1666C19.3564 14.1355 19.5107 14.2866 19.5107 14.4723V17.0596C19.5107 17.8908 20.1901 18.567 21.0253 18.567H23.6328C23.8225 18.567 23.9769 18.7181 23.9769 18.904V21.2188C23.9769 21.4045 23.8225 21.5557 23.6328 21.5557H21.0253C20.1901 21.5557 19.5107 22.232 19.5107 23.0632V25.6504C19.5107 25.8362 19.3564 25.9873 19.1666 25.9873H16.8336C16.6439 25.9873 16.4895 25.8363 16.4895 25.6504V23.0632C16.4895 22.232 15.81 21.5557 14.9748 21.5557C14.6515 21.5557 14.3895 21.8177 14.3895 22.141C14.3895 22.4643 14.6515 22.7263 14.9748 22.7263C15.1645 22.7263 15.3189 22.8774 15.3189 23.0633V25.6505C15.3189 26.4816 15.9984 27.1578 16.8336 27.1578Z" fill="#C4C4C4"/>
</svg>
