<svg width="40" height="38" viewBox="0 0 40 38" fill="none" xmlns="http://www.w3.org/2000/svg">
<path d="M38.6305 0.992188H1.36953C0.614375 0.992188 0 1.60656 0 2.36172V27.6491C0 28.4042 0.614375 29.0186 1.36953 29.0186H9.07086L9.22891 29.7541C9.39703 30.537 10.033 31.1321 10.8023 31.2694C10.4861 31.8368 10.3051 32.4895 10.3051 33.1838C10.3051 35.3591 12.0748 37.1289 14.2502 37.1289C16.4255 37.1289 18.1952 35.3591 18.1952 33.1838C18.1952 32.5019 18.0212 31.8598 17.7153 31.2996H20.9917C20.6859 31.8598 20.5118 32.5019 20.5118 33.1838C20.5118 35.3591 22.2816 37.1289 24.4569 37.1289C26.6322 37.1289 28.402 35.3591 28.402 33.1838C28.402 32.4973 28.2253 31.8513 27.9156 31.2884C28.7476 31.2028 29.4526 30.5844 29.631 29.754L33.8938 9.91367H38.826V27.6491C38.826 27.757 38.7383 27.8447 38.6304 27.8447H32.2352C31.9109 27.8447 31.6482 28.1074 31.6482 28.4316C31.6482 28.7559 31.9109 29.0186 32.2352 29.0186H38.6304C39.3855 29.0186 39.9999 28.4042 39.9999 27.6491V2.36172C40 1.60656 39.3856 0.992188 38.6305 0.992188ZM14.2502 35.955C12.7221 35.955 11.4789 34.7118 11.4789 33.1837C11.4789 31.6557 12.722 30.4125 14.2502 30.4125C15.7783 30.4125 17.0214 31.6557 17.0214 33.1837C17.0214 34.7119 15.7782 35.955 14.2502 35.955ZM24.457 35.955C22.9289 35.955 21.6857 34.7118 21.6857 33.1837C21.6857 31.6557 22.9289 30.4125 24.457 30.4125C25.985 30.4125 27.2282 31.6557 27.2282 33.1837C27.2281 34.7119 25.9849 35.955 24.457 35.955ZM37.1569 8.73976C37.5505 8.38164 37.7978 7.86555 37.7978 7.29281C37.7978 6.21398 36.9202 5.33633 35.8413 5.33633H33.9949C32.1873 5.33633 30.5996 6.61914 30.2198 8.38648L30.1439 8.73969H24.6013C24.2771 8.73969 24.0144 9.00242 24.0144 9.32664C24.0144 9.65086 24.2771 9.91359 24.6013 9.91359H29.8918L29.2961 12.6863H7.9832C7.3893 12.6863 6.83461 12.9513 6.46133 13.4133C6.08813 13.8752 5.94562 14.4731 6.07039 15.0538L7.51758 21.7895C7.5857 22.1066 7.89766 22.3077 8.21469 22.2402C8.53156 22.172 8.73328 21.8599 8.66523 21.543L7.21805 14.8073C7.1682 14.575 7.22516 14.3358 7.37445 14.151C7.52375 13.9663 7.74563 13.8603 7.9832 13.8603H29.7703C30.047 13.8603 30.286 13.6671 30.3442 13.3966L31.3677 8.63312C31.632 7.40305 32.737 6.51031 33.9951 6.51031H35.8415C36.273 6.51031 36.6241 6.86141 36.6241 7.29289C36.6241 7.72437 36.273 8.07547 35.8415 8.07547H33.9951C33.4698 8.07547 33.0083 8.44828 32.8978 8.96203L28.4834 29.5076C28.4065 29.8658 28.0848 30.1258 27.7184 30.1258H26.9459C26.2665 29.5718 25.4 29.2388 24.457 29.2388C23.5141 29.2388 22.6476 29.5718 21.9681 30.1258H16.7392C16.0598 29.5718 15.1933 29.2388 14.2503 29.2388C13.3073 29.2388 12.4409 29.5718 11.7614 30.1258H11.1419C10.7755 30.1258 10.4537 29.8658 10.3767 29.5076L9.17211 23.9012C9.10406 23.5842 8.79227 23.3833 8.475 23.4506C8.15805 23.5187 7.95641 23.8309 8.02445 24.1477L8.81883 27.8448H1.36953C1.26164 27.8448 1.17391 27.757 1.17391 27.6491V9.91367H21.8865C22.2107 9.91367 22.4734 9.65094 22.4734 9.32672C22.4734 9.0025 22.2107 8.73976 21.8865 8.73976H1.17391V2.36164C1.17391 2.25375 1.26172 2.16602 1.36953 2.16602H38.6305C38.7384 2.16602 38.8261 2.25375 38.8261 2.36164V8.73976H37.1569Z" fill="#C4C4C4"/>
<path d="M4.33856 6.57617C4.97067 6.57617 5.48309 6.06375 5.48309 5.43164C5.48309 4.79953 4.97067 4.28711 4.33856 4.28711C3.70645 4.28711 3.19403 4.79953 3.19403 5.43164C3.19403 6.06375 3.70645 6.57617 4.33856 6.57617Z" fill="#C4C4C4"/>
<path d="M7.81903 6.57617C8.45114 6.57617 8.96356 6.06375 8.96356 5.43164C8.96356 4.79953 8.45114 4.28711 7.81903 4.28711C7.18692 4.28711 6.6745 4.79953 6.6745 5.43164C6.6745 6.06375 7.18692 6.57617 7.81903 6.57617Z" fill="#C4C4C4"/>
<path d="M11.2998 6.57617C11.9319 6.57617 12.4443 6.06375 12.4443 5.43164C12.4443 4.79953 11.9319 4.28711 11.2998 4.28711C10.6677 4.28711 10.1553 4.79953 10.1553 5.43164C10.1553 6.06375 10.6677 6.57617 11.2998 6.57617Z" fill="#C4C4C4"/>
<path d="M21.0795 25.2266H17.6274C17.4634 25.2266 17.3068 25.2952 17.1957 25.4159C17.0846 25.5366 17.029 25.6982 17.0425 25.8616L17.2205 28.0227C17.2456 28.3271 17.4999 28.5615 17.8054 28.5615H20.9016C21.2071 28.5615 21.4615 28.3272 21.4865 28.0227L21.6644 25.8616C21.6778 25.6982 21.6223 25.5366 21.5112 25.4159C21.4 25.2952 21.2435 25.2266 21.0795 25.2266ZM20.3609 27.3876H18.346L18.2647 26.4005H20.4423L20.3609 27.3876Z" fill="#C4C4C4"/>
<path d="M9.56873 18.2972C9.62685 18.5677 9.86592 18.7609 10.1426 18.7609H14.2501C14.5836 18.7681 14.8697 18.4574 14.8351 18.1258L14.6572 15.9648C14.6321 15.6603 14.3777 15.4259 14.0722 15.4259H9.67826C9.31552 15.4169 9.01935 15.7835 9.10443 16.1362L9.56873 18.2972ZM13.5317 16.5999L13.6129 17.587H10.6169L10.4047 16.5999H13.5317Z" fill="#C4C4C4"/>
<path d="M11.7838 25.2266C11.6065 25.2266 11.4387 25.3067 11.3273 25.4446C11.2159 25.5826 11.1727 25.7634 11.21 25.9368L11.6743 28.0978C11.7324 28.3683 11.9715 28.5615 12.2481 28.5615H15.057C15.2211 28.5615 15.3777 28.4929 15.4888 28.3722C15.5999 28.2515 15.6555 28.0898 15.642 27.9264L15.464 25.7654C15.4389 25.4609 15.1845 25.2266 14.8791 25.2266H11.7838ZM12.7224 27.3876L12.5102 26.4005H14.3385L14.4197 27.3876H12.7224Z" fill="#C4C4C4"/>
<path d="M10.731 20.3262C10.5536 20.3262 10.3859 20.4063 10.2744 20.5442C10.163 20.6822 10.1199 20.863 10.1572 21.0364L10.6215 23.1975C10.6795 23.468 10.9186 23.6612 11.1953 23.6612H14.6536C14.8176 23.6612 14.9742 23.5926 15.0853 23.4719C15.1964 23.3512 15.252 23.1895 15.2385 23.0261L15.0605 20.865C15.0354 20.5605 14.7811 20.3262 14.4756 20.3262H10.731ZM11.6695 22.4872L11.4574 21.5H13.935L14.0162 22.4872H11.6695Z" fill="#C4C4C4"/>
<path d="M16.4136 18.222C16.4387 18.5265 16.693 18.7608 16.9985 18.7608H21.7085C22.014 18.7608 22.2684 18.5265 22.2934 18.222L22.4713 16.061C22.5057 15.7293 22.2199 15.4186 21.8863 15.4259H16.8205C16.4873 15.4186 16.2008 15.7293 16.2355 16.061L16.4136 18.222ZM21.2492 16.5998L21.1679 17.5869H17.539L17.4578 16.5998H21.2492Z" fill="#C4C4C4"/>
<path d="M24.0536 23.6612H27.6648C27.9414 23.6612 28.1805 23.468 28.2387 23.1975L28.703 21.0364C28.7402 20.863 28.6971 20.6822 28.5856 20.5442C28.4742 20.4063 28.3064 20.3262 28.1291 20.3262H24.2316C23.9261 20.3262 23.6717 20.5605 23.6467 20.865L23.4688 23.0261C23.4553 23.1895 23.5109 23.3512 23.622 23.4719C23.733 23.5925 23.8896 23.6612 24.0536 23.6612ZM24.7721 21.5001H27.4026L27.1905 22.4873H24.6908L24.7721 21.5001Z" fill="#C4C4C4"/>
<path d="M24.4569 18.7609H28.7174C28.994 18.7609 29.2331 18.5677 29.2913 18.2972L29.7556 16.1362C29.8406 15.7835 29.5444 15.417 29.1817 15.4259H24.6348C24.3294 15.4259 24.0749 15.6602 24.0499 15.9648L23.872 18.1258C23.8372 18.4574 24.1234 18.7681 24.4569 18.7609ZM25.1754 16.5999H28.4552L28.2431 17.587H25.094L25.1754 16.5999Z" fill="#C4C4C4"/>
<path d="M21.483 20.3262H17.224C17.0599 20.3262 16.9034 20.3948 16.7923 20.5155C16.6812 20.6362 16.6256 20.7978 16.6391 20.9613L16.817 23.1223C16.842 23.4268 17.0964 23.6612 17.4019 23.6612H21.305C21.6105 23.6612 21.8649 23.4269 21.8899 23.1223L22.0678 20.9613C22.0813 20.7978 22.0257 20.6362 21.9146 20.5155C21.8035 20.3948 21.647 20.3262 21.483 20.3262ZM20.7644 22.4872H17.9425L17.8613 21.5H20.8457L20.7644 22.4872Z" fill="#C4C4C4"/>
<path d="M23.6502 28.5595H26.6119C26.8885 28.5595 27.1276 28.3663 27.1858 28.0959L27.6502 25.9348C27.6874 25.7615 27.6443 25.5806 27.5328 25.4427C27.4214 25.3048 27.2536 25.2246 27.0763 25.2246H23.8281C23.5227 25.2246 23.2682 25.4589 23.2432 25.7634L23.0653 27.9245C23.0519 28.0879 23.1074 28.2495 23.2185 28.3702C23.3296 28.4909 23.4862 28.5595 23.6502 28.5595ZM24.3688 26.3986H26.3498L26.1377 27.3857H24.2874L24.3688 26.3986Z" fill="#C4C4C4"/>
<path d="M14.2503 32.1758C13.6939 32.1758 13.2429 32.6269 13.2429 33.1832C13.2429 33.7396 13.6939 34.1907 14.2503 34.1907C14.8067 34.1907 15.2577 33.7396 15.2577 33.1832C15.2577 32.6269 14.8067 32.1758 14.2503 32.1758Z" fill="#C4C4C4"/>
<path d="M24.4571 32.1758C23.9007 32.1758 23.4497 32.6269 23.4497 33.1832C23.4497 33.7396 23.9007 34.1907 24.4571 34.1907C25.0135 34.1907 25.4645 33.7396 25.4645 33.1832C25.4645 32.6269 25.0135 32.1758 24.4571 32.1758Z" fill="#C4C4C4"/>
</svg>
