<svg width="40" height="38" viewBox="0 0 40 38" fill="none" xmlns="http://www.w3.org/2000/svg">
<path d="M38.8041 12.0248V4.9257C39.2362 4.50984 39.5059 3.92625 39.5059 3.28055C39.5059 2.02086 38.4812 0.996094 37.2215 0.996094C36.5758 0.996094 35.9922 1.26586 35.5763 1.69797H18.1263C17.2537 1.69797 16.5437 2.40789 16.5437 3.28055C16.5437 4.1532 17.2537 4.86313 18.1263 4.86313H18.2181V10.1226H17.6001C17.0616 10.1226 16.6235 10.5606 16.6235 11.0991V13.4274C16.6235 13.9659 17.0616 14.404 17.6001 14.404H22.3999C22.9384 14.404 23.3765 13.9659 23.3765 13.4274V11.0991C23.3765 10.5606 22.9384 10.1226 22.3999 10.1226H21.7819V4.86313H28.5156C28.8393 4.86313 29.1016 4.60086 29.1016 4.27719C29.1016 3.95352 28.8393 3.69125 28.5156 3.69125H18.1264C17.9 3.69125 17.7157 3.50703 17.7157 3.28055C17.7157 3.05406 17.8999 2.86984 18.1264 2.86984H34.9748C34.9505 3.0032 34.9371 3.14031 34.9371 3.28055C34.9371 3.42086 34.9505 3.55789 34.9749 3.69125H31.25C30.9263 3.69125 30.6641 3.95352 30.6641 4.27719C30.6641 4.60086 30.9263 4.86313 31.25 4.86313H35.577C35.5973 4.8843 35.6177 4.90539 35.6389 4.9257V12.0248C34.9658 12.1095 34.443 12.6843 34.443 13.38V17.378H27.4847C27.0323 17.378 26.6644 17.7459 26.6644 18.1983V25.4306H24.7716V18.1983C24.7716 17.7459 24.4037 17.378 23.9513 17.378H16.0486C15.5962 17.378 15.2283 17.7459 15.2283 18.1983V25.4306H13.3355V22.8114C13.3355 22.4877 13.0733 22.2255 12.7496 22.2255C12.4259 22.2255 12.1637 22.4877 12.1637 22.8114V25.4306H4.96398V18.5498H12.1637V20.077C12.1637 20.4007 12.4259 20.663 12.7496 20.663C13.0733 20.663 13.3355 20.4007 13.3355 20.077V18.1983C13.3355 17.7459 12.9676 17.378 12.5152 17.378H4.61242C4.16008 17.378 3.79211 17.7459 3.79211 18.1983V25.4473C1.67055 25.6313 0 27.4158 0 29.5841V30.103C0 31.9893 1.26437 33.5848 2.98984 34.0894V36.1502C2.98984 36.6887 3.42789 37.1267 3.96641 37.1267H27.4219C27.7455 37.1267 28.0078 36.8645 28.0078 36.5408C28.0078 36.2171 27.7455 35.9548 27.4219 35.9548H4.16172V34.2565H35.8383V35.9548H30.1562C29.8326 35.9548 29.5703 36.2171 29.5703 36.5408C29.5703 36.8645 29.8326 37.1267 30.1562 37.1267H36.0336C36.5721 37.1267 37.0102 36.6887 37.0102 36.1502V34.0894C38.7356 33.5848 40 31.9893 40 30.103V13.38C40 12.6843 39.4772 12.1095 38.8041 12.0248ZM22.2046 13.2321H17.7954V11.2945H22.2046V13.2321ZM20.61 10.1226H19.3901V4.86313H20.61V10.1226ZM37.6322 12.0128H36.8108V5.52734C36.9441 5.55164 37.0812 5.565 37.2215 5.565C37.3617 5.565 37.4988 5.55164 37.6322 5.52734V12.0128ZM38.3341 3.28055C38.3341 3.89406 37.835 4.39313 37.2216 4.39313C36.6081 4.39313 36.109 3.89398 36.109 3.28055C36.109 2.66711 36.6081 2.16797 37.2216 2.16797C37.835 2.16797 38.3341 2.66703 38.3341 3.28055ZM30.7514 18.5498H32.1209V21.0481H30.7514V18.5498ZM27.8363 18.5498H29.5795V21.3997C29.5795 21.852 29.9475 22.22 30.3998 22.22H32.4724C32.9248 22.22 33.2927 21.852 33.2927 21.3997V18.5498H35.0359V25.4306H27.8362V18.5498H27.8363ZM19.3152 18.5498H20.6847V21.0481H19.3152V18.5498ZM16.4002 18.5498H18.1434V21.3997C18.1434 21.852 18.5113 22.22 18.9637 22.22H21.0363C21.4886 22.22 21.8566 21.852 21.8566 21.3997V18.5498H23.5998V25.4306H16.4001V18.5498H16.4002ZM38.8281 30.103C38.8281 31.747 37.4905 33.0846 35.8465 33.0846H4.15352C2.50945 33.0846 1.17188 31.747 1.17188 30.103V29.5841C1.17188 27.9401 2.50945 26.6025 4.15352 26.6025H35.8465C37.4905 26.6025 38.8281 27.9401 38.8281 29.5841V30.103ZM38.8281 26.6976C38.1512 25.9991 37.2326 25.5362 36.2079 25.4473V18.1983C36.2079 17.8248 35.9569 17.5096 35.6149 17.4107V13.38C35.6149 13.2723 35.7025 13.1847 35.8102 13.1847H38.6328C38.7405 13.1847 38.8281 13.2723 38.8281 13.38V26.6976Z" fill="#C4C4C4"/>
<path d="M4.67618 27.5586C3.41649 27.5586 2.39172 28.5834 2.39172 29.843C2.39172 31.1027 3.41649 32.1275 4.67618 32.1275C5.93586 32.1275 6.96063 31.1027 6.96063 29.843C6.96063 28.5834 5.93586 27.5586 4.67618 27.5586ZM4.67618 30.9556C4.06266 30.9556 3.5636 30.4565 3.5636 29.843C3.5636 29.2296 4.06274 28.7305 4.67618 28.7305C5.28961 28.7305 5.78876 29.2296 5.78876 29.843C5.78876 30.4565 5.28969 30.9556 4.67618 30.9556Z" fill="#C4C4C4"/>
<path d="M16.9355 27.5586C15.6758 27.5586 14.651 28.5834 14.651 29.843C14.651 31.1027 15.6758 32.1275 16.9355 32.1275C18.1951 32.1275 19.2199 31.1027 19.2199 29.843C19.2199 28.5834 18.1952 27.5586 16.9355 27.5586ZM16.9355 30.9556C16.3219 30.9556 15.8229 30.4565 15.8229 29.843C15.8229 29.2296 16.322 28.7305 16.9355 28.7305C17.5489 28.7305 18.048 29.2296 18.048 29.843C18.048 30.4565 17.549 30.9556 16.9355 30.9556Z" fill="#C4C4C4"/>
<path d="M23.065 27.5586C21.8053 27.5586 20.7805 28.5834 20.7805 29.843C20.7805 31.1027 21.8053 32.1275 23.065 32.1275C24.3247 32.1275 25.3494 31.1027 25.3494 29.843C25.3494 28.5834 24.3247 27.5586 23.065 27.5586ZM23.065 30.9556C22.4515 30.9556 21.9524 30.4565 21.9524 29.843C21.9524 29.2296 22.4515 28.7305 23.065 28.7305C23.6784 28.7305 24.1775 29.2296 24.1775 29.843C24.1775 30.4565 23.6784 30.9556 23.065 30.9556Z" fill="#C4C4C4"/>
<path d="M29.1944 27.5586C27.9347 27.5586 26.9099 28.5834 26.9099 29.843C26.9099 31.1027 27.9347 32.1275 29.1944 32.1275C30.4541 32.1275 31.4788 31.1027 31.4788 29.843C31.4788 28.5834 30.4541 27.5586 29.1944 27.5586ZM29.1944 30.9556C28.5808 30.9556 28.0818 30.4565 28.0818 29.843C28.0818 29.2296 28.5809 28.7305 29.1944 28.7305C29.8078 28.7305 30.3069 29.2296 30.3069 29.843C30.3069 30.4565 29.8078 30.9556 29.1944 30.9556Z" fill="#C4C4C4"/>
<path d="M10.8056 27.5586C9.54588 27.5586 8.52112 28.5834 8.52112 29.843C8.52112 31.1027 9.54588 32.1275 10.8056 32.1275C12.0653 32.1275 13.09 31.1027 13.09 29.843C13.09 28.5834 12.0653 27.5586 10.8056 27.5586ZM10.8056 30.9556C10.1921 30.9556 9.69299 30.4565 9.69299 29.843C9.69299 29.2296 10.1921 28.7305 10.8056 28.7305C11.419 28.7305 11.9181 29.2296 11.9181 29.843C11.9181 30.4565 11.4191 30.9556 10.8056 30.9556Z" fill="#C4C4C4"/>
<path d="M35.3238 27.5586C34.0641 27.5586 33.0393 28.5834 33.0393 29.843C33.0393 31.1027 34.0641 32.1275 35.3238 32.1275C36.5834 32.1275 37.6082 31.1027 37.6082 29.843C37.6082 28.5834 36.5834 27.5586 35.3238 27.5586ZM35.3238 30.9556C34.7102 30.9556 34.2112 30.4565 34.2112 29.843C34.2112 29.2296 34.7103 28.7305 35.3238 28.7305C35.9372 28.7305 36.4363 29.2296 36.4363 29.843C36.4363 30.4565 35.9372 30.9556 35.3238 30.9556Z" fill="#C4C4C4"/>
</svg>
