<svg viewBox="0 0 42 43" fill="none" xmlns="http://www.w3.org/2000/svg">
<path d="M34.6395 29.0109H34.5122V20.1945C34.5122 17.3261 33.6248 14.5858 31.9461 12.2713C31.6912 11.9199 31.2 11.8418 30.8485 12.0965L30.8484 12.0965C30.4971 12.3514 30.4188 12.8428 30.6737 13.1942C32.1566 15.2388 32.9403 17.6589 32.9403 20.1945V29.0109H9.05908V20.1945C9.05908 17.3377 10.0839 14.5736 11.9447 12.4114C13.7863 10.2714 16.3269 8.84864 19.0982 8.40499L19.0982 8.40498C19.4017 8.35636 19.649 8.13538 19.7312 7.83933L19.7312 7.83931C19.8135 7.54318 19.7156 7.22628 19.4806 7.02812C18.9484 6.57937 18.6435 5.9235 18.6435 5.22813C18.6435 3.92905 19.7006 2.87188 20.9997 2.87188C22.2988 2.87188 23.356 3.92905 23.356 5.22813C23.356 5.92342 23.051 6.57937 22.5188 7.02812L22.5188 7.02813C22.2839 7.22629 22.186 7.54318 22.2683 7.83931C22.3505 8.13548 22.5979 8.35647 22.9014 8.40499C25.2843 8.78607 27.4727 9.87165 29.2305 11.545L29.2305 11.5451C29.5449 11.8442 30.0423 11.8321 30.3417 11.5177C30.641 11.2033 30.6287 10.7058 30.3143 10.4065L30.1764 10.5513L30.3143 10.4065C28.6474 8.81966 26.6367 7.69922 24.4403 7.12411C24.7568 6.55044 24.9278 5.90014 24.9278 5.22805C24.9278 3.06196 23.1659 1.3 20.9997 1.3C18.8335 1.3 17.0716 3.06196 17.0716 5.22813C17.0716 5.90063 17.2428 6.55129 17.5597 7.1252C14.9287 7.81763 12.5473 9.30109 10.7532 11.386L10.9048 11.5165L10.7532 11.386C8.64707 13.8335 7.48721 16.9617 7.48721 20.1945V29.0109H7.35986C4.94249 29.0109 2.97627 30.9776 2.97627 33.3953C2.97627 34.5661 3.43257 35.6678 4.2604 36.4956C5.0882 37.3234 6.18954 37.7797 7.35986 37.7797H9.13877C9.57282 37.7797 9.92471 37.4278 9.92471 36.9938C9.92471 36.5597 9.57282 36.2078 9.13877 36.2078H7.35986C6.60872 36.2078 5.90333 35.9155 5.37182 35.3841C4.84036 34.8527 4.54814 34.147 4.54814 33.3953C4.54814 31.8446 5.80967 30.5828 7.35986 30.5828H34.6395C35.3907 30.5828 36.0961 30.8751 36.6276 31.4065C37.159 31.938 37.4513 32.6436 37.4513 33.3953C37.4513 34.946 36.1897 36.2078 34.6395 36.2078H11.4669C11.0328 36.2078 10.681 36.5597 10.681 36.9938C10.681 37.4278 11.0328 37.7797 11.4669 37.7797H15.1711C15.5973 38.8222 16.3064 39.7491 17.21 40.4316C18.3087 41.2612 19.6198 41.7 21 41.7C22.3798 41.7 23.6908 41.2612 24.7893 40.4315L24.6688 40.272L24.7893 40.4315C25.693 39.749 26.402 38.8221 26.8282 37.7797H34.6395C37.0569 37.7797 39.0231 35.813 39.0231 33.3953C39.0231 32.2245 38.5668 31.1228 37.739 30.2951C36.9112 29.4673 35.8099 29.0109 34.6395 29.0109ZM21 40.1281C19.307 40.1281 17.7527 39.2016 16.9191 37.7797H25.0801C24.2466 39.2016 22.6926 40.1281 21 40.1281Z" fill="#2C2C2C" stroke="#2C2C2C" stroke-width="0.4"/>
</svg>
