<svg viewBox="0 0 42 43" fill="none" xmlns="http://www.w3.org/2000/svg">
<g clip-path="url(#clip0_6180_6172)">
<path d="M20.8478 23.1308C20.8913 23.1308 20.9348 23.1308 20.987 23.1308C21.0044 23.1308 21.0218 23.1308 21.0392 23.1308C21.0653 23.1308 21.1 23.1308 21.1261 23.1308C23.6745 23.0873 25.7358 22.1914 27.2578 20.4781C30.6064 16.7034 30.0497 10.2325 29.9888 9.61493C29.7714 4.97919 27.5796 2.76134 25.7706 1.72634C24.4225 0.952268 22.8482 0.53479 21.0913 0.5H21.0305C21.0218 0.5 21.0044 0.5 20.9957 0.5H20.9435C19.9781 0.5 18.082 0.656554 16.2643 1.69155C14.4378 2.72655 12.2113 4.9444 11.9938 9.61493C11.9329 10.2325 11.3763 16.7034 14.7248 20.4781C16.2382 22.1914 18.2995 23.0873 20.8478 23.1308ZM14.316 9.83237C14.316 9.80628 14.3247 9.78018 14.3247 9.76279C14.6117 3.52671 19.0388 2.85701 20.9348 2.85701H20.9696C20.987 2.85701 21.0131 2.85701 21.0392 2.85701C23.3875 2.90919 27.3796 3.86591 27.6492 9.76279C27.6492 9.78888 27.6492 9.81497 27.6579 9.83237C27.6666 9.89325 28.2754 15.8075 25.5097 18.9212C24.4138 20.1562 22.9526 20.7651 21.0305 20.7825C21.0131 20.7825 21.0044 20.7825 20.987 20.7825C20.9696 20.7825 20.9609 20.7825 20.9435 20.7825C19.0301 20.7651 17.5602 20.1562 16.473 18.9212C13.7159 15.8249 14.3073 9.88455 14.316 9.83237Z" fill="#2C2C2C"/>
<path d="M38.8603 33.8634C38.8603 33.8547 38.8603 33.846 38.8603 33.8373C38.8603 33.7677 38.8516 33.6982 38.8516 33.6199C38.7994 31.8978 38.6863 27.8709 34.9116 26.5836C34.8855 26.5749 34.8507 26.5662 34.8246 26.5575C30.9021 25.5573 27.6405 23.296 27.6058 23.2699C27.0752 22.8959 26.3446 23.0264 25.9706 23.5569C25.5966 24.0875 25.7271 24.8181 26.2576 25.192C26.4055 25.2964 29.8671 27.7056 34.1984 28.8189C36.2249 29.5408 36.4511 31.7064 36.5119 33.6895C36.5119 33.7677 36.5119 33.8373 36.5206 33.9069C36.5293 34.6897 36.4772 35.8986 36.338 36.5944C34.929 37.3946 29.4061 40.1604 21.0044 40.1604C12.6374 40.1604 7.07976 37.3859 5.66208 36.5857C5.52292 35.8899 5.46204 34.681 5.47943 33.8982C5.47943 33.8286 5.48813 33.759 5.48813 33.6808C5.54901 31.6977 5.77515 29.5321 7.80165 28.8102C12.133 27.6969 15.5946 25.279 15.7424 25.1833C16.273 24.8094 16.4034 24.0788 16.0294 23.5482C15.6555 23.0177 14.9249 22.8872 14.3943 23.2612C14.3595 23.2873 11.1154 25.5486 7.17544 26.5488C7.14065 26.5575 7.11455 26.5662 7.08846 26.5749C3.31377 27.8709 3.2007 31.8978 3.14852 33.6112C3.14852 33.6895 3.14852 33.759 3.13982 33.8286C3.13982 33.8373 3.13982 33.846 3.13982 33.8547C3.13112 34.307 3.12242 36.6292 3.58339 37.7947C3.67036 38.0208 3.82692 38.2121 4.03566 38.3426C4.29658 38.5165 10.55 42.5 21.0131 42.5C31.4761 42.5 37.7296 38.5078 37.9905 38.3426C38.1906 38.2121 38.3558 38.0208 38.4428 37.7947C38.8777 36.6379 38.869 34.3157 38.8603 33.8634Z" fill="#2C2C2C"/>
</g>
<defs>
<clipPath id="clip0_6180_6172">
<rect width="42" height="42" fill="white" transform="translate(0 0.5)"/>
</clipPath>
</defs>
</svg>
