<svg viewBox="0 0 42 42" xmlns="http://www.w3.org/2000/svg">
<path d="M20.8478 22.6308C20.8913 22.6308 20.9348 22.6308 20.9869 22.6308C21.0043 22.6308 21.0217 22.6308 21.0391 22.6308C21.0652 22.6308 21.1 22.6308 21.1261 22.6308C23.6745 22.5873 25.7358 21.6914 27.2578 19.9781C30.6063 16.2034 30.0497 9.73245 29.9888 9.11493C29.7714 4.47919 27.5796 2.26134 25.7705 1.22634C24.4224 0.452268 22.8482 0.0347898 21.0913 0H21.0304C21.0217 0 21.0043 0 20.9956 0H20.9435C19.978 0 18.082 0.156554 16.2642 1.19155C14.4378 2.22655 12.2112 4.4444 11.9938 9.11493C11.9329 9.73245 11.3763 16.2034 14.7248 19.9781C16.2381 21.6914 18.2994 22.5873 20.8478 22.6308ZM14.316 9.33237C14.316 9.30628 14.3247 9.28018 14.3247 9.26279C14.6117 3.02671 19.0387 2.35701 20.9348 2.35701H20.9696C20.987 2.35701 21.013 2.35701 21.0391 2.35701C23.3874 2.40919 27.3796 3.36591 27.6492 9.26279C27.6492 9.28888 27.6492 9.31497 27.6579 9.33237C27.6666 9.39325 28.2754 15.3075 25.5096 18.4212C24.4137 19.6562 22.9526 20.2651 21.0304 20.2825C21.013 20.2825 21.0043 20.2825 20.9869 20.2825C20.9696 20.2825 20.9609 20.2825 20.9435 20.2825C19.03 20.2651 17.5602 19.6562 16.473 18.4212C13.7159 15.3249 14.3073 9.38455 14.316 9.33237Z" />
<path d="M38.8603 33.3634C38.8603 33.3547 38.8603 33.346 38.8603 33.3373C38.8603 33.2677 38.8516 33.1982 38.8516 33.1199C38.7994 31.3978 38.6863 27.3709 34.9116 26.0836C34.8855 26.0749 34.8507 26.0662 34.8246 26.0575C30.9021 25.0573 27.6405 22.796 27.6058 22.7699C27.0752 22.3959 26.3446 22.5264 25.9706 23.0569C25.5966 23.5875 25.7271 24.3181 26.2576 24.692C26.4055 24.7964 29.8671 27.2056 34.1984 28.3189C36.2249 29.0408 36.4511 31.2064 36.5119 33.1895C36.5119 33.2677 36.5119 33.3373 36.5206 33.4069C36.5293 34.1897 36.4772 35.3986 36.338 36.0944C34.929 36.8946 29.4061 39.6604 21.0044 39.6604C12.6374 39.6604 7.07976 36.8859 5.66208 36.0857C5.52292 35.3899 5.46204 34.181 5.47943 33.3982C5.47943 33.3286 5.48813 33.259 5.48813 33.1808C5.54901 31.1977 5.77515 29.0321 7.80165 28.3102C12.133 27.1969 15.5946 24.779 15.7424 24.6833C16.273 24.3094 16.4034 23.5788 16.0294 23.0482C15.6555 22.5177 14.9249 22.3872 14.3943 22.7612C14.3595 22.7873 11.1154 25.0486 7.17544 26.0488C7.14065 26.0575 7.11455 26.0662 7.08846 26.0749C3.31377 27.3709 3.2007 31.3978 3.14852 33.1112C3.14852 33.1895 3.14852 33.259 3.13982 33.3286C3.13982 33.3373 3.13982 33.346 3.13982 33.3547C3.13112 33.807 3.12242 36.1292 3.58339 37.2947C3.67036 37.5208 3.82692 37.7121 4.03566 37.8426C4.29658 38.0165 10.55 42 21.0131 42C31.4761 42 37.7296 38.0078 37.9905 37.8426C38.1906 37.7121 38.3558 37.5208 38.4428 37.2947C38.8777 36.1379 38.869 33.8157 38.8603 33.3634Z" />
</svg>
