<svg viewBox="0 0 42 42" xmlns="http://www.w3.org/2000/svg">
<path d="M25.1836 35.6523L21.6689 33.7921C21.3606 33.6289 20.9924 33.6289 20.684 33.7921L9.53452 39.6934L11.6639 27.1944C11.7228 26.8487 11.6091 26.4961 11.3596 26.2512L2.33939 17.3993L14.805 15.5758C15.1498 15.5253 15.4477 15.3074 15.6017 14.9929L17.2967 11.5353C17.442 11.239 17.3212 10.8802 17.0268 10.7339C16.7323 10.5876 16.376 10.7094 16.2308 11.0057L14.5661 14.4014L1.90693 16.2533C1.50537 16.312 1.17798 16.5898 1.05258 16.9784C0.92719 17.3669 1.02981 17.7854 1.3204 18.0705L10.4807 27.06L8.31826 39.7535C8.24969 40.156 8.41094 40.5553 8.73929 40.7954C8.92482 40.9312 9.14179 41 9.36026 41C9.52845 41 9.69751 40.9591 9.85372 40.8765L21.1765 34.8835L24.6304 36.7116C24.921 36.8652 25.2803 36.7529 25.4331 36.4604C25.5858 36.1679 25.4741 35.8062 25.1836 35.6523Z" />
<path d="M40.9464 16.818C40.8187 16.4268 40.4851 16.1472 40.0761 16.0881L27.1793 14.2238L21.4117 2.59788C21.2287 2.22909 20.8583 2 20.4449 2C20.0314 2 19.661 2.22909 19.478 2.59788L17.0627 7.46671C16.9147 7.76505 17.0378 8.12626 17.3377 8.27347C17.6375 8.42052 18.0006 8.29807 18.1486 7.99989L20.4449 3.37117L26.1242 14.8191C26.2812 15.1358 26.5847 15.3551 26.936 15.406L39.6355 17.2418L30.446 26.1528C30.1918 26.3993 30.0759 26.7542 30.136 27.1021L32.3053 39.6847L27.9135 37.3878C27.6176 37.2332 27.2514 37.3463 27.0958 37.6407C26.9402 37.9352 27.0541 38.2994 27.35 38.4542L31.9801 40.8757C32.1393 40.9589 32.3115 41 32.4829 41C32.7054 41 32.9266 40.9306 33.1155 40.7941C33.4499 40.5524 33.6143 40.1504 33.5444 39.7451L31.3414 26.9669L40.6736 17.9174C40.9696 17.6304 41.0742 17.2091 40.9464 16.818Z" />
<path d="M25.1836 35.6523L21.6689 33.7921C21.3606 33.6289 20.9924 33.6289 20.684 33.7921L9.53452 39.6934L11.6639 27.1944C11.7228 26.8487 11.6091 26.4961 11.3596 26.2512L2.33939 17.3993L14.805 15.5758C15.1498 15.5253 15.4477 15.3074 15.6017 14.9929L17.2967 11.5353C17.442 11.239 17.3212 10.8802 17.0268 10.7339C16.7323 10.5876 16.376 10.7094 16.2308 11.0057L14.5661 14.4014L1.90693 16.2533C1.50537 16.312 1.17798 16.5898 1.05258 16.9784C0.92719 17.3669 1.02981 17.7854 1.3204 18.0705L10.4807 27.06L8.31826 39.7535C8.24969 40.156 8.41094 40.5553 8.73929 40.7954C8.92482 40.9312 9.14179 41 9.36026 41C9.52845 41 9.69751 40.9591 9.85372 40.8765L21.1765 34.8835L24.6304 36.7116C24.921 36.8652 25.2803 36.7529 25.4331 36.4604C25.5858 36.1679 25.4741 35.8062 25.1836 35.6523Z" />
<path d="M40.9464 16.818C40.8187 16.4268 40.4851 16.1472 40.0761 16.0881L27.1793 14.2238L21.4117 2.59788C21.2287 2.22909 20.8583 2 20.4449 2C20.0314 2 19.661 2.22909 19.478 2.59788L17.0627 7.46671C16.9147 7.76505 17.0378 8.12626 17.3377 8.27347C17.6375 8.42052 18.0006 8.29807 18.1486 7.99989L20.4449 3.37117L26.1242 14.8191C26.2812 15.1358 26.5847 15.3551 26.936 15.406L39.6355 17.2418L30.446 26.1528C30.1918 26.3993 30.0759 26.7542 30.136 27.1021L32.3053 39.6847L27.9135 37.3878C27.6176 37.2332 27.2514 37.3463 27.0958 37.6407C26.9402 37.9352 27.0541 38.2994 27.35 38.4542L31.9801 40.8757C32.1393 40.9589 32.3115 41 32.4829 41C32.7054 41 32.9266 40.9306 33.1155 40.7941C33.4499 40.5524 33.6143 40.1504 33.5444 39.7451L31.3414 26.9669L40.6736 17.9174C40.9696 17.6304 41.0742 17.2091 40.9464 16.818Z" />
</svg>
