<svg viewBox="0 0 42 42" xmlns="http://www.w3.org/2000/svg">
<path d="M10.6641 15.2578C10.2113 15.2578 9.84375 15.6253 9.84375 16.0781C9.84375 16.5309 10.2113 16.8984 10.6641 16.8984C11.1169 16.8984 11.4844 16.5309 11.4844 16.0781C11.4844 15.6253 11.1169 15.2578 10.6641 15.2578Z" />
<path d="M12.774 32.4266L12.7088 32.5025L12.774 32.4266C12.3655 32.0757 12.1185 31.4216 12.1185 30.6161V25.3105H15.283C19.0612 25.6611 23.0295 27.2269 27.0846 29.9728C27.3219 31.1522 28.3062 32.0474 29.4907 32.0474C30.8541 32.0474 31.9519 30.8628 31.9519 29.4211V21.9405C33.7058 21.8841 35.1 20.3482 35.1 18.4737C35.1 16.6031 33.7027 15.0635 31.9519 15.0069V7.52632C31.9519 6.08178 30.8567 4.9 29.4907 4.9C28.1273 4.9 27.0296 6.08455 27.0296 7.52632V8.18554C23.3029 10.6112 19.0245 11.2959 15.2857 11.6368H7.2963C3.76928 11.6368 0.9 14.6875 0.9 18.4737C0.9 21.5719 2.87865 24.2753 5.62222 25.0713V33.6316C5.62222 35.5377 7.07299 37.1 8.87037 37.1H11.2315C12.3925 37.1 13.2286 36.3122 13.5482 35.3418C13.8678 34.3715 13.6773 33.2027 12.774 32.4266ZM7.2963 13.5211H14.437V23.4263H7.2963C7.07813 23.4263 6.85831 23.4097 6.6423 23.3768L6.64218 23.3767C4.38544 23.0356 2.67407 20.9317 2.67407 18.4737C2.67407 15.7351 4.7433 13.5211 7.2963 13.5211ZM11.2315 35.2158H8.87037C8.06392 35.2158 7.3963 34.5115 7.3963 33.6316V25.3105H10.3444V30.616C10.3444 31.9727 10.818 33.1699 11.6581 33.8916C11.9118 34.1096 11.9693 34.4403 11.8776 34.7209C11.786 35.0012 11.5514 35.2158 11.2315 35.2158ZM27.0296 10.3579V27.7227C23.3545 25.3961 19.7249 23.9848 16.2111 23.5208V13.439C19.653 13.084 23.4946 12.3809 27.0296 10.3579ZM30.1778 29.4211C30.1778 29.8366 29.8632 30.1632 29.4907 30.1632C29.1183 30.1632 28.8037 29.8366 28.8037 29.4211V7.52632C28.8037 7.11073 29.1183 6.78421 29.4907 6.78421C29.8637 6.78421 30.1778 7.11015 30.1778 7.52632V29.4211ZM31.9519 16.8931C32.7128 16.9484 33.3259 17.6304 33.3259 18.4737C33.3259 19.3185 32.714 19.9991 31.9519 20.0543V16.8931Z" />
<path d="M41.1797 16.8984H37.8984C37.4455 16.8984 37.0781 17.2658 37.0781 17.7188C37.0781 18.1717 37.4455 18.5391 37.8984 18.5391H41.1797C41.6327 18.5391 42 18.1717 42 17.7188C42 17.2658 41.6327 16.8984 41.1797 16.8984Z" />
<path d="M39.253 7.46486C39.0266 7.07267 38.5248 6.93806 38.1325 7.16463L35.2909 8.80525C34.8986 9.03182 34.7641 9.53345 34.9907 9.9258C35.218 10.3194 35.72 10.452 36.1112 10.226L38.9528 8.58541C39.3452 8.35884 39.4795 7.85722 39.253 7.46486Z" />
<path d="M38.9528 26.8521L36.1112 25.2114C35.7188 24.9849 35.2173 25.1194 34.9907 25.5117C34.7641 25.904 34.8986 26.4056 35.2909 26.6322L38.1325 28.2728C38.2617 28.3474 38.4027 28.3829 38.5418 28.3829C38.8253 28.3829 39.101 28.2358 39.253 27.9726C39.4796 27.5802 39.3451 27.0786 38.9528 26.8521Z" />
<path d="M7.38281 15.2578H6.5625C4.75322 15.2578 3.28125 16.7298 3.28125 18.5391C3.28125 18.992 3.64859 19.3594 4.10156 19.3594C4.55454 19.3594 4.92188 18.992 4.92188 18.5391C4.92188 17.6344 5.65786 16.8984 6.5625 16.8984H7.38281C7.83579 16.8984 8.20312 16.5311 8.20312 16.0781C8.20312 15.6251 7.83579 15.2578 7.38281 15.2578Z" />
</svg>
