<svg viewBox="0 0 42 42" xmlns="http://www.w3.org/2000/svg">
<path d="M37.6294 25.8521C37.6326 25.8485 37.6358 25.8453 37.639 25.8418C37.9056 25.571 37.9854 25.4361 38.3648 24.8933C43.2322 19.9586 43.2117 11.9846 38.303 7.07583C36.7444 5.5198 36.8107 5.57748 36.729 5.50987C32.2195 1.78577 25.9018 1.68099 21.0472 4.56042C15.5296 1.2814 8.39964 2.32122 4.04236 7.18286L3.04901 8.29093C-1.18201 13.0119 -0.986547 20.2201 3.49282 24.7049C4.03628 25.2605 8.02954 29.3435 8.03082 29.3448C8.69925 30.0129 9.56186 30.3702 10.4383 30.4183C10.4863 31.295 10.8439 32.1573 11.5117 32.8254C12.1801 33.4935 13.0427 33.8511 13.9191 33.8988C13.9672 34.7755 14.3245 35.6382 14.9926 36.3063C16.0491 37.3627 17.5586 37.6281 18.8349 37.1778C19.0125 37.6816 19.3021 38.1542 19.7043 38.5564C21.1437 39.9958 23.4861 39.9961 24.9254 38.5564L27.1759 36.3063C27.8433 35.6385 28.2009 34.7768 28.249 33.9008C29.159 33.852 30.0076 33.4746 30.6568 32.8254C31.306 32.1762 31.6831 31.3277 31.7321 30.4179C32.6079 30.3696 33.4699 30.0123 34.1376 29.3445C34.8058 28.6764 35.1637 27.8141 35.2114 26.9377C36.0878 26.8896 36.9504 26.5317 37.6182 25.8636C37.6221 25.8601 37.6256 25.8559 37.6294 25.8521ZM35.1182 7.3716L36.5627 8.81612C39.9263 12.1797 40.4393 17.3304 38.103 21.24C37.7272 20.6645 37.9986 21.0619 30.8968 13.921C32.1349 13.7213 33.2773 13.141 34.1796 12.2387C34.6603 11.7584 34.6603 10.9791 34.1796 10.4984C33.699 10.0178 32.9197 10.0178 32.439 10.4984C31.0826 11.8548 28.8546 11.8763 27.4723 10.5465L27.1208 10.2084C26.7042 9.80787 26.0656 9.75083 25.5849 10.0713L19.2762 14.2773C17.7346 15.3046 15.7616 15.3254 14.2168 14.4244C19.529 9.02536 19.9013 8.33707 21.4539 7.23028C21.4622 7.22772 28.6537 2.09275 35.1182 7.3716ZM9.77111 25.8639L13.2523 22.3827C13.732 21.903 14.5129 21.903 14.9926 22.3827C15.4726 22.8627 15.4726 23.6433 14.9929 24.123C14.9929 24.123 14.9929 24.1233 14.9926 24.1233L11.5117 27.6042C11.5114 27.6045 11.5111 27.6048 11.5107 27.6052C11.032 28.0829 10.2546 28.0839 9.77463 27.6074L9.76566 27.5981C9.29173 27.1178 9.29334 26.3417 9.77111 25.8639ZM13.252 29.3448L16.7332 25.8636C17.2132 25.3839 17.9938 25.3839 18.4735 25.8636C18.9545 26.3449 18.9545 27.1232 18.4735 27.6042L14.9926 31.0851C14.5129 31.5648 13.732 31.5648 13.2523 31.0851C12.7723 30.6054 12.7723 29.8248 13.252 29.3448ZM16.7332 34.566C16.2535 34.086 16.2532 33.3054 16.7332 32.8254L20.2141 29.3445C20.6938 28.8648 21.4747 28.8648 21.9544 29.3445C22.4353 29.8255 22.4357 30.6038 21.9544 31.0851C21.5391 31.5007 18.8792 34.1606 18.4735 34.566C17.9925 35.047 17.2142 35.047 16.7332 34.566ZM25.4353 34.566L23.1852 36.8161C22.7052 37.2958 21.9246 37.2958 21.4446 36.8161C20.9649 36.3361 20.9649 35.5555 21.4446 35.0755L23.695 32.8254C24.1747 32.3457 24.9552 32.3454 25.4353 32.8254C25.9153 33.3054 25.9153 34.086 25.4353 34.566ZM34.1373 24.1233L27.1755 17.1615C26.6952 16.6809 25.9159 16.6809 25.4353 17.1615C25.1949 17.4019 25.0748 17.7168 25.0748 18.0318C25.0748 18.3465 25.1949 18.6615 25.4353 18.9018L32.397 25.8636C32.8771 26.3436 32.8767 27.1242 32.397 27.6039C31.9173 28.0839 31.1364 28.0839 30.6564 27.6039L23.6947 20.6424C23.2143 20.1618 22.435 20.1618 21.9544 20.6424C21.4737 21.1228 21.4737 21.9021 21.9544 22.3827L28.9162 29.3445C29.3971 29.8255 29.3971 30.6038 28.9162 31.0851C28.4361 31.5648 27.6556 31.5648 27.1755 31.0851C26.5081 30.4173 25.6461 30.06 24.7704 30.0116C24.7213 29.1019 24.3439 28.2534 23.6947 27.6042C23.0272 26.9364 22.1652 26.5791 21.2895 26.5307C21.2404 25.621 20.863 24.7725 20.2138 24.1233C19.5457 23.4552 18.6831 23.0976 17.8067 23.0499C17.7586 22.1731 17.401 21.3105 16.7329 20.6424C15.2935 19.203 12.9511 19.203 11.5117 20.6424L8.03082 24.1233C7.73891 24.4152 7.50755 24.7443 7.33388 25.0952C4.75021 22.4747 5.33724 23.07 5.24752 22.979C5.24432 22.9758 5.24111 22.9726 5.23791 22.9694C1.67787 19.4091 1.52118 13.6832 4.88158 9.9338L5.87493 8.82541C9.17958 5.13848 14.4889 4.13424 18.8372 6.17093C18.617 6.36607 18.4017 6.56762 18.1925 6.77655C18.188 6.78135 11.4976 13.6951 11.4976 13.6951C11.0304 14.1776 11.0365 14.946 11.5117 15.4209C13.9502 17.8598 17.791 18.2254 20.6412 16.3252L26.145 12.6559C26.2049 12.7049 35.7216 22.226 35.8776 22.3827C36.7412 23.2466 35.8353 24.1509 35.8308 24.1656C35.3486 24.6011 34.6023 24.5879 34.1373 24.1233Z" />
</svg>
