<svg viewBox="0 0 42 42" xmlns="http://www.w3.org/2000/svg">
<path d="M34.6395 28.5109H34.5122V19.6945C34.5122 16.8261 33.6248 14.0858 31.9461 11.7713C31.6912 11.4199 31.2 11.3418 30.8485 11.5965L30.8484 11.5965C30.4971 11.8514 30.4188 12.3428 30.6737 12.6942C32.1566 14.7388 32.9403 17.1589 32.9403 19.6945V28.5109H9.05908V19.6945C9.05908 16.8377 10.0839 14.0736 11.9447 11.9114C13.7863 9.77136 16.3269 8.34864 19.0982 7.90499L19.0982 7.90498C19.4017 7.85636 19.649 7.63538 19.7312 7.33933L19.7312 7.33931C19.8135 7.04318 19.7156 6.72628 19.4806 6.52812C18.9484 6.07937 18.6435 5.4235 18.6435 4.72813C18.6435 3.42905 19.7006 2.37188 20.9997 2.37188C22.2988 2.37188 23.356 3.42905 23.356 4.72813C23.356 5.42342 23.051 6.07937 22.5188 6.52812L22.5188 6.52813C22.2839 6.72629 22.186 7.04318 22.2683 7.33931C22.3505 7.63548 22.5979 7.85647 22.9014 7.90499C25.2843 8.28607 27.4727 9.37165 29.2305 11.045L29.2305 11.0451C29.5449 11.3442 30.0423 11.3321 30.3417 11.0177C30.641 10.7033 30.6287 10.2058 30.3143 9.90647L30.1764 10.0513L30.3143 9.90647C28.6474 8.31966 26.6367 7.19922 24.4403 6.62411C24.7568 6.05044 24.9278 5.40014 24.9278 4.72805C24.9278 2.56196 23.1659 0.8 20.9997 0.8C18.8335 0.8 17.0716 2.56196 17.0716 4.72813C17.0716 5.40063 17.2428 6.05129 17.5597 6.6252C14.9287 7.31763 12.5473 8.80109 10.7532 10.886L10.9048 11.0165L10.7532 10.886C8.64707 13.3335 7.48721 16.4617 7.48721 19.6945V28.5109H7.35986C4.94249 28.5109 2.97627 30.4776 2.97627 32.8953C2.97627 34.0661 3.43257 35.1678 4.2604 35.9956C5.0882 36.8234 6.18954 37.2797 7.35986 37.2797H9.13877C9.57282 37.2797 9.92471 36.9278 9.92471 36.4938C9.92471 36.0597 9.57282 35.7078 9.13877 35.7078H7.35986C6.60872 35.7078 5.90333 35.4155 5.37182 34.8841C4.84036 34.3527 4.54814 33.647 4.54814 32.8953C4.54814 31.3446 5.80967 30.0828 7.35986 30.0828H34.6395C35.3907 30.0828 36.0961 30.3751 36.6276 30.9065C37.159 31.438 37.4513 32.1436 37.4513 32.8953C37.4513 34.446 36.1897 35.7078 34.6395 35.7078H11.4669C11.0328 35.7078 10.681 36.0597 10.681 36.4938C10.681 36.9278 11.0328 37.2797 11.4669 37.2797H15.1711C15.5973 38.3222 16.3064 39.2491 17.21 39.9316C18.3087 40.7612 19.6198 41.2 21 41.2C22.3798 41.2 23.6908 40.7612 24.7893 39.9315L24.6688 39.772L24.7893 39.9315C25.693 39.249 26.402 38.3221 26.8282 37.2797H34.6395C37.0569 37.2797 39.0231 35.313 39.0231 32.8953C39.0231 31.7245 38.5668 30.6228 37.739 29.7951C36.9112 28.9673 35.8099 28.5109 34.6395 28.5109ZM21 39.6281C19.307 39.6281 17.7527 38.7016 16.9191 37.2797H25.0801C24.2466 38.7016 22.6926 39.6281 21 39.6281Z" />
</svg>
