<svg width="40" height="41" viewBox="0 0 40 41" xmlns="http://www.w3.org/2000/svg">
<path d="M38.1525 18.696C37.0304 18.1101 35.8528 17.6346 34.6524 17.2828C34.3418 17.1921 34.0163 17.3698 33.9253 17.6803C33.8342 17.9909 34.0122 18.3164 34.3228 18.4074C35.4498 18.7378 36.5558 19.1843 37.6102 19.7349C37.7268 19.7957 37.8357 19.8667 37.938 19.9446C37.2982 19.951 36.6691 19.9779 36.1813 20.0723C35.0908 20.2833 34.8619 20.8378 34.8619 21.2658C34.8619 22.4699 36.4835 23.5263 38.3322 23.5263C38.4995 23.5263 38.6647 23.5194 38.8282 23.5085V24.0577H35.796C35.089 23.0299 33.9053 22.3544 32.5664 22.3544C31.2275 22.3544 30.0438 23.0299 29.337 24.0577H12.5145C11.8075 23.0299 10.6238 22.3544 9.28494 22.3544C7.94603 22.3544 6.76236 23.0299 6.05549 24.0577H1.17189V22.6616H1.96095C2.28455 22.6616 2.54689 22.3993 2.54689 22.0756V21.6335H3.89158C4.68635 21.6335 5.33299 20.9869 5.33299 20.1921V19.6878C5.33299 19.3902 5.24267 19.1042 5.07189 18.8605L3.87892 17.1585H5.29611C5.49635 17.1585 5.68283 17.0562 5.79041 16.8873C6.5215 15.7391 7.61689 14.6873 9.04603 13.7611C9.94002 13.1817 10.9066 12.7464 11.9196 12.4574C11.7413 12.5598 11.5655 12.6661 11.3933 12.7778C10.2745 13.503 9.32955 14.3124 8.58486 15.1833C8.27556 15.5451 8.20228 16.0396 8.39353 16.474C8.58345 16.9053 8.99439 17.183 9.46611 17.1989C9.46611 17.1989 28.3151 17.8357 28.3207 17.8358C28.3263 17.8358 28.332 17.8353 28.3377 17.8352C28.3537 17.8348 28.3696 17.8342 28.3853 17.8325L28.3872 17.8324C29.4853 17.7122 30.6182 17.7242 31.7546 17.868C32.076 17.909 32.3688 17.6813 32.4095 17.3603C32.4501 17.0392 32.2228 16.746 31.9017 16.7054C30.7669 16.5617 29.6338 16.54 28.5293 16.6406C27.6049 15.7778 26.7006 14.9456 25.8387 14.1642C23.7732 12.2928 21.1048 11.1802 18.3251 11.0313L15.5976 10.8852C13.0181 10.7475 10.532 11.4018 8.40861 12.7778C6.94814 13.7242 5.79666 14.8026 4.98142 15.9867C3.03267 15.9952 2.85931 15.9687 2.65345 16.0064C1.93056 16.1185 1.37494 16.7435 1.37494 17.4977V21.0408C1.37494 21.0431 1.37463 21.0453 1.37463 21.0476C1.37463 21.0499 1.37494 21.0521 1.37494 21.0544V21.4898H0.821814C0.368611 21.4898 -6.10352e-05 21.8581 -6.10352e-05 22.3109V25.8961C-6.10352e-05 26.2866 0.27783 26.6252 0.658923 26.701L5.64064 27.7074C6.21455 29.1595 7.63119 30.1899 9.28486 30.1899C10.8381 30.1899 12.183 29.2814 12.8163 27.968H14.9774C15.301 27.968 15.5633 27.7057 15.5633 27.3821C15.5633 27.0584 15.301 26.7961 14.9774 26.7961H13.1666C13.1896 26.6246 13.2026 26.45 13.2026 26.2723C13.2026 25.9113 13.1525 25.5619 13.0606 25.2297H28.7906C28.6988 25.5619 28.6487 25.9113 28.6487 26.2723C28.6487 26.45 28.6617 26.6246 28.6847 26.7961H17.7117C17.3881 26.7961 17.1258 27.0584 17.1258 27.3821C17.1258 27.7057 17.3881 27.968 17.7117 27.968H29.035C29.6683 29.2815 31.0132 30.1899 32.5663 30.1899C34.1195 30.1899 35.4645 29.2814 36.0978 27.968H37.8829C39.0503 27.968 40.0001 27.0182 40.0001 25.8508V21.7406C40 20.4574 39.292 19.291 38.1525 18.696ZM9.46603 16.0015C9.45275 15.9714 9.46767 15.9541 9.47556 15.9447C11.1212 14.0201 13.6919 12.456 16.6493 12.1149L17.8715 12.1803C18.0663 12.9018 18.3295 14.6389 17.8682 16.3101L9.50572 16.0275C9.49228 16.0271 9.47705 16.0266 9.46603 16.0015ZM26.7759 16.6111L19.0652 16.3506C19.4184 14.8406 19.3033 13.2825 19.0967 12.2789C21.304 12.5687 23.3931 13.5295 25.0518 15.0324C25.6105 15.5389 26.1873 16.0671 26.7759 16.6111ZM4.16111 19.6877V20.1921C4.16111 20.3406 4.04025 20.4615 3.89158 20.4615H2.54689V17.4975C2.54689 17.4444 2.56025 17.3948 2.58205 17.3499L4.11228 19.5331C4.14416 19.5785 4.16111 19.6321 4.16111 19.6877ZM1.17189 25.6089V25.2296H5.50924C5.39799 25.632 5.35244 26.0399 5.37197 26.4574L1.17189 25.6089ZM9.28494 29.0178C7.77095 29.0178 6.53916 27.786 6.53916 26.2721C6.53916 24.7581 7.77095 23.5263 9.28494 23.5263C10.799 23.5263 12.0308 24.7581 12.0308 26.2721C12.0308 27.786 10.799 29.0178 9.28494 29.0178ZM38.3321 22.3543C37.0078 22.3543 36.1395 21.6756 36.0428 21.3267C36.2853 21.1859 37.0543 21.1146 38.3321 21.1146C38.4706 21.1146 38.6082 21.1196 38.7442 21.1285C38.7992 21.3246 38.8281 21.5301 38.8281 21.7404V22.3347C38.6658 22.3477 38.5001 22.3543 38.3321 22.3543ZM32.5663 29.0178C31.0524 29.0178 29.8206 27.786 29.8206 26.2721C29.8206 24.7581 31.0524 23.5263 32.5663 23.5263C34.0804 23.5263 35.3122 24.7581 35.3122 26.2721C35.3122 27.786 34.0804 29.0178 32.5663 29.0178ZM37.8828 26.7959H36.448C36.471 26.6244 36.484 26.4498 36.484 26.2721C36.484 25.911 36.4339 25.5617 36.342 25.2295H38.8281V25.8506C38.8281 26.3718 38.4041 26.7959 37.8828 26.7959Z" />
<path d="M9.28397 24.3555C8.22756 24.3555 7.3681 25.2149 7.3681 26.2713C7.3681 27.3277 8.22756 28.1871 9.28397 28.1871C10.3404 28.1871 11.1998 27.3277 11.1998 26.2713C11.1998 25.2149 10.3404 24.3555 9.28397 24.3555ZM9.28397 27.0153C8.87373 27.0153 8.53998 26.6816 8.53998 26.2713C8.53998 25.8611 8.87373 25.5274 9.28397 25.5274C9.6942 25.5274 10.028 25.8611 10.028 26.2713C10.028 26.6816 9.6942 27.0153 9.28397 27.0153Z"/>
<path d="M32.5662 24.3555C31.5098 24.3555 30.6503 25.2149 30.6503 26.2713C30.6503 27.3277 31.5098 28.1871 32.5662 28.1871C33.6226 28.1871 34.482 27.3277 34.482 26.2713C34.482 25.2149 33.6226 24.3555 32.5662 24.3555ZM32.5662 27.0153C32.156 27.0153 31.8222 26.6816 31.8222 26.2713C31.8222 25.8611 32.156 25.5274 32.5662 25.5274C32.9764 25.5274 33.3102 25.8611 33.3102 26.2713C33.3102 26.6816 32.9764 27.0153 32.5662 27.0153Z"/>
<path d="M20.0001 18.3945C19.6765 18.3945 19.4141 18.6568 19.4141 18.9805C19.4141 19.3041 19.6765 19.5664 20.0001 19.5664H20.4063C20.7299 19.5664 20.9922 19.3041 20.9922 18.9805C20.9922 18.6568 20.7299 18.3945 20.4063 18.3945H20.0001Z" />
<path d="M11.2427 18.3945C10.9191 18.3945 10.6567 18.6568 10.6567 18.9805C10.6567 19.3041 10.9191 19.5664 11.2427 19.5664H11.6489C11.9725 19.5664 12.2349 19.3041 12.2349 18.9805C12.2349 18.6568 11.9725 18.3945 11.6489 18.3945H11.2427Z" />
</svg>
