<svg viewBox="0 0 45 42" xmlns="http://www.w3.org/2000/svg">
<path d="M39.1136 22.1316C38.6227 22.1316 38.2955 22.4579 38.2955 22.9473V33.5526C38.2955 34.0421 37.9682 34.3684 37.4773 34.3684H8.0227C7.53178 34.3684 7.20454 34.042 7.20454 33.5526V22.9473C7.20454 22.4578 6.87724 22.1316 6.38639 22.1316C5.89553 22.1316 5.56823 22.4579 5.56823 22.9473V33.5526C5.56823 34.9395 6.63185 36 8.02277 36H37.4773C38.8682 36 39.9318 34.9395 39.9318 33.5526V22.9473C39.9318 22.4578 39.6045 22.1316 39.1136 22.1316Z" />
<path d="M38.2955 10.7104H7.20454C5.81362 10.7104 4.75 11.7709 4.75 13.1578V18.3789C4.75 19.5209 5.56816 20.4999 6.63184 20.7446L19.4773 23.5999V26.2104C19.4773 26.6999 19.8046 27.0262 20.2955 27.0262H25.2045C25.6955 27.0262 26.0227 26.6998 26.0227 26.2104V23.5999L38.8682 20.7446C39.9318 20.4999 40.75 19.5209 40.75 18.3788V13.1577C40.75 11.7709 39.6864 10.7104 38.2955 10.7104ZM24.3864 25.3946H21.1137V22.1315H24.3864V25.3946ZM39.1136 18.3788C39.1136 18.7867 38.8682 19.113 38.4591 19.1946L26.0227 21.9683V21.3157C26.0227 20.8262 25.6954 20.4999 25.2045 20.4999H20.2955C19.8045 20.4999 19.4773 20.8263 19.4773 21.3157V21.9683L7.04092 19.1946C6.63184 19.113 6.38638 18.7868 6.38638 18.3789V13.1578C6.38638 12.6683 6.71369 12.342 7.20454 12.342H38.2955C38.7864 12.342 39.1136 12.6684 39.1136 13.1578V18.3788Z" />
<path d="M26.8409 5H18.6591C17.2682 5 16.2046 6.06051 16.2046 7.44737V8.26313C16.2046 8.75262 16.5319 9.0789 17.0227 9.0789C17.5136 9.0789 17.8409 8.75255 17.8409 8.26313V7.44737C17.8409 6.95788 18.1682 6.6316 18.659 6.6316H26.8409C27.3318 6.6316 27.659 6.95795 27.659 7.44737V8.26313C27.659 8.75262 27.9863 9.0789 28.4772 9.0789C28.9681 9.0789 29.2953 8.75255 29.2953 8.26313V7.44737C29.2955 6.06051 28.2319 5 26.8409 5Z" />
</svg>
