<svg viewBox="0 0 45 42" xmlns="http://www.w3.org/2000/svg">
<path d="M40.2123 7.25247C34.4336 5.66911 28.621 3.20366 23.4027 0.122739C23.1256 -0.040913 22.7816 -0.040913 22.5045 0.122739C17.1357 3.29217 11.6372 5.62423 5.69445 7.25247C5.31054 7.35755 5.04443 7.70651 5.04443 8.10461V17.1318C5.04443 26.4278 9.33293 32.5811 12.9307 36.1061C16.8038 39.9012 21.3155 42 22.9536 42C24.5915 42 29.1032 39.9012 32.9764 36.1061C36.5741 32.5812 40.8623 26.4279 40.8623 17.1318V8.10452C40.8623 7.70651 40.5962 7.35755 40.2123 7.25247ZM39.0954 17.1317C39.0954 25.8141 35.0954 31.5559 31.7397 34.8439C27.9309 38.5759 23.8587 40.2329 22.9536 40.2329C22.0486 40.2329 17.9761 38.5759 14.1672 34.8439C10.8115 31.5558 6.81146 25.8141 6.81146 17.1317V8.77521C12.4944 7.16166 17.7869 4.90983 22.9538 1.90724C27.9916 4.83017 33.5482 7.19398 39.0954 8.77488V17.1317Z" />
<path d="M15.1215 8.67625C14.9427 8.22221 14.4298 7.99917 13.9757 8.17807C12.3974 8.79995 10.7774 9.37236 9.16084 9.87948C8.79243 9.99514 8.54175 10.3364 8.54175 10.7224V14.1342C8.54175 14.6221 8.93738 15.0177 9.42522 15.0177C9.91306 15.0177 10.3087 14.6221 10.3087 14.1342V11.3681C11.7589 10.8989 13.2076 10.3799 14.6234 9.82198C15.0774 9.64323 15.3005 9.13029 15.1215 8.67625Z" />
<path d="M16.7998 8.84527C16.9183 8.84527 17.0387 8.8214 17.1541 8.77103L17.1703 8.76397C17.6173 8.56808 17.8186 8.04776 17.6227 7.60094C17.4267 7.15395 16.9034 6.95175 16.4569 7.14747L16.4426 7.15363C15.9954 7.34894 15.7934 7.86885 15.9888 8.31592C16.1337 8.64782 16.459 8.84527 16.7998 8.84527Z" />
<path d="M33.479 28.4877C33.0707 28.2208 32.5233 28.3356 32.2561 28.744C31.5281 29.8583 30.674 30.9254 29.7171 31.9152C28.9303 32.7292 28.0777 33.4878 27.183 34.1699C26.795 34.4657 26.7204 35.02 27.0161 35.4081C27.1901 35.6361 27.4532 35.756 27.7193 35.756C27.9061 35.756 28.0944 35.697 28.2544 35.575C29.2195 34.8391 30.139 34.021 30.9874 33.1434C32.0219 32.0734 32.9464 30.9184 33.7354 29.7105C34.0024 29.302 33.8874 28.7545 33.479 28.4877Z" />
<path d="M25.1316 35.5558L25.0809 35.5857C24.6587 35.8302 24.5144 36.3706 24.7589 36.7928C24.9227 37.0758 25.2192 37.2338 25.5243 37.2338C25.6744 37.2338 25.8268 37.1955 25.966 37.1147L26.0245 37.0804C26.4456 36.8338 26.587 36.2926 26.3404 35.8715C26.0937 35.4506 25.5524 35.3095 25.1316 35.5558Z" />
</svg>
