<svg viewBox="0 0 45 42" xmlns="http://www.w3.org/2000/svg">
<path d="M26.2987 20.1775C26.2987 21.1351 26.927 21.9485 27.7934 22.2297C28.0908 24.9342 30.3929 27.0456 33.1805 27.0456C35.9681 27.0456 38.2701 24.9343 38.5677 22.2299C39.4352 21.949 40.0644 21.1353 40.0644 20.1775C40.0644 19.148 39.3377 18.2852 38.3693 18.0713L34.2417 9.31914C35.5385 9.1032 36.7336 8.49408 37.6818 7.54801C37.9553 7.27513 37.9558 6.83221 37.6829 6.55877C37.4101 6.28527 36.9671 6.28485 36.6937 6.55765C35.7555 7.49372 34.5078 8.00926 33.1805 8.00926C32.2226 8.00926 28.2924 7.26912 25.7714 6.406C25.7193 5.51729 25.348 4.68908 24.7122 4.05527C24.0293 3.37451 23.1246 3 22.1636 3C22.1606 3 22.1575 3 22.1545 3C20.2286 3.00476 18.6495 4.5147 18.5406 6.40684C16.0194 7.26954 12.09 8.00926 11.1318 8.00926C9.80578 8.00926 8.55885 7.49372 7.62068 6.55765C7.34724 6.28485 6.90432 6.28527 6.63145 6.55877C6.35857 6.83221 6.35906 7.27513 6.63257 7.54801C7.5806 8.49394 8.77499 9.10299 10.0707 9.319L5.94307 18.0714C4.9758 18.2855 4.25 19.1482 4.25 20.1775C4.25 21.1351 4.87829 21.9485 5.74469 22.2297C6.04212 24.9342 8.34417 27.0456 11.1318 27.0456C13.9205 27.0456 16.2234 24.9341 16.521 22.2297C17.3874 21.9486 18.0157 21.1351 18.0157 20.1775C18.0157 19.1482 17.2899 18.2854 16.3225 18.0713L12.1915 9.31536C13.8657 9.09103 16.6877 8.48806 18.7401 7.81522C18.9819 8.49856 19.4235 9.08851 19.9954 9.51402V29.997H13.3605C12.063 29.997 11.0074 31.0519 11.0074 32.3485V33.299H9.54759C8.25009 33.299 7.1944 34.3529 7.1944 35.6484V37.3004C7.1944 37.6867 7.50757 37.9999 7.8939 37.9999H19.0154C19.4017 37.9999 19.7149 37.6867 19.7149 37.3004C19.7149 36.914 19.4017 36.6009 19.0154 36.6009H8.59347V35.6484C8.59347 35.1244 9.0215 34.698 9.54766 34.698H34.7648C35.2909 34.698 35.719 35.1244 35.719 35.6484V36.6009H25.297C24.9106 36.6009 24.5975 36.914 24.5975 37.3004C24.5975 37.6867 24.9106 37.9999 25.297 37.9999H36.4184C36.8048 37.9999 37.1179 37.6867 37.1179 37.3004V35.6484C37.1179 34.3529 36.0623 33.299 34.7648 33.299H33.307V32.3485C33.307 31.0519 32.2514 29.997 30.9539 29.997H24.317V9.51843C24.4609 9.41154 24.5979 9.29326 24.7267 9.16406C25.1133 8.77661 25.4004 8.3169 25.5762 7.81577C27.6281 8.48834 30.448 9.09096 32.1211 9.31522L27.9917 18.0714C27.0244 18.2855 26.2987 19.1482 26.2987 20.1775ZM33.1805 25.6466C31.2023 25.6466 29.5544 24.2142 29.2215 22.335H37.1396C36.8067 24.2142 35.1587 25.6466 33.1805 25.6466ZM37.9016 20.936H28.4595C28.0395 20.936 27.6977 20.5957 27.6977 20.1775C27.6977 19.7592 28.0395 19.4189 28.4595 19.4189H37.8996C37.9005 19.4189 37.9012 19.419 37.9021 19.419C37.9026 19.419 37.903 19.4189 37.9035 19.4189C38.3237 19.42 38.6655 19.7597 38.6655 20.1774C38.6654 20.5958 38.3228 20.936 37.9016 20.936ZM29.5628 18.0199L33.1805 10.3487L36.7983 18.0199H29.5628ZM22.158 4.399H22.1636C22.7516 4.399 23.3058 4.62871 23.7245 5.04611C24.1453 5.4656 24.3779 6.02366 24.3794 6.61732C24.3808 7.20532 24.1524 7.75891 23.7363 8.17609C23.3155 8.59796 22.7543 8.83033 22.1562 8.83033C20.9304 8.83033 19.9331 7.83683 19.9331 6.61564C19.9331 5.39642 20.9311 4.40201 22.158 4.399ZM11.1318 25.6466C9.15363 25.6466 7.50568 24.2142 7.17279 22.335H15.0928C14.7598 24.2142 13.111 25.6466 11.1318 25.6466ZM15.8548 20.936H6.41082C5.99077 20.936 5.649 20.5958 5.649 20.1775C5.649 19.7592 5.99077 19.4189 6.41082 19.4189H15.8529C15.8537 19.4189 15.8545 19.419 15.8553 19.419C15.8558 19.419 15.8562 19.4189 15.8567 19.4189C16.2759 19.42 16.6167 19.7597 16.6167 20.1774C16.6167 20.5958 16.275 20.936 15.8548 20.936ZM7.51408 18.0199L11.132 10.3484L14.7514 18.0199H7.51408ZM31.908 32.3485V33.299H12.4064V32.3485C12.4064 31.8233 12.8344 31.396 13.3605 31.396H30.9539C31.48 31.396 31.908 31.8233 31.908 32.3485ZM22.918 29.997H21.3944V10.1482C21.6402 10.2009 21.8949 10.2293 22.1562 10.2293C22.4155 10.2293 22.6704 10.2016 22.918 10.1491V29.997Z" />
<path d="M22.1563 36.6005C21.77 36.6005 21.4568 36.9137 21.4568 37.3C21.4568 37.6864 21.77 37.9995 22.1563 37.9995H22.1603C22.5466 37.9995 22.8578 37.6864 22.8578 37.3C22.8578 36.9137 22.5426 36.6005 22.1563 36.6005Z" />
</svg>
