<svg viewBox="0 0 44 42" xmlns="http://www.w3.org/2000/svg">
<path d="M39.6171 17.0342L22.5526 4.18579C22.2235 3.93807 21.7765 3.93807 21.4476 4.18579L4.38289 17.0342C3.96608 17.3481 3.87552 17.95 4.18074 18.3786C4.48597 18.8072 5.07132 18.9002 5.48806 18.5865L22 6.15402L38.512 18.5864C38.6785 18.7119 38.872 18.7723 39.0638 18.7723C39.3518 18.7723 39.636 18.636 39.8192 18.3786C40.1245 17.95 40.0339 17.3481 39.6171 17.0342Z" />
<path d="M35.0956 18.8036C34.5791 18.8036 34.1602 19.2343 34.1602 19.7655V35.0761H26.6774V26.7186C26.6774 24.0664 24.5792 21.9088 22.0002 21.9088C19.4213 21.9088 17.3231 24.0666 17.3231 26.7186V35.0762H9.84021V19.7656C9.84021 19.2343 9.42136 18.8037 8.90485 18.8037C8.38833 18.8037 7.96948 19.2343 7.96948 19.7656V36.0381C7.96948 36.5693 8.38833 37 8.90485 37H18.2584C18.7503 37 19.1529 36.6092 19.1901 36.113C19.1924 36.0905 19.1938 36.066 19.1938 36.0381V26.7187C19.1938 25.1273 20.4527 23.8327 22.0002 23.8327C23.5478 23.8327 24.8067 25.1274 24.8067 26.7187V36.0381C24.8067 36.0658 24.8081 36.09 24.8104 36.1122C24.8472 36.6087 25.2499 37 25.7421 37H35.0956C35.6122 37 36.031 36.5693 36.031 36.0381V19.7656C36.0309 19.2343 35.6122 18.8036 35.0956 18.8036Z" />
</svg>
