<svg viewBox="0 0 45 42" xmlns="http://www.w3.org/2000/svg">
<path d="M8.33796 24.0269C8.69385 24.0269 8.9824 23.7377 8.9824 23.3809C8.97344 19.3272 10.808 15.4904 13.9659 12.9584C14.2357 12.7642 14.2974 12.3875 14.1037 12.117C14.0878 12.0948 14.0705 12.0738 14.0518 12.054C13.8254 11.7824 13.4231 11.744 13.1497 11.9679C9.70027 14.7472 7.69377 18.9444 7.6936 23.3809C7.69352 23.7377 7.98207 24.0269 8.33796 24.0269Z" />
<path d="M26.5532 36.0431C23.8042 36.9471 20.839 36.9471 18.0899 36.0431C17.7513 35.9332 17.388 36.1192 17.2783 36.4586C17.2767 36.4637 17.2751 36.4687 17.2736 36.4737C17.1859 36.8166 17.3716 37.1704 17.7032 37.292C19.1878 37.7759 20.739 38.0229 22.3 38.0242C23.8928 38.0258 25.475 37.7639 26.9828 37.249C27.299 37.0853 27.423 36.6955 27.2597 36.3786C27.1265 36.12 26.8372 35.9826 26.5532 36.0431Z" />
<path d="M35.618 23.3812C35.618 23.738 35.9066 24.0272 36.2625 24.0272C36.6183 24.0272 36.9069 23.738 36.9069 23.3812C36.895 18.6227 34.5908 14.1632 30.7205 11.4083C30.42 11.2264 30.031 11.3007 29.8183 11.5806C29.6158 11.8741 29.6891 12.2764 29.9819 12.4794C29.9846 12.4813 29.9874 12.4832 29.9902 12.4851C33.5129 14.9914 35.6095 19.0507 35.618 23.3812Z" />
<path d="M25.737 7.79006V7.01485H24.4482V7.79006C24.4482 8.14684 24.7368 8.4361 25.0927 8.4361C25.4485 8.4361 25.737 8.14692 25.737 7.79006Z" />
<path d="M20.1521 7.79006V7.01485H18.8633V7.79006C18.8633 8.14684 19.1518 8.4361 19.5077 8.4361C19.8635 8.4361 20.1521 8.14692 20.1521 7.79006Z" />
<path d="M23.1591 7.79006V7.01485H21.4407V7.79006C21.4407 8.17767 21.9562 8.47913 22.2999 8.47913C22.6436 8.47913 23.1591 8.17767 23.1591 7.79006Z" />
<path d="M27.0259 5.72272V4.17229C27.0259 4 26.854 4 26.6392 4H17.9611C17.7892 4 17.5745 4 17.5745 4.17229V5.72272H18.3908H27.0259Z" />
<path d="M17.3167 7.91932C17.4885 7.91932 17.5745 7.79014 17.5745 7.57474V7.01485H17.1449V7.57474C17.1236 7.68323 17.1556 7.79534 17.2308 7.87621C17.2737 7.87621 17.2308 7.87621 17.2737 7.91924H17.3167V7.91932Z" />
<path d="M27.4554 7.01485H27.0259V7.66089C26.9991 7.77671 27.071 7.89245 27.1866 7.91932C27.2185 7.92674 27.2518 7.92674 27.2837 7.91932H27.3266C27.3266 7.91932 27.2837 7.87629 27.3266 7.87629C27.4175 7.80408 27.466 7.69065 27.4554 7.57483V7.01485Z" />
<path d="M26.6392 15.1979C26.854 15.1979 27.0259 15.1979 27.0259 15.0256V9.21138C26.814 9.20619 26.607 9.14684 26.4244 9.03909C26.0559 9.49413 25.5053 9.76221 24.9208 9.77128C24.4422 9.76493 23.9829 9.58077 23.632 9.2545C23.2636 9.58028 22.7913 9.76353 22.3002 9.77128C21.8216 9.76493 21.3623 9.58077 21.0114 9.2545C20.643 9.58028 20.1707 9.76353 19.6796 9.77128C19.0845 9.76452 18.5275 9.47732 18.1759 8.99606C18.004 9.12524 18.004 9.16835 17.5745 9.21138V15.0256C17.5745 15.1979 17.7892 15.1979 17.9611 15.1979H19.2929V11.8816C19.2929 11.537 19.4218 11.3217 19.7655 11.3217H24.8778C25.2216 11.3217 25.3074 11.537 25.3074 11.8816V15.1979H26.6392Z" />
<path d="M24.0184 12.6133H20.5815V15.1973H24.0184V12.6133Z" />
<path d="M12.2043 31.7353C12.567 31.7126 12.8494 31.4106 12.8487 31.0463V30.271H11.5598V31.0463C11.5591 31.4106 11.8415 31.7126 12.2043 31.7353Z" />
<path d="M9.41172 31.7353C9.75544 31.7353 10.2709 31.4339 10.2709 31.0463V30.271H8.55249V31.0463C8.55249 31.4339 9.06807 31.7353 9.41172 31.7353Z" />
<path d="M14.1375 28.9789V27.4285C14.1375 27.2562 13.9656 27.2562 13.7509 27.2562H5.07268C4.90082 27.2562 4.68604 27.2562 4.68604 27.4285V28.9789H5.50234H14.1375Z" />
<path d="M12.0323 33.0285C11.5537 33.0222 11.0945 32.838 10.7435 32.5117C10.3751 32.8375 9.90289 33.0208 9.41173 33.0285C8.93315 33.0222 8.47389 32.838 8.12293 32.5117C7.75454 32.8375 7.28229 33.0208 6.79113 33.0285C6.19611 33.0218 5.63908 32.7345 5.28747 32.2533C5.11561 32.3825 5.11561 32.4256 4.68604 32.4686V38.2828C4.68604 38.4551 4.90082 38.4551 5.07268 38.4551H6.40448V35.1388C6.40448 34.7943 6.53334 34.5789 6.87706 34.5789H11.9894C12.3331 34.5789 12.419 34.7943 12.419 35.1388V38.4551H13.7508C13.9656 38.4551 14.1374 38.4551 14.1374 38.2828V32.4686C13.9256 32.4634 13.7185 32.4041 13.536 32.2963C13.1674 32.7514 12.6169 33.0194 12.0323 33.0285Z" />
<path d="M6.61929 31.7353C6.98201 31.7126 7.26439 31.4106 7.26373 31.0463V30.271H5.97485V31.0463C5.9742 31.4106 6.25658 31.7126 6.61929 31.7353Z" />
<path d="M11.1305 35.8705H7.6936V38.4546H11.1305V35.8705Z" />
<path d="M14.5668 30.271H14.1372V30.9171C14.1104 31.0329 14.1823 31.1486 14.298 31.1755C14.3299 31.1829 14.3631 31.1829 14.395 31.1755H14.4379C14.4379 31.1755 14.395 31.1325 14.4379 31.1325C14.5289 31.0603 14.5774 30.9468 14.5668 30.831V30.271Z" />
<path d="M4.68604 30.271H4.25647V30.8309C4.23517 30.9394 4.26716 31.0515 4.3424 31.1324H4.42833C4.60019 31.1324 4.68612 31.0032 4.68612 30.7878V30.271H4.68604Z" />
<path d="M35.1886 31.7353C35.5323 31.7353 36.0478 31.4339 36.0478 31.0463V30.271H34.3293V31.0463C34.3293 31.4339 34.8448 31.7353 35.1886 31.7353Z" />
<path d="M32.3961 31.7353C32.7588 31.7126 33.0412 31.4106 33.0405 31.0463V30.271H31.7517V31.0463C31.7509 31.4106 32.0333 31.7126 32.3961 31.7353Z" />
<path d="M37.8089 33.0285C37.3304 33.0222 36.8711 32.838 36.5201 32.5117C36.1517 32.8375 35.6795 33.0208 35.1883 33.0285C34.7098 33.0222 34.2505 32.838 33.8995 32.5117C33.5312 32.8375 33.0589 33.0208 32.5677 33.0285C31.9727 33.0218 31.4157 32.7345 31.0641 32.2533C30.8922 32.3825 30.8922 32.4256 30.4626 32.4686V38.2828C30.4626 38.4551 30.6774 38.4551 30.8493 38.4551H32.1811V35.1388C32.1811 34.7943 32.3099 34.5789 32.6537 34.5789H37.766C38.1097 34.5789 38.1956 34.7943 38.1956 35.1388V38.4551H39.5274C39.7422 38.4551 39.914 38.4551 39.914 38.2828V32.4686C39.7022 32.4634 39.4952 32.4041 39.3126 32.2963C38.944 32.7514 38.3935 33.0194 37.8089 33.0285Z" />
<path d="M30.0331 30.271V30.8309C30.0118 30.9394 30.0438 31.0515 30.119 31.1324H30.2049C30.3768 31.1324 30.4627 31.0032 30.4627 30.7878V30.271H30.0331Z" />
<path d="M30.4626 27.4285V28.9789H39.9141V27.4285C39.9141 27.2562 39.7423 27.2562 39.5275 27.2562H30.8493C30.6775 27.2562 30.4626 27.2562 30.4626 27.4285Z" />
<path d="M37.981 31.7353C38.3437 31.7126 38.6261 31.4106 38.6255 31.0463V30.271H37.3367V31.0463C37.3359 31.4106 37.6182 31.7126 37.981 31.7353Z" />
<path d="M36.9069 35.8705H33.47V38.4546H36.9069V35.8705Z" />
<path d="M40.3436 30.8309V30.271H39.9141V30.9171C39.8872 31.0329 39.9592 31.1486 40.0748 31.1755C40.1067 31.1829 40.1399 31.1829 40.1718 31.1755H40.2148C40.2148 31.1755 40.1718 31.1325 40.2148 31.1325C40.3057 31.0602 40.3541 30.9468 40.3436 30.8309Z" />
</svg>
