<svg viewBox="0 0 16 17" xmlns="http://www.w3.org/2000/svg">
<path d="M0.823234 16.4717C0.612474 16.4717 0.401715 16.3916 0.241586 16.2302C-0.0798776 15.9088 -0.0798776 15.3876 0.241586 15.0661L14.5949 0.712777C14.9164 0.391314 15.4376 0.391314 15.759 0.712777C16.0805 1.03424 16.0805 1.55541 15.759 1.87708L1.40589 16.2302C1.24455 16.3905 1.03379 16.4717 0.823234 16.4717Z"/>
<path d="M15.1776 16.4717C14.9668 16.4717 14.7563 16.3916 14.5959 16.2302L0.241586 1.87708C-0.0798776 1.55541 -0.0798776 1.03424 0.241586 0.712777C0.563049 0.391314 1.08422 0.391314 1.40589 0.712777L15.759 15.0661C16.0805 15.3876 16.0805 15.9088 15.759 16.2302C15.5977 16.3905 15.3871 16.4717 15.1776 16.4717Z"/>
</svg>
