<svg viewBox="0 0 42 43" fill="none" xmlns="http://www.w3.org/2000/svg">
<g clip-path="url(#clip0_6180_6154)">
<path d="M37.6294 26.352C37.6326 26.3485 37.6358 26.3453 37.6391 26.3418C37.9057 26.071 37.9854 25.9361 38.3648 25.3933C43.2323 20.4586 43.2117 12.4846 38.303 7.5758C36.7444 6.01977 36.8107 6.07745 36.729 6.00984C32.2195 2.28574 25.9018 2.18096 21.0472 5.06039C15.5297 1.78137 8.39966 2.82119 4.04238 7.68283L3.04903 8.79089C-1.182 13.5119 -0.986531 20.7201 3.49283 25.2049C4.03629 25.7605 8.02956 29.8435 8.03084 29.8448C8.69926 30.5129 9.56188 30.8702 10.4383 30.9182C10.4863 31.7949 10.8439 32.6572 11.5117 33.3253C12.1802 33.9935 13.0428 34.3511 13.9192 34.3988C13.9672 35.2755 14.3245 36.1381 14.9926 36.8062C16.0491 37.8627 17.5587 38.128 18.835 37.6778C19.0125 38.1815 19.3021 38.6542 19.7043 39.0563C21.1437 40.4957 23.4861 40.496 24.9255 39.0563L27.1759 36.8062C27.8433 36.1384 28.201 35.2768 28.249 34.4007C29.1591 34.352 30.0076 33.9745 30.6568 33.3253C31.306 32.6761 31.6831 31.8276 31.7322 30.9179C32.6079 30.8695 33.4699 30.5122 34.1377 29.8445C34.8058 29.1763 35.1637 28.3141 35.2114 27.4377C36.0878 27.3896 36.9504 27.0317 37.6182 26.3636C37.6221 26.36 37.6256 26.3559 37.6294 26.352ZM35.1182 7.87157L36.5627 9.31609C39.9263 12.6797 40.4393 17.8304 38.103 21.74C37.7272 21.1645 37.9986 21.5618 30.8968 14.4209C32.1349 14.2213 33.2773 13.641 34.1796 12.7387C34.6603 12.2583 34.6603 11.479 34.1796 10.9984C33.699 10.5177 32.9197 10.5177 32.439 10.9984C31.0826 12.3548 28.8546 12.3762 27.4723 11.0464L27.1208 10.7084C26.7042 10.3078 26.0656 10.2508 25.5849 10.5712L19.2762 14.7773C17.7346 15.8046 15.7617 15.8254 14.2168 14.9243C19.529 9.52533 19.9014 8.83704 21.4539 7.73025C21.4622 7.72769 28.6537 2.59271 35.1182 7.87157ZM9.77112 26.3639L13.2523 22.8827C13.732 22.403 14.5129 22.403 14.9926 22.8827C15.4726 23.3627 15.4726 24.1433 14.9929 24.623C14.9929 24.623 14.9929 24.6233 14.9926 24.6233L11.5117 28.1042C11.5114 28.1045 11.5111 28.1048 11.5108 28.1051C11.032 28.5829 10.2547 28.5839 9.77465 28.1074L9.76567 28.0981C9.29175 27.6178 9.29335 26.8417 9.77112 26.3639ZM13.252 29.8448L16.7332 26.3636C17.2132 25.8839 17.9938 25.8839 18.4735 26.3636C18.9545 26.8449 18.9545 27.6232 18.4735 28.1042L14.9926 31.5851C14.5129 32.0648 13.732 32.0648 13.2523 31.5851C12.7723 31.1054 12.7723 30.3248 13.252 29.8448ZM16.7332 35.0659C16.2535 34.5859 16.2532 33.8054 16.7332 33.3253L20.2141 29.8445C20.6938 29.3648 21.4747 29.3648 21.9544 29.8445C22.4354 30.3254 22.4357 31.1038 21.9544 31.5851C21.5391 32.0007 18.8792 34.6606 18.4735 35.0659C17.9925 35.5469 17.2142 35.5469 16.7332 35.0659ZM25.4353 35.0659L23.1852 37.316C22.7052 37.7957 21.9246 37.7957 21.4446 37.316C20.9649 36.836 20.9649 36.0555 21.4446 35.5754L23.695 33.3253C24.1747 32.8457 24.9553 32.8453 25.4353 33.3253C25.9153 33.8054 25.9153 34.5859 25.4353 35.0659ZM34.1373 24.6233L27.1756 17.6615C26.6952 17.1809 25.9159 17.1809 25.4353 17.6615C25.195 17.9018 25.0748 18.2168 25.0748 18.5318C25.0748 18.8465 25.195 19.1615 25.4353 19.4018L32.3971 26.3636C32.8771 26.8436 32.8767 27.6242 32.3971 28.1039C31.9174 28.5839 31.1365 28.5839 30.6565 28.1039L23.6947 21.1424C23.2143 20.6617 22.435 20.6617 21.9544 21.1424C21.4737 21.6227 21.4737 22.402 21.9544 22.8827L28.9162 29.8445C29.3971 30.3254 29.3971 31.1038 28.9162 31.5851C28.4362 32.0648 27.6556 32.0648 27.1756 31.5851C26.5081 30.9173 25.6461 30.56 24.7704 30.5116C24.7213 29.6019 24.3439 28.7534 23.6947 28.1042C23.0272 27.4364 22.1652 27.0791 21.2895 27.0307C21.2405 26.121 20.863 25.2725 20.2138 24.6233C19.5457 23.9552 18.6831 23.5976 17.8067 23.5498C17.7586 22.6731 17.401 21.8105 16.7329 21.1424C15.2935 19.703 12.9511 19.703 11.5117 21.1424L8.03084 24.6233C7.73892 24.9152 7.50757 25.2443 7.33389 25.5952C4.75022 22.9746 5.33726 23.57 5.24754 23.479C5.24433 23.4758 5.24113 23.4726 5.23792 23.4694C1.67789 19.909 1.52119 14.1832 4.8816 10.4338L5.87495 9.32538C9.1796 5.63845 14.4889 4.63421 18.8372 6.67089C18.6171 6.86604 18.4017 7.06759 18.1925 7.27652C18.188 7.28132 11.4976 14.195 11.4976 14.195C11.0304 14.6776 11.0365 15.446 11.5117 15.9209C13.9502 18.3597 17.791 18.7254 20.6412 16.8252L26.145 13.1559C26.205 13.2049 35.7216 22.726 35.8776 22.8827C36.7412 23.7466 35.8353 24.6508 35.8308 24.6656C35.3486 25.1011 34.6023 25.0879 34.1373 24.6233Z" fill="#2C2C2C"/>
</g>
<defs>
<clipPath id="clip0_6180_6154">
<rect width="42" height="42" fill="white" transform="translate(0 0.5)"/>
</clipPath>
</defs>
</svg>
