<svg width="40" height="40" xmlns="http://www.w3.org/2000/svg">
    <path d="M22.7 39.922h-6.418a1.944 1.944 0 0 1-1.944-1.94V23.533h-3.744a1.944 1.944 0 0 1-1.944-1.94v-6.191c0-1.07.872-1.94 1.944-1.94h3.744v-3.1c0-3.075.968-5.69 2.797-7.564C18.973.916 21.54-.078 24.562-.078l4.895.008c1.07.002 1.94.872 1.94 1.94v5.748c0 1.07-.871 1.94-1.943 1.94l-3.296.002c-1.005 0-1.26.201-1.316.263-.09.102-.197.39-.197 1.189v2.45h4.561c.344 0 .676.084.962.243.617.344 1 .994 1 1.697l-.002 6.191c0 1.07-.872 1.94-1.944 1.94h-4.577v14.449c0 1.07-.872 1.94-1.944 1.94zm-6.012-2.345h5.607V22.484c0-.715.583-1.296 1.298-1.296h5.223l.003-5.381h-5.226a1.298 1.298 0 0 1-1.298-1.296v-3.499c0-.916.093-1.958.786-2.741.838-.947 2.157-1.056 3.077-1.056l2.89-.001v-4.94l-4.488-.007c-4.855 0-7.872 3.102-7.872 8.094v4.15c0 .714-.582 1.296-1.298 1.296H11v5.381h4.39c.716 0 1.298.581 1.298 1.296v15.093zM29.452 2.275z" />
</svg>
