<svg viewBox="0 0 132 51" xmlns="http://www.w3.org/2000/svg">
<path d="M24.1618 37.9787C24.1618 41.3975 22.9661 44.3462 20.6159 46.8248C18.2244 49.3034 15.3794 50.5 12.0809 50.5C9.81316 50.5 7.66911 49.859 5.68998 48.6197C3.75209 47.3804 2.22651 45.671 1.19572 43.4915C0.907099 42.8077 0.865867 42.2094 1.11326 41.6111C1.31942 40.9701 1.6905 40.5 2.30898 40.2009C2.88622 39.859 3.5047 39.8163 4.12318 40.03C4.74165 40.2436 5.1952 40.671 5.48382 41.2693C6.84447 44.1325 9.02975 45.5428 12.0809 45.5428C14.06 45.5428 15.7918 44.8163 17.1936 43.3633C18.6368 41.8676 19.3789 40.1154 19.4202 38.1069V35.3718C17.1936 37.0812 14.7197 37.9787 12.1221 37.9787C8.78236 37.9787 5.93737 36.7394 3.54593 34.3035C1.15449 31.8676 0 28.9189 0 25.4574C0 21.9531 1.15449 19.0044 3.5047 16.5685C5.85491 14.1326 8.6999 12.936 12.0809 12.936C15.4207 12.936 18.2657 14.1326 20.6159 16.5685C23.0073 19.0471 24.1618 21.9958 24.1618 25.4574V37.9787ZM12.0809 33.0214C14.06 33.0214 15.7918 32.2522 17.2349 30.7565C18.678 29.2608 19.4202 27.4659 19.4202 25.4146C19.4202 23.3206 18.678 21.5257 17.2349 20.03C15.7093 18.577 14.0188 17.8505 12.0809 17.8505C10.0605 17.8505 8.32881 18.577 6.92693 20.03C5.48382 21.5257 4.74165 23.3206 4.74165 25.4146C4.74165 27.4659 5.48382 29.2608 6.92693 30.7565C8.32881 32.2949 10.0605 33.0214 12.0809 33.0214Z" />
<path d="M38.7579 37.9787C35.4593 37.9787 32.6143 36.7394 30.2229 34.3035C27.8315 31.8249 26.677 28.8761 26.677 25.4574C26.677 21.9958 27.8727 19.0471 30.2229 16.5685C32.5731 14.1326 35.4181 12.936 38.7579 12.936C42.1389 12.936 44.9839 14.1326 47.3341 16.5685C49.6843 19.0044 50.8388 21.9531 50.8388 25.4574C50.8388 28.9189 49.6843 31.8676 47.3341 34.3035C44.9426 36.7394 42.0976 37.9787 38.7579 37.9787ZM38.7579 17.8505C36.7375 17.8505 35.0058 18.577 33.6039 20.03C32.1608 21.5257 31.4186 23.3206 31.4186 25.4146C31.4186 27.4659 32.1608 29.2608 33.6039 30.7565C35.0058 32.2522 36.7375 33.0214 38.7579 33.0214C40.7782 33.0214 42.51 32.2522 43.9531 30.7565C45.3549 29.1753 46.0559 27.4232 46.0559 25.4146C46.0559 23.4061 45.3549 21.5685 43.9531 20.03C42.4687 18.577 40.6958 17.8505 38.7579 17.8505Z" />
<path d="M53.6013 2.93589C53.6013 2.25213 53.8487 1.69658 54.3435 1.18376C54.797 0.713675 55.3742 0.5 56.034 0.5C56.6112 0.5 57.1884 0.713675 57.7245 1.18376C58.178 1.73931 58.3842 2.3376 58.3842 2.93589V15.3717C60.5695 13.6623 63.0021 12.8077 65.6822 12.8077C69.0632 12.8077 71.9082 14.0042 74.2584 16.4401C76.6086 18.876 77.7631 21.8247 77.7631 25.329C77.7631 28.7905 76.6086 31.7392 74.2584 34.1751C71.867 36.6537 69.022 37.8503 65.6822 37.8503C62.3837 37.8503 59.5387 36.611 57.1472 34.1751C54.7558 31.6965 53.6013 28.7478 53.6013 25.329V2.93589ZM58.3429 25.3717C58.3429 27.4657 59.0851 29.2606 60.5282 30.7136C61.9301 32.2093 63.6618 32.9785 65.6822 32.9785C67.7026 32.9785 69.4343 32.2093 70.8774 30.7136C72.2793 29.1324 72.9802 27.3803 72.9802 25.3717C72.9802 23.3632 72.2793 21.5256 70.8774 19.9871C69.3518 18.5341 67.6201 17.8076 65.6822 17.8076C63.6618 17.8076 61.9301 18.5341 60.5282 19.9871C59.0851 21.4828 58.3429 23.2777 58.3429 25.329V25.3717Z" />
<path d="M82.9583 7.97843C82.2986 7.97843 81.7213 7.76476 81.2678 7.29467C80.773 6.78185 80.5256 6.2263 80.5256 5.54254C80.5256 4.85878 80.773 4.30323 81.2678 3.79041C81.7626 3.27759 82.2986 3.02118 82.9583 3.02118C83.618 3.02118 84.154 3.27759 84.6488 3.79041C85.1023 4.26049 85.3085 4.85878 85.3085 5.54254C85.3085 6.2263 85.1023 6.82459 84.6488 7.29467C84.1952 7.76476 83.618 7.97843 82.9583 7.97843ZM80.5668 15.4143C80.5668 14.7305 80.8142 14.175 81.309 13.6622C81.7626 13.1921 82.3398 12.9784 82.9995 12.9784C83.5768 12.9784 84.154 13.1921 84.69 13.6622C85.1436 14.2177 85.3497 14.816 85.3497 15.4143V35.5424C85.3497 36.2262 85.1436 36.8245 84.69 37.2946C84.1952 37.8074 83.6592 38.0638 82.9995 38.0638C82.3398 38.0638 81.7626 37.8074 81.309 37.2946C80.8142 36.8245 80.5668 36.2262 80.5668 35.5424V15.4143Z" />
<path d="M106.295 33.0213C106.873 33.0213 107.45 33.2349 107.986 33.705C108.44 34.2606 108.646 34.8589 108.646 35.4571C108.646 36.0554 108.44 36.6537 107.986 37.2093C107.491 37.7221 106.955 37.9785 106.295 37.9785H91.3283C90.2975 37.9785 89.5966 37.5084 89.1431 36.5683C88.7307 35.4144 88.8132 34.517 89.3904 33.9187L101.43 17.8504H91.2046C90.5449 17.8504 90.0089 17.594 89.5141 17.0811C89.0606 16.5256 88.8544 15.9273 88.8544 15.329C88.8544 14.7307 89.0606 14.1324 89.5141 13.5769C90.0501 13.1068 90.6274 12.8931 91.2046 12.8931H106.172C107.244 12.8931 107.945 13.3632 108.357 14.3034C108.852 15.2435 108.769 16.0982 108.11 16.9102L96.07 33.0213H106.295Z" />
<path d="M131.034 40.1582C131.034 42.9787 130.045 45.4146 128.107 47.3804C126.128 49.3889 123.819 50.4145 121.098 50.4145C119.16 50.4145 117.428 49.9017 115.861 48.8761C114.253 47.8077 113.016 46.3975 112.192 44.6453C111.903 43.9616 111.862 43.3633 112.109 42.765C112.315 42.124 112.686 41.6539 113.305 41.3547C113.882 41.0556 114.459 41.0129 115.078 41.2693C115.738 41.5257 116.191 41.953 116.438 42.5086C117.469 44.5171 119.036 45.5 121.098 45.5C122.582 45.5 123.819 44.9872 124.809 43.9616C125.798 42.9359 126.293 41.6539 126.293 40.1582V36.5684C124.808 37.5086 123.159 37.9787 121.345 37.9787C118.665 37.9787 116.397 36.9958 114.542 35.0727C112.686 33.1069 111.697 30.7565 111.656 28.0215V15.5856C111.656 14.9873 111.862 14.389 112.315 13.8335C112.851 13.3634 113.429 13.1497 114.006 13.1497C114.583 13.1497 115.16 13.3634 115.696 13.8335C116.15 14.389 116.356 14.9873 116.356 15.5856V27.9787C116.356 29.389 116.851 30.6283 117.84 31.6112C118.789 32.5941 119.943 33.1069 121.304 33.1069C122.664 33.1069 123.86 32.5941 124.809 31.6112C125.757 30.6283 126.252 29.389 126.252 27.9787V15.5856C126.252 14.9873 126.458 14.389 126.911 13.8335C127.447 13.3634 128.025 13.1497 128.602 13.1497C129.22 13.1497 129.798 13.3634 130.334 13.8335C130.787 14.389 130.993 14.9873 130.993 15.5856V40.1582H131.034Z" />
<path d="M14.4312 8.61981H9.73074C8.45255 8.61981 7.38053 7.55143 7.38053 6.18392C7.38053 4.85914 8.41132 3.74803 9.73074 3.74803H14.4312C15.7093 3.74803 16.7814 4.8164 16.7814 6.18392C16.7814 7.55143 15.7093 8.61981 14.4312 8.61981Z" />
</svg>
