<svg width="42" height="43" viewBox="0 0 42 43" fill="none" xmlns="http://www.w3.org/2000/svg">
<path d="M10.6641 15.7578C10.2113 15.7578 9.84375 16.1253 9.84375 16.5781C9.84375 17.0309 10.2113 17.3984 10.6641 17.3984C11.1169 17.3984 11.4844 17.0309 11.4844 16.5781C11.4844 16.1253 11.1169 15.7578 10.6641 15.7578Z" fill="#2C2C2C"/>
<path d="M12.774 32.9266L12.7088 33.0025L12.774 32.9266C12.3655 32.5757 12.1185 31.9216 12.1185 31.1161V25.8105H15.283C19.0612 26.1611 23.0295 27.7269 27.0846 30.4728C27.3219 31.6522 28.3062 32.5474 29.4907 32.5474C30.8541 32.5474 31.9519 31.3628 31.9519 29.9211V22.4405C33.7058 22.3841 35.1 20.8482 35.1 18.9737C35.1 17.1031 33.7027 15.5635 31.9519 15.5069V8.02632C31.9519 6.58178 30.8567 5.4 29.4907 5.4C28.1273 5.4 27.0296 6.58455 27.0296 8.02632V8.68554C23.3029 11.1112 19.0245 11.7959 15.2857 12.1368H7.2963C3.76928 12.1368 0.9 15.1875 0.9 18.9737C0.9 22.0719 2.87865 24.7753 5.62222 25.5713V34.1316C5.62222 36.0377 7.07299 37.6 8.87037 37.6H11.2315C12.3925 37.6 13.2286 36.8122 13.5482 35.8418C13.8678 34.8715 13.6773 33.7027 12.774 32.9266ZM7.2963 14.0211H14.437V23.9263H7.2963C7.07813 23.9263 6.85831 23.9097 6.6423 23.8768L6.64218 23.8767C4.38544 23.5356 2.67407 21.4317 2.67407 18.9737C2.67407 16.2351 4.7433 14.0211 7.2963 14.0211ZM11.2315 35.7158H8.87037C8.06392 35.7158 7.3963 35.0115 7.3963 34.1316V25.8105H10.3444V31.116C10.3444 32.4727 10.818 33.6699 11.6581 34.3916C11.9118 34.6096 11.9693 34.9403 11.8776 35.2209C11.786 35.5012 11.5514 35.7158 11.2315 35.7158ZM27.0296 10.8579V28.2227C23.3545 25.8961 19.7249 24.4848 16.2111 24.0208V13.939C19.653 13.584 23.4946 12.8809 27.0296 10.8579ZM30.1778 29.9211C30.1778 30.3366 29.8632 30.6632 29.4907 30.6632C29.1183 30.6632 28.8037 30.3366 28.8037 29.9211V8.02632C28.8037 7.61073 29.1183 7.28421 29.4907 7.28421C29.8637 7.28421 30.1778 7.61015 30.1778 8.02632V29.9211ZM31.9519 17.3931C32.7128 17.4484 33.3259 18.1304 33.3259 18.9737C33.3259 19.8185 32.714 20.4991 31.9519 20.5543V17.3931Z" fill="#2C2C2C" stroke="#2C2C2C" stroke-width="0.2"/>
<path d="M41.1797 17.3984H37.8984C37.4455 17.3984 37.0781 17.7658 37.0781 18.2188C37.0781 18.6717 37.4455 19.0391 37.8984 19.0391H41.1797C41.6327 19.0391 42 18.6717 42 18.2188C42 17.7658 41.6327 17.3984 41.1797 17.3984Z" fill="#2C2C2C"/>
<path d="M39.253 7.96495C39.0265 7.57276 38.5248 7.43815 38.1325 7.66472L35.2909 9.30534C34.8985 9.53192 34.7641 10.0335 34.9907 10.4259C35.218 10.8195 35.72 10.952 36.1112 10.7261L38.9528 9.0855C39.3451 8.85893 39.4795 8.35731 39.253 7.96495Z" fill="#2C2C2C"/>
<path d="M38.9528 27.352L36.1112 25.7114C35.7188 25.4848 35.2172 25.6193 34.9907 26.0116C34.7641 26.404 34.8985 26.9056 35.2909 27.1322L38.1324 28.7728C38.2616 28.8473 38.4027 28.8829 38.5418 28.8829C38.8253 28.8829 39.101 28.7357 39.253 28.4725C39.4796 28.0802 39.3451 27.5786 38.9528 27.352Z" fill="#2C2C2C"/>
<path d="M7.38281 15.7578H6.5625C4.75322 15.7578 3.28125 17.2298 3.28125 19.0391C3.28125 19.492 3.64859 19.8594 4.10156 19.8594C4.55454 19.8594 4.92188 19.492 4.92188 19.0391C4.92188 18.1344 5.65786 17.3984 6.5625 17.3984H7.38281C7.83579 17.3984 8.20312 17.0311 8.20312 16.5781C8.20312 16.1251 7.83579 15.7578 7.38281 15.7578Z" fill="#2C2C2C"/>
</svg>
