<svg width="128" height="49" viewBox="0 0 128 49" fill="none" xmlns="http://www.w3.org/2000/svg">
<path d="M23.6023 36.5479C23.6023 39.8299 22.4342 42.6607 20.1385 45.0402C17.8024 47.4196 15.0233 48.5684 11.8011 48.5684C9.58591 48.5684 7.49151 47.953 5.55821 46.7632C3.6652 45.5735 2.17495 43.9325 1.16803 41.8402C0.886092 41.1838 0.845815 40.6094 1.08748 40.0351C1.28886 39.4197 1.65135 38.9684 2.25551 38.6812C2.81938 38.353 3.42354 38.312 4.02769 38.5171C4.63184 38.7222 5.07489 39.1325 5.35683 39.7069C6.68597 42.4556 8.82064 43.8094 11.8011 43.8094C13.7344 43.8094 15.4261 43.112 16.7955 41.7171C18.2052 40.2812 18.9301 38.5992 18.9704 36.671V34.0453C16.7955 35.6864 14.3789 36.5479 11.8414 36.5479C8.57898 36.5479 5.79988 35.3582 3.46381 33.0197C1.12775 30.6812 0 27.8505 0 24.5274C0 21.1633 1.12775 18.3326 3.42354 15.9941C5.71932 13.6557 8.49843 12.5069 11.8011 12.5069C15.0636 12.5069 17.8427 13.6557 20.1385 15.9941C22.4745 18.3736 23.6023 21.2044 23.6023 24.5274V36.5479ZM11.8011 31.7889C13.7344 31.7889 15.4261 31.0505 16.8358 29.6146C18.2454 28.1787 18.9704 26.4556 18.9704 24.4864C18.9704 22.4761 18.2454 20.7531 16.8358 19.3172C15.3455 17.9223 13.6941 17.2249 11.8011 17.2249C9.82757 17.2249 8.13594 17.9223 6.76652 19.3172C5.35683 20.7531 4.63184 22.4761 4.63184 24.4864C4.63184 26.4556 5.35683 28.1787 6.76652 29.6146C8.13594 31.0915 9.82757 31.7889 11.8011 31.7889Z" fill="#1F75FE"/>
<path d="M37.8603 36.5479C34.6382 36.5479 31.8591 35.3581 29.523 33.0197C27.1869 30.6402 26.0592 27.8095 26.0592 24.5274C26.0592 21.2044 27.2272 18.3736 29.523 15.9941C31.8188 13.6557 34.5979 12.5069 37.8603 12.5069C41.163 12.5069 43.9421 13.6557 46.2379 15.9941C48.5337 18.3326 49.6615 21.1633 49.6615 24.5274C49.6615 27.8505 48.5337 30.6812 46.2379 33.0197C43.9019 35.3581 41.1227 36.5479 37.8603 36.5479ZM37.8603 17.2249C35.8867 17.2249 34.1951 17.9223 32.8257 19.3172C31.416 20.7531 30.691 22.4761 30.691 24.4864C30.691 26.4556 31.416 28.1787 32.8257 29.6146C34.1951 31.0505 35.8867 31.7889 37.8603 31.7889C39.8339 31.7889 41.5255 31.0505 42.9352 29.6146C44.3046 28.0966 44.9893 26.4146 44.9893 24.4864C44.9893 22.5582 44.3046 20.7941 42.9352 19.3172C41.4852 17.9223 39.7533 17.2249 37.8603 17.2249Z" fill="#1F75FE"/>
<path d="M52.36 2.90681C52.36 2.2504 52.6017 1.71707 53.085 1.22477C53.528 0.773487 54.0919 0.568359 54.7363 0.568359C55.3002 0.568359 55.8641 0.773487 56.3877 1.22477C56.8307 1.7581 57.0321 2.33246 57.0321 2.90681V14.8452C59.1668 13.2042 61.5431 12.3837 64.1611 12.3837C67.4638 12.3837 70.243 13.5324 72.5387 15.8709C74.8345 18.2093 75.9623 21.0401 75.9623 24.4042C75.9623 27.7272 74.8345 30.558 72.5387 32.8965C70.2027 35.2759 67.4236 36.4246 64.1611 36.4246C60.939 36.4246 58.1599 35.2349 55.8238 32.8965C53.4877 30.517 52.36 27.6862 52.36 24.4042V2.90681ZM56.9918 24.4452C56.9918 26.4555 57.7168 28.1785 59.1265 29.5734C60.4959 31.0093 62.1876 31.7477 64.1611 31.7477C66.1347 31.7477 67.8263 31.0093 69.236 29.5734C70.6054 28.0554 71.2901 26.3734 71.2901 24.4452C71.2901 22.517 70.6054 20.7529 69.236 19.276C67.7458 17.8811 66.0542 17.1837 64.1611 17.1837C62.1876 17.1837 60.4959 17.8811 59.1265 19.276C57.7168 20.7119 56.9918 22.435 56.9918 24.4042V24.4452Z" fill="#1F75FE"/>
<path d="M81.0371 7.74765C80.3927 7.74765 79.8288 7.54253 79.3858 7.09125C78.9025 6.59894 78.6608 6.06561 78.6608 5.4092C78.6608 4.75279 78.9025 4.21946 79.3858 3.72715C79.8691 3.23485 80.3927 2.9887 81.0371 2.9887C81.6816 2.9887 82.2052 3.23485 82.6885 3.72715C83.1315 4.17843 83.3329 4.75279 83.3329 5.4092C83.3329 6.06561 83.1315 6.63996 82.6885 7.09125C82.2454 7.54253 81.6816 7.74765 81.0371 7.74765ZM78.7011 14.8861C78.7011 14.2297 78.9427 13.6964 79.4261 13.204C79.8691 12.7528 80.433 12.5476 81.0774 12.5476C81.6413 12.5476 82.2052 12.7528 82.7288 13.204C83.1718 13.7374 83.3732 14.3117 83.3732 14.8861V34.2091C83.3732 34.8655 83.1718 35.4399 82.7288 35.8911C82.2454 36.3834 81.7218 36.6296 81.0774 36.6296C80.433 36.6296 79.8691 36.3834 79.4261 35.8911C78.9427 35.4399 78.7011 34.8655 78.7011 34.2091V14.8861Z" fill="#1F75FE"/>
<path d="M103.834 31.7888C104.398 31.7888 104.962 31.9939 105.485 32.4452C105.928 32.9785 106.13 33.5529 106.13 34.1272C106.13 34.7016 105.928 35.2759 105.485 35.8093C105.002 36.3016 104.478 36.5477 103.834 36.5477H89.2134C88.2064 36.5477 87.5217 36.0964 87.0787 35.1939C86.6759 34.0862 86.7565 33.2247 87.3204 32.6503L99.0812 17.2247H89.0925C88.4481 17.2247 87.9245 16.9786 87.4412 16.4863C86.9981 15.9529 86.7967 15.3786 86.7967 14.8042C86.7967 14.2299 86.9981 13.6555 87.4412 13.1222C87.9648 12.6709 88.5287 12.4658 89.0925 12.4658H103.713C104.76 12.4658 105.445 12.917 105.848 13.8196C106.331 14.7222 106.25 15.5427 105.606 16.3222L93.8452 31.7888H103.834Z" fill="#1F75FE"/>
<path d="M128 38.6402C128 41.3479 127.033 43.6863 125.14 45.5735C123.207 47.5017 120.952 48.4863 118.293 48.4863C116.4 48.4863 114.709 47.994 113.178 47.0094C111.607 45.9838 110.399 44.6299 109.593 42.9479C109.312 42.2915 109.271 41.7171 109.513 41.1427C109.714 40.5274 110.077 40.0761 110.681 39.7889C111.245 39.5017 111.809 39.4607 112.413 39.7069C113.057 39.953 113.5 40.3633 113.742 40.8966C114.749 42.8248 116.279 43.7684 118.293 43.7684C119.743 43.7684 120.952 43.2761 121.918 42.2915C122.885 41.3069 123.368 40.0761 123.368 38.6402V35.1941C121.918 36.0966 120.307 36.5479 118.535 36.5479C115.917 36.5479 113.702 35.6043 111.889 33.7582C110.077 31.871 109.11 29.6146 109.07 26.989V15.0505C109.07 14.4762 109.271 13.9018 109.714 13.3685C110.238 12.9172 110.802 12.7121 111.366 12.7121C111.93 12.7121 112.493 12.9172 113.017 13.3685C113.46 13.9018 113.661 14.4762 113.661 15.0505V26.9479C113.661 28.3018 114.145 29.4915 115.111 30.4351C116.038 31.3787 117.166 31.871 118.495 31.871C119.824 31.871 120.992 31.3787 121.918 30.4351C122.845 29.4915 123.328 28.3018 123.328 26.9479V15.0505C123.328 14.4762 123.529 13.9018 123.972 13.3685C124.496 12.9172 125.06 12.7121 125.624 12.7121C126.228 12.7121 126.792 12.9172 127.315 13.3685C127.758 13.9018 127.96 14.4762 127.96 15.0505V38.6402H128Z" fill="#1F75FE"/>
<path d="M14.097 8.36337H9.50539C8.25681 8.36337 7.20961 7.33774 7.20961 6.02492C7.20961 4.75313 8.21653 3.68647 9.50539 3.68647H14.097C15.3455 3.68647 16.3927 4.7121 16.3927 6.02492C16.3927 7.33774 15.3455 8.36337 14.097 8.36337Z" fill="#1F75FE"/>
</svg>
