<svg width="24" height="25" viewBox="0 0 24 25" xmlns="http://www.w3.org/2000/svg">
<path d="M9.90161 20.2661C4.45207 20.2661 0.0185547 15.8326 0.0185547 10.3831C0.0185547 4.93351 4.45207 0.5 9.90161 0.5C15.3512 0.5 19.7847 4.93351 19.7847 10.3831C19.7847 15.8326 15.3512 20.2661 9.90161 20.2661ZM9.90161 2.37357C5.48515 2.37357 1.89212 5.9666 1.89212 10.3831C1.89212 14.7995 5.48515 18.3925 9.90161 18.3925C14.3181 18.3925 17.9111 14.7995 17.9111 10.3831C17.9111 5.9666 14.3181 2.37357 9.90161 2.37357ZM23.7259 24.2256C24.0917 23.8598 24.0917 23.2666 23.7259 22.9008L19.5338 18.7087C19.1679 18.3428 18.5747 18.3428 18.2089 18.7087C17.8431 19.0745 17.8431 19.6677 18.2089 20.0335L22.401 24.2256C22.5839 24.4085 22.8237 24.5 23.0635 24.5C23.3032 24.5 23.5429 24.4085 23.7259 24.2256Z" />
</svg>
