<svg viewBox="0 0 42 43" fill="none" xmlns="http://www.w3.org/2000/svg">
<g clip-path="url(#clip0_6029_5299)">
<path d="M25.1836 36.1523L21.6689 34.2921C21.3606 34.1289 20.9924 34.1289 20.684 34.2921L9.53452 40.1934L11.6639 27.6944C11.7228 27.3487 11.6091 26.9961 11.3596 26.7512L2.33939 17.8993L14.805 16.0758C15.1498 16.0253 15.4477 15.8074 15.6017 15.4929L17.2967 12.0353C17.442 11.739 17.3212 11.3802 17.0268 11.2339C16.7323 11.0876 16.376 11.2094 16.2308 11.5057L14.5661 14.9014L1.90693 16.7533C1.50537 16.812 1.17798 17.0898 1.05258 17.4784C0.92719 17.8669 1.02981 18.2854 1.3204 18.5705L10.4807 27.56L8.31826 40.2535C8.24969 40.656 8.41094 41.0553 8.73929 41.2954C8.92482 41.4312 9.14179 41.5 9.36026 41.5C9.52845 41.5 9.69751 41.4591 9.85372 41.3765L21.1765 35.3835L24.6304 37.2116C24.921 37.3652 25.2803 37.2529 25.4331 36.9604C25.5858 36.6679 25.4741 36.3062 25.1836 36.1523Z" fill="#2C2C2C"/>
<path d="M40.9464 17.318C40.8187 16.9268 40.4851 16.6472 40.0761 16.5881L27.1793 14.7238L21.4117 3.09788C21.2287 2.72909 20.8583 2.5 20.4449 2.5C20.0314 2.5 19.661 2.72909 19.478 3.09788L17.0627 7.96671C16.9147 8.26505 17.0378 8.62626 17.3377 8.77347C17.6375 8.92052 18.0006 8.79807 18.1486 8.49989L20.4449 3.87117L26.1242 15.3191C26.2812 15.6358 26.5847 15.8551 26.936 15.906L39.6355 17.7418L30.446 26.6528C30.1918 26.8993 30.0759 27.2542 30.136 27.6021L32.3053 40.1847L27.9135 37.8878C27.6176 37.7332 27.2514 37.8463 27.0958 38.1407C26.9402 38.4352 27.0541 38.7994 27.35 38.9542L31.9801 41.3757C32.1393 41.4589 32.3115 41.5 32.4829 41.5C32.7054 41.5 32.9266 41.4306 33.1155 41.2941C33.4499 41.0524 33.6143 40.6504 33.5444 40.2451L31.3414 27.4669L40.6736 18.4174C40.9696 18.1304 41.0742 17.7091 40.9464 17.318Z" fill="#2C2C2C"/>
<path d="M25.1836 36.1523L21.6689 34.2921C21.3606 34.1289 20.9924 34.1289 20.684 34.2921L9.53452 40.1934L11.6639 27.6944C11.7228 27.3487 11.6091 26.9961 11.3596 26.7512L2.33939 17.8993L14.805 16.0758C15.1498 16.0253 15.4477 15.8074 15.6017 15.4929L17.2967 12.0353C17.442 11.739 17.3212 11.3802 17.0268 11.2339C16.7323 11.0876 16.376 11.2094 16.2308 11.5057L14.5661 14.9014L1.90693 16.7533C1.50537 16.812 1.17798 17.0898 1.05258 17.4784C0.92719 17.8669 1.02981 18.2854 1.3204 18.5705L10.4807 27.56L8.31826 40.2535C8.24969 40.656 8.41094 41.0553 8.73929 41.2954C8.92482 41.4312 9.14179 41.5 9.36026 41.5C9.52845 41.5 9.69751 41.4591 9.85372 41.3765L21.1765 35.3835L24.6304 37.2116C24.921 37.3652 25.2803 37.2529 25.4331 36.9604C25.5858 36.6679 25.4741 36.3062 25.1836 36.1523Z" stroke="#2C2C2C"/>
<path d="M40.9464 17.318C40.8187 16.9268 40.4851 16.6472 40.0761 16.5881L27.1793 14.7238L21.4117 3.09788C21.2287 2.72909 20.8583 2.5 20.4449 2.5C20.0314 2.5 19.661 2.72909 19.478 3.09788L17.0627 7.96671C16.9147 8.26505 17.0378 8.62626 17.3377 8.77347C17.6375 8.92052 18.0006 8.79807 18.1486 8.49989L20.4449 3.87117L26.1242 15.3191C26.2812 15.6358 26.5847 15.8551 26.936 15.906L39.6355 17.7418L30.446 26.6528C30.1918 26.8993 30.0759 27.2542 30.136 27.6021L32.3053 40.1847L27.9135 37.8878C27.6176 37.7332 27.2514 37.8463 27.0958 38.1407C26.9402 38.4352 27.0541 38.7994 27.35 38.9542L31.9801 41.3757C32.1393 41.4589 32.3115 41.5 32.4829 41.5C32.7054 41.5 32.9266 41.4306 33.1155 41.2941C33.4499 41.0524 33.6143 40.6504 33.5444 40.2451L31.3414 27.4669L40.6736 18.4174C40.9696 18.1304 41.0742 17.7091 40.9464 17.318Z" stroke="#2C2C2C"/>
</g>
<defs>
<clipPath id="clip0_6029_5299">
<rect fill="white" transform="translate(0 0.5)"/>
</clipPath>
</defs>
</svg>
