<svg width="40" height="40" viewBox="0 0 40 40" xmlns="http://www.w3.org/2000/svg">
<path d="M26.1568 18.2029L17.3198 13.3677C16.8117 13.0897 16.2111 13.1001 15.7131 13.3952C15.2147 13.6906 14.9175 14.2124 14.9175 14.7917V24.3791C14.9175 24.9555 15.2129 25.4765 15.7079 25.7722C15.9664 25.9266 16.2529 26.0041 16.5401 26.0041C16.8032 26.0041 17.0668 25.9391 17.3095 25.8085L26.1467 21.0566C26.6713 20.7743 26.9988 20.229 27.0012 19.633C27.0033 19.037 26.6798 18.4892 26.1568 18.2029V18.2029ZM17.2615 23.173V16.0075L23.8661 19.6214L17.2615 23.173Z" />
<path d="M39.7057 11.9944L39.7038 11.9761C39.6699 11.6542 39.3327 8.79039 37.9405 7.33379C36.3313 5.62053 34.507 5.4124 33.6296 5.31261C33.557 5.30437 33.4905 5.29674 33.431 5.28881L33.3611 5.28148C28.073 4.89696 20.0869 4.84447 20.0069 4.84417L19.9999 4.84386L19.9929 4.84417C19.9129 4.84447 11.9268 4.89696 6.59116 5.28148L6.52067 5.28881C6.4639 5.29644 6.40134 5.30346 6.33329 5.31139C5.46598 5.41149 3.66118 5.61992 2.04742 7.39513C0.721433 8.83617 0.338133 11.6386 0.298766 11.9535L0.294188 11.9944C0.282286 12.1284 0 15.3178 0 18.5197V21.5129C0 24.7148 0.282286 27.9042 0.294188 28.0384L0.296325 28.0586C0.330199 28.3754 0.667112 31.1866 2.05291 32.6438C3.56597 34.2997 5.4791 34.5188 6.50815 34.6366C6.67081 34.6553 6.81089 34.6711 6.90641 34.6879L6.99887 34.7007C10.0521 34.9913 19.6252 35.1344 20.031 35.1402L20.0433 35.1405L20.0555 35.1402C20.1354 35.1399 28.1212 35.0874 33.4093 34.7029L33.4792 34.6955C33.546 34.6867 33.6211 34.6788 33.7035 34.6702C34.5659 34.5787 36.3609 34.3885 37.9524 32.6374C39.2784 31.1961 39.662 28.3937 39.7011 28.079L39.7057 28.0381C39.7176 27.9039 40.0001 24.7148 40.0001 21.5129V18.5197C39.9998 15.3178 39.7176 12.1287 39.7057 11.9944V11.9944ZM37.6558 21.5129C37.6558 24.4764 37.397 27.5285 37.3726 27.8086C37.2731 28.5804 36.8688 30.3535 36.2227 31.0557C35.2266 32.1516 34.2034 32.2602 33.4563 32.3393C33.366 32.3487 33.2823 32.3579 33.2067 32.3674C28.0919 32.7372 20.4073 32.794 20.0533 32.7961C19.6563 32.7903 10.2233 32.646 7.26316 32.371C7.11148 32.3463 6.9476 32.3274 6.77488 32.3078C5.89872 32.2074 4.69938 32.0701 3.77715 31.0557L3.75548 31.0325C3.12072 30.3712 2.72796 28.7132 2.62816 27.8178C2.60955 27.606 2.34405 24.5179 2.34405 21.5129V18.5197C2.34405 15.5595 2.60222 12.5108 2.62725 12.2248C2.74596 11.3157 3.15795 9.65007 3.77715 8.97686C4.80375 7.84771 5.88621 7.72258 6.60215 7.63988C6.67051 7.63195 6.73429 7.62462 6.79319 7.61699C11.9824 7.24529 19.7222 7.19005 19.9999 7.18792C20.2776 7.18975 28.0147 7.24529 33.1578 7.61699C33.221 7.62493 33.29 7.63286 33.3641 7.64141C34.1005 7.72533 35.2135 7.85228 36.2349 8.94176L36.2444 8.95183C36.8791 9.61315 37.2719 11.3002 37.3717 12.2135C37.3894 12.4134 37.6558 15.5082 37.6558 18.5197V21.5129Z" />
</svg>
