<svg width="40" height="41" viewBox="0 0 40 41" fill="none" xmlns="http://www.w3.org/2000/svg">
<path d="M25.0539 29.4687H14.946C14.1922 29.4687 13.5789 28.8554 13.5789 28.1016V20.9805C13.5789 20.2266 14.1922 19.6133 14.946 19.6133H25.0539C25.8077 19.6133 26.421 20.2266 26.421 20.9805V28.1016C26.421 28.8555 25.8078 29.4687 25.0539 29.4687ZM14.946 20.7852C14.8383 20.7852 14.7507 20.8728 14.7507 20.9805V28.1016C14.7507 28.2092 14.8383 28.2969 14.946 28.2969H25.0539C25.1616 28.2969 25.2492 28.2092 25.2492 28.1016V20.9805C25.2492 20.8728 25.1616 20.7852 25.0539 20.7852H14.946Z" fill="#C4C4C4"/>
<path d="M22.9867 23.6348H17.0132C16.6896 23.6348 16.4273 23.3724 16.4273 23.0488C16.4273 22.7252 16.6896 22.4629 17.0132 22.4629H22.9867C23.3103 22.4629 23.5727 22.7252 23.5727 23.0488C23.5726 23.3724 23.3103 23.6348 22.9867 23.6348Z" fill="#C4C4C4"/>
<path d="M22.9867 26.6211H17.0132C16.6896 26.6211 16.4273 26.3587 16.4273 26.0352C16.4273 25.7116 16.6896 25.4492 17.0132 25.4492H22.9867C23.3103 25.4492 23.5727 25.7116 23.5727 26.0352C23.5726 26.3587 23.3103 26.6211 22.9867 26.6211Z" fill="#C4C4C4"/>
<path d="M39.4141 31.4231H37.013V25.6001C37.013 23.9846 35.6987 22.6704 34.0833 22.6704H32.5328V19.1548H35.3495C36.3187 19.1548 37.1073 18.3662 37.1073 17.397V10.7805C37.1073 9.86859 36.4093 9.11687 35.5196 9.03102V5.97891C35.5196 5.00961 36.3082 4.22109 37.2774 4.22109H37.9204C38.2441 4.22109 38.5063 3.95875 38.5063 3.63516V0.648437C38.5063 0.324844 38.2441 0.0625 37.9204 0.0625H36.6344C33.7942 0.0625 31.4727 2.31969 31.3661 5.13422C30.8752 4.7632 30.2645 4.54266 29.6031 4.54266H16.2008C15.8771 4.54266 15.6148 4.805 15.6148 5.12859C15.6148 5.45219 15.8771 5.71453 16.2008 5.71453H29.6031C30.5723 5.71453 31.3609 6.50305 31.3609 7.47234V22.6704H29.5462V19.4192C29.5462 17.8037 28.232 16.4895 26.6165 16.4895H24.2634C23.9397 16.4895 23.6774 16.7519 23.6774 17.0755C23.6774 17.3991 23.9397 17.6614 24.2634 17.6614H26.6165C27.5857 17.6614 28.3743 18.4499 28.3743 19.4192V31.4231H11.6258V19.4192C11.6258 18.4499 12.4144 17.6614 13.3836 17.6614H21.7102C22.0338 17.6614 22.2961 17.3991 22.2961 17.0755C22.2961 16.7519 22.0338 16.4895 21.7102 16.4895H13.3836C11.7681 16.4895 10.4539 17.8037 10.4539 19.4192V22.6704H8.63906V7.47234C8.63906 6.50305 9.42766 5.71453 10.3969 5.71453H13.6469C13.9705 5.71453 14.2328 5.45219 14.2328 5.12859C14.2328 4.805 13.9705 4.54266 13.6469 4.54266H10.3969C9.73555 4.54266 9.12484 4.76312 8.63391 5.13422C8.52742 2.31969 6.20578 0.0625 3.36563 0.0625H2.07961C1.75602 0.0625 1.49367 0.324844 1.49367 0.648437V3.63516C1.49367 3.95875 1.75602 4.22109 2.07961 4.22109H2.72266C3.69187 4.22109 4.48047 5.00961 4.48047 5.97891V9.03453C3.60586 9.13484 2.92414 9.8793 2.92414 10.7805V17.397C2.92414 18.3662 3.71273 19.1548 4.68195 19.1548H7.46719V22.6704H5.91672C4.30125 22.6704 2.98703 23.9846 2.98703 25.6001V31.4231H0.585938C0.262266 31.4231 0 31.6855 0 32.0091V34.9958C0 35.2912 0.22 35.5405 0.513203 35.5772L4.48039 36.0732V38.3044C4.48039 39.2737 5.26898 40.0622 6.2382 40.0622H9.86789C10.8371 40.0622 11.6257 39.2737 11.6257 38.3044V36.9666L12.4601 37.0709C12.4842 37.074 18.7234 37.0755 18.7234 37.0755C19.0471 37.0755 19.3094 36.8131 19.3094 36.4895C19.3094 36.1659 19.0471 35.9036 18.7234 35.9036H12.5693L1.17188 34.4785V32.595H38.8281V34.4785L27.4306 35.9036H21.2766C20.9529 35.9036 20.6906 36.1659 20.6906 36.4895C20.6906 36.8131 20.9529 37.0755 21.2766 37.0755C21.2766 37.0755 27.5158 37.0739 27.5399 37.0709L28.3743 36.9666V38.3044C28.3743 39.2737 29.1629 40.0622 30.1321 40.0622H33.7618C34.731 40.0622 35.5196 39.2737 35.5196 38.3044V36.0732L39.4868 35.5772C39.78 35.5405 40 35.2912 40 34.9958V32.0091C40 31.6855 39.7377 31.4231 39.4141 31.4231ZM32.5328 5.33594C32.5328 3.0743 34.3728 1.23437 36.6344 1.23437H37.3345V3.04922C35.8008 3.08953 34.3555 4.10516 34.3477 5.97891V9.02266H32.5329V5.33594H32.5328ZM32.5328 10.1946L35.3495 10.1945C35.6727 10.1945 35.9355 10.4573 35.9355 10.7805V17.397C35.9355 17.7201 35.6727 17.9829 35.3495 17.9829H32.5328V10.1946ZM5.65234 36.2197L10.4539 36.8201V38.3044C10.4539 38.6275 10.1911 38.8903 9.86797 38.8903H6.23828C5.91516 38.8903 5.65234 38.6275 5.65234 38.3044V36.2197ZM10.4539 28.4364H7.1457V26.6216H10.4539V28.4364ZM2.66555 3.04922V1.23437H3.36563C5.62719 1.23437 7.46719 3.0743 7.46719 5.33594V9.02266H5.65234V5.97891C5.64453 3.94891 4.17969 3.05047 2.66555 3.04922ZM4.68195 17.9829C4.35883 17.9829 4.09602 17.7201 4.09602 17.397V10.7805C4.09602 10.4573 4.35883 10.1945 4.68195 10.1945H7.46719V17.9828H4.68195V17.9829ZM4.15891 25.6001C4.15891 24.6308 4.9475 23.8423 5.91672 23.8423H10.4538V25.4497H6.55977C6.23617 25.4497 5.97383 25.712 5.97383 26.0356V29.0223C5.97383 29.3459 6.23617 29.6083 6.55977 29.6083H10.4539V31.423H4.15891V25.6001ZM29.5461 26.6216H32.8543V28.4364H29.5461V26.6216ZM29.5461 29.6083H33.4402C33.7973 29.5748 33.9927 29.3794 34.0262 29.0223V26.0356C34.0262 25.712 33.7639 25.4497 33.4402 25.4497H29.5461V23.8423H34.0832C35.0524 23.8423 35.841 24.6308 35.841 25.6001V31.4231H29.5461V29.6083ZM34.3477 38.3044C34.3477 38.6275 34.0848 38.8903 33.7617 38.8903H30.132C29.8089 38.8903 29.5461 38.6275 29.5461 38.3044V36.8201L34.3477 36.2197V38.3044Z" fill="#C4C4C4"/>
</svg>
