<svg width="40" height="20" viewBox="0 0 40 20" fill="none" xmlns="http://www.w3.org/2000/svg">
<path d="M38.1525 8.22729C37.0303 7.64135 35.8527 7.16588 34.6523 6.81408C34.3418 6.7233 34.0162 6.90104 33.9252 7.21158C33.8342 7.52213 34.0121 7.84768 34.3227 7.93869C35.4497 8.26901 36.5557 8.71557 37.6101 9.26612C37.7268 9.32697 37.8357 9.39791 37.9379 9.47588C37.2982 9.48229 36.669 9.50916 36.1812 9.60354C35.0907 9.81455 34.8618 10.3691 34.8618 10.7971C34.8618 12.0012 36.4835 13.0575 38.3321 13.0575C38.4994 13.0575 38.6646 13.0506 38.8282 13.0397V13.5889H35.7959C35.0889 12.5612 33.9053 11.8856 32.5664 11.8856C31.2275 11.8856 30.0438 12.5612 29.3369 13.5889H12.5144C11.8075 12.5612 10.6238 11.8856 9.28488 11.8856C7.94597 11.8856 6.7623 12.5612 6.05542 13.5889H1.17183V12.1928H1.96089C2.28449 12.1928 2.54683 11.9306 2.54683 11.6069V11.1647H3.89152C4.68628 11.1647 5.33292 10.5181 5.33292 9.72338V9.21901C5.33292 8.92143 5.24261 8.63541 5.07183 8.39174L3.87886 6.68979H5.29605C5.49628 6.68979 5.68277 6.58744 5.79035 6.41854C6.52144 5.27033 7.61683 4.21854 9.04597 3.29237C9.93996 2.71299 10.9065 2.2776 11.9196 1.98862C11.7412 2.09104 11.5654 2.19737 11.3932 2.30901C10.2744 3.03424 9.32949 3.84362 8.5848 4.71455C8.2755 5.07635 8.20222 5.57088 8.39347 6.00526C8.58339 6.43651 8.99433 6.71424 9.46605 6.73018C9.46605 6.73018 28.315 7.36698 28.3207 7.36705C28.3263 7.36705 28.3319 7.36658 28.3376 7.36643C28.3536 7.36604 28.3696 7.36541 28.3852 7.36377L28.3871 7.36369C29.4853 7.24346 30.6182 7.25541 31.7546 7.39924C32.076 7.44026 32.3688 7.21252 32.4094 6.89151C32.45 6.57049 32.2227 6.27729 31.9016 6.23666C30.7668 6.09299 29.6337 6.07127 28.5293 6.17182C27.6048 5.30908 26.7006 4.4769 25.8386 3.69549C23.7732 1.82409 21.1047 0.711429 18.325 0.562523L15.5975 0.416429C13.0181 0.278773 10.532 0.93307 8.40855 2.30909C6.94808 3.25549 5.7966 4.33385 4.98136 5.51799C3.03261 5.52643 2.85925 5.49994 2.65339 5.53768C1.9305 5.64979 1.37488 6.27479 1.37488 7.02893V10.5721C1.37488 10.5743 1.37457 10.5766 1.37457 10.5788C1.37457 10.5811 1.37488 10.5834 1.37488 10.5856V11.021H0.821753C0.36855 11.021 -0.00012207 11.3894 -0.00012207 11.8421V15.4274C-0.00012207 15.8178 0.277769 16.1564 0.658862 16.2322L5.64058 17.2386C6.21449 18.6907 7.63113 19.7212 9.2848 19.7212C10.838 19.7212 12.1829 18.8127 12.8162 17.4992H14.9773C15.3009 17.4992 15.5632 17.237 15.5632 16.9133C15.5632 16.5896 15.3009 16.3274 14.9773 16.3274H13.1665C13.1896 16.1559 13.2025 15.9813 13.2025 15.8035C13.2025 15.4425 13.1525 15.0931 13.0606 14.761H28.7906C28.6987 15.0931 28.6486 15.4425 28.6486 15.8035C28.6486 15.9813 28.6617 16.1559 28.6846 16.3274H17.7117C17.3881 16.3274 17.1257 16.5896 17.1257 16.9133C17.1257 17.237 17.3881 17.4992 17.7117 17.4992H29.035C29.6682 18.8128 31.0132 19.7212 32.5663 19.7212C34.1195 19.7212 35.4644 18.8127 36.0977 17.4992H37.8828C39.0503 17.4992 40 16.5495 40 15.3821V11.2719C40 9.98869 39.292 8.82221 38.1525 8.22729ZM9.46597 5.53276C9.45269 5.50268 9.46761 5.48533 9.4755 5.47596C11.1211 3.55135 13.6918 1.98729 16.6493 1.64612L17.8714 1.71159C18.0662 2.43307 18.3295 4.17018 17.8682 5.84135L9.50566 5.55877C9.49222 5.5583 9.47699 5.55783 9.46597 5.53276ZM26.7758 6.14237L19.0651 5.88182C19.4183 4.37182 19.3032 2.81377 19.0966 1.81018C21.3039 2.09994 23.3931 3.06073 25.0518 4.56362C25.6104 5.0701 26.1872 5.59838 26.7758 6.14237ZM4.16105 9.21893V9.7233C4.16105 9.8719 4.04019 9.99276 3.89152 9.99276H2.54683V7.02877C2.54683 6.97565 2.56019 6.92604 2.58199 6.88119L4.11222 9.06432C4.1441 9.10979 4.16105 9.1633 4.16105 9.21893ZM1.17183 15.1401V14.7608H5.50917C5.39792 15.1632 5.35238 15.5711 5.37191 15.9886L1.17183 15.1401ZM9.28488 18.5491C7.77089 18.5491 6.5391 17.3173 6.5391 15.8033C6.5391 14.2893 7.77089 13.0575 9.28488 13.0575C10.7989 13.0575 12.0307 14.2893 12.0307 15.8033C12.0307 17.3173 10.7989 18.5491 9.28488 18.5491ZM38.3321 11.8856C37.0077 11.8856 36.1395 11.2068 36.0427 10.8579C36.2853 10.7171 37.0543 10.6459 38.3321 10.6459C38.4706 10.6459 38.6082 10.6508 38.7441 10.6597C38.7991 10.8559 38.8281 11.0614 38.8281 11.2717V11.866C38.6657 11.8789 38.5 11.8856 38.3321 11.8856ZM32.5663 18.5491C31.0523 18.5491 29.8205 17.3173 29.8205 15.8033C29.8205 14.2893 31.0523 13.0575 32.5663 13.0575C34.0803 13.0575 35.3121 14.2893 35.3121 15.8033C35.3121 17.3173 34.0803 18.5491 32.5663 18.5491ZM37.8828 16.3271H36.4479C36.471 16.1556 36.4839 15.981 36.4839 15.8033C36.4839 15.4423 36.4339 15.0929 36.342 14.7607H38.8281V15.3818C38.8281 15.9031 38.404 16.3271 37.8828 16.3271Z" fill="#C4C4C4"/>
<path d="M9.28403 13.8867C8.22762 13.8867 7.36816 14.7462 7.36816 15.8025C7.36816 16.8589 8.22762 17.7184 9.28403 17.7184C10.3404 17.7184 11.1999 16.8589 11.1999 15.8025C11.1999 14.7462 10.3404 13.8867 9.28403 13.8867ZM9.28403 16.5466C8.87379 16.5466 8.54004 16.2128 8.54004 15.8026C8.54004 15.3923 8.87379 15.0587 9.28403 15.0587C9.69426 15.0587 10.028 15.3923 10.028 15.8026C10.028 16.2128 9.69426 16.5466 9.28403 16.5466Z" fill="#C4C4C4"/>
<path d="M32.5661 13.8867C31.5097 13.8867 30.6503 14.7462 30.6503 15.8025C30.6503 16.8589 31.5097 17.7184 32.5661 17.7184C33.6225 17.7184 34.482 16.8589 34.482 15.8025C34.482 14.7462 33.6225 13.8867 32.5661 13.8867ZM32.5661 16.5466C32.1559 16.5466 31.8221 16.2128 31.8221 15.8026C31.8221 15.3923 32.1559 15.0587 32.5661 15.0587C32.9764 15.0587 33.3101 15.3923 33.3101 15.8026C33.3101 16.2128 32.9764 16.5466 32.5661 16.5466Z" fill="#C4C4C4"/>
<path d="M20 7.92578C19.6764 7.92578 19.4141 8.18805 19.4141 8.51172C19.4141 8.83539 19.6764 9.09766 20 9.09766H20.4063C20.7298 9.09766 20.9922 8.83539 20.9922 8.51172C20.9922 8.18805 20.7298 7.92578 20.4063 7.92578H20Z" fill="#C4C4C4"/>
<path d="M11.2427 7.92578C10.9191 7.92578 10.6567 8.18805 10.6567 8.51172C10.6567 8.83539 10.9191 9.09766 11.2427 9.09766H11.6489C11.9725 9.09766 12.2349 8.83539 12.2349 8.51172C12.2349 8.18805 11.9725 7.92578 11.6489 7.92578H11.2427Z" fill="#C4C4C4"/>
</svg>
