<svg width="38" height="41" viewBox="0 0 38 41" fill="none" xmlns="http://www.w3.org/2000/svg">
<path d="M36.644 7.96095H17.0329C16.6364 6.37462 15.1995 5.19579 13.492 5.19579H13.2379L11.2316 0.453595C11.1308 0.215313 10.8972 0.0605469 10.6385 0.0605469C10.3798 0.0605469 10.1463 0.215391 10.0455 0.453595L8.03914 5.19579H6.4907C6.135 5.19579 5.84671 5.48415 5.84671 5.83978V7.96088H1.35553C0.99983 7.96088 0.711548 8.24924 0.711548 8.60486V13.7403C0.711548 14.0959 0.99983 14.3842 1.35553 14.3842H5.84687V15.8471C5.84687 16.2027 6.13515 16.491 6.49086 16.491H7.42695V35.3491H3.06726C2.71155 35.3491 2.42327 35.6375 2.42327 35.9931V39.4166C2.42327 39.7723 2.71155 40.0606 3.06726 40.0606H12.0451C12.4008 40.0606 12.6891 39.7723 12.6891 39.4166C12.6891 39.061 12.4008 38.7727 12.0451 38.7727H3.71124V36.6371H17.5658V38.7727H14.1058C13.7501 38.7727 13.4618 39.061 13.4618 39.4166C13.4618 39.7723 13.7501 40.0606 14.1058 40.0606H18.2098C18.5655 40.0606 18.8538 39.7723 18.8538 39.4166V35.9931C18.8538 35.6375 18.5655 35.3491 18.2098 35.3491H13.8502V16.491H16.4981C16.8538 16.491 17.142 16.2026 17.142 15.847V14.3842H32.84V20.2268H32.4536C32.0979 20.2268 31.8097 20.5151 31.8097 20.8707C31.8097 21.2264 32.0979 21.5147 32.4536 21.5147H32.84V23.1549C32.84 23.5105 33.1283 23.7989 33.484 23.7989C34.1272 23.7989 34.6505 24.3222 34.6505 24.9654C34.6505 25.6086 34.1272 26.1319 33.484 26.1319C32.8408 26.1319 32.3174 25.6086 32.3174 24.9654C32.3174 24.6097 32.0291 24.3214 31.6734 24.3214C31.3177 24.3214 31.0294 24.6097 31.0294 24.9654C31.0294 26.3187 32.1304 27.4199 33.484 27.4199C34.8375 27.4199 35.9385 26.3188 35.9385 24.9654C35.9385 23.8348 35.17 22.8802 34.1279 22.5966V21.5147H34.5143C34.87 21.5147 35.1583 21.2264 35.1583 20.8707C35.1583 20.5151 34.87 20.2268 34.5143 20.2268H34.1279V14.3842H36.6441C36.9998 14.3842 37.2881 14.0958 37.2881 13.7402V8.60486C37.288 8.24924 36.9997 7.96095 36.644 7.96095ZM1.99952 13.0963V10.1597L4.93609 13.0963H1.99952ZM5.84671 12.1855L2.91015 9.24892H5.84671V12.1855ZM10.6385 2.35735L11.8395 5.19587H9.43766L10.6385 2.35735ZM12.5621 35.3491H9.62555L12.5621 32.4125V35.3491ZM8.71485 34.4384V27.2774L12.2954 30.8579L8.71485 34.4384ZM12.5621 29.3031L8.98156 25.7226L12.5621 22.1421V29.3031ZM8.71485 24.1679V17.4018L12.0979 20.7848L8.71485 24.1679ZM12.5621 19.4275L9.62555 16.491H12.5621V19.4275ZM15.8541 12.262H11.2166V10.3531C11.2166 9.99744 10.9283 9.70908 10.5726 9.70908C10.2169 9.70908 9.9286 9.99744 9.9286 10.3531V12.906C9.9286 13.2616 10.2169 13.5499 10.5726 13.5499H15.854V15.203H7.13469V6.48384H9.92852V8.24939C9.92852 8.60502 10.2168 8.89338 10.5725 8.89338C10.9282 8.89338 11.2165 8.60502 11.2165 8.24939V6.48384H12.809C12.8098 6.48384 12.8106 6.484 12.8113 6.484C12.8124 6.484 13.492 6.48384 13.492 6.48384C14.7945 6.48384 15.854 7.54345 15.854 8.8458V12.262H15.8541ZM17.142 12.1855V9.24892H20.0785L17.142 12.1855ZM18.0528 13.0963L21.4358 9.71322L24.8188 13.0963H18.0528ZM22.793 9.24892H29.954L26.3735 12.8295L22.793 9.24892ZM27.9282 13.0963L31.5088 9.51572L35.0894 13.0963H27.9282ZM36.0001 12.1855L33.0635 9.24892H36.0001V12.1855Z" fill="#C4C4C4"/>
</svg>
