<svg width="40" height="29" viewBox="0 0 40 29" fill="none" xmlns="http://www.w3.org/2000/svg">
<path d="M39.2283 6.83535L30.7844 3.98167C30.4779 3.87854 30.1453 4.04261 30.0416 4.34919C29.938 4.65577 30.1026 4.98837 30.4092 5.09197L38.7724 7.91846L34.8357 9.83771C34.6722 9.72747 34.4888 9.64286 34.2899 9.5909L22.4817 6.50486C22.1064 4.57389 19.7289 3.76345 18.2686 5.13767C17.7632 5.61332 17.4733 6.28407 17.4733 6.97793V6.99075C17.4775 7.80775 18.1537 8.4724 18.9808 8.4724H21.0195C21.546 8.4724 22.0725 8.19769 22.3456 7.68056L33.3574 10.5585C29.878 12.2549 22.067 16.063 21.0713 16.5485C20.3685 16.8911 19.5854 16.8686 18.9289 16.5485L1.22776 7.91846L19.2174 1.83857C19.722 1.66794 20.2781 1.66794 20.7827 1.83857L27.8063 4.21238C28.113 4.3159 28.4454 4.1516 28.5491 3.84486C28.6527 3.53828 28.4882 3.20568 28.1816 3.10208L21.158 0.728273C20.4112 0.475992 19.5889 0.475992 18.8422 0.728273L0.771874 6.83535C-0.188182 7.16006 -0.274828 8.48974 0.637647 8.93454L9.91147 13.4559C9.40129 15.8814 8.62233 18.4928 7.77572 20.8105C7.42914 21.7584 7.72775 22.8128 8.51858 23.4344C11.1949 25.5379 14.3571 27.1629 17.5982 28.2074C19.1212 28.6981 20.8195 28.717 22.4017 28.2074C25.6437 27.1624 28.8063 25.5368 31.4812 23.4344C32.2749 22.8104 32.5694 21.7555 32.224 20.8105C31.3953 18.5442 30.6057 15.9158 30.0884 13.4561L34.4506 11.3294V20.1486C33.7051 20.2057 33.1155 20.8293 33.1155 21.5893V23.2969C33.1155 23.5505 33.2257 23.7785 33.3999 23.9372L33.1822 27.2282C33.1397 27.8711 33.6509 28.4176 34.2955 28.4176H35.7779C36.4222 28.4176 36.9336 27.8713 36.8911 27.2282L36.6735 23.9372C36.8477 23.7785 36.9579 23.5506 36.9579 23.2969V21.5892C36.9579 20.8292 36.3683 20.2057 35.6227 20.1486V11.3166C35.6227 11.1365 35.5943 10.9621 35.5437 10.7964L39.3625 8.93461C40.2738 8.49029 40.1899 7.16052 39.2283 6.83535ZM21.0195 7.30045H18.9808C18.7998 7.30045 18.6461 7.15591 18.6453 6.98778V6.97793C18.6453 6.60041 18.7967 6.25 19.0718 5.99108C19.9157 5.19689 21.2985 5.76857 21.3533 6.91082C21.3664 7.18435 21.1903 7.30045 21.0195 7.30045ZM30.4636 19.3042C27.2976 21.782 22.8047 23.5545 21.2571 23.8495C20.9392 23.9102 20.7307 24.2171 20.7913 24.5349C20.852 24.8529 21.1597 25.0614 21.4767 25.0007C23.0954 24.692 27.5306 22.9684 30.8601 20.4768C30.942 20.7103 31.0369 20.9762 31.1233 21.2128C31.2952 21.6832 31.148 22.2055 30.757 22.513C27.6013 24.9931 24.2761 26.3719 22.0422 27.0917C20.7079 27.5218 19.2587 27.5112 17.9576 27.0917C15.7238 26.3718 12.3985 24.9931 9.24284 22.513C8.85196 22.2057 8.70445 21.6834 8.87657 21.2128C8.88001 21.2034 8.88337 21.1938 8.8868 21.1845C8.97196 20.9512 9.06635 20.6864 9.13971 20.4766C12.3905 22.9086 16.8136 24.6749 18.5226 25.0009C18.8409 25.0614 19.1474 24.853 19.208 24.5352C19.2687 24.2173 19.0601 23.9104 18.7423 23.8498C17.2813 23.5713 12.773 21.8362 9.53622 19.3041C10.0121 17.8488 10.5635 15.9785 10.997 13.9851L18.4153 17.6018C19.403 18.0834 20.5587 18.1022 21.585 17.6018L29.0027 13.9853C29.4362 15.9786 29.9876 17.8489 30.4636 19.3042ZM34.3555 27.2455L34.5593 24.1642H35.5139L35.7177 27.2455H34.3555ZM35.7859 21.5891V22.9922H34.2874V21.5891C34.2874 21.4404 34.413 21.3148 34.5617 21.3148H35.5115C35.6602 21.3149 35.7859 21.4404 35.7859 21.5891Z" fill="#C4C4C4"/>
</svg>
