<svg width="40" height="41" viewBox="0 0 40 41" fill="none" xmlns="http://www.w3.org/2000/svg">
<path d="M29.3346 35.2116C32.0272 35.2116 34.2177 33.021 34.2177 30.3285V27.2617C34.9432 27.0166 35.4671 26.3299 35.4671 25.5228C35.4671 24.5108 34.6438 23.6875 33.6318 23.6875C32.6198 23.6875 31.7965 24.5108 31.7965 25.5228C31.7965 26.3299 32.3204 27.0165 33.0458 27.2617V30.3285C33.0458 32.3749 31.3809 34.0397 29.3346 34.0397C27.2883 34.0397 25.6234 32.3748 25.6234 30.3285V27.2617C26.3488 27.0165 26.8727 26.3299 26.8727 25.5228C26.8727 24.5108 26.0494 23.6875 25.0374 23.6875C24.0254 23.6875 23.2021 24.5108 23.2021 25.5228C23.2021 26.3299 23.7261 27.0165 24.4515 27.2617V30.3285C24.4515 33.021 26.6421 35.2116 29.3346 35.2116ZM33.6318 24.8593C33.9976 24.8593 34.2952 25.1569 34.2952 25.5227C34.2952 25.8885 33.9976 26.1862 33.6318 26.1862C33.266 26.1862 32.9684 25.8885 32.9684 25.5227C32.9684 25.1569 33.266 24.8593 33.6318 24.8593ZM25.0374 24.8593C25.4032 24.8593 25.7008 25.1569 25.7008 25.5227C25.7008 25.8885 25.4031 26.1862 25.0374 26.1862C24.6717 26.1862 24.3741 25.8885 24.3741 25.5227C24.3741 25.1569 24.6717 24.8593 25.0374 24.8593Z" fill="#C4C4C4"/>
<path d="M2.8976 40.0605H37.6397C38.5363 40.0605 39.235 39.2806 39.1373 38.3898L38.4532 32.1474C38.418 31.8256 38.1293 31.5939 37.8069 31.6287C37.4853 31.664 37.2531 31.9533 37.2883 32.275L37.9724 38.5175C37.994 38.7155 37.8392 38.8886 37.6397 38.8886H21.0298H21.029C20.8311 38.8886 20.6745 38.7172 20.6963 38.5175L22.3862 23.0975C22.4048 22.9275 22.5479 22.7993 22.7189 22.7993H35.95C36.1209 22.7993 36.264 22.9275 36.2827 23.0975L36.9887 29.5405C37.0239 29.8622 37.3113 30.0942 37.635 30.0592C37.9566 30.0239 38.1888 29.7346 38.1536 29.4129L37.4475 22.9699C37.3636 22.2046 36.7199 21.6275 35.95 21.6275H29.4675L28.5626 13.3703C28.4489 12.3319 27.5753 11.5489 26.5308 11.5489H24.1995V8.20763C24.1995 3.71533 20.5448 0.0605469 16.0525 0.0605469C11.5602 0.0605469 7.90539 3.71533 7.90539 8.20763V11.5489H5.57423C4.5296 11.5489 3.65606 12.3319 3.54231 13.3703L0.865755 37.7938C0.733329 39.0029 1.68187 40.0605 2.8976 40.0605ZM2.03071 37.9214L4.70726 13.4979C4.75585 13.0549 5.1286 12.7208 5.57431 12.7208H7.90546V14.9027C7.13998 15.1505 6.58473 15.8699 6.58473 16.7169C6.58473 17.7683 7.44006 18.6236 8.49142 18.6236C9.54277 18.6236 10.3981 17.7683 10.3981 16.7169C10.3981 15.8699 9.84286 15.1505 9.07737 14.9027V12.7208H14.6853C15.009 12.7208 15.2713 12.4584 15.2713 12.1348C15.2713 11.8112 15.009 11.5489 14.6853 11.5489H9.07737V8.20763C9.07737 4.36152 12.2064 1.23245 16.0525 1.23245C19.8987 1.23245 23.0277 4.36152 23.0277 8.20763V11.5489H17.4198C17.0961 11.5489 16.8338 11.8112 16.8338 12.1348C16.8338 12.4584 17.0961 12.7208 17.4198 12.7208H23.0277V14.9027C22.2622 15.1505 21.7071 15.8699 21.7071 16.7169C21.7071 17.7683 22.5623 18.6236 23.6137 18.6236C24.665 18.6236 25.5204 17.7683 25.5204 16.7169C25.5204 15.8699 24.9651 15.1505 24.1996 14.9027V12.7208H26.5309C26.9765 12.7208 27.3492 13.0549 27.3978 13.4979L28.2886 21.6275H22.719C21.949 21.6275 21.3052 22.2046 21.2214 22.97L19.5315 38.39C19.5131 38.5578 19.5279 38.7464 19.5604 38.8886H2.8976C2.37806 38.8886 1.97406 38.4391 2.03071 37.9214ZM8.49134 15.9821C8.89658 15.9821 9.22612 16.3117 9.22612 16.7169C9.22612 17.1221 8.89651 17.4517 8.49134 17.4517C8.08617 17.4517 7.75655 17.1221 7.75655 16.7169C7.75655 16.3117 8.08609 15.9821 8.49134 15.9821ZM23.6136 15.9821C24.0188 15.9821 24.3484 16.3117 24.3484 16.7169C24.3484 17.1221 24.0188 17.4517 23.6136 17.4517C23.2084 17.4517 22.8789 17.1221 22.8789 16.7169C22.8789 16.3117 23.2085 15.9821 23.6136 15.9821Z" fill="#C4C4C4"/>
</svg>
