<svg width="40" height="40" viewBox="0 0 40 40" fill="none" xmlns="http://www.w3.org/2000/svg">
<path d="M36.892 27.6559C37.4079 27.6559 37.8278 27.237 37.8278 26.7223V25.1003H39.0555C39.5764 25.1003 40.0001 24.6765 40.0001 24.1556V22.0119C40.0001 21.4911 39.5763 21.0673 39.0555 21.0673H37.3671V14.6268C37.5325 14.668 37.7019 14.6897 37.8727 14.6897C38.0582 14.6897 38.245 14.6652 38.4293 14.6157C38.978 14.4683 39.4352 14.1172 39.7154 13.6289C39.9984 13.1398 40.0734 12.5681 39.9265 12.0191C39.7796 11.4697 39.4287 11.0114 38.9387 10.7287L21.1384 0.451953C20.8125 0.262344 20.4188 0.162109 20 0.162109C19.5813 0.162109 19.1876 0.262344 18.8634 0.451016L1.06074 10.7289C0.0472206 11.3155 -0.300904 12.6161 0.28433 13.6282C0.567142 14.1183 1.02496 14.4691 1.57363 14.6161C1.92722 14.7108 2.29035 14.7128 2.63519 14.6269V21.0672H0.94683C0.425892 21.0672 0.00214243 21.491 0.00214243 22.0119V24.1555C0.00214243 24.6764 0.425971 25.1002 0.94683 25.1002H2.17449V26.7222C2.17449 27.237 2.59331 27.6558 3.10808 27.6558H3.81324V33.3711H3.10808C2.59331 33.3711 2.17449 33.7909 2.17449 34.3069V35.9266H0.94683C0.425892 35.9266 0.00214243 36.3505 0.00214243 36.8713V39.015C0.00214243 39.5359 0.425971 39.9597 0.94683 39.9597H18.7777C19.1013 39.9597 19.3636 39.6973 19.3636 39.3737C19.3636 39.0502 19.1014 38.7878 18.7777 38.7878H1.17394V37.0985H38.8283V38.7878H21.4815C21.1579 38.7878 20.8956 39.0502 20.8956 39.3737C20.8956 39.6973 21.1578 39.9597 21.4815 39.9597H39.0555C39.5764 39.9597 40.0001 39.5359 40.0001 39.015V36.8713C40.0001 36.3505 39.5763 35.9266 39.0555 35.9266H37.8278V34.3069C37.8278 33.7909 37.4079 33.3711 36.892 33.3711H36.1869V27.6558H36.892V27.6559ZM2.59831 13.3904C2.3791 13.5168 2.123 13.5501 1.87675 13.4841C1.63074 13.4182 1.42558 13.2614 1.29933 13.0425C1.29917 13.0423 1.2991 13.0421 1.29894 13.0419C1.03675 12.5888 1.19324 12.0062 1.64722 11.7434L19.451 1.46492C19.5939 1.38172 19.7941 1.33398 20 1.33398C20.209 1.33398 20.404 1.38047 20.5508 1.46586L38.3531 11.7436C38.5718 11.8698 38.7286 12.0752 38.7946 12.322C38.8606 12.5684 38.8274 12.8241 38.7002 13.0438C38.5751 13.2617 38.371 13.418 38.1253 13.4841C37.8789 13.5503 37.623 13.5173 37.4043 13.3906L20.293 3.51148C20.2024 3.45914 20.1012 3.43297 20 3.43297C19.8989 3.43297 19.7977 3.45914 19.7071 3.51148L2.59831 13.3904ZM1.17394 22.2391H18.7777C19.1013 22.2391 19.3636 21.9768 19.3636 21.6532C19.3636 21.3296 19.1014 21.0673 18.7777 21.0673H3.80699V14.0456L20 4.69547L36.1954 14.0457V21.0673H21.3841C21.0605 21.0673 20.7982 21.3296 20.7982 21.6532C20.7982 21.9768 21.0604 22.2391 21.3841 22.2391H38.8283V23.9284H1.17394V22.2391ZM16.3674 26.484V25.1003H23.6327V26.484H16.3674ZM21.9918 27.6559V33.3712H18.0083V27.6559H21.9918ZM3.34636 26.484V25.1003H10.6094V26.484H3.34636ZM8.97074 27.6559V33.3712H4.98511V27.6559H8.97074ZM10.6094 35.9267H3.34636V34.543H10.6094V35.9267ZM15.1955 34.3069V35.9267H11.7812V34.3069C11.7812 33.7909 11.3625 33.3712 10.8476 33.3712H10.1425V27.6559H10.8476C11.3625 27.6559 11.7812 27.237 11.7812 26.7223V25.1003H15.1955V26.7223C15.1955 27.2371 15.6153 27.6559 16.1313 27.6559H16.8364V33.3712H16.1313C15.6153 33.3712 15.1955 33.7909 15.1955 34.3069ZM23.6327 35.9267H16.3674V34.543H23.6327V35.9267ZM28.2188 34.3069V35.9267H24.8045V34.3069C24.8045 33.7909 24.3846 33.3712 23.8687 33.3712H23.1636V27.6559H23.8687C24.3846 27.6559 24.8045 27.237 24.8045 26.7223V25.1003H28.2188V26.7223C28.2188 27.2371 28.6386 27.6559 29.1546 27.6559H29.8597V33.3712H29.1546C28.6386 33.3712 28.2188 33.7909 28.2188 34.3069ZM36.656 34.543V35.9267H29.3907V34.543H36.656ZM31.0316 33.3712V27.6559H35.015V33.3712H31.0316ZM29.3907 26.484V25.1003H36.656V26.484H29.3907Z" fill="#C4C4C4"/>
<path d="M22.4234 13.0222C22.4234 11.6648 21.3191 10.5605 19.9618 10.5605C18.6045 10.5605 17.5002 11.6648 17.5002 13.0222C17.5002 14.3795 18.6045 15.4838 19.9618 15.4838C21.3191 15.4838 22.4234 14.3795 22.4234 13.0222ZM18.6721 13.0222C18.6721 12.311 19.2507 11.7324 19.9618 11.7324C20.6729 11.7324 21.2515 12.311 21.2515 13.0222C21.2515 13.7334 20.6729 14.312 19.9618 14.312C19.2507 14.312 18.6721 13.7334 18.6721 13.0222Z" fill="#C4C4C4"/>
</svg>
