<svg width="40" height="40" viewBox="0 0 40 40" fill="none" xmlns="http://www.w3.org/2000/svg">
<path d="M38.4508 27.6596C38.4625 27.6358 38.4729 27.6114 38.4812 27.5864C40.8511 22.1166 40.4277 15.4109 37.3496 10.2856C38.9929 8.32113 36.8584 5.50797 34.5242 6.59644C34.114 6.17726 33.6833 5.77551 33.237 5.39565C34.1131 3.01425 31.1894 1.06069 29.3685 2.83995C24.0762 0.167548 17.4937 0.201392 12.2306 2.93038C10.3583 0.946265 7.21399 3.07365 8.34755 5.56307C7.69835 6.13075 7.08385 6.744 6.51726 7.39251C6.02805 7.95245 6.91432 8.71991 7.40016 8.16387C7.92728 7.56063 8.4984 6.98998 9.10165 6.46114C10.2682 7.30254 11.9597 6.87391 12.5997 5.58957C14.7116 6.1975 16.7285 7.07001 18.6079 8.18982C18.4505 8.75719 18.5148 9.39084 18.7848 9.9146C17.238 11.2508 15.845 12.7622 14.6354 14.4187C13.5187 14.0813 12.2878 14.6461 11.8022 15.7036C9.33957 15.7168 6.8693 15.9817 4.44396 16.4943C4.2298 16.0953 3.90512 15.7646 3.5115 15.543C3.96718 13.7661 4.68892 12.0757 5.66109 10.5127C6.04845 9.88974 5.07066 9.24218 4.66555 9.89342C3.63195 11.5551 2.86425 13.3521 2.37872 15.2411C-0.429601 15.2888 -0.901068 19.1739 1.77243 19.9212C1.73303 25.4505 4.12366 30.8262 8.26916 34.4882C7.40439 36.8242 10.2118 38.751 12.0646 37.1034C17.4716 39.9786 24.3051 39.9789 29.7124 37.1043C31.5968 38.968 34.6149 36.886 33.5535 34.4496C35.69 32.5508 37.3498 30.2285 38.4508 27.6596ZM37.7122 26.3486C36.0895 24.7364 34.3137 23.2739 32.4177 21.9901C32.687 21.1467 32.453 20.1978 31.8242 19.5751C33.4185 16.9243 34.6701 14.0819 35.5511 11.1126C35.8447 11.1137 36.1269 11.0595 36.387 10.9615C39.0866 15.5208 39.5803 21.3993 37.7122 26.3486ZM10.7369 32.9753C10.2435 28.143 11.1092 23.3222 13.2518 18.9656C14.5829 19.3809 16.0216 18.5056 16.2801 17.1392C20.3222 17.6375 24.2151 18.8242 27.8685 20.6723C27.6928 21.3553 27.8383 22.1084 28.2568 22.6766C24.1388 27.8937 18.7029 31.8195 12.4816 34.0695C12.1047 33.4726 11.4707 33.055 10.7369 32.9753ZM28.9661 21.2664C28.9661 20.6021 29.5026 20.0617 30.162 20.0617C31.7485 20.1277 31.7481 22.4053 30.162 22.4711C29.5026 22.4711 28.9661 21.9307 28.9661 21.2664ZM36.7522 8.73562C36.7522 9.39991 36.2157 9.94032 35.5563 9.94032C33.9697 9.87427 33.9701 7.59674 35.5563 7.53093C36.2157 7.53093 36.7522 8.07133 36.7522 8.73562ZM33.6284 7.35749C32.8182 8.4959 33.1942 10.1416 34.4157 10.8182C33.5623 13.6823 32.3523 16.4241 30.8131 18.9814C30.4913 18.8889 30.1341 18.8659 29.8033 18.9165C28.1944 15.481 25.8534 12.3865 22.9937 9.91476C23.2639 9.39069 23.3283 8.75813 23.1707 8.18998C24.9808 7.11152 26.9197 6.26159 28.9473 5.65741C29.6212 6.95848 31.429 7.32583 32.5513 6.35187C32.9233 6.67186 33.2834 7.00803 33.6284 7.35749ZM19.6933 8.82637C19.6933 8.16208 20.2298 7.62167 20.8892 7.62167C22.4758 7.68772 22.4754 9.96517 20.8892 10.031C20.2298 10.031 19.6933 9.49058 19.6933 8.82637ZM31.0319 3.32548C31.6915 3.32548 32.228 3.86589 32.228 4.53018C32.1622 6.12833 29.9016 6.12794 29.836 4.53018C29.836 3.86589 30.3725 3.32548 31.0319 3.32548ZM10.4803 5.73479C9.82088 5.73479 9.28439 5.19439 9.28439 4.5301C9.3502 2.93186 11.6108 2.93241 11.6763 4.5301C11.6763 5.19439 11.1398 5.73479 10.4803 5.73479ZM12.8465 4.44021C12.8404 4.27748 12.818 4.11905 12.7808 3.96617C17.688 1.42852 23.8184 1.38428 28.7634 3.84814C28.6999 4.06066 28.6651 4.28538 28.6639 4.51806C26.5312 5.14898 24.4919 6.04017 22.5881 7.17248C21.673 6.22588 20.1059 6.22556 19.1905 7.1724C17.2065 5.99233 15.0769 5.07503 12.8465 4.44021ZM19.5609 10.7933C20.3536 11.3343 21.4246 11.3344 22.2174 10.7934C24.9478 13.1508 27.1844 16.1017 28.725 19.3786C28.6206 19.4589 28.5231 19.5478 28.4333 19.644C24.5816 17.6904 20.4713 16.4482 16.2019 15.9485C16.0866 15.5996 15.893 15.2863 15.6418 15.0298C16.7877 13.4733 18.1027 12.0516 19.5609 10.7933ZM13.9538 15.4904C14.6132 15.4904 15.1497 16.0308 15.1497 16.6951C15.0839 18.2933 12.8234 18.2928 12.7578 16.6951C12.7579 16.0308 13.2944 15.4904 13.9538 15.4904ZM1.16136 17.6177C1.16136 16.9535 1.69786 16.4131 2.3573 16.4131C3.94381 16.4791 3.94334 18.7565 2.3573 18.8224C1.69794 18.8224 1.16136 18.282 1.16136 17.6177ZM2.94476 19.9208C2.94476 19.9208 4.72534 19.5325 4.72534 17.6332C4.72534 17.6332 9.29432 16.9029 11.5931 16.8772C11.6362 17.4452 11.8788 17.9577 12.2508 18.3444C9.96626 22.9403 9.04483 28.0358 9.57523 33.1419C9.34684 33.2371 9.13659 33.3672 8.95072 33.5254C5.12623 30.0993 2.94476 24.3589 2.94476 19.9208ZM10.4803 36.5428C9.82088 36.5428 9.28439 36.0024 9.28439 35.3381C9.28439 34.6739 9.82088 34.1334 10.4803 34.1334C11.1309 34.1334 11.6763 34.697 11.6763 35.3381C11.6763 36.0024 11.1398 36.5428 10.4803 36.5428ZM20.8892 38.0964C18.0441 38.0964 15.2306 37.415 12.716 36.1214C12.8181 35.8288 12.8631 35.4956 12.8433 35.1851C19.2789 32.8654 24.9027 28.8114 29.1629 23.4209C29.5129 23.585 29.9013 23.6604 30.2872 23.6401C30.5476 24.6067 30.7534 25.5929 30.8992 26.579C31.0109 27.3338 32.1711 27.1652 32.0591 26.4075C31.9042 25.3604 31.685 24.3132 31.4067 23.2876C31.5468 23.2004 31.677 23.0987 31.7957 22.985C33.7519 24.313 35.5757 25.8375 37.2279 27.5248C36.2032 29.79 34.7118 31.841 32.817 33.5358C32.6296 33.3951 32.4207 33.2819 32.1965 33.2014C32.3117 32.1116 32.3619 31.0112 32.345 29.9229C32.3331 29.1571 31.1608 29.1751 31.1727 29.9411C31.189 30.9872 31.1405 32.0449 31.0292 33.0925C29.6466 33.3124 28.7424 34.746 29.1233 36.0896C26.593 37.4038 23.7577 38.0964 20.8892 38.0964ZM31.4011 36.6448C30.7417 36.6448 30.2052 36.1044 30.2052 35.4401C30.271 33.8418 32.5315 33.8424 32.5971 35.4401C32.5971 36.1044 32.0606 36.6448 31.4011 36.6448Z" fill="#C4C4C4"/>
</svg>
