<svg width="38" height="41" viewBox="0 0 38 41" fill="none" xmlns="http://www.w3.org/2000/svg">
<path d="M32.1939 27.4163V24.0825C32.1939 23.7583 31.931 23.4954 31.6068 23.4954C31.2826 23.4954 31.0197 23.7583 31.0197 24.0825V27.4163C27.8002 27.7137 25.2705 30.4286 25.2705 33.7244C25.2705 35.8521 26.3259 37.7368 27.9393 38.8864H22.2849C20.8002 38.8864 19.4048 38.2312 18.4567 37.0887C17.5084 35.9463 17.1215 34.4541 17.395 32.9948L18.5038 27.0784H24.6909C25.8779 27.0784 26.8436 26.1127 26.8436 24.9258V17.1591C27.6375 16.9715 28.4627 16.872 29.3077 16.872C30.2517 16.872 31.0198 17.6401 31.0198 18.5841V21.7342C31.0198 22.0584 31.2827 22.3213 31.6069 22.3213C31.9311 22.3213 32.194 22.0584 32.194 21.7342V18.584C32.194 17.408 31.4867 16.3948 30.4755 15.9455V12.8314C30.4755 12.5072 30.2126 12.2443 29.8884 12.2443H29.8795V4.35453C29.8794 1.9868 27.9531 0.0605469 25.5855 0.0605469C23.8938 0.0605469 22.3548 1.05859 21.6648 2.60336L18.3273 10.0753C18.195 10.3713 18.3278 10.7185 18.6238 10.8508C18.9199 10.9832 19.267 10.8502 19.3993 10.5542L22.7368 3.08227C23.2381 1.95992 24.3563 1.23477 25.5854 1.23477C27.3057 1.23477 28.7052 2.6343 28.7052 4.35453V12.2444H27.531V4.35453C27.531 3.28172 26.6582 2.40891 25.5854 2.40891C24.8189 2.40891 24.1216 2.86109 23.8089 3.56109L10.4018 33.5763H9.11586L18.4413 12.6988C18.5736 12.4028 18.4408 12.0556 18.1447 11.9234C17.8485 11.7909 17.5015 11.9239 17.3692 12.2199L7.82992 33.5763H7.51336C6.75805 33.5763 6.14352 34.1909 6.14352 34.9462V36.1732H4.15117C2.23336 36.1732 0.557344 37.4696 0.0753128 39.3259C0.0296097 39.5017 0.0680472 39.6888 0.179141 39.8326C0.290313 39.9762 0.461797 40.0605 0.643516 40.0605H9.87617C10.2004 40.0605 10.4633 39.7977 10.4633 39.4734C10.4633 39.1491 10.2004 38.8862 9.87617 38.8862H1.50914C2.03852 37.9525 3.03844 37.3473 4.15117 37.3473H14.1051C14.945 37.3473 15.6791 37.9151 15.8902 38.7281L15.9313 38.8862H12.2246C11.9004 38.8862 11.6375 39.1491 11.6375 39.4734C11.6375 39.7976 11.9004 40.0605 12.2246 40.0605H16.6903C16.872 40.0605 17.0435 39.9763 17.1547 39.8326C17.2659 39.6888 17.3042 39.5017 17.2585 39.3258L17.0266 38.433C16.6812 37.1024 15.4798 36.1731 14.105 36.1731H12.8116V34.9461C12.8116 34.2714 12.3209 33.7105 11.678 33.598L24.8809 4.03992C25.0049 3.76234 25.2815 3.58305 25.5854 3.58305C26.0108 3.58305 26.3568 3.92914 26.3568 4.35453V12.2444H26.2564C25.9322 12.2444 25.6693 12.5072 25.6693 12.8315V16.268C21.6086 17.5753 18.4452 21.0172 17.6248 25.3945L16.2409 32.7786C15.9028 34.5823 16.3812 36.4266 17.5531 37.8387C18.7252 39.2507 20.4498 40.0605 22.2849 40.0605H31.6068C35.1006 40.0605 37.9431 37.2181 37.9431 33.7243C37.9431 30.4285 35.4134 27.7137 32.1939 27.4163ZM7.31758 36.1733V34.9463C7.31758 34.8384 7.40539 34.7505 7.51328 34.7505H11.4418C11.5497 34.7505 11.6375 34.8384 11.6375 34.9463V36.1733H7.31758ZM26.8436 13.4185H29.3013V15.6979C28.4614 15.6984 27.6391 15.7874 26.8436 15.9559V13.4185ZM25.6694 17.5087V24.9257C25.6694 25.4652 25.2305 25.9041 24.6909 25.9041H18.7238L18.7788 25.6107C19.4939 21.796 22.1835 18.7697 25.6694 17.5087ZM31.6068 38.8864C28.7604 38.8864 26.4448 36.5707 26.4448 33.7244C26.4448 30.878 28.7605 28.5623 31.6068 28.5623C34.4531 28.5623 36.7688 30.878 36.7688 33.7244C36.7688 36.5707 34.4531 38.8864 31.6068 38.8864Z" fill="#C4C4C4"/>
<path d="M31.6068 31.0879C30.1527 31.0879 28.9698 32.2709 28.9698 33.7248C28.9698 35.1789 30.1528 36.3618 31.6068 36.3618C33.0608 36.3618 34.2438 35.1788 34.2438 33.7248C34.2438 32.2709 33.0608 31.0879 31.6068 31.0879ZM31.6068 35.1876C30.8002 35.1876 30.144 34.5314 30.144 33.7248C30.144 32.9183 30.8002 32.262 31.6068 32.262C32.4134 32.262 33.0696 32.9183 33.0696 33.7248C33.0696 34.5315 32.4134 35.1876 31.6068 35.1876Z" fill="#C4C4C4"/>
</svg>
