<svg width="40" height="41" viewBox="0 0 40 41" fill="none" xmlns="http://www.w3.org/2000/svg">
<g clip-path="url(#clip0_357_15519)">
<path d="M15.6666 24.0605H17V25.3939H15.6666V24.0605Z" fill="#C4C4C4"/>
<path d="M11.6667 24.0605H13.0001V25.3939H11.6667V24.0605Z" fill="#C4C4C4"/>
<path d="M7.66663 24.0605H8.99996V25.3939H7.66663V24.0605Z" fill="#C4C4C4"/>
<path d="M19.6666 24.0605H21V25.3939H19.6666V24.0605Z" fill="#C4C4C4"/>
<path d="M18.9999 13.3939H20.3811L20.7353 18.1107L22.0647 18.0104L21.7187 13.3939H36.2812L34.3811 38.7272H29.6666V40.0605H34.9999C35.3495 40.0615 35.6402 39.7923 35.6666 39.444L37.6187 13.3939H38.9999C39.3681 13.3939 39.6666 13.0954 39.6666 12.7272V9.39388C39.6666 9.02571 39.3681 8.72721 38.9999 8.72721H30.9999V0.727213C30.9999 0.359049 30.7014 0.0605469 30.3333 0.0605469H27.6666C27.2984 0.0605469 26.9999 0.359049 26.9999 0.727213V8.72721H18.9999C18.6318 8.72721 18.3333 9.02571 18.3333 9.39388V12.7272C18.3333 13.0954 18.6318 13.3939 18.9999 13.3939ZM28.3333 1.39388H29.6666V8.72721H28.3333V1.39388ZM19.6666 10.0605H38.3333V12.0605H19.6666V10.0605Z" fill="#C4C4C4"/>
<path d="M3.66683 40.0596H25.0002C26.8403 40.0573 28.3312 38.5664 28.3335 36.7262V34.0596C28.3335 33.6914 28.035 33.3929 27.6668 33.3929H27.6496C28.5614 32.2155 28.5614 30.5703 27.6496 29.3929H27.6668C28.035 29.3929 28.3335 29.0944 28.3335 28.7262C28.3345 26.0908 27.2915 23.5618 25.4328 21.6937L25.1896 18.0156L23.8563 18.1035L24.0155 20.5088C22.3481 19.348 20.3651 18.7259 18.3335 18.7262H10.3335C4.81331 18.7324 0.339681 23.2061 0.333496 28.7262C0.333496 29.0944 0.631999 29.3929 1.00016 29.3929H1.01742C0.105632 30.5703 0.105632 32.2155 1.01742 33.3929H1.00016C0.631999 33.3929 0.333496 33.6914 0.333496 34.0596V36.7262C0.335775 38.5664 1.82666 40.0573 3.66683 40.0596ZM27.0002 36.7262C27.0002 37.8307 26.1047 38.7262 25.0002 38.7262H3.66683C2.56234 38.7262 1.66683 37.8307 1.66683 36.7262V34.7262H27.0002V36.7262ZM20.3836 33.3929L25.7 29.5264C26.6063 29.8633 27.1405 30.8011 26.9683 31.7526C26.7961 32.7038 25.967 33.3949 25.0002 33.3929H20.3836ZM18.3169 33.2477L12.5334 29.3929H23.6167L18.3169 33.2477ZM10.3335 20.0596H18.3335C22.8595 20.0648 26.6213 23.5475 26.9748 28.0596H1.69222C2.04574 23.5475 5.80778 20.0648 10.3335 20.0596ZM1.66683 31.3929C1.66683 30.2884 2.56234 29.3929 3.66683 29.3929H10.1336L16.1336 33.3929H3.66683C2.56234 33.3929 1.66683 32.4974 1.66683 31.3929Z" fill="#C4C4C4"/>
<path d="M17.6666 21.3945H19V22.7279H17.6666V21.3945Z" fill="#C4C4C4"/>
<path d="M13.6667 21.3945H15.0001V22.7279H13.6667V21.3945Z" fill="#C4C4C4"/>
<path d="M9.66663 21.3945H11V22.7279H9.66663V21.3945Z" fill="#C4C4C4"/>
<path d="M23.6682 15.4408L24.9983 15.3457L25.0937 16.679L23.7636 16.7741L23.6682 15.4408Z" fill="#C4C4C4"/>
</g>
<defs>
<clipPath id="clip0_357_15519">
<rect width="40" height="40" fill="white" transform="translate(0 0.0605469)"/>
</clipPath>
</defs>
</svg>
