<svg width="40" height="41" viewBox="0 0 40 41" fill="none" xmlns="http://www.w3.org/2000/svg">
<path d="M37.4152 26.7168C37.0914 26.7168 36.8292 26.9792 36.8292 27.3027V36.6442H24.7516V25.555C24.7516 24.8009 24.1382 24.1875 23.3844 24.1875H16.6156C15.8618 24.1875 15.2484 24.8012 15.2484 25.555V36.6442H3.17078V27.3027C3.17078 26.9792 2.90863 26.7168 2.58484 26.7168C2.26105 26.7168 1.9989 26.9792 1.9989 27.3027V36.9176C1.9989 37.4129 2.40204 37.816 2.89734 37.816H37.1027C37.598 37.816 38.0011 37.4129 38.0011 36.9176V27.3027C38.0011 26.9792 37.739 26.7168 37.4152 26.7168ZM16.4203 36.6442V25.555C16.4203 25.4473 16.5079 25.3594 16.6156 25.3594H23.3844C23.4921 25.3594 23.5797 25.4473 23.5797 25.555V36.6442H16.4203Z" fill="#C4C4C4"/>
<path d="M34.6317 34.3283C35.3195 34.3283 35.8792 33.7686 35.8792 33.0808V26.6867C35.8792 25.9988 35.3195 25.4395 34.6317 25.4395H27.3804C26.6925 25.4395 26.1328 25.9988 26.1328 26.6867V33.0808C26.1328 33.7686 26.6925 34.3283 27.3804 34.3283H34.6317ZM27.3047 33.0808V26.6867C27.3047 26.6452 27.3386 26.6113 27.3804 26.6113H34.6317C34.6735 26.6113 34.7073 26.6452 34.7073 26.6867V33.0808C34.7073 33.1226 34.6735 33.1564 34.6317 33.1564H27.3804C27.3386 33.1564 27.3047 33.1226 27.3047 33.0808Z" fill="#C4C4C4"/>
<path d="M12.6196 34.3283C13.3074 34.3283 13.8671 33.7686 13.8671 33.0808V26.6867C13.8671 25.9988 13.3074 25.4395 12.6196 25.4395H5.36829C4.68042 25.4395 4.12073 25.9988 4.12073 26.6867V33.0808C4.12073 33.7686 4.68042 34.3283 5.36829 34.3283H12.6196ZM5.2926 33.0808V26.6867C5.2926 26.6452 5.32648 26.6113 5.36829 26.6113H12.6196C12.6614 26.6113 12.6953 26.6452 12.6953 26.6867V33.0808C12.6953 33.1226 12.6614 33.1564 12.6196 33.1564H5.36829C5.32648 33.1564 5.2926 33.1226 5.2926 33.0808Z" fill="#C4C4C4"/>
<path d="M38.2782 10.9645C38.2782 10.3386 38.7875 9.82953 39.4141 9.82953C39.7379 9.82953 40 9.56708 40 9.24359V7.80988C40 7.48639 39.7379 7.22394 39.4141 7.22394H29.7415C29.4177 7.22394 29.1556 7.48639 29.1556 7.80988C29.1556 8.13367 29.4177 8.39581 29.7415 8.39581H38.8281V8.73303C38.0258 8.9436 37.3926 9.57654 37.1817 10.3785H27.9639V5.17712C27.9639 3.60516 26.6849 2.32617 25.1129 2.32617H14.8874C13.3151 2.32617 12.0364 3.60516 12.0364 5.17712V7.22394H0.585938C0.262146 7.22394 0 7.48639 0 7.80988V9.24359C0 9.56708 0.262146 9.82953 0.585938 9.82953C1.21246 9.82953 1.7218 10.3386 1.7218 10.9645C1.7218 11.176 1.8338 11.3612 2.00165 11.4644V15.4664H0.947266C0.45166 15.4664 0.048523 15.8696 0.048523 16.3649V19.5555C0.048523 20.0508 0.45166 20.4539 0.947266 20.4539H2.00165V24.9629C2.00165 25.2864 2.26379 25.5488 2.58759 25.5488C2.91138 25.5488 3.17352 25.2864 3.17352 24.9629V20.4539H36.875V24.9638C36.875 25.2873 37.1371 25.5497 37.4609 25.5497C37.7844 25.5497 38.0469 25.2873 38.0469 24.9638V20.4539H39.1013C39.5969 20.4539 40 20.0508 40 19.5555V16.3649C40 15.8696 39.5969 15.4664 39.1013 15.4664H38.0469V11.4311C38.1873 11.324 38.2782 11.1549 38.2782 10.9645ZM13.208 5.17712C13.208 4.25122 13.9615 3.49805 14.8871 3.49805H25.1126C26.0385 3.49805 26.7917 4.25122 26.7917 5.17712V11.5703C26.7917 12.4962 26.0385 13.2493 25.1126 13.2493H14.8874C13.9615 13.2493 13.2083 12.4962 13.2083 11.5703V5.17712H13.208ZM38.8281 19.282H1.2204V16.6383H38.8281V19.282ZM3.17352 15.4664V11.5504H10.2789C10.6027 11.5504 10.8649 11.2883 10.8649 10.9645C10.8649 10.641 10.6027 10.3785 10.2789 10.3785H2.8183C2.60742 9.57654 1.97418 8.9436 1.17188 8.73303V8.39581H12.0361V11.5706C12.0361 13.1425 13.3151 14.4215 14.8871 14.4215H25.1126C26.6849 14.4215 27.9636 13.1425 27.9636 11.5706V11.5507H36.8747V15.4664H3.17352Z" fill="#C4C4C4"/>
<path d="M17.7344 30.416H17.2656C16.9418 30.416 16.6797 30.6785 16.6797 31.002C16.6797 31.3254 16.9418 31.5879 17.2656 31.5879H17.7344C18.0582 31.5879 18.3203 31.3254 18.3203 31.002C18.3203 30.6785 18.0582 30.416 17.7344 30.416Z" fill="#C4C4C4"/>
<path d="M15.8029 5.83594H16.521L17.2577 9.35767C17.4005 10.04 18.0103 10.5356 18.7076 10.5356H22.1869C22.7994 10.5356 23.3563 10.1505 23.5727 9.5777L24.7217 6.53601C24.8309 6.2464 24.7913 5.92169 24.6155 5.66748C24.4397 5.41296 24.1498 5.26099 23.8406 5.26099H18.9197C18.5962 5.26099 18.3337 5.52313 18.3337 5.84692C18.3337 6.17041 18.5962 6.43286 18.9197 6.43286H23.508L22.4765 9.16357C22.4313 9.2832 22.3151 9.36377 22.1872 9.36377H18.7076C18.562 9.36377 18.4348 9.26001 18.4049 9.1178L17.6651 5.58234C17.5537 5.05011 17.0786 4.66406 16.5347 4.66406H15.8032C15.4794 4.66406 15.2173 4.92621 15.2173 5.25C15.2173 5.57349 15.4794 5.83594 15.8029 5.83594Z" fill="#C4C4C4"/>
<path d="M18.8086 11.0273H18.6523C18.3286 11.0273 18.0664 11.2895 18.0664 11.6133C18.0664 11.9368 18.3286 12.1992 18.6523 12.1992H18.8086C19.1324 12.1992 19.3945 11.9368 19.3945 11.6133C19.3945 11.2895 19.1324 11.0273 18.8086 11.0273Z" fill="#C4C4C4"/>
<path d="M21.3477 11.0273H21.1914C20.8676 11.0273 20.6055 11.2895 20.6055 11.6133C20.6055 11.9368 20.8676 12.1992 21.1914 12.1992H21.3477C21.6714 12.1992 21.9336 11.9368 21.9336 11.6133C21.9336 11.2895 21.6714 11.0273 21.3477 11.0273Z" fill="#C4C4C4"/>
</svg>
