<svg width="40" height="41" viewBox="0 0 40 41" fill="none" xmlns="http://www.w3.org/2000/svg">
<path d="M39.4141 4.71484H19.0695C18.7458 4.71484 18.4835 4.97719 18.4835 5.30078C18.4835 5.62437 18.7458 5.88672 19.0695 5.88672H38.8281V10.3339H1.17188V5.88672H16.3993C16.723 5.88672 16.9852 5.62437 16.9852 5.30078C16.9852 4.97719 16.723 4.71484 16.3993 4.71484H0.585938C0.262266 4.71484 0 4.97719 0 5.30078V34.8209C0 35.1445 0.262266 35.4068 0.585938 35.4068H24.993C25.3167 35.4068 25.579 35.1445 25.579 34.8209C25.579 34.4973 25.3167 34.2349 24.993 34.2349H1.17188V32.0532H38.8281V34.2349H27.6632C27.3395 34.2349 27.0773 34.4973 27.0773 34.8209C27.0773 35.1445 27.3395 35.4068 27.6632 35.4068H39.4141C39.7377 35.4068 40 35.1445 40 34.8209V5.30078C40 4.97727 39.7377 4.71484 39.4141 4.71484ZM38.8281 30.8814H1.17188V11.5058H38.8281V30.8814Z" fill="#C4C4C4"/>
<path d="M4.01414 7.52344H4.00586C3.68219 7.52344 3.41992 7.78578 3.41992 8.10938C3.41992 8.43297 3.68219 8.69531 4.00586 8.69531H4.01414C4.33781 8.69531 4.60008 8.43297 4.60008 8.10938C4.60008 7.7857 4.33781 7.52344 4.01414 7.52344Z" fill="#C4C4C4"/>
<path d="M6.1876 7.52344H6.17932C5.85565 7.52344 5.59338 7.78578 5.59338 8.10938C5.59338 8.43297 5.85565 8.69531 6.17932 8.69531H6.1876C6.51127 8.69531 6.77354 8.43297 6.77354 8.10938C6.77354 7.7857 6.51127 7.52344 6.1876 7.52344Z" fill="#C4C4C4"/>
<path d="M8.36131 7.52344H8.35303C8.02936 7.52344 7.76709 7.78578 7.76709 8.10938C7.76709 8.43297 8.02936 8.69531 8.35303 8.69531H8.36131C8.68498 8.69531 8.94725 8.43297 8.94725 8.10938C8.94725 7.7857 8.68498 7.52344 8.36131 7.52344Z" fill="#C4C4C4"/>
<path d="M36.3032 7.52344H29.7716C29.4479 7.52344 29.1857 7.78578 29.1857 8.10938C29.1857 8.43297 29.4479 8.69531 29.7716 8.69531H36.3032C36.6268 8.69531 36.8891 8.43297 36.8891 8.10938C36.8891 7.7857 36.6268 7.52344 36.3032 7.52344Z" fill="#C4C4C4"/>
<path d="M27.6742 7.52344H26.2361C25.9124 7.52344 25.6501 7.78578 25.6501 8.10938C25.6501 8.43297 25.9124 8.69531 26.2361 8.69531H27.6742C27.9979 8.69531 28.2601 8.43297 28.2601 8.10938C28.2601 7.7857 27.9979 7.52344 27.6742 7.52344Z" fill="#C4C4C4"/>
<path d="M33.6544 19.2969H30.9444C30.6208 19.2969 30.3585 19.5592 30.3585 19.8828C30.3585 20.2064 30.6208 20.4688 30.9444 20.4688H33.0685V24.5974H7.63232V20.4688H28.2744C28.598 20.4688 28.8603 20.2064 28.8603 19.8828C28.8603 19.5592 28.598 19.2969 28.2744 19.2969H7.04639C6.72271 19.2969 6.46045 19.5592 6.46045 19.8828V25.1834C6.46045 25.507 6.72271 25.7693 7.04639 25.7693H33.6544C33.9781 25.7693 34.2404 25.507 34.2404 25.1834V19.8828C34.2404 19.5593 33.9781 19.2969 33.6544 19.2969Z" fill="#C4C4C4"/>
<path d="M11.7426 21.3736C11.4802 21.1112 11.1315 20.9668 10.7605 20.9668C10.3895 20.9668 10.0407 21.1112 9.77837 21.3736C9.38509 21.767 9.27892 22.3391 9.45704 22.8305L9.12774 23.1598C8.89884 23.3886 8.89884 23.7596 9.12767 23.9884C9.24212 24.1028 9.39212 24.1601 9.54204 24.1601C9.69196 24.1601 9.84196 24.1029 9.95642 23.9884L10.2851 23.6598C10.4356 23.7145 10.5956 23.7446 10.7605 23.7446C11.1315 23.7446 11.4802 23.6002 11.7426 23.3378C12.2841 22.7963 12.2841 21.9152 11.7426 21.3736ZM10.9139 22.5092C10.8587 22.5645 10.7941 22.5727 10.7605 22.5727C10.7269 22.5727 10.6623 22.5645 10.607 22.5092C10.5224 22.4245 10.5224 22.2869 10.607 22.2023C10.6623 22.147 10.7269 22.1387 10.7605 22.1387C10.7941 22.1387 10.8587 22.147 10.9139 22.2023C10.9985 22.2869 10.9985 22.4246 10.9139 22.5092Z" fill="#C4C4C4"/>
<path d="M18.6971 26.7773H12.3256C12.0019 26.7773 11.7396 27.0397 11.7396 27.3633C11.7396 27.6869 12.0019 27.9492 12.3256 27.9492H18.6971C19.0208 27.9492 19.2831 27.6869 19.2831 27.3633C19.2831 27.0397 19.0208 26.7773 18.6971 26.7773Z" fill="#C4C4C4"/>
<path d="M27.6744 26.7773H21.3029C20.9792 26.7773 20.7169 27.0397 20.7169 27.3633C20.7169 27.6869 20.9792 27.9492 21.3029 27.9492H27.6744C27.9981 27.9492 28.2604 27.6869 28.2604 27.3633C28.2604 27.0397 27.9981 26.7773 27.6744 26.7773Z" fill="#C4C4C4"/>
<path d="M25.6036 14.2402H14.3964C14.0727 14.2402 13.8104 14.5026 13.8104 14.8262V17.5605C13.8104 17.8841 14.0728 18.1465 14.3964 18.1465H25.6036C25.9273 18.1465 26.1896 17.8841 26.1896 17.5605V14.8262C26.1896 14.5025 25.9273 14.2402 25.6036 14.2402ZM25.0177 16.9746H14.9823V15.4121H25.0177V16.9746Z" fill="#C4C4C4"/>
</svg>
