<svg width="40" height="41" viewBox="0 0 40 41" fill="none" xmlns="http://www.w3.org/2000/svg">
<g clip-path="url(#clip0_357_15564)">
<path d="M38.3614 8.80681H36.4851V7.24763C36.4851 6.01151 35.4795 5.00586 34.2434 5.00586H32.4552C31.219 5.00586 30.2135 6.01151 30.2135 7.24763V13.6661H27.2168V11.9429C27.2168 10.6923 26.1994 9.6749 24.9488 9.6749C24.4574 9.6749 24.0026 9.83253 23.631 10.0991C23.2656 9.3356 22.4854 8.80681 21.5839 8.80681C20.7317 8.80681 19.9879 9.27931 19.6005 9.9761C19.2176 9.68091 18.7387 9.50439 18.2189 9.50439C17.4301 9.50439 16.7347 9.90966 16.3283 10.5225C15.9315 10.1821 15.4165 9.97587 14.854 9.97587C13.6033 9.97587 12.586 10.9932 12.586 12.2439V13.6663H9.78677V12.0133C9.78677 11.6899 9.5246 11.4278 9.20122 11.4278C8.87785 11.4278 8.61568 11.6899 8.61568 12.0133V25.616C8.61568 26.2064 8.13538 26.6866 7.54507 26.6866H5.75659C5.16621 26.6866 4.68598 26.2064 4.68598 25.616V7.24763C4.68598 6.65725 5.16628 6.17694 5.75659 6.17694H7.54484C8.13522 6.17694 8.61544 6.65725 8.61544 7.24763V9.51782C8.61544 9.84127 8.87761 10.1034 9.20099 10.1034C9.52436 10.1034 9.78653 9.84127 9.78653 9.51782V7.24763C9.78653 6.01151 8.78088 5.00586 7.54484 5.00586H5.75659C4.52047 5.00586 3.5149 6.01151 3.5149 7.24763V8.80681H1.63858C0.735052 8.80681 0 9.54186 0 10.4453V22.4182C0 23.3217 0.735052 24.0568 1.63858 24.0568H3.5149V25.616C3.5149 26.852 4.52055 27.8576 5.75659 27.8576H7.54484C8.78096 27.8576 9.78653 26.852 9.78653 25.616V19.1975H11.7931V20.2667C11.7931 20.8161 11.9854 21.3525 12.3345 21.777L14.153 23.9878V34.5281C14.153 34.8516 14.4151 35.1137 14.7385 35.1137C15.0619 35.1137 15.324 34.8516 15.324 34.5281V23.778C15.324 23.6423 15.2769 23.5108 15.1907 23.406L13.2389 21.0329C13.0617 20.8176 12.9642 20.5455 12.9642 20.2667V19.1975L24.0378 19.2652C24.3612 19.2652 24.6233 19.0031 24.6233 18.6796C24.6233 18.3562 24.3612 18.0941 24.0378 18.0941H21.3736C20.8239 18.0941 20.3767 17.6469 20.3767 17.0973C20.3767 16.5477 20.8239 16.1005 21.3736 16.1005H26.4082C26.7542 16.1005 27.0356 16.3819 27.0356 16.7278V20.2666C27.0356 20.5454 26.938 20.8176 26.7609 21.0329L24.8091 23.4059C24.7229 23.5107 24.6757 23.6421 24.6757 23.7779V25.3222C24.6757 25.6457 24.9379 25.9078 25.2613 25.9078C25.5846 25.9078 25.8468 25.6457 25.8468 25.3222V23.9878L27.6653 21.7769C28.0143 21.3524 28.2066 20.8161 28.2066 20.2666V19.1974H30.2132V25.6159C30.2132 26.8519 31.2189 27.8576 32.4549 27.8576H34.2432C35.4793 27.8576 36.4849 26.8519 36.4849 25.6159V24.0567H38.3612C39.2647 24.0567 39.9998 23.3216 39.9998 22.4181V10.4453C40 9.54186 39.2649 8.80681 38.3614 8.80681ZM1.63858 22.8857C1.38079 22.8857 1.17109 22.6759 1.17109 22.4182V10.4453C1.17109 10.1875 1.38079 9.9779 1.63858 9.9779H3.5149V22.8857H1.63858ZM24.9487 10.846C25.5536 10.846 26.0457 11.3381 26.0457 11.9429V14.1229C26.0457 14.4321 25.9145 14.723 25.69 14.9295H24.2074C23.9829 14.723 23.8517 14.4321 23.8517 14.1229V11.9429C23.8517 11.3381 24.3438 10.846 24.9487 10.846ZM20.4868 11.0748C20.4868 10.47 20.9789 9.9779 21.5837 9.9779C22.1886 9.9779 22.6807 10.47 22.6807 11.0748V14.1229C22.6807 14.4321 22.5495 14.723 22.325 14.9295H21.3736C21.212 14.9295 21.0546 14.9478 20.903 14.9816C20.6423 14.7758 20.4867 14.4625 20.4867 14.1229V11.0748H20.4868ZM17.1218 11.7723C17.1218 11.1675 17.6139 10.6754 18.2187 10.6754C18.8236 10.6754 19.3157 11.1675 19.3157 11.7723V14.1228C19.3157 14.7277 18.8236 15.2198 18.2187 15.2198C17.6138 15.2198 17.1218 14.7277 17.1218 14.1228V11.7723ZM13.7568 12.2438C13.7568 11.639 14.2489 11.1469 14.8537 11.1469C15.4586 11.1469 15.9507 11.639 15.9507 12.2438V14.1229C15.9507 14.7278 15.4586 15.2199 14.8537 15.2199C14.2489 15.2199 13.7568 14.7278 13.7568 14.1229V12.2438ZM9.78661 14.8372H12.7017C13.0017 15.7388 13.8528 16.3909 14.8538 16.3909C15.5207 16.3909 16.1212 16.1014 16.5366 15.6417C16.9519 16.1013 17.552 16.3909 18.2188 16.3909C18.7019 16.3909 19.149 16.2377 19.5172 15.9792C19.3197 16.3059 19.2059 16.6885 19.2059 17.0973C19.2059 17.4296 19.2812 17.7446 19.4154 18.0263H9.78661V14.8372ZM28.2069 18.0264V16.7279C28.2069 15.9522 27.7131 15.2896 27.0234 15.0378C27.0523 14.9723 27.078 14.9054 27.1006 14.8372H30.2135V18.0264H28.2069ZM38.8289 22.4182C38.8289 22.676 38.6192 22.8857 38.3614 22.8857H36.4851V21.1935C36.4851 20.8701 36.2229 20.608 35.8996 20.608C35.5762 20.608 35.314 20.8701 35.314 21.1935V25.616C35.314 26.2063 34.8337 26.6866 34.2434 26.6866H32.4552C31.8648 26.6866 31.3846 26.2063 31.3846 25.616V7.24763C31.3846 6.65725 31.8649 6.17694 32.4552 6.17694H34.2434C34.8338 6.17694 35.314 6.65725 35.314 7.24763V18.6981C35.314 19.0216 35.5762 19.2837 35.8996 19.2837C36.2229 19.2837 36.4851 19.0216 36.4851 18.6981V9.9779H38.3614C38.6192 9.9779 38.8289 10.1876 38.8289 10.4453V22.4182Z" fill="#C4C4C4"/>
<path d="M25.2613 27.2324C24.9379 27.2324 24.6758 27.4945 24.6758 27.818V34.5284C24.6758 34.8518 24.9379 35.1139 25.2613 35.1139C25.5847 35.1139 25.8469 34.8518 25.8469 34.5284V27.818C25.8469 27.4945 25.5848 27.2324 25.2613 27.2324Z" fill="#C4C4C4"/>
</g>
<defs>
<clipPath id="clip0_357_15564">
<rect width="40" height="40" fill="white" transform="translate(0 0.0605469)"/>
</clipPath>
</defs>
</svg>
