<svg width="9" height="16" viewBox="0 0 9 16" fill="none" xmlns="http://www.w3.org/2000/svg">
<rect width="9" height="16" fill="#E5E5E5"/>
<rect x="-1661" y="-4828" width="1920" height="6273" fill="white"/>
<g filter="url(#filter0_d_0_1)">
<rect x="-689" y="-27.8965" width="708" height="390.472" rx="8" fill="white"/>
<g clip-path="url(#clip0_0_1)">
<path d="M8.70711 8.81062C9.09763 8.4201 9.09763 7.78693 8.70711 7.39641L2.34315 1.03245C1.95262 0.641923 1.31946 0.641923 0.928932 1.03245C0.538408 1.42297 0.538408 2.05614 0.928932 2.44666L6.58579 8.10352L0.928932 13.7604C0.538408 14.1509 0.538408 14.7841 0.928932 15.1746C1.31946 15.5651 1.95262 15.5651 2.34315 15.1746L8.70711 8.81062ZM6 9.10352H8V7.10352H6V9.10352Z" fill="#C4C4C4"/>
</g>
</g>
<defs>
<filter id="filter0_d_0_1" x="-733" y="-67.8965" width="796" height="478.473" filterUnits="userSpaceOnUse" color-interpolation-filters="sRGB">
<feFlood flood-opacity="0" result="BackgroundImageFix"/>
<feColorMatrix in="SourceAlpha" type="matrix" values="0 0 0 0 0 0 0 0 0 0 0 0 0 0 0 0 0 0 127 0" result="hardAlpha"/>
<feOffset dy="4"/>
<feGaussianBlur stdDeviation="22"/>
<feComposite in2="hardAlpha" operator="out"/>
<feColorMatrix type="matrix" values="0 0 0 0 0 0 0 0 0 0 0 0 0 0 0 0 0 0 0.08 0"/>
<feBlend mode="normal" in2="BackgroundImageFix" result="effect1_dropShadow_0_1"/>
<feBlend mode="normal" in="SourceGraphic" in2="effect1_dropShadow_0_1" result="shape"/>
</filter>
<clipPath id="clip0_0_1">
<rect width="682" height="363" fill="white" transform="translate(-663 -3.89648)"/>
</clipPath>
</defs>
</svg>
