<svg width="26" height="23" viewBox="0 0 26 23" fill="none" xmlns="http://www.w3.org/2000/svg">
<path d="M5.97157 17.0011L6.05996 16.9127L5.97158 17.0011C6.50053 17.53 7.2044 17.8216 7.95245 17.8216C8.70049 17.8216 9.40442 17.53 9.93332 17.0011L20.948 5.98634C21.207 5.72729 21.207 5.30727 20.948 5.04818L20.948 5.04816C20.6889 4.78912 20.269 4.78914 20.0098 5.04815L20.0098 5.04817L8.99521 16.0629C8.71651 16.3416 8.34658 16.4949 7.95245 16.4949C7.55833 16.4949 7.18845 16.3416 6.9097 16.063C6.63101 15.7842 6.47777 15.4143 6.47777 15.0201C6.47777 14.626 6.631 14.2561 6.90969 13.9774L17.9244 2.96272L17.836 2.87433L17.9244 2.96272C19.0805 1.80649 21.1775 1.97074 22.6015 3.39464C23.2992 4.09233 23.7189 4.97337 23.7882 5.87362C23.855 6.74285 23.5842 7.52118 23.0335 8.07185L19.146 11.9594L12.0188 19.0866C10.9325 20.1729 9.48876 20.7709 7.95245 20.7709C6.41613 20.7709 4.97239 20.1729 3.88606 19.0866C2.79974 18.0003 2.20171 16.5566 2.20171 15.0201C2.20171 13.4839 2.79974 12.0401 3.88607 10.9538L12.525 2.3148C12.7841 2.05575 12.7841 1.63573 12.525 1.37664L12.525 1.37663C12.266 1.11759 11.8459 1.11758 11.5869 1.37664L2.94789 10.0156C1.61134 11.3522 0.875 13.1299 0.875 15.0201C0.875 16.9104 1.61134 18.688 2.94795 20.0246L3.03493 19.9377L2.94795 20.0246C4.28455 21.3612 6.06223 22.0975 7.95245 22.0975C9.84266 22.0975 11.6203 21.3611 12.9569 20.0246L12.8686 19.9363L12.9569 20.0246L20.0841 12.8975L23.9716 9.00992C24.8047 8.17696 25.2074 7.02499 25.111 5.77186C25.017 4.55142 24.4577 3.37463 23.5396 2.45652L23.4513 2.54491L23.5396 2.45652C21.6253 0.542206 18.6848 0.325979 16.9862 2.0246L5.97158 13.0393C5.44261 13.5682 5.15106 14.2721 5.15106 15.0201C5.15106 15.7682 5.44261 16.4721 5.97157 17.0011Z" fill="#7A7A7A" stroke="#7A7A7A" stroke-width="0.25"/>
</svg>
