<svg width="42" height="42" viewBox="0 0 42 42" fill="none" xmlns="http://www.w3.org/2000/svg">
<path d="M31.9456 11.7713L31.7837 11.8888L31.9456 11.7713C31.6908 11.4199 31.1995 11.3418 30.848 11.5965L30.848 11.5965C30.4966 11.8514 30.4183 12.3428 30.6732 12.6942C32.1561 14.7388 32.9398 17.1589 32.9398 19.6945V28.5109H9.05859V19.6945C9.05859 16.8377 10.0834 14.0736 11.9442 11.9114C13.7858 9.77136 16.3265 8.34864 19.0977 7.90499L19.0977 7.90498C19.4012 7.85636 19.6485 7.63538 19.7307 7.33933L19.7307 7.33931C19.813 7.04318 19.7151 6.72628 19.4801 6.52812C18.9479 6.07937 18.643 5.4235 18.643 4.72813C18.643 3.42905 19.7001 2.37188 20.9992 2.37188C22.2983 2.37188 23.3555 3.42905 23.3555 4.72813C23.3555 5.42342 23.0505 6.07937 22.5183 6.52812L22.5183 6.52813C22.2834 6.72629 22.1855 7.04318 22.2678 7.33931C22.35 7.63547 22.5974 7.85647 22.9009 7.90499C25.2838 8.28607 27.4722 9.37165 29.23 11.045L29.23 11.0451C29.5444 11.3442 30.0419 11.3321 30.3412 11.0177C30.6405 10.7033 30.6282 10.2058 30.3138 9.90647L30.1818 10.0451L30.3138 9.90647C28.6469 8.31966 26.6362 7.19922 24.4398 6.62411C24.7564 6.05044 24.9273 5.40014 24.9273 4.72805C24.9273 2.56196 23.1654 0.8 20.9992 0.8C18.8331 0.8 17.0711 2.56197 17.0711 4.72813C17.0711 5.40063 17.2423 6.05129 17.5592 6.6252C14.9282 7.31763 12.5469 8.80109 10.7527 10.886L10.9043 11.0165L10.7527 10.886C8.64659 13.3335 7.48672 16.4617 7.48672 19.6945V28.5109H7.35938C4.94201 28.5109 2.97578 30.4776 2.97578 32.8953C2.97578 34.0661 3.43208 35.1678 4.25991 35.9956C5.08772 36.8234 6.18905 37.2797 7.35938 37.2797H9.13828C9.57233 37.2797 9.92422 36.9278 9.92422 36.4938C9.92422 36.0597 9.57233 35.7078 9.13828 35.7078H7.35938C6.60823 35.7078 5.90284 35.4155 5.37133 34.8841C4.83988 34.3527 4.54766 33.647 4.54766 32.8953C4.54766 31.3446 5.80918 30.0828 7.35938 30.0828H34.6391C35.3902 30.0828 36.0956 30.3751 36.6271 30.9065C37.1586 31.438 37.4508 32.1436 37.4508 32.8953C37.4508 34.446 36.1893 35.7078 34.6391 35.7078H11.4664C11.0324 35.7078 10.6805 36.0597 10.6805 36.4938C10.6805 36.9278 11.0324 37.2797 11.4664 37.2797H15.1706C15.5968 38.3222 16.3059 39.2491 17.2095 39.9316C18.3082 40.7612 19.6194 41.2 20.9995 41.2C22.3793 41.2 23.6903 40.7612 24.7888 39.9315L24.6683 39.772L24.7888 39.9315C25.6925 39.249 26.4015 38.3221 26.8277 37.2797H34.6391C37.0564 37.2797 39.0227 35.313 39.0227 32.8953C39.0227 31.7245 38.5664 30.6228 37.7385 29.7951C36.9107 28.9673 35.8094 28.5109 34.6391 28.5109H34.5117V19.6945C34.5117 16.8261 33.6243 14.0858 31.9456 11.7713ZM20.9995 39.6281C19.3065 39.6281 17.7522 38.7016 16.9186 37.2797H25.0796C24.2461 38.7016 22.6921 39.6281 20.9995 39.6281Z" fill="#2C2C2C" stroke="#2C2C2C" stroke-width="0.4"/>
</svg>
