<svg width="42" height="42" viewBox="0 0 42 42" fill="none" xmlns="http://www.w3.org/2000/svg">
<path d="M20.848 22.6308C20.8915 22.6308 20.935 22.6308 20.9872 22.6308C21.0046 22.6308 21.022 22.6308 21.0394 22.6308C21.0655 22.6308 21.1003 22.6308 21.1264 22.6308C23.6747 22.5873 25.736 21.6914 27.2581 19.978C30.6066 16.2034 30.0499 9.73245 29.9891 9.11493C29.7716 4.47919 27.5799 2.26134 25.7708 1.22634C24.4227 0.452268 22.8484 0.0347898 21.0916 0H21.0307C21.022 0 21.0046 0 20.9959 0H20.9437C19.9783 0 18.0822 0.156554 16.2645 1.19155C14.438 2.22655 12.2115 4.4444 11.994 9.11493C11.9331 9.73245 11.3765 16.2034 14.725 19.978C16.2384 21.6914 18.2997 22.5873 20.848 22.6308ZM14.3162 9.33237C14.3162 9.30628 14.3249 9.28018 14.3249 9.26279C14.612 3.02671 19.039 2.35701 20.935 2.35701H20.9698C20.9872 2.35701 21.0133 2.35701 21.0394 2.35701C23.3877 2.40919 27.3798 3.36591 27.6494 9.26279C27.6494 9.28888 27.6494 9.31497 27.6581 9.33237C27.6668 9.39325 28.2757 15.3075 25.5099 18.4212C24.414 19.6562 22.9528 20.2651 21.0307 20.2825C21.0133 20.2825 21.0046 20.2825 20.9872 20.2825C20.9698 20.2825 20.9611 20.2825 20.9437 20.2825C19.0303 20.2651 17.5604 19.6562 16.4732 18.4212C13.7161 15.3249 14.3076 9.38455 14.3162 9.33237Z" fill="#2C2C2C"/>
<path d="M38.8605 33.3637C38.8605 33.355 38.8605 33.3463 38.8605 33.3376C38.8605 33.268 38.8518 33.1984 38.8518 33.1201C38.7996 31.398 38.6866 27.3711 34.9119 26.0839C34.8858 26.0752 34.851 26.0665 34.8249 26.0578C30.9023 25.0576 27.6408 22.7962 27.606 22.7701C27.0755 22.3962 26.3449 22.5266 25.9709 23.0572C25.5969 23.5877 25.7273 24.3183 26.2579 24.6923C26.4057 24.7967 29.8673 27.2059 34.1987 28.3191C36.2252 29.041 36.4513 31.2067 36.5122 33.1897C36.5122 33.268 36.5122 33.3376 36.5209 33.4071C36.5296 34.1899 36.4774 35.3989 36.3382 36.0947C34.9293 36.8948 29.4064 39.6606 21.0046 39.6606C12.6377 39.6606 7.08001 36.8861 5.66232 36.086C5.52316 35.3902 5.46228 34.1812 5.47968 33.3984C5.47968 33.3289 5.48837 33.2593 5.48837 33.181C5.54926 31.198 5.77539 29.0323 7.8019 28.3104C12.1332 27.1972 15.5948 24.7793 15.7427 24.6836C16.2732 24.3096 16.4037 23.579 16.0297 23.0485C15.6557 22.5179 14.9251 22.3875 14.3946 22.7615C14.3598 22.7875 11.1156 25.0489 7.17568 26.0491C7.14089 26.0578 7.1148 26.0665 7.08871 26.0752C3.31401 27.3711 3.20094 31.398 3.14876 33.1114C3.14876 33.1897 3.14876 33.2593 3.14006 33.3289C3.14006 33.3376 3.14006 33.3463 3.14006 33.355C3.13136 33.8072 3.12267 36.1294 3.58363 37.2949C3.67061 37.521 3.82716 37.7124 4.0359 37.8428C4.29682 38.0168 10.5503 42.0002 21.0133 42.0002C31.4764 42.0002 37.7298 38.0081 37.9908 37.8428C38.1908 37.7124 38.3561 37.521 38.443 37.2949C38.8779 36.1381 38.8692 33.8159 38.8605 33.3637Z" fill="#2C2C2C"/>
</svg>
