<svg width="29" height="15" viewBox="0 0 29 15" fill="none" xmlns="http://www.w3.org/2000/svg">
<path d="M8.10081 14.4997C8.28706 14.3123 8.3916 14.0589 8.3916 13.7947C8.3916 13.5305 8.28706 13.277 8.10081 13.0897L3.5008 8.49967H27.0508C27.316 8.49967 27.5704 8.39431 27.7579 8.20677C27.9454 8.01924 28.0508 7.76488 28.0508 7.49966C28.0508 7.23445 27.9454 6.98009 27.7579 6.79256C27.5704 6.60502 27.316 6.49966 27.0508 6.49966H3.5308L8.10081 1.92967C8.29043 1.74136 8.39749 1.48544 8.39843 1.2182C8.39937 0.950961 8.29411 0.694295 8.1058 0.504665C7.9175 0.315035 7.66158 0.207975 7.39434 0.207037C7.1271 0.2061 6.87043 0.311361 6.68081 0.499665L0.320805 6.86966C0.152874 7.03833 0.0585938 7.26665 0.0585938 7.50466C0.0585938 7.74268 0.152874 7.971 0.320805 8.13966L6.68081 14.4997C6.77377 14.5934 6.88437 14.6678 7.00623 14.7186C7.12809 14.7693 7.25879 14.7955 7.39081 14.7955C7.52282 14.7955 7.65352 14.7693 7.77538 14.7186C7.89724 14.6678 8.00784 14.5934 8.10081 14.4997Z" fill="#7A7A7A"/>
</svg>
