<svg width="16" height="16" viewBox="0 0 16 16" fill="none" xmlns="http://www.w3.org/2000/svg">
<path d="M0.823234 16C0.612474 16 0.401715 15.9199 0.241586 15.7585C-0.0798776 15.4371 -0.0798776 14.9159 0.241586 14.5944L14.5949 0.241098C14.9164 -0.0803659 15.4376 -0.0803659 15.759 0.241098C16.0805 0.562561 16.0805 1.08373 15.759 1.4054L1.40589 15.7585C1.24455 15.9189 1.03379 16 0.823234 16Z" fill="#646464"/>
<path d="M15.1776 16C14.9668 16 14.7563 15.9199 14.5959 15.7585L0.241586 1.4054C-0.0798776 1.08373 -0.0798776 0.562561 0.241586 0.241098C0.563049 -0.0803659 1.08422 -0.0803659 1.40589 0.241098L15.759 14.5944C16.0805 14.9159 16.0805 15.4371 15.759 15.7585C15.5977 15.9189 15.3871 16 15.1776 16Z" fill="#646464"/>
</svg>
