<svg width="42" height="42" viewBox="0 0 42 42" fill="none" xmlns="http://www.w3.org/2000/svg">
<path d="M25.3006 34.9312L25.3006 34.9313C25.7134 35.1499 25.8707 35.6624 25.6547 36.076C25.4381 36.4907 24.9273 36.6512 24.5136 36.4325L24.5135 36.4324L21.1765 34.6663L9.97067 40.5974L9.97059 40.5974C9.77834 40.6991 9.56917 40.7499 9.36026 40.7499C9.08889 40.7499 8.82017 40.6643 8.59165 40.4971C8.18641 40.2007 7.98742 39.7067 8.07181 39.2113L10.2123 26.6468L1.14531 17.7489C1.14531 17.7489 1.1453 17.7489 1.14529 17.7489C0.786876 17.3972 0.660304 16.8798 0.814666 16.4015L25.3006 34.9312ZM25.3006 34.9312L21.7859 33.071C21.4044 32.8691 20.9486 32.8691 20.5671 33.071L20.684 33.292L20.5671 33.071L9.86622 38.7348M25.3006 34.9312L9.86622 38.7348M9.86622 38.7348L11.9103 26.7363C11.9103 26.7363 11.9103 26.7362 11.9103 26.7362C11.983 26.3101 11.8429 25.8752 11.5347 25.5726L11.5347 25.5726L2.87408 17.0737L14.8412 15.323L14.8412 15.323C15.2681 15.2605 15.6361 14.9908 15.8262 14.6028L17.5212 11.1453L17.5212 11.1452C17.7266 10.7263 17.5565 10.2178 17.138 10.0099C16.7185 9.80148 16.2121 9.97574 16.0063 10.3955L16.0063 10.3955L14.3996 13.6729L1.87081 15.5058C1.37423 15.5783 0.969097 15.923 0.814671 16.4015L9.86622 38.7348Z" fill="#2C2C2C" stroke="#2C2C2C" stroke-width="0.5"/>
<path d="M39.0963 16.9164L26.9003 15.1534L26.9002 15.1534C26.468 15.0908 26.0939 14.8209 25.9002 14.4301L20.4449 3.43371L18.3726 7.61099L18.3725 7.61107C18.1629 8.03318 17.6502 8.20523 17.2276 7.99792L17.2275 7.99789C16.8039 7.78997 16.6289 7.27864 16.8387 6.85562L16.8387 6.85561L19.2541 1.98678L19.2541 1.98676C19.4795 1.53246 19.9369 1.25 20.4449 1.25C20.9528 1.25 21.4102 1.53246 21.6356 1.98676L21.6356 1.98678L27.3449 13.4951L40.1119 15.3407C40.6144 15.4133 41.0266 15.7583 41.1841 16.2404C41.1841 16.2404 41.1841 16.2404 41.1841 16.2404L40.9464 16.318C41.0742 16.7091 40.9696 17.1304 40.6736 17.4174L39.0963 16.9164ZM39.0963 16.9164L30.2719 25.4734C29.9586 25.7772 29.8155 26.2151 29.8896 26.6446C29.8896 26.6446 29.8896 26.6446 29.8896 26.6446L31.973 38.7288L28.0294 36.6663L28.0292 36.6662C27.6121 36.4484 27.0951 36.607 26.8748 37.0239L26.8748 37.0239C26.6541 37.4415 26.8161 37.957 27.2341 38.1757L31.8643 40.5972C32.0594 40.6993 32.2714 40.75 32.4829 40.75C32.7577 40.75 33.0301 40.6642 33.2619 40.4967L33.2619 40.4967C33.6734 40.1993 33.8769 39.7024 33.7908 39.2027L31.6102 26.5545L39.0963 16.9164Z" fill="#2C2C2C" stroke="#2C2C2C" stroke-width="0.5"/>
</svg>
