<svg width="27" height="25" viewBox="0 0 27 25" fill="none" xmlns="http://www.w3.org/2000/svg">
<path d="M5.19083 24.5449C3.88322 24.5449 2.68459 24.0546 1.75837 23.1283C0.832148 22.2021 0.341797 21.0035 0.341797 19.6959C0.341797 18.3883 0.832148 17.1896 1.75837 16.2634L15.5972 2.4246C18.1034 -0.0816388 22.2442 -0.0816388 24.7504 2.4246C25.9491 3.62324 26.6573 5.25774 26.6573 7.00122C26.6573 8.74469 26.0035 10.3247 24.7504 11.5778L14.3985 21.9297L13.3089 20.84L23.6607 10.4882C25.5677 8.58125 25.5677 5.4212 23.6607 3.51427C21.7538 1.60735 18.5938 1.60735 16.6869 3.51427L2.84804 17.3531C2.19424 17.9524 1.86733 18.8242 1.86733 19.6959C1.86733 20.5676 2.19424 21.4394 2.84804 22.0387C4.15564 23.3463 6.22602 23.3463 7.53362 22.0387L17.8855 11.6868C18.5393 11.033 18.5393 9.94334 17.8855 9.28953C17.2317 8.63573 16.142 8.63573 15.4882 9.28953L8.56881 16.2089L7.47914 15.1193L14.3985 8.19986C15.6517 6.94674 17.6676 6.94674 18.9207 8.19986C20.1738 9.45298 20.1738 11.4689 18.9207 12.722L8.56881 23.0739C7.69707 24.0546 6.49843 24.5449 5.19083 24.5449Z" fill="white"/>
</svg>
