<svg width="37" height="33" viewBox="0 0 37 33" fill="none" xmlns="http://www.w3.org/2000/svg">
<path d="M36.5204 13.0338L19.4559 0.185783C19.1269 -0.0619276 18.6798 -0.0619276 18.3509 0.185783L1.28621 13.0338C0.8694 13.3477 0.778838 13.9495 1.08406 14.3781C1.38929 14.8068 1.97464 14.8997 2.39138 14.586L18.9033 2.15394L35.4153 14.5859C35.5818 14.7114 35.7753 14.7718 35.9671 14.7718C36.2551 14.7718 36.5393 14.6355 36.7225 14.3781C37.0278 13.9495 36.9373 13.3477 36.5204 13.0338Z" fill="#1F75FE"/>
<path d="M31.9986 14.8047C31.4821 14.8047 31.0633 15.2353 31.0633 15.7665V31.0766H23.5805V22.7194C23.5805 20.0673 21.4822 17.9098 18.9033 17.9098C16.3244 17.9098 14.2261 20.0675 14.2261 22.7194V31.0767H6.74329V15.7666C6.74329 15.2354 6.32444 14.8048 5.80792 14.8048C5.29141 14.8048 4.87256 15.2354 4.87256 15.7666V32.0386C4.87256 32.5698 5.29141 33.0005 5.80792 33.0005H15.1615C15.6534 33.0005 16.056 32.6097 16.0932 32.1135C16.0955 32.091 16.0969 32.0665 16.0969 32.0386V22.7195C16.0969 21.1282 17.3558 19.8336 18.9033 19.8336C20.4508 19.8336 21.7098 21.1282 21.7098 22.7195V32.0386C21.7098 32.0663 21.7112 32.0905 21.7134 32.1127C21.7503 32.6092 22.1529 33.0005 22.6451 33.0005H31.9987C32.5153 33.0005 32.9341 32.5698 32.9341 32.0386V15.7666C32.934 15.2353 32.5152 14.8047 31.9986 14.8047Z" fill="#1F75FE"/>
</svg>
