<svg width="44" height="42" viewBox="0 0 44 42" fill="none" xmlns="http://www.w3.org/2000/svg">
<path d="M26.0487 20.1775C26.0487 21.1351 26.677 21.9485 27.5434 22.2297C27.8408 24.9342 30.1429 27.0456 32.9305 27.0456C35.7181 27.0456 38.0201 24.9343 38.3177 22.2299C39.1852 21.949 39.8144 21.1353 39.8144 20.1775C39.8144 19.148 39.0877 18.2852 38.1193 18.0713L33.9917 9.31914C35.2885 9.1032 36.4836 8.49408 37.4318 7.54801C37.7053 7.27513 37.7058 6.83221 37.4329 6.55877C37.1601 6.28527 36.7171 6.28485 36.4437 6.55765C35.5055 7.49372 34.2578 8.00926 32.9305 8.00926C31.9726 8.00926 28.0424 7.26912 25.5214 6.406C25.4693 5.51729 25.098 4.68908 24.4622 4.05527C23.7793 3.37451 22.8746 3 21.9136 3C21.9106 3 21.9075 3 21.9045 3C19.9786 3.00476 18.3995 4.5147 18.2906 6.40684C15.7694 7.26954 11.84 8.00926 10.8818 8.00926C9.55578 8.00926 8.30885 7.49372 7.37068 6.55765C7.09724 6.28485 6.65432 6.28527 6.38145 6.55877C6.10857 6.83221 6.10906 7.27513 6.38257 7.54801C7.3306 8.49394 8.52499 9.10299 9.82068 9.319L5.69307 18.0714C4.7258 18.2855 4 19.1482 4 20.1775C4 21.1351 4.62829 21.9485 5.49469 22.2297C5.79212 24.9342 8.09417 27.0456 10.8818 27.0456C13.6705 27.0456 15.9734 24.9341 16.271 22.2297C17.1374 21.9486 17.7657 21.1351 17.7657 20.1775C17.7657 19.1482 17.0399 18.2854 16.0725 18.0713L11.9415 9.31536C13.6157 9.09103 16.4377 8.48806 18.4901 7.81522C18.7319 8.49856 19.1735 9.08851 19.7454 9.51402V29.997H13.1105C11.813 29.997 10.7574 31.0519 10.7574 32.3485V33.299H9.29759C8.00009 33.299 6.9444 34.3529 6.9444 35.6484V37.3004C6.9444 37.6867 7.25757 37.9999 7.6439 37.9999H18.7654C19.1517 37.9999 19.4649 37.6867 19.4649 37.3004C19.4649 36.914 19.1517 36.6009 18.7654 36.6009H8.34347V35.6484C8.34347 35.1244 8.7715 34.698 9.29766 34.698H34.5148C35.0409 34.698 35.469 35.1244 35.469 35.6484V36.6009H25.047C24.6606 36.6009 24.3475 36.914 24.3475 37.3004C24.3475 37.6867 24.6606 37.9999 25.047 37.9999H36.1684C36.5548 37.9999 36.8679 37.6867 36.8679 37.3004V35.6484C36.8679 34.3529 35.8123 33.299 34.5148 33.299H33.057V32.3485C33.057 31.0519 32.0014 29.997 30.7039 29.997H24.067V9.51843C24.2109 9.41154 24.3479 9.29326 24.4767 9.16406C24.8633 8.77661 25.1504 8.3169 25.3262 7.81577C27.3781 8.48834 30.198 9.09096 31.8711 9.31522L27.7417 18.0714C26.7744 18.2855 26.0487 19.1482 26.0487 20.1775ZM32.9305 25.6466C30.9523 25.6466 29.3044 24.2142 28.9715 22.335H36.8896C36.5567 24.2142 34.9087 25.6466 32.9305 25.6466ZM37.6516 20.936H28.2095C27.7895 20.936 27.4477 20.5957 27.4477 20.1775C27.4477 19.7592 27.7895 19.4189 28.2095 19.4189H37.6496C37.6505 19.4189 37.6512 19.419 37.6521 19.419C37.6526 19.419 37.653 19.4189 37.6535 19.4189C38.0737 19.42 38.4155 19.7597 38.4155 20.1774C38.4154 20.5958 38.0728 20.936 37.6516 20.936ZM29.3128 18.0199L32.9305 10.3487L36.5483 18.0199H29.3128ZM21.908 4.399H21.9136C22.5016 4.399 23.0558 4.62871 23.4745 5.04611C23.8953 5.4656 24.1279 6.02366 24.1294 6.61732C24.1308 7.20532 23.9024 7.75891 23.4863 8.17609C23.0655 8.59796 22.5043 8.83033 21.9062 8.83033C20.6804 8.83033 19.6831 7.83683 19.6831 6.61564C19.6831 5.39642 20.6811 4.40201 21.908 4.399ZM10.8818 25.6466C8.90363 25.6466 7.25568 24.2142 6.92279 22.335H14.8428C14.5098 24.2142 12.861 25.6466 10.8818 25.6466ZM15.6048 20.936H6.16082C5.74077 20.936 5.399 20.5958 5.399 20.1775C5.399 19.7592 5.74077 19.4189 6.16082 19.4189H15.6029C15.6037 19.4189 15.6045 19.419 15.6053 19.419C15.6058 19.419 15.6062 19.4189 15.6067 19.4189C16.0259 19.42 16.3667 19.7597 16.3667 20.1774C16.3667 20.5958 16.025 20.936 15.6048 20.936ZM7.26408 18.0199L10.882 10.3484L14.5014 18.0199H7.26408ZM31.658 32.3485V33.299H12.1564V32.3485C12.1564 31.8233 12.5844 31.396 13.1105 31.396H30.7039C31.23 31.396 31.658 31.8233 31.658 32.3485ZM22.668 29.997H21.1444V10.1482C21.3902 10.2009 21.6449 10.2293 21.9062 10.2293C22.1655 10.2293 22.4204 10.2016 22.668 10.1491V29.997Z" fill="#1F75FE"/>
<path d="M21.9063 36.6006C21.52 36.6006 21.2068 36.9138 21.2068 37.3001C21.2068 37.6864 21.52 37.9996 21.9063 37.9996H21.9103C22.2966 37.9996 22.6078 37.6864 22.6078 37.3001C22.6078 36.9138 22.2926 36.6006 21.9063 36.6006Z" fill="#1F75FE"/>
</svg>
