<svg width="44" height="42" viewBox="0 0 44 42" fill="none" xmlns="http://www.w3.org/2000/svg">
<path d="M8.08796 24.027C8.44385 24.027 8.7324 23.7377 8.7324 23.3809C8.72344 19.3272 10.558 15.4905 13.7159 12.9585C13.9857 12.7643 14.0474 12.3875 13.8537 12.1171C13.8378 12.0949 13.8205 12.0739 13.8018 12.0541C13.5754 11.7825 13.1731 11.744 12.8997 11.9679C9.45027 14.7472 7.44377 18.9445 7.4436 23.3809C7.44352 23.7377 7.73207 24.027 8.08796 24.027Z" fill="#1F75FE"/>
<path d="M26.3032 36.0433C23.5542 36.9474 20.589 36.9474 17.8399 36.0433C17.5013 35.9334 17.138 36.1195 17.0283 36.4589C17.0267 36.4639 17.0251 36.4689 17.0236 36.4739C16.9359 36.8169 17.1216 37.1706 17.4532 37.2923C18.9378 37.7761 20.489 38.0231 22.05 38.0245C23.6428 38.026 25.225 37.7641 26.7328 37.2492C27.049 37.0855 27.173 36.6958 27.0097 36.3788C26.8765 36.1202 26.5872 35.9828 26.3032 36.0433Z" fill="#1F75FE"/>
<path d="M35.368 23.3808C35.368 23.7375 35.6566 24.0268 36.0125 24.0268C36.3683 24.0268 36.6569 23.7375 36.6569 23.3808C36.645 18.6223 34.3408 14.1628 30.4705 11.4079C30.17 11.2259 29.781 11.3002 29.5683 11.5802C29.3658 11.8736 29.4391 12.276 29.7319 12.4789C29.7346 12.4808 29.7374 12.4827 29.7402 12.4846C33.2629 14.991 35.3595 19.0502 35.368 23.3808Z" fill="#1F75FE"/>
<path d="M25.487 7.78986V7.01465H24.1982V7.78986C24.1982 8.14664 24.4868 8.4359 24.8427 8.4359C25.1985 8.4359 25.487 8.14672 25.487 7.78986Z" fill="#1F75FE"/>
<path d="M19.9021 7.78986V7.01465H18.6133V7.78986C18.6133 8.14664 18.9018 8.4359 19.2577 8.4359C19.6135 8.4359 19.9021 8.14672 19.9021 7.78986Z" fill="#1F75FE"/>
<path d="M22.9091 7.78986V7.01465H21.1907V7.78986C21.1907 8.17747 21.7062 8.47894 22.0499 8.47894C22.3936 8.47894 22.9091 8.17747 22.9091 7.78986Z" fill="#1F75FE"/>
<path d="M26.7759 5.72272V4.17229C26.7759 4 26.604 4 26.3892 4H17.7111C17.5392 4 17.3245 4 17.3245 4.17229V5.72272H18.1408H26.7759Z" fill="#1F75FE"/>
<path d="M17.0667 7.91912C17.2385 7.91912 17.3245 7.78995 17.3245 7.57454V7.01465H16.8949V7.57454C16.8736 7.68303 16.9056 7.79514 16.9808 7.87601C17.0237 7.87601 16.9808 7.87601 17.0237 7.91904H17.0667V7.91912Z" fill="#1F75FE"/>
<path d="M27.2054 7.01465H26.7759V7.66069C26.7491 7.77651 26.821 7.89225 26.9366 7.91912C26.9685 7.92654 27.0018 7.92654 27.0337 7.91912H27.0766C27.0766 7.91912 27.0337 7.87609 27.0766 7.87609C27.1675 7.80388 27.216 7.69045 27.2054 7.57463V7.01465Z" fill="#1F75FE"/>
<path d="M26.3892 15.1979C26.604 15.1979 26.7759 15.1979 26.7759 15.0256V9.21141C26.564 9.20622 26.357 9.14687 26.1744 9.03912C25.8059 9.49416 25.2553 9.76224 24.6708 9.77131C24.1922 9.76496 23.7329 9.5808 23.382 9.25453C23.0136 9.58031 22.5413 9.76356 22.0502 9.77131C21.5716 9.76496 21.1123 9.5808 20.7614 9.25453C20.393 9.58031 19.9207 9.76356 19.4296 9.77131C18.8345 9.76455 18.2775 9.47735 17.9259 8.99609C17.754 9.12527 17.754 9.16838 17.3245 9.21141V15.0256C17.3245 15.1979 17.5392 15.1979 17.7111 15.1979H19.0429V11.8816C19.0429 11.5371 19.1718 11.3217 19.5155 11.3217H24.6278C24.9716 11.3217 25.0574 11.5371 25.0574 11.8816V15.1979H26.3892Z" fill="#1F75FE"/>
<path d="M23.7684 12.6133H20.3315V15.1974H23.7684V12.6133Z" fill="#1F75FE"/>
<path d="M11.9543 31.7358C12.317 31.713 12.5994 31.4111 12.5987 31.0467V30.2715H11.3098V31.0467C11.3091 31.4111 11.5915 31.713 11.9543 31.7358Z" fill="#1F75FE"/>
<path d="M9.16172 31.7358C9.50544 31.7358 10.0209 31.4343 10.0209 31.0467V30.2715H8.30249V31.0467C8.30249 31.4343 8.81807 31.7358 9.16172 31.7358Z" fill="#1F75FE"/>
<path d="M13.8875 28.9786V27.4281C13.8875 27.2559 13.7156 27.2559 13.5009 27.2559H4.82268C4.65082 27.2559 4.43604 27.2559 4.43604 27.4281V28.9786H5.25234H13.8875Z" fill="#1F75FE"/>
<path d="M11.7823 33.0281C11.3037 33.0218 10.8445 32.8376 10.4935 32.5114C10.1251 32.8371 9.65289 33.0204 9.16173 33.0281C8.68315 33.0218 8.22389 32.8376 7.87293 32.5114C7.50454 32.8371 7.03229 33.0204 6.54113 33.0281C5.94611 33.0214 5.38908 32.7342 5.03747 32.2529C4.86561 32.3821 4.86561 32.4252 4.43604 32.4682V38.2824C4.43604 38.4547 4.65082 38.4547 4.82268 38.4547H6.15448V35.1385C6.15448 34.7939 6.28334 34.5786 6.62706 34.5786H11.7394C12.0831 34.5786 12.169 34.7939 12.169 35.1385V38.4547H13.5008C13.7156 38.4547 13.8874 38.4547 13.8874 38.2824V32.4682C13.6756 32.4631 13.4685 32.4037 13.286 32.296C12.9174 32.751 12.3669 33.0191 11.7823 33.0281Z" fill="#1F75FE"/>
<path d="M6.36929 31.7358C6.73201 31.713 7.01439 31.4111 7.01373 31.0467V30.2715H5.72485V31.0467C5.7242 31.4111 6.00658 31.713 6.36929 31.7358Z" fill="#1F75FE"/>
<path d="M10.8805 35.8701H7.4436V38.4542H10.8805V35.8701Z" fill="#1F75FE"/>
<path d="M14.3168 30.2715H13.8872V30.9175C13.8604 31.0333 13.9323 31.1491 14.048 31.176C14.0799 31.1834 14.1131 31.1834 14.145 31.176H14.1879C14.1879 31.176 14.145 31.1329 14.1879 31.1329C14.2789 31.0607 14.3274 30.9473 14.3168 30.8315V30.2715Z" fill="#1F75FE"/>
<path d="M4.43604 30.2715H4.00647V30.8314C3.98517 30.9399 4.01716 31.052 4.0924 31.1328H4.17833C4.35019 31.1328 4.43612 31.0037 4.43612 30.7883V30.2715H4.43604Z" fill="#1F75FE"/>
<path d="M34.9386 31.7358C35.2823 31.7358 35.7978 31.4343 35.7978 31.0467V30.2715H34.0793V31.0467C34.0793 31.4343 34.5948 31.7358 34.9386 31.7358Z" fill="#1F75FE"/>
<path d="M32.1461 31.7358C32.5088 31.713 32.7912 31.4111 32.7905 31.0467V30.2715H31.5017V31.0467C31.5009 31.4111 31.7833 31.713 32.1461 31.7358Z" fill="#1F75FE"/>
<path d="M37.5589 33.0281C37.0804 33.0218 36.6211 32.8376 36.2701 32.5114C35.9017 32.8371 35.4295 33.0204 34.9383 33.0281C34.4598 33.0218 34.0005 32.8376 33.6495 32.5114C33.2812 32.8371 32.8089 33.0204 32.3177 33.0281C31.7227 33.0214 31.1657 32.7342 30.8141 32.2529C30.6422 32.3821 30.6422 32.4252 30.2126 32.4682V38.2824C30.2126 38.4547 30.4274 38.4547 30.5993 38.4547H31.9311V35.1385C31.9311 34.7939 32.0599 34.5786 32.4037 34.5786H37.516C37.8597 34.5786 37.9456 34.7939 37.9456 35.1385V38.4547H39.2774C39.4922 38.4547 39.664 38.4547 39.664 38.2824V32.4682C39.4522 32.4631 39.2452 32.4037 39.0626 32.296C38.694 32.751 38.1435 33.0191 37.5589 33.0281Z" fill="#1F75FE"/>
<path d="M29.7831 30.2715V30.8314C29.7618 30.9399 29.7938 31.052 29.869 31.1328H29.9549C30.1268 31.1328 30.2127 31.0037 30.2127 30.7883V30.2715H29.7831Z" fill="#1F75FE"/>
<path d="M30.2126 27.4281V28.9786H39.6641V27.4281C39.6641 27.2559 39.4923 27.2559 39.2775 27.2559H30.5993C30.4275 27.2559 30.2126 27.2559 30.2126 27.4281Z" fill="#1F75FE"/>
<path d="M37.731 31.7358C38.0937 31.713 38.3761 31.4111 38.3755 31.0467V30.2715H37.0867V31.0467C37.0859 31.4111 37.3682 31.713 37.731 31.7358Z" fill="#1F75FE"/>
<path d="M36.6569 35.8701H33.22V38.4542H36.6569V35.8701Z" fill="#1F75FE"/>
<path d="M40.0936 30.8314V30.2715H39.6641V30.9175C39.6372 31.0333 39.7092 31.1491 39.8248 31.176C39.8567 31.1834 39.8899 31.1834 39.9218 31.176H39.9648C39.9648 31.176 39.9218 31.1329 39.9648 31.1329C40.0557 31.0606 40.1041 30.9472 40.0936 30.8314Z" fill="#1F75FE"/>
</svg>
