<svg width="152" height="58" viewBox="0 0 152 58" fill="none" xmlns="http://www.w3.org/2000/svg">
<path d="M28.0277 43.4753C28.0277 47.4411 26.6407 50.8616 23.9144 53.7368C21.1403 56.612 17.8402 58 14.0138 58C11.3833 58 8.89616 57.2564 6.60038 55.8188C4.35242 54.3812 2.58276 52.3983 1.38704 49.8701C1.05223 49.077 1.00441 48.3829 1.29138 47.6889C1.53052 46.9453 1.96098 46.4 2.67841 46.053C3.34802 45.6565 4.06545 45.6069 4.78288 45.8547C5.50032 46.1026 6.02643 46.5983 6.36124 47.2923C7.93959 50.6137 10.4745 52.2496 14.0138 52.2496C16.3096 52.2496 18.3184 51.4069 19.9446 49.7214C21.6186 47.9864 22.4796 45.9539 22.5274 43.624V40.4513C19.9446 42.4342 17.0749 43.4753 14.0617 43.4753C10.1875 43.4753 6.88735 42.0377 4.11328 39.212C1.33921 36.3864 0 32.9659 0 28.9505C0 24.8856 1.33921 21.4651 4.06545 18.6395C6.79169 15.8138 10.0919 14.4258 14.0138 14.4258C17.888 14.4258 21.1882 15.8138 23.9144 18.6395C26.6885 21.5147 28.0277 24.9352 28.0277 28.9505V43.4753ZM14.0138 37.7249C16.3096 37.7249 18.3184 36.8326 19.9925 35.0975C21.6665 33.3625 22.5274 31.2804 22.5274 28.901C22.5274 26.4719 21.6665 24.3899 19.9925 22.6548C18.2228 20.9694 16.2618 20.1266 14.0138 20.1266C11.6702 20.1266 9.66142 20.9694 8.03524 22.6548C6.36123 24.3899 5.50032 26.4719 5.50032 28.901C5.50032 31.2804 6.36123 33.3625 8.03524 35.0975C9.66142 36.8821 11.6702 37.7249 14.0138 37.7249Z" fill="#F1F6FF"/>
<path d="M44.9591 43.4753C41.1328 43.4753 37.8326 42.0377 35.0586 39.212C32.2845 36.3368 30.9453 32.9163 30.9453 28.9505C30.9453 24.9352 32.3323 21.5147 35.0586 18.6395C37.7848 15.8138 41.085 14.4258 44.9591 14.4258C48.8811 14.4258 52.1813 15.8138 54.9075 18.6395C57.6338 21.4651 58.973 24.8856 58.973 28.9505C58.973 32.9659 57.6338 36.3864 54.9075 39.212C52.1335 42.0377 48.8333 43.4753 44.9591 43.4753ZM44.9591 20.1266C42.6155 20.1266 40.6067 20.9694 38.9805 22.6548C37.3065 24.3899 36.4456 26.4719 36.4456 28.901C36.4456 31.2804 37.3065 33.3625 38.9805 35.0975C40.6067 36.8326 42.6155 37.7249 44.9591 37.7249C47.3027 37.7249 49.3116 36.8326 50.9856 35.0975C52.6117 33.2633 53.4248 31.2309 53.4248 28.901C53.4248 26.5711 52.6117 24.4394 50.9856 22.6548C49.2637 20.9694 47.2071 20.1266 44.9591 20.1266Z" fill="#F1F6FF"/>
<path d="M62.1775 2.82563C62.1775 2.03247 62.4645 1.38803 63.0384 0.79316C63.5645 0.247862 64.2341 0 64.9994 0C65.669 0 66.3386 0.247862 66.9604 0.79316C67.4865 1.4376 67.7256 2.13162 67.7256 2.82563V17.2512C70.2606 15.2683 73.0825 14.2769 76.1913 14.2769C80.1133 14.2769 83.4135 15.6649 86.1397 18.4905C88.866 21.3162 90.2052 24.7367 90.2052 28.8016C90.2052 32.817 88.866 36.2375 86.1397 39.0631C83.3657 41.9383 80.0655 43.3263 76.1913 43.3263C72.365 43.3263 69.0648 41.8887 66.2908 39.0631C63.5167 36.1879 62.1775 32.7674 62.1775 28.8016V2.82563ZM67.6778 28.8512C67.6778 31.2802 68.5387 33.3623 70.2127 35.0477C71.8389 36.7828 73.8477 37.6751 76.1913 37.6751C78.535 37.6751 80.5438 36.7828 82.2178 35.0477C83.8439 33.2136 84.657 31.1811 84.657 28.8512C84.657 26.5213 83.8439 24.3897 82.2178 22.605C80.4481 20.9196 78.4393 20.0769 76.1913 20.0769C73.8477 20.0769 71.8389 20.9196 70.2127 22.605C68.5387 24.3401 67.6778 26.4221 67.6778 28.8016V28.8512Z" fill="#F1F6FF"/>
<path d="M96.2316 8.67498C95.4663 8.67498 94.7967 8.42712 94.2706 7.88182C93.6967 7.28695 93.4097 6.64251 93.4097 5.84935C93.4097 5.05619 93.6967 4.41175 94.2706 3.81688C94.8446 3.22201 95.4663 2.92457 96.2316 2.92457C96.9968 2.92457 97.6186 3.22201 98.1926 3.81688C98.7187 4.36217 98.9578 5.05619 98.9578 5.84935C98.9578 6.64251 98.7187 7.33652 98.1926 7.88182C97.6665 8.42712 96.9968 8.67498 96.2316 8.67498ZM93.4575 17.3006C93.4575 16.5074 93.7445 15.863 94.3184 15.2681C94.8446 14.7228 95.5142 14.475 96.2794 14.475C96.949 14.475 97.6186 14.7228 98.2404 15.2681C98.7665 15.9126 99.0057 16.6066 99.0057 17.3006V40.6492C99.0057 41.4424 98.7665 42.1364 98.2404 42.6817C97.6665 43.2766 97.0447 43.574 96.2794 43.574C95.5142 43.574 94.8446 43.2766 94.3184 42.6817C93.7445 42.1364 93.4575 41.4424 93.4575 40.6492V17.3006Z" fill="#F1F6FF"/>
<path d="M123.303 37.7247C123.972 37.7247 124.642 37.9725 125.264 38.5178C125.79 39.1623 126.029 39.8563 126.029 40.5503C126.029 41.2443 125.79 41.9383 125.264 42.5828C124.69 43.1776 124.068 43.4751 123.303 43.4751H105.941C104.745 43.4751 103.932 42.9298 103.406 41.8392C102.928 40.5007 103.023 39.4597 103.693 38.7657L117.659 20.1264H105.797C105.032 20.1264 104.41 19.829 103.836 19.2341C103.31 18.5897 103.071 17.8957 103.071 17.2017C103.071 16.5076 103.31 15.8136 103.836 15.1692C104.458 14.6239 105.128 14.376 105.797 14.376H123.159C124.403 14.376 125.216 14.9213 125.694 16.0119C126.268 17.1025 126.172 18.094 125.407 19.0358L111.441 37.7247H123.303Z" fill="#F1F6FF"/>
<path d="M152 46.0035C152 49.2753 150.852 52.1009 148.604 54.3812C146.308 56.7111 143.63 57.9009 140.473 57.9009C138.225 57.9009 136.216 57.306 134.399 56.1163C132.534 54.8769 131.099 53.2411 130.142 51.2086C129.807 50.4154 129.76 49.7214 130.047 49.0274C130.286 48.2838 130.716 47.7385 131.434 47.3915C132.103 47.0445 132.773 46.9949 133.49 47.2924C134.256 47.5898 134.782 48.0855 135.069 48.73C136.264 51.0599 138.082 52.2 140.473 52.2C142.195 52.2 143.63 51.6052 144.778 50.4154C145.926 49.2257 146.5 47.7385 146.5 46.0035V41.8394C144.778 42.93 142.865 43.4753 140.76 43.4753C137.651 43.4753 135.021 42.3351 132.868 40.1043C130.716 37.824 129.568 35.0975 129.52 31.9249V17.4993C129.52 16.8053 129.76 16.1113 130.286 15.4668C130.907 14.9215 131.577 14.6737 132.247 14.6737C132.916 14.6737 133.586 14.9215 134.208 15.4668C134.734 16.1113 134.973 16.8053 134.973 17.4993V31.8753C134.973 33.5112 135.547 34.9488 136.695 36.089C137.795 37.2291 139.134 37.824 140.712 37.824C142.291 37.824 143.678 37.2291 144.778 36.089C145.878 34.9488 146.452 33.5112 146.452 31.8753V17.4993C146.452 16.8053 146.691 16.1113 147.217 15.4668C147.839 14.9215 148.508 14.6737 149.178 14.6737C149.896 14.6737 150.565 14.9215 151.187 15.4668C151.713 16.1113 151.952 16.8053 151.952 17.4993V46.0035H152Z" fill="#F1F6FF"/>
<path d="M16.7401 9.41898H11.2877C9.80496 9.41898 8.56141 8.17966 8.56141 6.59334C8.56141 5.0566 9.75713 3.76771 11.2877 3.76771H16.7401C18.2228 3.76771 19.4664 5.00702 19.4664 6.59334C19.4664 8.17966 18.2228 9.41898 16.7401 9.41898Z" fill="#F1F6FF"/>
</svg>
