<svg width="44" height="42" viewBox="0 0 44 42" fill="none" xmlns="http://www.w3.org/2000/svg">
<g clip-path="url(#clip0)">
<mask id="path-1-outside-1" maskUnits="userSpaceOnUse" x="3" y="2" width="38" height="38" fill="black">
<rect fill="white" x="3" y="2" width="38" height="38"/>
<path d="M37.593 16.853L35.3898 16.6785C35.1727 16.0058 34.9039 15.3481 34.5876 14.7153L36.0503 13.0347C36.948 12.0033 36.8938 10.4379 35.9269 9.471L33.6378 7.18184C32.6804 6.22446 31.1236 6.16294 30.0936 7.0417L28.4121 8.47643C27.7829 8.15384 27.1278 7.87849 26.4569 7.65448L26.3029 5.43267C26.2082 4.06854 25.063 3 23.6957 3H20.4582C19.1042 3 17.9599 4.05729 17.853 5.40701L17.6785 7.61018C16.9598 7.842 16.2594 8.13225 15.5881 8.47643L13.9065 7.0417C12.8765 6.16294 11.3197 6.22446 10.3623 7.18184L8.07313 9.47107C7.1062 10.438 7.05205 12.0034 7.94973 13.0348L9.41245 14.7153C9.09611 15.3481 8.8273 16.0058 8.61025 16.6785L6.40701 16.853C5.05729 16.9599 4 18.1043 4 19.4582V22.6957C4 24.063 5.06861 25.2082 6.43267 25.3028L8.65441 25.4567C8.87842 26.1277 9.15384 26.7827 9.47643 27.4119L8.0417 29.0935C7.16294 30.1235 7.22453 31.6803 8.18184 32.6376L10.471 34.9268C11.4379 35.8937 13.0032 35.9479 14.0347 35.0501C14.2596 34.8544 14.2833 34.5133 14.0875 34.2883C13.8917 34.0633 13.5505 34.0397 13.3257 34.2355C12.7204 34.7623 11.802 34.7304 11.2347 34.1631L8.9455 31.874C8.38377 31.3122 8.34763 30.3987 8.86323 29.7944L10.5361 27.8338C10.6815 27.6634 10.7066 27.4207 10.599 27.2241C10.1757 26.4504 9.83087 25.6301 9.57402 24.786C9.50884 24.5718 9.31816 24.42 9.09477 24.4045L6.50734 24.2252C5.70698 24.1698 5.08 23.4978 5.08 22.6955V19.458C5.08 18.6637 5.70037 17.9922 6.4923 17.9295L9.06102 17.726C9.28434 17.7083 9.47355 17.5545 9.53655 17.3396C9.78461 16.4937 10.1211 15.6701 10.5369 14.8916C10.6424 14.694 10.615 14.4517 10.4679 14.2827L8.76438 12.3258C8.23759 11.7206 8.26945 10.8021 8.83673 10.2347L11.126 7.94557C11.6878 7.38384 12.6012 7.3477 13.2055 7.86337L15.1662 9.53618C15.3366 9.68166 15.5793 9.70669 15.7759 9.59911C16.5878 9.1548 17.4505 8.79734 18.3397 8.53662C18.5548 8.47362 18.7085 8.28434 18.7262 8.06102L18.9297 5.4923C18.9924 4.70037 19.6638 4.08 20.4583 4.08H23.6957C24.498 4.08 25.17 4.70698 25.2254 5.50734L25.4047 8.09477C25.4202 8.31816 25.572 8.50884 25.7863 8.57402C26.6304 8.83087 27.4507 9.17576 28.2243 9.59904C28.4208 9.70662 28.6634 9.68159 28.834 9.53611L30.7946 7.8633C31.399 7.34763 32.3124 7.38377 32.8742 7.9455L35.1633 10.2347C35.7306 10.802 35.7625 11.7205 35.2357 12.3257L33.5322 14.2828C33.3851 14.4519 33.3576 14.6941 33.4632 14.8917C33.8789 15.6702 34.2155 16.4939 34.4635 17.3397C34.5265 17.5547 34.7157 17.7084 34.939 17.7261L37.5078 17.9296C38.2997 17.9923 38.9201 18.6637 38.9201 19.4582V22.6957C38.9201 23.4979 38.2931 24.1699 37.4927 24.2254L34.9052 24.4047C34.6818 24.4201 34.4912 24.5719 34.426 24.7862C34.1691 25.6303 33.8243 26.4506 33.401 27.2242C33.2934 27.4209 33.3184 27.6634 33.4639 27.834L35.1368 29.7945C35.6524 30.3988 35.6162 31.3123 35.0546 31.874L32.7653 34.1632C32.1981 34.7306 31.2796 34.7623 30.6744 34.2356L28.7172 32.5321C28.5482 32.385 28.306 32.3576 28.1083 32.463C27.3683 32.8583 26.5871 33.1822 25.7863 33.4258C25.572 33.4911 25.4202 33.6817 25.4047 33.9051L25.2254 36.4925C25.17 37.2929 24.498 37.9199 23.6957 37.9199H20.4583C19.6639 37.9199 18.9924 37.2996 18.9297 36.5076L18.7262 33.9389C18.7085 33.7156 18.5548 33.5264 18.3398 33.4634C17.4937 33.2152 16.6702 32.8788 15.8918 32.463C15.6288 32.3226 15.3015 32.4219 15.1611 32.685C15.0206 32.9481 15.1199 33.2752 15.383 33.4157C16.1165 33.8074 16.8871 34.1342 17.6784 34.3897L17.8529 36.5929C17.9599 37.9427 19.1043 39 20.4582 39H23.6957C25.063 39 26.2082 37.9314 26.3028 36.5673L26.4568 34.3455C27.082 34.1367 27.6943 33.8828 28.2847 33.5876L29.9652 35.0503C30.9966 35.9481 32.5621 35.8939 33.5289 34.9269L35.8181 32.6378C36.7755 31.6804 36.837 30.1236 35.9582 29.0936L34.5234 27.4121C34.846 26.7829 35.1214 26.1277 35.3455 25.4568L37.5672 25.3029C38.9314 25.2082 40 24.063 40 22.6957V19.4582C40 18.1043 38.9427 16.9599 37.593 16.853Z"/>
</mask>
<path d="M37.593 16.853L35.3898 16.6785C35.1727 16.0058 34.9039 15.3481 34.5876 14.7153L36.0503 13.0347C36.948 12.0033 36.8938 10.4379 35.9269 9.471L33.6378 7.18184C32.6804 6.22446 31.1236 6.16294 30.0936 7.0417L28.4121 8.47643C27.7829 8.15384 27.1278 7.87849 26.4569 7.65448L26.3029 5.43267C26.2082 4.06854 25.063 3 23.6957 3H20.4582C19.1042 3 17.9599 4.05729 17.853 5.40701L17.6785 7.61018C16.9598 7.842 16.2594 8.13225 15.5881 8.47643L13.9065 7.0417C12.8765 6.16294 11.3197 6.22446 10.3623 7.18184L8.07313 9.47107C7.1062 10.438 7.05205 12.0034 7.94973 13.0348L9.41245 14.7153C9.09611 15.3481 8.8273 16.0058 8.61025 16.6785L6.40701 16.853C5.05729 16.9599 4 18.1043 4 19.4582V22.6957C4 24.063 5.06861 25.2082 6.43267 25.3028L8.65441 25.4567C8.87842 26.1277 9.15384 26.7827 9.47643 27.4119L8.0417 29.0935C7.16294 30.1235 7.22453 31.6803 8.18184 32.6376L10.471 34.9268C11.4379 35.8937 13.0032 35.9479 14.0347 35.0501C14.2596 34.8544 14.2833 34.5133 14.0875 34.2883C13.8917 34.0633 13.5505 34.0397 13.3257 34.2355C12.7204 34.7623 11.802 34.7304 11.2347 34.1631L8.9455 31.874C8.38377 31.3122 8.34763 30.3987 8.86323 29.7944L10.5361 27.8338C10.6815 27.6634 10.7066 27.4207 10.599 27.2241C10.1757 26.4504 9.83087 25.6301 9.57402 24.786C9.50884 24.5718 9.31816 24.42 9.09477 24.4045L6.50734 24.2252C5.70698 24.1698 5.08 23.4978 5.08 22.6955V19.458C5.08 18.6637 5.70037 17.9922 6.4923 17.9295L9.06102 17.726C9.28434 17.7083 9.47355 17.5545 9.53655 17.3396C9.78461 16.4937 10.1211 15.6701 10.5369 14.8916C10.6424 14.694 10.615 14.4517 10.4679 14.2827L8.76438 12.3258C8.23759 11.7206 8.26945 10.8021 8.83673 10.2347L11.126 7.94557C11.6878 7.38384 12.6012 7.3477 13.2055 7.86337L15.1662 9.53618C15.3366 9.68166 15.5793 9.70669 15.7759 9.59911C16.5878 9.1548 17.4505 8.79734 18.3397 8.53662C18.5548 8.47362 18.7085 8.28434 18.7262 8.06102L18.9297 5.4923C18.9924 4.70037 19.6638 4.08 20.4583 4.08H23.6957C24.498 4.08 25.17 4.70698 25.2254 5.50734L25.4047 8.09477C25.4202 8.31816 25.572 8.50884 25.7863 8.57402C26.6304 8.83087 27.4507 9.17576 28.2243 9.59904C28.4208 9.70662 28.6634 9.68159 28.834 9.53611L30.7946 7.8633C31.399 7.34763 32.3124 7.38377 32.8742 7.9455L35.1633 10.2347C35.7306 10.802 35.7625 11.7205 35.2357 12.3257L33.5322 14.2828C33.3851 14.4519 33.3576 14.6941 33.4632 14.8917C33.8789 15.6702 34.2155 16.4939 34.4635 17.3397C34.5265 17.5547 34.7157 17.7084 34.939 17.7261L37.5078 17.9296C38.2997 17.9923 38.9201 18.6637 38.9201 19.4582V22.6957C38.9201 23.4979 38.2931 24.1699 37.4927 24.2254L34.9052 24.4047C34.6818 24.4201 34.4912 24.5719 34.426 24.7862C34.1691 25.6303 33.8243 26.4506 33.401 27.2242C33.2934 27.4209 33.3184 27.6634 33.4639 27.834L35.1368 29.7945C35.6524 30.3988 35.6162 31.3123 35.0546 31.874L32.7653 34.1632C32.1981 34.7306 31.2796 34.7623 30.6744 34.2356L28.7172 32.5321C28.5482 32.385 28.306 32.3576 28.1083 32.463C27.3683 32.8583 26.5871 33.1822 25.7863 33.4258C25.572 33.4911 25.4202 33.6817 25.4047 33.9051L25.2254 36.4925C25.17 37.2929 24.498 37.9199 23.6957 37.9199H20.4583C19.6639 37.9199 18.9924 37.2996 18.9297 36.5076L18.7262 33.9389C18.7085 33.7156 18.5548 33.5264 18.3398 33.4634C17.4937 33.2152 16.6702 32.8788 15.8918 32.463C15.6288 32.3226 15.3015 32.4219 15.1611 32.685C15.0206 32.9481 15.1199 33.2752 15.383 33.4157C16.1165 33.8074 16.8871 34.1342 17.6784 34.3897L17.8529 36.5929C17.9599 37.9427 19.1043 39 20.4582 39H23.6957C25.063 39 26.2082 37.9314 26.3028 36.5673L26.4568 34.3455C27.082 34.1367 27.6943 33.8828 28.2847 33.5876L29.9652 35.0503C30.9966 35.9481 32.5621 35.8939 33.5289 34.9269L35.8181 32.6378C36.7755 31.6804 36.837 30.1236 35.9582 29.0936L34.5234 27.4121C34.846 26.7829 35.1214 26.1277 35.3455 25.4568L37.5672 25.3029C38.9314 25.2082 40 24.063 40 22.6957V19.4582C40 18.1043 38.9427 16.9599 37.593 16.853Z" fill="#1F75FE"/>
<path d="M37.593 16.853L35.3898 16.6785C35.1727 16.0058 34.9039 15.3481 34.5876 14.7153L36.0503 13.0347C36.948 12.0033 36.8938 10.4379 35.9269 9.471L33.6378 7.18184C32.6804 6.22446 31.1236 6.16294 30.0936 7.0417L28.4121 8.47643C27.7829 8.15384 27.1278 7.87849 26.4569 7.65448L26.3029 5.43267C26.2082 4.06854 25.063 3 23.6957 3H20.4582C19.1042 3 17.9599 4.05729 17.853 5.40701L17.6785 7.61018C16.9598 7.842 16.2594 8.13225 15.5881 8.47643L13.9065 7.0417C12.8765 6.16294 11.3197 6.22446 10.3623 7.18184L8.07313 9.47107C7.1062 10.438 7.05205 12.0034 7.94973 13.0348L9.41245 14.7153C9.09611 15.3481 8.8273 16.0058 8.61025 16.6785L6.40701 16.853C5.05729 16.9599 4 18.1043 4 19.4582V22.6957C4 24.063 5.06861 25.2082 6.43267 25.3028L8.65441 25.4567C8.87842 26.1277 9.15384 26.7827 9.47643 27.4119L8.0417 29.0935C7.16294 30.1235 7.22453 31.6803 8.18184 32.6376L10.471 34.9268C11.4379 35.8937 13.0032 35.9479 14.0347 35.0501C14.2596 34.8544 14.2833 34.5133 14.0875 34.2883C13.8917 34.0633 13.5505 34.0397 13.3257 34.2355C12.7204 34.7623 11.802 34.7304 11.2347 34.1631L8.9455 31.874C8.38377 31.3122 8.34763 30.3987 8.86323 29.7944L10.5361 27.8338C10.6815 27.6634 10.7066 27.4207 10.599 27.2241C10.1757 26.4504 9.83087 25.6301 9.57402 24.786C9.50884 24.5718 9.31816 24.42 9.09477 24.4045L6.50734 24.2252C5.70698 24.1698 5.08 23.4978 5.08 22.6955V19.458C5.08 18.6637 5.70037 17.9922 6.4923 17.9295L9.06102 17.726C9.28434 17.7083 9.47355 17.5545 9.53655 17.3396C9.78461 16.4937 10.1211 15.6701 10.5369 14.8916C10.6424 14.694 10.615 14.4517 10.4679 14.2827L8.76438 12.3258C8.23759 11.7206 8.26945 10.8021 8.83673 10.2347L11.126 7.94557C11.6878 7.38384 12.6012 7.3477 13.2055 7.86337L15.1662 9.53618C15.3366 9.68166 15.5793 9.70669 15.7759 9.59911C16.5878 9.1548 17.4505 8.79734 18.3397 8.53662C18.5548 8.47362 18.7085 8.28434 18.7262 8.06102L18.9297 5.4923C18.9924 4.70037 19.6638 4.08 20.4583 4.08H23.6957C24.498 4.08 25.17 4.70698 25.2254 5.50734L25.4047 8.09477C25.4202 8.31816 25.572 8.50884 25.7863 8.57402C26.6304 8.83087 27.4507 9.17576 28.2243 9.59904C28.4208 9.70662 28.6634 9.68159 28.834 9.53611L30.7946 7.8633C31.399 7.34763 32.3124 7.38377 32.8742 7.9455L35.1633 10.2347C35.7306 10.802 35.7625 11.7205 35.2357 12.3257L33.5322 14.2828C33.3851 14.4519 33.3576 14.6941 33.4632 14.8917C33.8789 15.6702 34.2155 16.4939 34.4635 17.3397C34.5265 17.5547 34.7157 17.7084 34.939 17.7261L37.5078 17.9296C38.2997 17.9923 38.9201 18.6637 38.9201 19.4582V22.6957C38.9201 23.4979 38.2931 24.1699 37.4927 24.2254L34.9052 24.4047C34.6818 24.4201 34.4912 24.5719 34.426 24.7862C34.1691 25.6303 33.8243 26.4506 33.401 27.2242C33.2934 27.4209 33.3184 27.6634 33.4639 27.834L35.1368 29.7945C35.6524 30.3988 35.6162 31.3123 35.0546 31.874L32.7653 34.1632C32.1981 34.7306 31.2796 34.7623 30.6744 34.2356L28.7172 32.5321C28.5482 32.385 28.306 32.3576 28.1083 32.463C27.3683 32.8583 26.5871 33.1822 25.7863 33.4258C25.572 33.4911 25.4202 33.6817 25.4047 33.9051L25.2254 36.4925C25.17 37.2929 24.498 37.9199 23.6957 37.9199H20.4583C19.6639 37.9199 18.9924 37.2996 18.9297 36.5076L18.7262 33.9389C18.7085 33.7156 18.5548 33.5264 18.3398 33.4634C17.4937 33.2152 16.6702 32.8788 15.8918 32.463C15.6288 32.3226 15.3015 32.4219 15.1611 32.685C15.0206 32.9481 15.1199 33.2752 15.383 33.4157C16.1165 33.8074 16.8871 34.1342 17.6784 34.3897L17.8529 36.5929C17.9599 37.9427 19.1043 39 20.4582 39H23.6957C25.063 39 26.2082 37.9314 26.3028 36.5673L26.4568 34.3455C27.082 34.1367 27.6943 33.8828 28.2847 33.5876L29.9652 35.0503C30.9966 35.9481 32.5621 35.8939 33.5289 34.9269L35.8181 32.6378C36.7755 31.6804 36.837 30.1236 35.9582 29.0936L34.5234 27.4121C34.846 26.7829 35.1214 26.1277 35.3455 25.4568L37.5672 25.3029C38.9314 25.2082 40 24.063 40 22.6957V19.4582C40 18.1043 38.9427 16.9599 37.593 16.853Z" stroke="#1F75FE" stroke-width="0.6" mask="url(#path-1-outside-1)"/>
<path d="M25.6326 14.8143C25.3042 14.621 24.8812 14.7306 24.688 15.0591C24.4947 15.3875 24.6043 15.8105 24.9328 16.0037C26.6967 17.0415 27.7926 18.9565 27.7926 21.0003C27.7926 24.1942 25.1939 26.793 22 26.793C18.806 26.793 16.2073 24.1941 16.2073 21.0002C16.2073 17.8063 18.806 15.2075 22 15.2075C22.381 15.2075 22.69 14.8987 22.69 14.5175C22.69 14.1364 22.381 13.8275 22 13.8275C18.0448 13.8275 14.8273 17.045 14.8273 21.0002C14.8273 24.9554 18.0448 28.1729 22 28.1729C25.9551 28.1729 29.1726 24.9554 29.1726 21.0002C29.1726 18.469 27.8163 16.0991 25.6326 14.8143ZM25.6326 14.8143L25.5565 14.9436L25.6326 14.8143Z" fill="#1F75FE" stroke="#1F75FE" stroke-width="0.3"/>
</g>
<defs>
<clipPath id="clip0">
<rect width="36" height="36" fill="white" transform="translate(4 3)"/>
</clipPath>
</defs>
</svg>
