<svg width="44" height="42" viewBox="0 0 44 42" fill="none" xmlns="http://www.w3.org/2000/svg">
<path d="M39.6171 17.0342L22.5526 4.18579C22.2235 3.93807 21.7765 3.93807 21.4476 4.18579L4.38289 17.0342C3.96608 17.3481 3.87552 17.95 4.18074 18.3786C4.48597 18.8072 5.07132 18.9002 5.48806 18.5865L22 6.15402L38.512 18.5864C38.6785 18.7119 38.872 18.7723 39.0638 18.7723C39.3518 18.7723 39.636 18.636 39.8192 18.3786C40.1245 17.95 40.0339 17.3481 39.6171 17.0342Z" fill="#7A7A7A"/>
<path d="M35.0956 18.8037C34.5791 18.8037 34.1602 19.2344 34.1602 19.7656V35.0762H26.6774V26.7187C26.6774 24.0665 24.5792 21.9089 22.0002 21.9089C19.4213 21.9089 17.3231 24.0667 17.3231 26.7187V35.0763H9.84021V19.7657C9.84021 19.2344 9.42136 18.8038 8.90485 18.8038C8.38833 18.8038 7.96948 19.2344 7.96948 19.7657V36.0382C7.96948 36.5694 8.38833 37.0001 8.90485 37.0001H18.2584C18.7503 37.0001 19.1529 36.6093 19.1901 36.1131C19.1924 36.0906 19.1938 36.066 19.1938 36.0382V26.7188C19.1938 25.1274 20.4527 23.8328 22.0002 23.8328C23.5478 23.8328 24.8067 25.1275 24.8067 26.7188V36.0382C24.8067 36.0659 24.8081 36.0901 24.8104 36.1123C24.8472 36.6088 25.2499 37.0001 25.7421 37.0001H35.0956C35.6122 37.0001 36.031 36.5694 36.031 36.0382V19.7657C36.0309 19.2344 35.6122 18.8037 35.0956 18.8037Z" fill="#7A7A7A"/>
</svg>
