<svg width="44" height="42" viewBox="0 0 44 42" fill="none" xmlns="http://www.w3.org/2000/svg">
<path d="M38.3636 22.1316C37.8727 22.1316 37.5455 22.4579 37.5455 22.9473V33.5526C37.5455 34.0421 37.2182 34.3684 36.7273 34.3684H7.2727C6.78178 34.3684 6.45454 34.042 6.45454 33.5526V22.9473C6.45454 22.4578 6.12724 22.1316 5.63639 22.1316C5.14553 22.1316 4.81823 22.4579 4.81823 22.9473V33.5526C4.81823 34.9395 5.88185 36 7.27277 36H36.7273C38.1182 36 39.1818 34.9395 39.1818 33.5526V22.9473C39.1818 22.4578 38.8545 22.1316 38.3636 22.1316Z" fill="#7A7A7A"/>
<path d="M37.5455 10.7104H6.45454C5.06362 10.7104 4 11.7709 4 13.1578V18.3789C4 19.5209 4.81816 20.4999 5.88184 20.7446L18.7273 23.5999V26.2104C18.7273 26.6999 19.0546 27.0262 19.5455 27.0262H24.4545C24.9455 27.0262 25.2727 26.6998 25.2727 26.2104V23.5999L38.1182 20.7446C39.1818 20.4999 40 19.5209 40 18.3788V13.1577C40 11.7709 38.9364 10.7104 37.5455 10.7104ZM23.6364 25.3946H20.3637V22.1315H23.6364V25.3946ZM38.3636 18.3788C38.3636 18.7867 38.1182 19.113 37.7091 19.1946L25.2727 21.9683V21.3157C25.2727 20.8262 24.9454 20.4999 24.4545 20.4999H19.5455C19.0545 20.4999 18.7273 20.8263 18.7273 21.3157V21.9683L6.29092 19.1946C5.88184 19.113 5.63638 18.7868 5.63638 18.3789V13.1578C5.63638 12.6683 5.96369 12.342 6.45454 12.342H37.5455C38.0364 12.342 38.3636 12.6684 38.3636 13.1578V18.3788Z" fill="#7A7A7A"/>
<path d="M26.0909 5H17.9091C16.5182 5 15.4546 6.06051 15.4546 7.44737V8.26313C15.4546 8.75262 15.7819 9.0789 16.2727 9.0789C16.7636 9.0789 17.0909 8.75255 17.0909 8.26313V7.44737C17.0909 6.95788 17.4182 6.6316 17.909 6.6316H26.0909C26.5818 6.6316 26.909 6.95795 26.909 7.44737V8.26313C26.909 8.75262 27.2363 9.0789 27.7272 9.0789C28.2181 9.0789 28.5453 8.75255 28.5453 8.26313V7.44737C28.5455 6.06051 27.4819 5 26.0909 5Z" fill="#7A7A7A"/>
</svg>
