<svg width="24" height="24" viewBox="0 0 24 24" fill="none" xmlns="http://www.w3.org/2000/svg">
<path d="M9.90161 19.7661C4.45207 19.7661 0.0185547 15.3326 0.0185547 9.88306C0.0185547 4.43351 4.45207 0 9.90161 0C15.3512 0 19.7847 4.43351 19.7847 9.88306C19.7847 15.3326 15.3512 19.7661 9.90161 19.7661ZM9.90161 1.87357C5.48515 1.87357 1.89212 5.4666 1.89212 9.88306C1.89212 14.2995 5.48515 17.8925 9.90161 17.8925C14.3181 17.8925 17.9111 14.2995 17.9111 9.88306C17.9111 5.4666 14.3181 1.87357 9.90161 1.87357ZM23.7259 23.7256C24.0917 23.3598 24.0917 22.7666 23.7259 22.4008L19.5338 18.2087C19.1679 17.8428 18.5747 17.8428 18.2089 18.2087C17.8431 18.5745 17.8431 19.1677 18.2089 19.5335L22.401 23.7256C22.5839 23.9085 22.8237 24 23.0635 24C23.3032 24 23.5429 23.9085 23.7259 23.7256Z" fill="#F1F6FF"/>
</svg>
