<svg width="42" height="43" viewBox="0 0 42 43" fill="none" xmlns="http://www.w3.org/2000/svg">
<g clip-path="url(#clip0_1401_10590)">
<path d="M25.3006 35.9312L25.3006 35.9313C25.7134 36.1499 25.8707 36.6624 25.6547 37.076C25.4381 37.4907 24.9273 37.6512 24.5136 37.4325L24.5135 37.4324L21.1765 35.6663L9.97067 41.5974L9.97058 41.5974C9.77834 41.6991 9.56917 41.7499 9.36026 41.7499C9.08889 41.7499 8.82017 41.6643 8.59165 41.4971C8.18641 41.2007 7.98742 40.7067 8.07181 40.2113L10.2123 27.6468L1.14531 18.7489C1.14531 18.7489 1.1453 18.7489 1.14529 18.7489C0.786876 18.3972 0.660304 17.8798 0.814666 17.4015L25.3006 35.9312ZM25.3006 35.9312L21.7859 34.071C21.4044 33.8691 20.9486 33.8691 20.5671 34.071L20.684 34.292L20.5671 34.071L9.86622 39.7348L11.9103 27.7363C11.983 27.3101 11.8429 26.8752 11.5347 26.5726L11.5347 26.5726L2.87408 18.0737M25.3006 35.9312L2.87408 18.0737M2.87408 18.0737L14.8412 16.323L14.8412 16.323C15.2681 16.2606 15.6361 15.9908 15.8262 15.6028C15.8262 15.6028 15.8262 15.6028 15.8262 15.6028L17.5212 12.1453L17.5212 12.1452C17.7266 11.7263 17.5565 11.2178 17.138 11.0099C16.7185 10.8015 16.2121 10.9757 16.0063 11.3955L16.0063 11.3955L14.3996 14.6729L1.87081 16.5058C1.87079 16.5058 1.87077 16.5058 1.87075 16.5058C1.3742 16.5784 0.96909 16.923 0.814671 17.4015L2.87408 18.0737Z" fill="#2C2C2C" stroke="#2C2C2C" stroke-width="0.5"/>
<path d="M21.6356 2.98676L21.6356 2.98678L27.3449 14.4951L40.1119 16.3407C40.6144 16.4133 41.0266 16.7583 41.1841 17.2404M21.6356 2.98676L40.9464 17.318M21.6356 2.98676C21.4102 2.53246 20.9528 2.25 20.4449 2.25C19.9369 2.25 19.4795 2.53246 19.2541 2.98676L19.2541 2.98678L16.8387 7.85561L16.8387 7.85562C16.6289 8.27864 16.8039 8.78997 17.2275 8.99789L17.2276 8.99792C17.6502 9.20523 18.1629 9.03318 18.3725 8.61107L18.3726 8.61099L20.4449 4.43371L25.9002 15.4301C26.0939 15.8209 26.468 16.0908 26.9002 16.1534L26.9003 16.1534L39.0963 17.9164M21.6356 2.98676L39.0963 17.9164M41.1841 17.2404L40.9464 17.318M41.1841 17.2404C41.1841 17.2404 41.1841 17.2404 41.1841 17.2404L40.9464 17.318M41.1841 17.2404C41.3416 17.7226 41.212 18.2435 40.8476 18.5969L31.6102 27.5545M40.9464 17.318C41.0742 17.7091 40.9696 18.1304 40.6736 18.4174L31.3414 27.4669M31.6102 27.5545L31.5878 27.4245L31.3414 27.4669M31.6102 27.5545L33.7908 40.2027L33.5444 40.2451M31.6102 27.5545L31.5154 27.6464L31.3414 27.4669M31.3414 27.4669L33.5444 40.2451M33.5444 40.2451C33.6143 40.6504 33.4499 41.0524 33.1155 41.2941C32.9266 41.4306 32.7054 41.5 32.4829 41.5C32.3115 41.5 32.1393 41.4589 31.9801 41.3757L27.35 38.9542C27.0541 38.7994 26.9402 38.4352 27.0958 38.1407C27.2514 37.8463 27.6176 37.7332 27.9135 37.8878L32.0264 40.0389L31.973 39.7288M33.5444 40.2451L30.446 26.6528C30.1918 26.8993 30.0759 27.2542 30.136 27.6021L32.2518 39.8747L31.973 39.7288M33.5444 40.2451L33.7908 40.2027C33.8769 40.7024 33.6734 41.1993 33.2619 41.4967L33.2619 41.4967C33.0301 41.6642 32.7577 41.75 32.4829 41.75C32.2714 41.75 32.0594 41.6993 31.8643 41.5972L27.2341 39.1757C26.8161 38.957 26.6541 38.4415 26.8748 38.0239L26.8748 38.0239C27.0951 37.607 27.6121 37.4484 28.0292 37.6662L28.0294 37.6663L31.973 39.7288M33.5444 40.2451L39.0963 17.9164M31.973 39.7288L29.8896 27.6446C29.8896 27.6446 29.8896 27.6446 29.8896 27.6446C29.8155 27.2151 29.9586 26.7772 30.2719 26.4734L39.0963 17.9164" fill="#2C2C2C" stroke="#2C2C2C" stroke-width="0.5"/>
</g>
<defs>
<clipPath id="clip0_1401_10590">
<rect width="42" height="42" fill="white" transform="translate(0 0.5)"/>
</clipPath>
</defs>
</svg>
