<svg width="54" height="54" viewBox="0 0 54 54" fill="none" xmlns="http://www.w3.org/2000/svg">
<g clip-path="url(#clip0_1321:2272)">
<path d="M35.3116 24.5748L23.3818 18.0473C22.6958 17.672 21.885 17.686 21.2127 18.0844C20.5399 18.4832 20.1386 19.1877 20.1386 19.9696V32.9126C20.1386 33.6909 20.5374 34.3941 21.2057 34.7934C21.5546 35.0018 21.9415 35.1065 22.3291 35.1065C22.6843 35.1065 23.0402 35.0187 23.3678 34.8424L35.298 28.4273C36.0062 28.0462 36.4483 27.31 36.4516 26.5054C36.4545 25.7008 36.0178 24.9613 35.3116 24.5748V24.5748ZM23.3031 31.2845V21.611L32.2193 26.4898L23.3031 31.2845Z" fill="#C4C4C4"/>
<path d="M53.6026 16.1923L53.6002 16.1676C53.5544 15.733 53.0992 11.8669 51.2197 9.90047C49.0473 7.58757 46.5845 7.30659 45.4 7.17188C45.3019 7.16075 45.2121 7.15045 45.1318 7.13974L45.0375 7.12985C37.8986 6.61075 27.1173 6.53989 27.0094 6.53947L26.9999 6.53906L26.9904 6.53947C26.8825 6.53989 16.1012 6.61075 8.89807 7.12985L8.8029 7.13974C8.72627 7.15004 8.64181 7.15952 8.54994 7.17023C7.37908 7.30536 4.94259 7.58675 2.76401 9.98328C0.973934 11.9287 0.45648 15.712 0.403334 16.1371L0.397154 16.1923C0.381087 16.3732 0 20.6789 0 25.0014V29.0422C0 33.3648 0.381087 37.6705 0.397154 37.8517L0.400038 37.8789C0.445768 38.3066 0.900601 42.1018 2.77143 44.069C4.81405 46.3045 7.39679 46.6003 8.78601 46.7593C9.00559 46.7845 9.1947 46.8059 9.32365 46.8285L9.44848 46.8458C13.5704 47.2381 26.494 47.4313 27.0419 47.4391L27.0584 47.4395L27.0749 47.4391C27.1828 47.4387 37.9637 47.3678 45.1025 46.8487L45.1969 46.8388C45.2871 46.8269 45.3885 46.8162 45.4997 46.8046C46.664 46.681 49.0873 46.4244 51.2358 44.0604C53.0259 42.1146 53.5437 38.3313 53.5965 37.9065L53.6026 37.8513C53.6187 37.6701 54.0002 33.3648 54.0002 29.0422V25.0014C53.9998 20.6789 53.6187 16.3736 53.6026 16.1923V16.1923ZM50.8353 29.0422C50.8353 33.043 50.486 37.1633 50.453 37.5415C50.3187 38.5834 49.7728 40.9771 48.9006 41.9251C47.5559 43.4045 46.1745 43.5512 45.166 43.6579C45.044 43.6707 44.9312 43.683 44.829 43.6958C37.9241 44.1951 27.5499 44.2717 27.072 44.2746C26.536 44.2668 13.8015 44.0719 9.80526 43.7007C9.6005 43.6674 9.37927 43.6418 9.14608 43.6154C7.96327 43.4799 6.34417 43.2945 5.09915 41.9251L5.0699 41.8938C4.21297 41.001 3.68274 38.7626 3.54802 37.5539C3.52289 37.268 3.16446 33.0991 3.16446 29.0422V25.0014C3.16446 21.0052 3.513 16.8894 3.54678 16.5034C3.70705 15.2761 4.26323 13.0275 5.09915 12.1186C6.48507 10.5943 7.94638 10.4253 8.9129 10.3137C9.00518 10.303 9.09129 10.2931 9.1708 10.2828C16.1762 9.78099 26.625 9.70642 26.9999 9.70354C27.3748 9.70601 37.8199 9.78099 44.7631 10.2828C44.8483 10.2935 44.9415 10.3042 45.0416 10.3158C46.0357 10.429 47.5382 10.6004 48.9171 12.0712L48.9299 12.0848C49.7868 12.9776 50.317 15.2551 50.4518 16.4881C50.4757 16.758 50.8353 20.936 50.8353 25.0014V29.0422Z" fill="#C4C4C4"/>
</g>
<defs>
<clipPath id="clip0_1321:2272">
<rect width="54" height="54" fill="white"/>
</clipPath>
</defs>
</svg>
