<svg width="40" height="40" fill="none" xmlns="http://www.w3.org/2000/svg">
    <path d="M29.172 0H10.828C4.858 0 0 4.857 0 10.828v18.345C0 35.143 4.857 40 10.828 40h18.345C35.143 40 40 35.143 40 29.173V10.828C40 4.858 35.143 0 29.172 0zm8.483 29.173c0 4.677-3.805 8.482-8.483 8.482H10.828c-4.678 0-8.483-3.805-8.483-8.482V10.828c0-4.678 3.805-8.483 8.483-8.483h18.345c4.677 0 8.482 3.805 8.482 8.483v18.345z" fill="#C4C4C4"/>
    <path d="M20 9.063C13.97 9.063 9.063 13.968 9.063 20c0 6.03 4.906 10.937 10.937 10.937 6.03 0 10.937-4.907 10.937-10.937 0-6.031-4.906-10.938-10.937-10.938zm0 19.529c-4.738 0-8.592-3.854-8.592-8.592s3.854-8.592 8.592-8.592 8.592 3.854 8.592 8.592-3.854 8.592-8.592 8.592zM31.199 5.178a3.235 3.235 0 0 0-3.232 3.232 3.235 3.235 0 0 0 3.232 3.232A3.236 3.236 0 0 0 34.43 8.41a3.235 3.235 0 0 0-3.232-3.232zm0 4.118a.888.888 0 0 1 0-1.773.888.888 0 0 1 0 1.773z" fill="#C4C4C4"/>
</svg>
