<svg width="54" height="55" viewBox="0 0 54 55" fill="none" xmlns="http://www.w3.org/2000/svg">
<g clip-path="url(#clip0_1801_4400)">
<path d="M35.3117 25.0729L23.3818 18.5454C22.6959 18.17 21.8851 18.184 21.2127 18.5824C20.5399 18.9812 20.1387 19.6857 20.1387 20.4677V33.4107C20.1387 34.1889 20.5375 34.8922 21.2057 35.2914C21.5547 35.4999 21.9415 35.6045 22.3292 35.6045C22.6843 35.6045 23.0403 35.5168 23.3678 35.3404L35.2981 28.9254C36.0063 28.5443 36.4484 27.8081 36.4517 27.0035C36.4545 26.1988 36.0178 25.4593 35.3117 25.0729ZM23.3031 31.7825V22.109L32.2193 26.9878L23.3031 31.7825Z" fill="#C4C4C4"/>
<path d="M53.6026 16.6923L53.6002 16.6676C53.5544 16.233 53.0992 12.3669 51.2197 10.4005C49.0473 8.08757 46.5845 7.80659 45.4 7.67188C45.3019 7.66075 45.2121 7.65045 45.1318 7.63974L45.0374 7.62985C37.8986 7.11075 27.1173 7.03989 27.0094 7.03947L26.9999 7.03906L26.9904 7.03947C26.8825 7.03989 16.1012 7.11075 8.89807 7.62985L8.8029 7.63974C8.72627 7.65004 8.64181 7.65952 8.54994 7.67023C7.37908 7.80536 4.94259 8.08675 2.76401 10.4833C0.973934 12.4287 0.45648 16.212 0.403334 16.6371L0.397154 16.6923C0.381087 16.8732 0 21.1789 0 25.5014V29.5422C0 33.8648 0.381087 38.1705 0.397154 38.3517L0.400038 38.3789C0.445768 38.8066 0.900601 42.6018 2.77143 44.569C4.81405 46.8045 7.39679 47.1003 8.78601 47.2593C9.0056 47.2845 9.1947 47.3059 9.32365 47.3285L9.44848 47.3458C13.5704 47.7381 26.494 47.9313 27.0419 47.9391L27.0584 47.9395L27.0749 47.9391C27.1828 47.9387 37.9637 47.8678 45.1025 47.3487L45.1969 47.3388C45.2871 47.3269 45.3885 47.3162 45.4997 47.3046C46.664 47.181 49.0873 46.9244 51.2358 44.5604C53.0259 42.6146 53.5437 38.8313 53.5965 38.4065L53.6026 38.3513C53.6187 38.1701 54.0002 33.8648 54.0002 29.5422V25.5014C53.9998 21.1789 53.6187 16.8736 53.6026 16.6923ZM50.8353 29.5422C50.8353 33.543 50.486 37.6633 50.453 38.0415C50.3187 39.0834 49.7728 41.4771 48.9006 42.4251C47.5559 43.9045 46.1745 44.0512 45.166 44.1579C45.044 44.1707 44.9312 44.183 44.829 44.1958C37.9241 44.6951 27.5499 44.7717 27.072 44.7746C26.536 44.7668 13.8015 44.5719 9.80526 44.2007C9.6005 44.1674 9.37927 44.1418 9.14608 44.1154C7.96327 43.9799 6.34417 43.7945 5.09915 42.4251L5.0699 42.3938C4.21297 41.501 3.68274 39.2626 3.54802 38.0539C3.52289 37.768 3.16446 33.5991 3.16446 29.5422V25.5014C3.16446 21.5052 3.513 17.3894 3.54678 17.0034C3.70705 15.7761 4.26323 13.5275 5.09915 12.6186C6.48507 11.0943 7.94638 10.9253 8.9129 10.8137C9.00518 10.803 9.09129 10.7931 9.1708 10.7828C16.1762 10.281 26.625 10.2064 26.9999 10.2035C27.3748 10.206 37.8199 10.281 44.7631 10.7828C44.8483 10.7935 44.9415 10.8042 45.0416 10.8158C46.0357 10.929 47.5382 11.1004 48.9171 12.5712L48.9299 12.5848C49.7868 13.4776 50.317 15.7551 50.4518 16.9881C50.4757 17.258 50.8353 21.436 50.8353 25.5014V29.5422Z" fill="#C4C4C4"/>
</g>
<defs>
<clipPath id="clip0_1801_4400">
<rect width="54" height="54" fill="white" transform="translate(0 0.5)"/>
</clipPath>
</defs>
</svg>
