<svg width="42" height="42" viewBox="0 0 42 42" fill="none" xmlns="http://www.w3.org/2000/svg">
<g clip-path="url(#clip0)">
<path d="M37.6293 25.852C37.6325 25.8485 37.6357 25.8453 37.6389 25.8418C37.9055 25.571 37.9853 25.4361 38.3647 24.8933C43.2321 19.9586 43.2116 11.9846 38.3029 7.0758C36.7443 5.51977 36.8106 5.57745 36.7289 5.50984C32.2194 1.78574 25.9017 1.68096 21.0471 4.56039C15.5295 1.28137 8.39952 2.32119 4.04224 7.18283L3.04889 8.29089C-1.18213 13.0119 -0.986669 20.2201 3.4927 24.7049C4.03615 25.2605 8.02942 29.3435 8.0307 29.3448C8.69913 30.0129 9.56174 30.3702 10.4381 30.4182C10.4862 31.2949 10.8438 32.1572 11.5116 32.8253C12.18 33.4935 13.0426 33.8511 13.919 33.8988C13.9671 34.7755 14.3244 35.6381 14.9925 36.3062C16.049 37.3627 17.5585 37.628 18.8348 37.1778C19.0123 37.6815 19.302 38.1542 19.7042 38.5563C21.1436 39.9957 23.4859 39.996 24.9253 38.5563L27.1757 36.3062C27.8432 35.6384 28.2008 34.7768 28.2489 33.9007C29.1589 33.852 30.0074 33.4745 30.6566 32.8253C31.3058 32.1761 31.683 31.3276 31.732 30.4179C32.6078 30.3695 33.4697 30.0122 34.1375 29.3445C34.8056 28.6763 35.1636 27.8141 35.2113 26.9377C36.0877 26.8896 36.9503 26.5317 37.6181 25.8636C37.6219 25.86 37.6255 25.8559 37.6293 25.852V25.852ZM35.1181 7.37157L36.5626 8.81609C39.9262 12.1797 40.4392 17.3304 38.1029 21.24C37.727 20.6645 37.9984 21.0618 30.8966 13.9209C32.1348 13.7213 33.2772 13.141 34.1795 12.2387C34.6602 11.7583 34.6602 10.979 34.1795 10.4984C33.6988 10.0177 32.9195 10.0177 32.4389 10.4984C31.0825 11.8548 28.8545 11.8762 27.4721 10.5464L27.1206 10.2084C26.7041 9.80784 26.0654 9.7508 25.5848 10.0712L19.2761 14.2773C17.7344 15.3046 15.7615 15.3254 14.2167 14.4243C19.5289 9.02533 19.9012 8.33704 21.4537 7.23025C21.4621 7.22769 28.6536 2.09271 35.1181 7.37157V7.37157ZM9.77098 25.8639L13.2522 22.3827C13.7319 21.903 14.5128 21.903 14.9925 22.3827C15.4725 22.8627 15.4725 23.6433 14.9928 24.123C14.9928 24.123 14.9928 24.1233 14.9925 24.1233L11.5116 27.6042C11.5113 27.6045 11.5109 27.6048 11.5106 27.6051C11.0319 28.0829 10.2545 28.0839 9.77451 27.6074L9.76554 27.5981C9.29161 27.1178 9.29321 26.3417 9.77098 25.8639V25.8639ZM13.2519 29.3448L16.7331 25.8636C17.2131 25.3839 17.9937 25.3839 18.4734 25.8636C18.9543 26.3449 18.9543 27.1232 18.4734 27.6042L14.9925 31.0851C14.5128 31.5648 13.7319 31.5648 13.2522 31.0851C12.7722 30.6054 12.7722 29.8248 13.2519 29.3448ZM16.7331 34.5659C16.2534 34.0859 16.2531 33.3054 16.7331 32.8253L20.214 29.3445C20.6937 28.8648 21.4746 28.8648 21.9543 29.3445C22.4352 29.8254 22.4355 30.6038 21.9543 31.0851C21.539 31.5007 18.879 34.1606 18.4734 34.5659C17.9924 35.0469 17.2141 35.0469 16.7331 34.5659V34.5659ZM25.4351 34.5659L23.185 36.816C22.705 37.2957 21.9245 37.2957 21.4444 36.816C20.9647 36.336 20.9647 35.5555 21.4444 35.0754L23.6949 32.8253C24.1745 32.3457 24.9551 32.3453 25.4351 32.8253C25.9152 33.3054 25.9152 34.0859 25.4351 34.5659V34.5659ZM34.1372 24.1233L27.1754 17.1615C26.6951 16.6809 25.9158 16.6809 25.4351 17.1615C25.1948 17.4018 25.0747 17.7168 25.0747 18.0318C25.0747 18.3465 25.1948 18.6615 25.4351 18.9018L32.3969 25.8636C32.8769 26.3436 32.8766 27.1242 32.3969 27.6039C31.9172 28.0839 31.1363 28.0839 30.6563 27.6039L23.6945 20.6424C23.2142 20.1617 22.4349 20.1617 21.9543 20.6424C21.4736 21.1227 21.4736 21.902 21.9543 22.3827L28.916 29.3445C29.397 29.8254 29.397 30.6038 28.916 31.0851C28.436 31.5648 27.6554 31.5648 27.1754 31.0851C26.508 30.4173 25.646 30.06 24.7702 30.0116C24.7212 29.1019 24.3437 28.2534 23.6945 27.6042C23.0271 26.9364 22.1651 26.5791 21.2893 26.5307C21.2403 25.621 20.8628 24.7725 20.2136 24.1233C19.5455 23.4552 18.6829 23.0976 17.8065 23.0498C17.7585 22.1731 17.4009 21.3105 16.7328 20.6424C15.2934 19.203 12.951 19.203 11.5116 20.6424L8.0307 24.1233C7.73878 24.4152 7.50743 24.7443 7.33375 25.0952C4.75008 22.4746 5.33712 23.07 5.2474 22.979C5.24419 22.9758 5.24099 22.9726 5.23779 22.9694C1.67775 19.409 1.52106 13.6832 4.88146 9.93377L5.87481 8.82538C9.17946 5.13845 14.4888 4.13421 18.8371 6.17089C18.6169 6.36604 18.4016 6.56759 18.1923 6.77652C18.1879 6.78132 11.4975 13.695 11.4975 13.695C11.0303 14.1776 11.0364 14.946 11.5116 15.4209C13.9501 17.8597 17.7908 18.2254 20.6411 16.3252L26.1449 12.6559C26.2048 12.7049 35.7214 22.226 35.8775 22.3827C36.7411 23.2466 35.8352 24.1508 35.8307 24.1656C35.3484 24.6011 34.6022 24.5879 34.1372 24.1233V24.1233Z" fill="#2C2C2C"/>
</g>
<defs>
<clipPath id="clip0">
<rect width="42" height="42" fill="white"/>
</clipPath>
</defs>
</svg>
