<svg width="24" height="40" viewBox="0 0 24 40" fill="none" xmlns="http://www.w3.org/2000/svg">
<path d="M14.7006 39.9219H8.28242C7.21038 39.9219 6.33832 39.0515 6.33832 37.9816V23.5333H2.59382C1.52178 23.5333 0.649719 22.6627 0.649719 21.593V15.4019C0.649719 14.332 1.52178 13.4616 2.59382 13.4616H6.33832V10.3613C6.33832 7.28729 7.30548 4.67194 9.13492 2.79846C10.9726 0.916443 13.5408 -0.078125 16.5618 -0.078125L21.4567 -0.0701905C22.5269 -0.0683594 23.3974 0.802002 23.3974 1.87012V7.61841C23.3974 8.68836 22.5256 9.55872 21.4539 9.55872L18.1583 9.55994C17.1532 9.55994 16.8973 9.76105 16.8425 9.82269C16.7523 9.92493 16.645 10.2139 16.645 11.012V13.4613H21.2062C21.5496 13.4613 21.8823 13.5458 22.1682 13.7051C22.7849 14.0491 23.1684 14.6994 23.1684 15.4022L23.1659 21.5933C23.1659 22.6627 22.2939 23.533 21.2218 23.533H16.645V37.9816C16.645 39.0515 15.7726 39.9219 14.7006 39.9219ZM8.68788 37.5769H14.2951V22.4835C14.2951 21.7691 14.8776 21.1881 15.5932 21.1881H20.8164L20.8185 15.8066H15.5928C14.8773 15.8066 14.2951 15.2255 14.2951 14.5111V11.012C14.2951 10.0958 14.3884 9.05396 15.0813 8.27087C15.9185 7.32422 17.2379 7.21497 18.1577 7.21497L21.0478 7.21375V2.27417L16.56 2.26685C11.7049 2.26685 8.68788 5.36865 8.68788 10.3613V14.5111C8.68788 15.2252 8.10569 15.8066 7.39018 15.8066H2.99928V21.1881H7.39018C8.10569 21.1881 8.68788 21.7691 8.68788 22.4835V37.5769ZM21.4521 2.27478H21.4524H21.4521Z" fill="#C4C4C4"/>
</svg>
