<svg width="45" height="42" viewBox="0 0 45 42" fill="none" xmlns="http://www.w3.org/2000/svg">
<path d="M38.8636 22.1316C38.3727 22.1316 38.0455 22.4579 38.0455 22.9473V33.5526C38.0455 34.0421 37.7182 34.3684 37.2273 34.3684H7.7727C7.28178 34.3684 6.95454 34.042 6.95454 33.5526V22.9473C6.95454 22.4578 6.62724 22.1316 6.13639 22.1316C5.64553 22.1316 5.31823 22.4579 5.31823 22.9473V33.5526C5.31823 34.9395 6.38185 36 7.77277 36H37.2273C38.6182 36 39.6818 34.9395 39.6818 33.5526V22.9473C39.6818 22.4578 39.3545 22.1316 38.8636 22.1316Z" fill="#7A7A7A"/>
<path d="M38.0455 10.7104H6.95454C5.56362 10.7104 4.5 11.7709 4.5 13.1578V18.3789C4.5 19.5209 5.31816 20.4999 6.38184 20.7446L19.2273 23.5999V26.2104C19.2273 26.6999 19.5546 27.0262 20.0455 27.0262H24.9545C25.4455 27.0262 25.7727 26.6998 25.7727 26.2104V23.5999L38.6182 20.7446C39.6818 20.4999 40.5 19.5209 40.5 18.3788V13.1577C40.5 11.7709 39.4364 10.7104 38.0455 10.7104ZM24.1364 25.3946H20.8637V22.1315H24.1364V25.3946ZM38.8636 18.3788C38.8636 18.7867 38.6182 19.113 38.2091 19.1946L25.7727 21.9683V21.3157C25.7727 20.8262 25.4454 20.4999 24.9545 20.4999H20.0455C19.5545 20.4999 19.2273 20.8263 19.2273 21.3157V21.9683L6.79092 19.1946C6.38184 19.113 6.13638 18.7868 6.13638 18.3789V13.1578C6.13638 12.6683 6.46369 12.342 6.95454 12.342H38.0455C38.5364 12.342 38.8636 12.6684 38.8636 13.1578V18.3788Z" fill="#7A7A7A"/>
<path d="M26.5909 5H18.4091C17.0182 5 15.9546 6.06051 15.9546 7.44737V8.26313C15.9546 8.75262 16.2819 9.0789 16.7727 9.0789C17.2636 9.0789 17.5909 8.75255 17.5909 8.26313V7.44737C17.5909 6.95788 17.9182 6.6316 18.409 6.6316H26.5909C27.0818 6.6316 27.409 6.95795 27.409 7.44737V8.26313C27.409 8.75262 27.7363 9.0789 28.2272 9.0789C28.7181 9.0789 29.0453 8.75255 29.0453 8.26313V7.44737C29.0455 6.06051 27.9819 5 26.5909 5Z" fill="#7A7A7A"/>
</svg>
