<svg width="44" height="42" viewBox="0 0 44 42" fill="none" xmlns="http://www.w3.org/2000/svg">
<path d="M39.5207 17.0338L22.4562 4.18578C22.1271 3.93807 21.68 3.93807 21.3511 4.18578L4.28646 17.0338C3.86964 17.3477 3.77908 17.9495 4.08431 18.3781C4.38953 18.8068 4.97488 18.8997 5.39163 18.586L21.9036 6.15394L38.4155 18.5859C38.582 18.7114 38.7755 18.7718 38.9673 18.7718C39.2553 18.7718 39.5395 18.6355 39.7228 18.3781C40.0281 17.9495 39.9375 17.3477 39.5207 17.0338Z" fill="#1F75FE"/>
<path d="M34.9989 18.8047C34.4824 18.8047 34.0635 19.2353 34.0635 19.7665V35.0766H26.5807V26.7194C26.5807 24.0673 24.4825 21.9098 21.9036 21.9098C19.3246 21.9098 17.2264 24.0675 17.2264 26.7194V35.0767H9.74353V19.7666C9.74353 19.2354 9.32468 18.8048 8.80817 18.8048C8.29165 18.8048 7.8728 19.2354 7.8728 19.7666V36.0386C7.8728 36.5698 8.29165 37.0005 8.80817 37.0005H18.1618C18.6537 37.0005 19.0562 36.6097 19.0935 36.1135C19.0957 36.091 19.0971 36.0665 19.0971 36.0386V26.7195C19.0971 25.1282 20.3561 23.8336 21.9036 23.8336C23.4511 23.8336 24.71 25.1282 24.71 26.7195V36.0386C24.71 36.0663 24.7114 36.0905 24.7137 36.1127C24.7505 36.6092 25.1532 37.0005 25.6454 37.0005H34.999C35.5155 37.0005 35.9343 36.5698 35.9343 36.0386V19.7666C35.9343 19.2353 35.5155 18.8047 34.9989 18.8047Z" fill="#1F75FE"/>
</svg>
