<svg width="44" height="42" viewBox="0 0 44 42" fill="none" xmlns="http://www.w3.org/2000/svg">
<path d="M39.4623 7.25247C33.6836 5.66911 27.871 3.20366 22.6527 0.122739C22.3756 -0.040913 22.0316 -0.040913 21.7545 0.122739C16.3857 3.29217 10.8872 5.62423 4.94445 7.25247C4.56054 7.35755 4.29443 7.70651 4.29443 8.10461V17.1318C4.29443 26.4278 8.58293 32.5811 12.1807 36.1061C16.0538 39.9012 20.5655 42 22.2036 42C23.8415 42 28.3532 39.9012 32.2264 36.1061C35.8241 32.5812 40.1123 26.4279 40.1123 17.1318V8.10452C40.1123 7.70651 39.8462 7.35755 39.4623 7.25247ZM38.3454 17.1317C38.3454 25.8141 34.3454 31.5559 30.9897 34.8439C27.1809 38.5759 23.1087 40.2329 22.2036 40.2329C21.2986 40.2329 17.2261 38.5759 13.4172 34.8439C10.0615 31.5558 6.06146 25.8141 6.06146 17.1317V8.77521C11.7444 7.16166 17.0369 4.90983 22.2038 1.90724C27.2416 4.83017 32.7982 7.19398 38.3454 8.77488V17.1317Z" fill="#7A7A7A"/>
<path d="M14.3715 8.67614C14.1927 8.2221 13.6798 7.99906 13.2257 8.17797C11.6474 8.79985 10.0274 9.37226 8.41084 9.87937C8.04243 9.99504 7.79175 10.3363 7.79175 10.7223V14.1341C7.79175 14.622 8.18738 15.0176 8.67522 15.0176C9.16306 15.0176 9.5587 14.622 9.5587 14.1341V11.368C11.0089 10.8988 12.4576 10.3798 13.8734 9.82187C14.3274 9.64312 14.5505 9.13018 14.3715 8.67614Z" fill="#7A7A7A"/>
<path d="M16.0498 8.84569C16.1683 8.84569 16.2887 8.82182 16.4041 8.77146L16.4203 8.7644C16.8673 8.56851 17.0686 8.04819 16.8727 7.60137C16.6767 7.15438 16.1534 6.95218 15.7069 7.1479L15.6926 7.15405C15.2454 7.34937 15.0434 7.86928 15.2388 8.31635C15.3837 8.64825 15.709 8.84569 16.0498 8.84569Z" fill="#7A7A7A"/>
<path d="M32.729 28.4877C32.3207 28.2209 31.7733 28.3356 31.5061 28.7441C30.7781 29.8584 29.924 30.9254 28.9671 31.9153C28.1803 32.7292 27.3277 33.4878 26.433 34.1699C26.045 34.4657 25.9704 35.0201 26.2661 35.4082C26.4401 35.6361 26.7032 35.7561 26.9693 35.7561C27.1561 35.7561 27.3444 35.6971 27.5044 35.575C28.4695 34.8391 29.389 34.021 30.2374 33.1435C31.2719 32.0734 32.1964 30.9184 32.9854 29.7105C33.2524 29.302 33.1374 28.7546 32.729 28.4877Z" fill="#7A7A7A"/>
<path d="M24.3816 35.5557L24.3309 35.5856C23.9087 35.8301 23.7644 36.3706 24.0089 36.7928C24.1727 37.0758 24.4692 37.2338 24.7743 37.2338C24.9244 37.2338 25.0768 37.1955 25.216 37.1147L25.2745 37.0803C25.6956 36.8337 25.837 36.2925 25.5904 35.8715C25.3437 35.4506 24.8024 35.3094 24.3816 35.5557Z" fill="#7A7A7A"/>
</svg>
