<svg width="40" height="40" viewBox="0 0 40 40" fill="none" xmlns="http://www.w3.org/2000/svg">
<path d="M29.1723 0H10.8276C4.85717 0 0 4.85717 0 10.8276V29.1726C0 35.1428 4.85717 39.9999 10.8276 39.9999H29.1726C35.1428 39.9999 39.9999 35.1428 39.9999 29.1726V10.8276C39.9999 4.85717 35.1428 0 29.1723 0V0ZM37.655 29.1726C37.655 33.8497 33.8497 37.655 29.1723 37.655H10.8276C6.1502 37.655 2.34497 33.8497 2.34497 29.1726V10.8276C2.34497 6.1502 6.1502 2.34497 10.8276 2.34497H29.1726C33.8497 2.34497 37.655 6.1502 37.655 10.8276V29.1726Z" fill="#C4C4C4"/>
<path d="M20 9.0625C13.9691 9.0625 9.06281 13.9688 9.06281 19.9997C9.06281 26.0305 13.9691 30.9368 20 30.9368C26.0309 30.9368 30.9372 26.0305 30.9372 19.9997C30.9372 13.9688 26.0309 9.0625 20 9.0625ZM20 28.5919C15.2624 28.5919 11.4078 24.7375 11.4078 19.9997C11.4078 15.2621 15.2624 11.4075 20 11.4075C24.7378 11.4075 28.5922 15.2621 28.5922 19.9997C28.5922 24.7375 24.7378 28.5919 20 28.5919Z" fill="#C4C4C4"/>
<path d="M31.1987 5.17773C29.4164 5.17773 27.9669 6.62762 27.9669 8.40954C27.9669 10.1918 29.4164 11.6417 31.1987 11.6417C32.9809 11.6417 34.4308 10.1918 34.4308 8.40954C34.4308 6.62732 32.9809 5.17773 31.1987 5.17773ZM31.1987 9.29638C30.7098 9.29638 30.3118 8.89843 30.3118 8.40954C30.3118 7.92034 30.7098 7.5227 31.1987 7.5227C31.6879 7.5227 32.0858 7.92034 32.0858 8.40954C32.0858 8.89843 31.6879 9.29638 31.1987 9.29638Z" fill="#C4C4C4"/>
</svg>
