<svg width="40" height="36" viewBox="0 0 40 36" fill="none" xmlns="http://www.w3.org/2000/svg">
<path d="M0.691645 17.66L10.4733 22.535C10.8516 22.7217 11.2983 22.7083 11.66 22.4967L20.3666 17.435L15.0966 22.105C14.8283 22.3433 14.675 22.6833 14.675 23.0417V34.4167C14.675 35.6167 16.2066 36.1217 16.925 35.1683L21.1533 29.5467L31.61 35.5017C32.3433 35.9233 33.2833 35.5 33.4533 34.6617L39.975 2.16166C40.17 1.18499 39.1983 0.388324 38.295 0.751658L0.794978 15.3767C-0.211688 15.77 -0.276688 17.1783 0.691645 17.66ZM37.075 3.91166L31.3433 32.4733L21.435 26.83C20.895 26.5217 20.2 26.6583 19.8166 27.165L17.175 30.6767V23.6033L31.4266 10.9767C32.555 9.97832 31.2583 8.20332 29.97 8.95999L10.9866 19.9967L4.33331 16.6817L37.075 3.91166Z" fill="#C4C4C4"/>
</svg>
