<?xml version="1.0" encoding="UTF-8" standalone="no"?><svg xmlns="http://www.w3.org/2000/svg" xmlns:xlink="http://www.w3.org/1999/xlink"><symbol id="arrow_right" width="10" height="17" viewBox="0 0 10 17" fill="none" xmlns="http://www.w3.org/2000/svg"><path d="M1 1.02832L8 8.02832L1 15.0283" stroke="#C4C4C4" stroke-width="2" stroke-linecap="round"></path></symbol><symbol id="arrow-right" width="9" height="16" viewBox="0 0 9 16" fill="none" xmlns="http://www.w3.org/2000/svg"><path d="M8.707 8.961a1 1 0 0 0 0-1.414L2.343 1.183A1 1 0 0 0 .93 2.597l5.657 5.657L.929 13.91a1 1 0 1 0 1.414 1.414l6.364-6.364ZM6 9.254h2v-2H6v2Z"></path></symbol><symbol id="deal_1" viewBox="0 0 42 43" fill="none" xmlns="http://www.w3.org/2000/svg"><g clip-path="url(#clip0_6180_6154)"><path d="M37.6294 26.352C37.6326 26.3485 37.6358 26.3453 37.6391 26.3418C37.9057 26.071 37.9854 25.9361 38.3648 25.3933C43.2323 20.4586 43.2117 12.4846 38.303 7.5758C36.7444 6.01977 36.8107 6.07745 36.729 6.00984C32.2195 2.28574 25.9018 2.18096 21.0472 5.06039C15.5297 1.78137 8.39966 2.82119 4.04238 7.68283L3.04903 8.79089C-1.182 13.5119 -0.986531 20.7201 3.49283 25.2049C4.03629 25.7605 8.02956 29.8435 8.03084 29.8448C8.69926 30.5129 9.56188 30.8702 10.4383 30.9182C10.4863 31.7949 10.8439 32.6572 11.5117 33.3253C12.1802 33.9935 13.0428 34.3511 13.9192 34.3988C13.9672 35.2755 14.3245 36.1381 14.9926 36.8062C16.0491 37.8627 17.5587 38.128 18.835 37.6778C19.0125 38.1815 19.3021 38.6542 19.7043 39.0563C21.1437 40.4957 23.4861 40.496 24.9255 39.0563L27.1759 36.8062C27.8433 36.1384 28.201 35.2768 28.249 34.4007C29.1591 34.352 30.0076 33.9745 30.6568 33.3253C31.306 32.6761 31.6831 31.8276 31.7322 30.9179C32.6079 30.8695 33.4699 30.5122 34.1377 29.8445C34.8058 29.1763 35.1637 28.3141 35.2114 27.4377C36.0878 27.3896 36.9504 27.0317 37.6182 26.3636C37.6221 26.36 37.6256 26.3559 37.6294 26.352ZM35.1182 7.87157L36.5627 9.31609C39.9263 12.6797 40.4393 17.8304 38.103 21.74C37.7272 21.1645 37.9986 21.5618 30.8968 14.4209C32.1349 14.2213 33.2773 13.641 34.1796 12.7387C34.6603 12.2583 34.6603 11.479 34.1796 10.9984C33.699 10.5177 32.9197 10.5177 32.439 10.9984C31.0826 12.3548 28.8546 12.3762 27.4723 11.0464L27.1208 10.7084C26.7042 10.3078 26.0656 10.2508 25.5849 10.5712L19.2762 14.7773C17.7346 15.8046 15.7617 15.8254 14.2168 14.9243C19.529 9.52533 19.9014 8.83704 21.4539 7.73025C21.4622 7.72769 28.6537 2.59271 35.1182 7.87157ZM9.77112 26.3639L13.2523 22.8827C13.732 22.403 14.5129 22.403 14.9926 22.8827C15.4726 23.3627 15.4726 24.1433 14.9929 24.623C14.9929 24.623 14.9929 24.6233 14.9926 24.6233L11.5117 28.1042C11.5114 28.1045 11.5111 28.1048 11.5108 28.1051C11.032 28.5829 10.2547 28.5839 9.77465 28.1074L9.76567 28.0981C9.29175 27.6178 9.29335 26.8417 9.77112 26.3639ZM13.252 29.8448L16.7332 26.3636C17.2132 25.8839 17.9938 25.8839 18.4735 26.3636C18.9545 26.8449 18.9545 27.6232 18.4735 28.1042L14.9926 31.5851C14.5129 32.0648 13.732 32.0648 13.2523 31.5851C12.7723 31.1054 12.7723 30.3248 13.252 29.8448ZM16.7332 35.0659C16.2535 34.5859 16.2532 33.8054 16.7332 33.3253L20.2141 29.8445C20.6938 29.3648 21.4747 29.3648 21.9544 29.8445C22.4354 30.3254 22.4357 31.1038 21.9544 31.5851C21.5391 32.0007 18.8792 34.6606 18.4735 35.0659C17.9925 35.5469 17.2142 35.5469 16.7332 35.0659ZM25.4353 35.0659L23.1852 37.316C22.7052 37.7957 21.9246 37.7957 21.4446 37.316C20.9649 36.836 20.9649 36.0555 21.4446 35.5754L23.695 33.3253C24.1747 32.8457 24.9553 32.8453 25.4353 33.3253C25.9153 33.8054 25.9153 34.5859 25.4353 35.0659ZM34.1373 24.6233L27.1756 17.6615C26.6952 17.1809 25.9159 17.1809 25.4353 17.6615C25.195 17.9018 25.0748 18.2168 25.0748 18.5318C25.0748 18.8465 25.195 19.1615 25.4353 19.4018L32.3971 26.3636C32.8771 26.8436 32.8767 27.6242 32.3971 28.1039C31.9174 28.5839 31.1365 28.5839 30.6565 28.1039L23.6947 21.1424C23.2143 20.6617 22.435 20.6617 21.9544 21.1424C21.4737 21.6227 21.4737 22.402 21.9544 22.8827L28.9162 29.8445C29.3971 30.3254 29.3971 31.1038 28.9162 31.5851C28.4362 32.0648 27.6556 32.0648 27.1756 31.5851C26.5081 30.9173 25.6461 30.56 24.7704 30.5116C24.7213 29.6019 24.3439 28.7534 23.6947 28.1042C23.0272 27.4364 22.1652 27.0791 21.2895 27.0307C21.2405 26.121 20.863 25.2725 20.2138 24.6233C19.5457 23.9552 18.6831 23.5976 17.8067 23.5498C17.7586 22.6731 17.401 21.8105 16.7329 21.1424C15.2935 19.703 12.9511 19.703 11.5117 21.1424L8.03084 24.6233C7.73892 24.9152 7.50757 25.2443 7.33389 25.5952C4.75022 22.9746 5.33726 23.57 5.24754 23.479C5.24433 23.4758 5.24113 23.4726 5.23792 23.4694C1.67789 19.909 1.52119 14.1832 4.8816 10.4338L5.87495 9.32538C9.1796 5.63845 14.4889 4.63421 18.8372 6.67089C18.6171 6.86604 18.4017 7.06759 18.1925 7.27652C18.188 7.28132 11.4976 14.195 11.4976 14.195C11.0304 14.6776 11.0365 15.446 11.5117 15.9209C13.9502 18.3597 17.791 18.7254 20.6412 16.8252L26.145 13.1559C26.205 13.2049 35.7216 22.726 35.8776 22.8827C36.7412 23.7466 35.8353 24.6508 35.8308 24.6656C35.3486 25.1011 34.6023 25.0879 34.1373 24.6233Z" fill="#2C2C2C"></path></g><defs><clipPath id="clip0_6180_6154"><rect width="42" height="42" fill="white" transform="translate(0 0.5)"></rect></clipPath></defs></symbol><symbol id="avatar_2" viewBox="0 0 42 43" fill="none" xmlns="http://www.w3.org/2000/svg"><path d="M34.6395 29.0109H34.5122V20.1945C34.5122 17.3261 33.6248 14.5858 31.9461 12.2713C31.6912 11.9199 31.2 11.8418 30.8485 12.0965L30.8484 12.0965C30.4971 12.3514 30.4188 12.8428 30.6737 13.1942C32.1566 15.2388 32.9403 17.6589 32.9403 20.1945V29.0109H9.05908V20.1945C9.05908 17.3377 10.0839 14.5736 11.9447 12.4114C13.7863 10.2714 16.3269 8.84864 19.0982 8.40499L19.0982 8.40498C19.4017 8.35636 19.649 8.13538 19.7312 7.83933L19.7312 7.83931C19.8135 7.54318 19.7156 7.22628 19.4806 7.02812C18.9484 6.57937 18.6435 5.9235 18.6435 5.22813C18.6435 3.92905 19.7006 2.87188 20.9997 2.87188C22.2988 2.87188 23.356 3.92905 23.356 5.22813C23.356 5.92342 23.051 6.57937 22.5188 7.02812L22.5188 7.02813C22.2839 7.22629 22.186 7.54318 22.2683 7.83931C22.3505 8.13548 22.5979 8.35647 22.9014 8.40499C25.2843 8.78607 27.4727 9.87165 29.2305 11.545L29.2305 11.5451C29.5449 11.8442 30.0423 11.8321 30.3417 11.5177C30.641 11.2033 30.6287 10.7058 30.3143 10.4065L30.1764 10.5513L30.3143 10.4065C28.6474 8.81966 26.6367 7.69922 24.4403 7.12411C24.7568 6.55044 24.9278 5.90014 24.9278 5.22805C24.9278 3.06196 23.1659 1.3 20.9997 1.3C18.8335 1.3 17.0716 3.06196 17.0716 5.22813C17.0716 5.90063 17.2428 6.55129 17.5597 7.1252C14.9287 7.81763 12.5473 9.30109 10.7532 11.386L10.9048 11.5165L10.7532 11.386C8.64707 13.8335 7.48721 16.9617 7.48721 20.1945V29.0109H7.35986C4.94249 29.0109 2.97627 30.9776 2.97627 33.3953C2.97627 34.5661 3.43257 35.6678 4.2604 36.4956C5.0882 37.3234 6.18954 37.7797 7.35986 37.7797H9.13877C9.57282 37.7797 9.92471 37.4278 9.92471 36.9938C9.92471 36.5597 9.57282 36.2078 9.13877 36.2078H7.35986C6.60872 36.2078 5.90333 35.9155 5.37182 35.3841C4.84036 34.8527 4.54814 34.147 4.54814 33.3953C4.54814 31.8446 5.80967 30.5828 7.35986 30.5828H34.6395C35.3907 30.5828 36.0961 30.8751 36.6276 31.4065C37.159 31.938 37.4513 32.6436 37.4513 33.3953C37.4513 34.946 36.1897 36.2078 34.6395 36.2078H11.4669C11.0328 36.2078 10.681 36.5597 10.681 36.9938C10.681 37.4278 11.0328 37.7797 11.4669 37.7797H15.1711C15.5973 38.8222 16.3064 39.7491 17.21 40.4316C18.3087 41.2612 19.6198 41.7 21 41.7C22.3798 41.7 23.6908 41.2612 24.7893 40.4315L24.6688 40.272L24.7893 40.4315C25.693 39.749 26.402 38.8221 26.8282 37.7797H34.6395C37.0569 37.7797 39.0231 35.813 39.0231 33.3953C39.0231 32.2245 38.5668 31.1228 37.739 30.2951C36.9112 29.4673 35.8099 29.0109 34.6395 29.0109ZM21 40.1281C19.307 40.1281 17.7527 39.2016 16.9191 37.7797H25.0801C24.2466 39.2016 22.6926 40.1281 21 40.1281Z" fill="#2C2C2C" stroke="#2C2C2C" stroke-width="0.4"></path></symbol><symbol id="avatar_1" viewBox="0 0 42 43" fill="none" xmlns="http://www.w3.org/2000/svg"><g clip-path="url(#clip0_6180_6172)"><path d="M20.8478 23.1308C20.8913 23.1308 20.9348 23.1308 20.987 23.1308C21.0044 23.1308 21.0218 23.1308 21.0392 23.1308C21.0653 23.1308 21.1 23.1308 21.1261 23.1308C23.6745 23.0873 25.7358 22.1914 27.2578 20.4781C30.6064 16.7034 30.0497 10.2325 29.9888 9.61493C29.7714 4.97919 27.5796 2.76134 25.7706 1.72634C24.4225 0.952268 22.8482 0.53479 21.0913 0.5H21.0305C21.0218 0.5 21.0044 0.5 20.9957 0.5H20.9435C19.9781 0.5 18.082 0.656554 16.2643 1.69155C14.4378 2.72655 12.2113 4.9444 11.9938 9.61493C11.9329 10.2325 11.3763 16.7034 14.7248 20.4781C16.2382 22.1914 18.2995 23.0873 20.8478 23.1308ZM14.316 9.83237C14.316 9.80628 14.3247 9.78018 14.3247 9.76279C14.6117 3.52671 19.0388 2.85701 20.9348 2.85701H20.9696C20.987 2.85701 21.0131 2.85701 21.0392 2.85701C23.3875 2.90919 27.3796 3.86591 27.6492 9.76279C27.6492 9.78888 27.6492 9.81497 27.6579 9.83237C27.6666 9.89325 28.2754 15.8075 25.5097 18.9212C24.4138 20.1562 22.9526 20.7651 21.0305 20.7825C21.0131 20.7825 21.0044 20.7825 20.987 20.7825C20.9696 20.7825 20.9609 20.7825 20.9435 20.7825C19.0301 20.7651 17.5602 20.1562 16.473 18.9212C13.7159 15.8249 14.3073 9.88455 14.316 9.83237Z" fill="#2C2C2C"></path><path d="M38.8603 33.8634C38.8603 33.8547 38.8603 33.846 38.8603 33.8373C38.8603 33.7677 38.8516 33.6982 38.8516 33.6199C38.7994 31.8978 38.6863 27.8709 34.9116 26.5836C34.8855 26.5749 34.8507 26.5662 34.8246 26.5575C30.9021 25.5573 27.6405 23.296 27.6058 23.2699C27.0752 22.8959 26.3446 23.0264 25.9706 23.5569C25.5966 24.0875 25.7271 24.8181 26.2576 25.192C26.4055 25.2964 29.8671 27.7056 34.1984 28.8189C36.2249 29.5408 36.4511 31.7064 36.5119 33.6895C36.5119 33.7677 36.5119 33.8373 36.5206 33.9069C36.5293 34.6897 36.4772 35.8986 36.338 36.5944C34.929 37.3946 29.4061 40.1604 21.0044 40.1604C12.6374 40.1604 7.07976 37.3859 5.66208 36.5857C5.52292 35.8899 5.46204 34.681 5.47943 33.8982C5.47943 33.8286 5.48813 33.759 5.48813 33.6808C5.54901 31.6977 5.77515 29.5321 7.80165 28.8102C12.133 27.6969 15.5946 25.279 15.7424 25.1833C16.273 24.8094 16.4034 24.0788 16.0294 23.5482C15.6555 23.0177 14.9249 22.8872 14.3943 23.2612C14.3595 23.2873 11.1154 25.5486 7.17544 26.5488C7.14065 26.5575 7.11455 26.5662 7.08846 26.5749C3.31377 27.8709 3.2007 31.8978 3.14852 33.6112C3.14852 33.6895 3.14852 33.759 3.13982 33.8286C3.13982 33.8373 3.13982 33.846 3.13982 33.8547C3.13112 34.307 3.12242 36.6292 3.58339 37.7947C3.67036 38.0208 3.82692 38.2121 4.03566 38.3426C4.29658 38.5165 10.55 42.5 21.0131 42.5C31.4761 42.5 37.7296 38.5078 37.9905 38.3426C38.1906 38.2121 38.3558 38.0208 38.4428 37.7947C38.8777 36.6379 38.869 34.3157 38.8603 33.8634Z" fill="#2C2C2C"></path></g><defs><clipPath id="clip0_6180_6172"><rect width="42" height="42" fill="white" transform="translate(0 0.5)"></rect></clipPath></defs></symbol><symbol id="facebook" width="40" height="40" xmlns="http://www.w3.org/2000/svg"><path d="M22.7 39.922h-6.418a1.944 1.944 0 0 1-1.944-1.94V23.533h-3.744a1.944 1.944 0 0 1-1.944-1.94v-6.191c0-1.07.872-1.94 1.944-1.94h3.744v-3.1c0-3.075.968-5.69 2.797-7.564C18.973.916 21.54-.078 24.562-.078l4.895.008c1.07.002 1.94.872 1.94 1.94v5.748c0 1.07-.871 1.94-1.943 1.94l-3.296.002c-1.005 0-1.26.201-1.316.263-.09.102-.197.39-.197 1.189v2.45h4.561c.344 0 .676.084.962.243.617.344 1 .994 1 1.697l-.002 6.191c0 1.07-.872 1.94-1.944 1.94h-4.577v14.449c0 1.07-.872 1.94-1.944 1.94zm-6.012-2.345h5.607V22.484c0-.715.583-1.296 1.298-1.296h5.223l.003-5.381h-5.226a1.298 1.298 0 0 1-1.298-1.296v-3.499c0-.916.093-1.958.786-2.741.838-.947 2.157-1.056 3.077-1.056l2.89-.001v-4.94l-4.488-.007c-4.855 0-7.872 3.102-7.872 8.094v4.15c0 .714-.582 1.296-1.298 1.296H11v5.381h4.39c.716 0 1.298.581 1.298 1.296v15.093zM29.452 2.275z"></path></symbol><symbol id="polygon_left" width="14px" height="15px" viewBox="0 0 14 15" xmlns="http://www.w3.org/2000/svg"><path d="M0.599365 7.23096L13.3994 0.302753L13.3994 14.1592L0.599365 7.23096Z"></path></symbol><symbol id="polygon_right" width="14px" height="15px" viewBox="0 0 14 15" xmlns="http://www.w3.org/2000/svg"><path d="M13.0667 7.55957L0.266668 14.4878L0.266668 0.631367L13.0667 7.55957Z"></path></symbol><symbol id="star_1" viewBox="0 0 42 43" fill="none" xmlns="http://www.w3.org/2000/svg"><g clip-path="url(#clip0_6029_5299)"><path d="M25.1836 36.1523L21.6689 34.2921C21.3606 34.1289 20.9924 34.1289 20.684 34.2921L9.53452 40.1934L11.6639 27.6944C11.7228 27.3487 11.6091 26.9961 11.3596 26.7512L2.33939 17.8993L14.805 16.0758C15.1498 16.0253 15.4477 15.8074 15.6017 15.4929L17.2967 12.0353C17.442 11.739 17.3212 11.3802 17.0268 11.2339C16.7323 11.0876 16.376 11.2094 16.2308 11.5057L14.5661 14.9014L1.90693 16.7533C1.50537 16.812 1.17798 17.0898 1.05258 17.4784C0.92719 17.8669 1.02981 18.2854 1.3204 18.5705L10.4807 27.56L8.31826 40.2535C8.24969 40.656 8.41094 41.0553 8.73929 41.2954C8.92482 41.4312 9.14179 41.5 9.36026 41.5C9.52845 41.5 9.69751 41.4591 9.85372 41.3765L21.1765 35.3835L24.6304 37.2116C24.921 37.3652 25.2803 37.2529 25.4331 36.9604C25.5858 36.6679 25.4741 36.3062 25.1836 36.1523Z" fill="#2C2C2C"></path><path d="M40.9464 17.318C40.8187 16.9268 40.4851 16.6472 40.0761 16.5881L27.1793 14.7238L21.4117 3.09788C21.2287 2.72909 20.8583 2.5 20.4449 2.5C20.0314 2.5 19.661 2.72909 19.478 3.09788L17.0627 7.96671C16.9147 8.26505 17.0378 8.62626 17.3377 8.77347C17.6375 8.92052 18.0006 8.79807 18.1486 8.49989L20.4449 3.87117L26.1242 15.3191C26.2812 15.6358 26.5847 15.8551 26.936 15.906L39.6355 17.7418L30.446 26.6528C30.1918 26.8993 30.0759 27.2542 30.136 27.6021L32.3053 40.1847L27.9135 37.8878C27.6176 37.7332 27.2514 37.8463 27.0958 38.1407C26.9402 38.4352 27.0541 38.7994 27.35 38.9542L31.9801 41.3757C32.1393 41.4589 32.3115 41.5 32.4829 41.5C32.7054 41.5 32.9266 41.4306 33.1155 41.2941C33.4499 41.0524 33.6143 40.6504 33.5444 40.2451L31.3414 27.4669L40.6736 18.4174C40.9696 18.1304 41.0742 17.7091 40.9464 17.318Z" fill="#2C2C2C"></path><path d="M25.1836 36.1523L21.6689 34.2921C21.3606 34.1289 20.9924 34.1289 20.684 34.2921L9.53452 40.1934L11.6639 27.6944C11.7228 27.3487 11.6091 26.9961 11.3596 26.7512L2.33939 17.8993L14.805 16.0758C15.1498 16.0253 15.4477 15.8074 15.6017 15.4929L17.2967 12.0353C17.442 11.739 17.3212 11.3802 17.0268 11.2339C16.7323 11.0876 16.376 11.2094 16.2308 11.5057L14.5661 14.9014L1.90693 16.7533C1.50537 16.812 1.17798 17.0898 1.05258 17.4784C0.92719 17.8669 1.02981 18.2854 1.3204 18.5705L10.4807 27.56L8.31826 40.2535C8.24969 40.656 8.41094 41.0553 8.73929 41.2954C8.92482 41.4312 9.14179 41.5 9.36026 41.5C9.52845 41.5 9.69751 41.4591 9.85372 41.3765L21.1765 35.3835L24.6304 37.2116C24.921 37.3652 25.2803 37.2529 25.4331 36.9604C25.5858 36.6679 25.4741 36.3062 25.1836 36.1523Z" stroke="#2C2C2C"></path><path d="M40.9464 17.318C40.8187 16.9268 40.4851 16.6472 40.0761 16.5881L27.1793 14.7238L21.4117 3.09788C21.2287 2.72909 20.8583 2.5 20.4449 2.5C20.0314 2.5 19.661 2.72909 19.478 3.09788L17.0627 7.96671C16.9147 8.26505 17.0378 8.62626 17.3377 8.77347C17.6375 8.92052 18.0006 8.79807 18.1486 8.49989L20.4449 3.87117L26.1242 15.3191C26.2812 15.6358 26.5847 15.8551 26.936 15.906L39.6355 17.7418L30.446 26.6528C30.1918 26.8993 30.0759 27.2542 30.136 27.6021L32.3053 40.1847L27.9135 37.8878C27.6176 37.7332 27.2514 37.8463 27.0958 38.1407C26.9402 38.4352 27.0541 38.7994 27.35 38.9542L31.9801 41.3757C32.1393 41.4589 32.3115 41.5 32.4829 41.5C32.7054 41.5 32.9266 41.4306 33.1155 41.2941C33.4499 41.0524 33.6143 40.6504 33.5444 40.2451L31.3414 27.4669L40.6736 18.4174C40.9696 18.1304 41.0742 17.7091 40.9464 17.318Z" stroke="#2C2C2C"></path></g><defs><clipPath id="clip0_6029_5299"><rect fill="white" transform="translate(0 0.5)"></rect></clipPath></defs></symbol><symbol id="telegram" width="40" height="40" viewBox="0 0 40 40" xmlns="http://www.w3.org/2000/svg"><path d="M0.691676 18.6595L10.4733 23.5345C10.8517 23.7212 11.2983 23.7078 11.66 23.4962L20.3667 18.4345L15.0967 23.1045C14.8283 23.3428 14.675 23.6828 14.675 24.0412V35.4162C14.675 36.6162 16.2067 37.1212 16.925 36.1678L21.1533 30.5462L31.61 36.5012C32.3433 36.9228 33.2833 36.4995 33.4533 35.6612L39.975 3.16117C40.17 2.1845 39.1983 1.38784 38.295 1.75117L0.795009 16.3762C-0.211658 16.7695 -0.276658 18.1778 0.691676 18.6595ZM37.075 4.91117L31.3433 33.4728L21.435 27.8295C20.895 27.5212 20.2 27.6578 19.8167 28.1645L17.175 31.6762V24.6028L31.4267 11.9762C32.555 10.9778 31.2583 9.20284 29.97 9.9595L10.9867 20.9962L4.33334 17.6812L37.075 4.91117Z"></path></symbol><symbol id="youtube" width="40" height="40" viewBox="0 0 40 40" xmlns="http://www.w3.org/2000/svg"><path d="M26.1568 18.2029L17.3198 13.3677C16.8117 13.0897 16.2111 13.1001 15.7131 13.3952C15.2147 13.6906 14.9175 14.2124 14.9175 14.7917V24.3791C14.9175 24.9555 15.2129 25.4765 15.7079 25.7722C15.9664 25.9266 16.2529 26.0041 16.5401 26.0041C16.8032 26.0041 17.0668 25.9391 17.3095 25.8085L26.1467 21.0566C26.6713 20.7743 26.9988 20.229 27.0012 19.633C27.0033 19.037 26.6798 18.4892 26.1568 18.2029V18.2029ZM17.2615 23.173V16.0075L23.8661 19.6214L17.2615 23.173Z"></path><path d="M39.7057 11.9944L39.7038 11.9761C39.6699 11.6542 39.3327 8.79039 37.9405 7.33379C36.3313 5.62053 34.507 5.4124 33.6296 5.31261C33.557 5.30437 33.4905 5.29674 33.431 5.28881L33.3611 5.28148C28.073 4.89696 20.0869 4.84447 20.0069 4.84417L19.9999 4.84386L19.9929 4.84417C19.9129 4.84447 11.9268 4.89696 6.59116 5.28148L6.52067 5.28881C6.4639 5.29644 6.40134 5.30346 6.33329 5.31139C5.46598 5.41149 3.66118 5.61992 2.04742 7.39513C0.721433 8.83617 0.338133 11.6386 0.298766 11.9535L0.294188 11.9944C0.282286 12.1284 0 15.3178 0 18.5197V21.5129C0 24.7148 0.282286 27.9042 0.294188 28.0384L0.296325 28.0586C0.330199 28.3754 0.667112 31.1866 2.05291 32.6438C3.56597 34.2997 5.4791 34.5188 6.50815 34.6366C6.67081 34.6553 6.81089 34.6711 6.90641 34.6879L6.99887 34.7007C10.0521 34.9913 19.6252 35.1344 20.031 35.1402L20.0433 35.1405L20.0555 35.1402C20.1354 35.1399 28.1212 35.0874 33.4093 34.7029L33.4792 34.6955C33.546 34.6867 33.6211 34.6788 33.7035 34.6702C34.5659 34.5787 36.3609 34.3885 37.9524 32.6374C39.2784 31.1961 39.662 28.3937 39.7011 28.079L39.7057 28.0381C39.7176 27.9039 40.0001 24.7148 40.0001 21.5129V18.5197C39.9998 15.3178 39.7176 12.1287 39.7057 11.9944V11.9944ZM37.6558 21.5129C37.6558 24.4764 37.397 27.5285 37.3726 27.8086C37.2731 28.5804 36.8688 30.3535 36.2227 31.0557C35.2266 32.1516 34.2034 32.2602 33.4563 32.3393C33.366 32.3487 33.2823 32.3579 33.2067 32.3674C28.0919 32.7372 20.4073 32.794 20.0533 32.7961C19.6563 32.7903 10.2233 32.646 7.26316 32.371C7.11148 32.3463 6.9476 32.3274 6.77488 32.3078C5.89872 32.2074 4.69938 32.0701 3.77715 31.0557L3.75548 31.0325C3.12072 30.3712 2.72796 28.7132 2.62816 27.8178C2.60955 27.606 2.34405 24.5179 2.34405 21.5129V18.5197C2.34405 15.5595 2.60222 12.5108 2.62725 12.2248C2.74596 11.3157 3.15795 9.65007 3.77715 8.97686C4.80375 7.84771 5.88621 7.72258 6.60215 7.63988C6.67051 7.63195 6.73429 7.62462 6.79319 7.61699C11.9824 7.24529 19.7222 7.19005 19.9999 7.18792C20.2776 7.18975 28.0147 7.24529 33.1578 7.61699C33.221 7.62493 33.29 7.63286 33.3641 7.64141C34.1005 7.72533 35.2135 7.85228 36.2349 8.94176L36.2444 8.95183C36.8791 9.61315 37.2719 11.3002 37.3717 12.2135C37.3894 12.4134 37.6558 15.5082 37.6558 18.5197V21.5129Z"></path></symbol><symbol id="megaphone_1" width="42" height="43" viewBox="0 0 42 43" fill="none" xmlns="http://www.w3.org/2000/svg"><path d="M10.6641 15.7578C10.2113 15.7578 9.84375 16.1253 9.84375 16.5781C9.84375 17.0309 10.2113 17.3984 10.6641 17.3984C11.1169 17.3984 11.4844 17.0309 11.4844 16.5781C11.4844 16.1253 11.1169 15.7578 10.6641 15.7578Z" fill="#2C2C2C"></path><path d="M12.774 32.9266L12.7088 33.0025L12.774 32.9266C12.3655 32.5757 12.1185 31.9216 12.1185 31.1161V25.8105H15.283C19.0612 26.1611 23.0295 27.7269 27.0846 30.4728C27.3219 31.6522 28.3062 32.5474 29.4907 32.5474C30.8541 32.5474 31.9519 31.3628 31.9519 29.9211V22.4405C33.7058 22.3841 35.1 20.8482 35.1 18.9737C35.1 17.1031 33.7027 15.5635 31.9519 15.5069V8.02632C31.9519 6.58178 30.8567 5.4 29.4907 5.4C28.1273 5.4 27.0296 6.58455 27.0296 8.02632V8.68554C23.3029 11.1112 19.0245 11.7959 15.2857 12.1368H7.2963C3.76928 12.1368 0.9 15.1875 0.9 18.9737C0.9 22.0719 2.87865 24.7753 5.62222 25.5713V34.1316C5.62222 36.0377 7.07299 37.6 8.87037 37.6H11.2315C12.3925 37.6 13.2286 36.8122 13.5482 35.8418C13.8678 34.8715 13.6773 33.7027 12.774 32.9266ZM7.2963 14.0211H14.437V23.9263H7.2963C7.07813 23.9263 6.85831 23.9097 6.6423 23.8768L6.64218 23.8767C4.38544 23.5356 2.67407 21.4317 2.67407 18.9737C2.67407 16.2351 4.7433 14.0211 7.2963 14.0211ZM11.2315 35.7158H8.87037C8.06392 35.7158 7.3963 35.0115 7.3963 34.1316V25.8105H10.3444V31.116C10.3444 32.4727 10.818 33.6699 11.6581 34.3916C11.9118 34.6096 11.9693 34.9403 11.8776 35.2209C11.786 35.5012 11.5514 35.7158 11.2315 35.7158ZM27.0296 10.8579V28.2227C23.3545 25.8961 19.7249 24.4848 16.2111 24.0208V13.939C19.653 13.584 23.4946 12.8809 27.0296 10.8579ZM30.1778 29.9211C30.1778 30.3366 29.8632 30.6632 29.4907 30.6632C29.1183 30.6632 28.8037 30.3366 28.8037 29.9211V8.02632C28.8037 7.61073 29.1183 7.28421 29.4907 7.28421C29.8637 7.28421 30.1778 7.61015 30.1778 8.02632V29.9211ZM31.9519 17.3931C32.7128 17.4484 33.3259 18.1304 33.3259 18.9737C33.3259 19.8185 32.714 20.4991 31.9519 20.5543V17.3931Z" fill="#2C2C2C" stroke="#2C2C2C" stroke-width="0.2"></path><path d="M41.1797 17.3984H37.8984C37.4455 17.3984 37.0781 17.7658 37.0781 18.2188C37.0781 18.6717 37.4455 19.0391 37.8984 19.0391H41.1797C41.6327 19.0391 42 18.6717 42 18.2188C42 17.7658 41.6327 17.3984 41.1797 17.3984Z" fill="#2C2C2C"></path><path d="M39.253 7.96495C39.0265 7.57276 38.5248 7.43815 38.1325 7.66472L35.2909 9.30534C34.8985 9.53192 34.7641 10.0335 34.9907 10.4259C35.218 10.8195 35.72 10.952 36.1112 10.7261L38.9528 9.0855C39.3451 8.85893 39.4795 8.35731 39.253 7.96495Z" fill="#2C2C2C"></path><path d="M38.9528 27.352L36.1112 25.7114C35.7188 25.4848 35.2172 25.6193 34.9907 26.0116C34.7641 26.404 34.8985 26.9056 35.2909 27.1322L38.1324 28.7728C38.2616 28.8473 38.4027 28.8829 38.5418 28.8829C38.8253 28.8829 39.101 28.7357 39.253 28.4725C39.4796 28.0802 39.3451 27.5786 38.9528 27.352Z" fill="#2C2C2C"></path><path d="M7.38281 15.7578H6.5625C4.75322 15.7578 3.28125 17.2298 3.28125 19.0391C3.28125 19.492 3.64859 19.8594 4.10156 19.8594C4.55454 19.8594 4.92188 19.492 4.92188 19.0391C4.92188 18.1344 5.65786 17.3984 6.5625 17.3984H7.38281C7.83579 17.3984 8.20312 17.0311 8.20312 16.5781C8.20312 16.1251 7.83579 15.7578 7.38281 15.7578Z" fill="#2C2C2C"></path></symbol><symbol id="search_logo" width="128" height="49" viewBox="0 0 128 49" fill="none" xmlns="http://www.w3.org/2000/svg"><path d="M23.6023 36.5479C23.6023 39.8299 22.4342 42.6607 20.1385 45.0402C17.8024 47.4196 15.0233 48.5684 11.8011 48.5684C9.58591 48.5684 7.49151 47.953 5.55821 46.7632C3.6652 45.5735 2.17495 43.9325 1.16803 41.8402C0.886092 41.1838 0.845815 40.6094 1.08748 40.0351C1.28886 39.4197 1.65135 38.9684 2.25551 38.6812C2.81938 38.353 3.42354 38.312 4.02769 38.5171C4.63184 38.7222 5.07489 39.1325 5.35683 39.7069C6.68597 42.4556 8.82064 43.8094 11.8011 43.8094C13.7344 43.8094 15.4261 43.112 16.7955 41.7171C18.2052 40.2812 18.9301 38.5992 18.9704 36.671V34.0453C16.7955 35.6864 14.3789 36.5479 11.8414 36.5479C8.57898 36.5479 5.79988 35.3582 3.46381 33.0197C1.12775 30.6812 0 27.8505 0 24.5274C0 21.1633 1.12775 18.3326 3.42354 15.9941C5.71932 13.6557 8.49843 12.5069 11.8011 12.5069C15.0636 12.5069 17.8427 13.6557 20.1385 15.9941C22.4745 18.3736 23.6023 21.2044 23.6023 24.5274V36.5479ZM11.8011 31.7889C13.7344 31.7889 15.4261 31.0505 16.8358 29.6146C18.2454 28.1787 18.9704 26.4556 18.9704 24.4864C18.9704 22.4761 18.2454 20.7531 16.8358 19.3172C15.3455 17.9223 13.6941 17.2249 11.8011 17.2249C9.82757 17.2249 8.13594 17.9223 6.76652 19.3172C5.35683 20.7531 4.63184 22.4761 4.63184 24.4864C4.63184 26.4556 5.35683 28.1787 6.76652 29.6146C8.13594 31.0915 9.82757 31.7889 11.8011 31.7889Z" fill="#1F75FE"></path><path d="M37.8603 36.5479C34.6382 36.5479 31.8591 35.3581 29.523 33.0197C27.1869 30.6402 26.0592 27.8095 26.0592 24.5274C26.0592 21.2044 27.2272 18.3736 29.523 15.9941C31.8188 13.6557 34.5979 12.5069 37.8603 12.5069C41.163 12.5069 43.9421 13.6557 46.2379 15.9941C48.5337 18.3326 49.6615 21.1633 49.6615 24.5274C49.6615 27.8505 48.5337 30.6812 46.2379 33.0197C43.9019 35.3581 41.1227 36.5479 37.8603 36.5479ZM37.8603 17.2249C35.8867 17.2249 34.1951 17.9223 32.8257 19.3172C31.416 20.7531 30.691 22.4761 30.691 24.4864C30.691 26.4556 31.416 28.1787 32.8257 29.6146C34.1951 31.0505 35.8867 31.7889 37.8603 31.7889C39.8339 31.7889 41.5255 31.0505 42.9352 29.6146C44.3046 28.0966 44.9893 26.4146 44.9893 24.4864C44.9893 22.5582 44.3046 20.7941 42.9352 19.3172C41.4852 17.9223 39.7533 17.2249 37.8603 17.2249Z" fill="#1F75FE"></path><path d="M52.36 2.90681C52.36 2.2504 52.6017 1.71707 53.085 1.22477C53.528 0.773487 54.0919 0.568359 54.7363 0.568359C55.3002 0.568359 55.8641 0.773487 56.3877 1.22477C56.8307 1.7581 57.0321 2.33246 57.0321 2.90681V14.8452C59.1668 13.2042 61.5431 12.3837 64.1611 12.3837C67.4638 12.3837 70.243 13.5324 72.5387 15.8709C74.8345 18.2093 75.9623 21.0401 75.9623 24.4042C75.9623 27.7272 74.8345 30.558 72.5387 32.8965C70.2027 35.2759 67.4236 36.4246 64.1611 36.4246C60.939 36.4246 58.1599 35.2349 55.8238 32.8965C53.4877 30.517 52.36 27.6862 52.36 24.4042V2.90681ZM56.9918 24.4452C56.9918 26.4555 57.7168 28.1785 59.1265 29.5734C60.4959 31.0093 62.1876 31.7477 64.1611 31.7477C66.1347 31.7477 67.8263 31.0093 69.236 29.5734C70.6054 28.0554 71.2901 26.3734 71.2901 24.4452C71.2901 22.517 70.6054 20.7529 69.236 19.276C67.7458 17.8811 66.0542 17.1837 64.1611 17.1837C62.1876 17.1837 60.4959 17.8811 59.1265 19.276C57.7168 20.7119 56.9918 22.435 56.9918 24.4042V24.4452Z" fill="#1F75FE"></path><path d="M81.0371 7.74765C80.3927 7.74765 79.8288 7.54253 79.3858 7.09125C78.9025 6.59894 78.6608 6.06561 78.6608 5.4092C78.6608 4.75279 78.9025 4.21946 79.3858 3.72715C79.8691 3.23485 80.3927 2.9887 81.0371 2.9887C81.6816 2.9887 82.2052 3.23485 82.6885 3.72715C83.1315 4.17843 83.3329 4.75279 83.3329 5.4092C83.3329 6.06561 83.1315 6.63996 82.6885 7.09125C82.2454 7.54253 81.6816 7.74765 81.0371 7.74765ZM78.7011 14.8861C78.7011 14.2297 78.9427 13.6964 79.4261 13.204C79.8691 12.7528 80.433 12.5476 81.0774 12.5476C81.6413 12.5476 82.2052 12.7528 82.7288 13.204C83.1718 13.7374 83.3732 14.3117 83.3732 14.8861V34.2091C83.3732 34.8655 83.1718 35.4399 82.7288 35.8911C82.2454 36.3834 81.7218 36.6296 81.0774 36.6296C80.433 36.6296 79.8691 36.3834 79.4261 35.8911C78.9427 35.4399 78.7011 34.8655 78.7011 34.2091V14.8861Z" fill="#1F75FE"></path><path d="M103.834 31.7888C104.398 31.7888 104.962 31.9939 105.485 32.4452C105.928 32.9785 106.13 33.5529 106.13 34.1272C106.13 34.7016 105.928 35.2759 105.485 35.8093C105.002 36.3016 104.478 36.5477 103.834 36.5477H89.2134C88.2064 36.5477 87.5217 36.0964 87.0787 35.1939C86.6759 34.0862 86.7565 33.2247 87.3204 32.6503L99.0812 17.2247H89.0925C88.4481 17.2247 87.9245 16.9786 87.4412 16.4863C86.9981 15.9529 86.7967 15.3786 86.7967 14.8042C86.7967 14.2299 86.9981 13.6555 87.4412 13.1222C87.9648 12.6709 88.5287 12.4658 89.0925 12.4658H103.713C104.76 12.4658 105.445 12.917 105.848 13.8196C106.331 14.7222 106.25 15.5427 105.606 16.3222L93.8452 31.7888H103.834Z" fill="#1F75FE"></path><path d="M128 38.6402C128 41.3479 127.033 43.6863 125.14 45.5735C123.207 47.5017 120.952 48.4863 118.293 48.4863C116.4 48.4863 114.709 47.994 113.178 47.0094C111.607 45.9838 110.399 44.6299 109.593 42.9479C109.312 42.2915 109.271 41.7171 109.513 41.1427C109.714 40.5274 110.077 40.0761 110.681 39.7889C111.245 39.5017 111.809 39.4607 112.413 39.7069C113.057 39.953 113.5 40.3633 113.742 40.8966C114.749 42.8248 116.279 43.7684 118.293 43.7684C119.743 43.7684 120.952 43.2761 121.918 42.2915C122.885 41.3069 123.368 40.0761 123.368 38.6402V35.1941C121.918 36.0966 120.307 36.5479 118.535 36.5479C115.917 36.5479 113.702 35.6043 111.889 33.7582C110.077 31.871 109.11 29.6146 109.07 26.989V15.0505C109.07 14.4762 109.271 13.9018 109.714 13.3685C110.238 12.9172 110.802 12.7121 111.366 12.7121C111.93 12.7121 112.493 12.9172 113.017 13.3685C113.46 13.9018 113.661 14.4762 113.661 15.0505V26.9479C113.661 28.3018 114.145 29.4915 115.111 30.4351C116.038 31.3787 117.166 31.871 118.495 31.871C119.824 31.871 120.992 31.3787 121.918 30.4351C122.845 29.4915 123.328 28.3018 123.328 26.9479V15.0505C123.328 14.4762 123.529 13.9018 123.972 13.3685C124.496 12.9172 125.06 12.7121 125.624 12.7121C126.228 12.7121 126.792 12.9172 127.315 13.3685C127.758 13.9018 127.96 14.4762 127.96 15.0505V38.6402H128Z" fill="#1F75FE"></path><path d="M14.097 8.36337H9.50539C8.25681 8.36337 7.20961 7.33774 7.20961 6.02492C7.20961 4.75313 8.21653 3.68647 9.50539 3.68647H14.097C15.3455 3.68647 16.3927 4.7121 16.3927 6.02492C16.3927 7.33774 15.3455 8.36337 14.097 8.36337Z" fill="#1F75FE"></path></symbol><symbol id="instagram" width="40" height="40" xmlns="http://www.w3.org/2000/svg"><path d="M29.172 0H10.828C4.858 0 0 4.857 0 10.828v18.345C0 35.143 4.857 40 10.828 40h18.345C35.143 40 40 35.143 40 29.173V10.828C40 4.858 35.143 0 29.172 0zm8.483 29.173c0 4.677-3.805 8.482-8.483 8.482H10.828c-4.678 0-8.483-3.805-8.483-8.482V10.828c0-4.678 3.805-8.483 8.483-8.483h18.345c4.677 0 8.482 3.805 8.482 8.483v18.345z"></path><path d="M20 9.063C13.97 9.063 9.063 13.968 9.063 20c0 6.03 4.906 10.937 10.937 10.937 6.03 0 10.937-4.907 10.937-10.937 0-6.031-4.906-10.938-10.937-10.938zm0 19.529c-4.738 0-8.592-3.854-8.592-8.592s3.854-8.592 8.592-8.592 8.592 3.854 8.592 8.592-3.854 8.592-8.592 8.592zM31.199 5.178a3.235 3.235 0 0 0-3.232 3.232 3.235 3.235 0 0 0 3.232 3.232A3.236 3.236 0 0 0 34.43 8.41a3.235 3.235 0 0 0-3.232-3.232zm0 4.118a.888.888 0 0 1 0-1.773.888.888 0 0 1 0 1.773z"></path></symbol></svg>