<svg width="0" height="0" class="hidden">
    <symbol xmlns="http://www.w3.org/2000/svg" viewBox="0 0 42 42" id="avatar_2">
        <path d="M31.9456 11.7713L31.7837 11.8888L31.9456 11.7713C31.6908 11.4199 31.1995 11.3418 30.848 11.5965L30.848 11.5965C30.4966 11.8514 30.4183 12.3428 30.6732 12.6942C32.1561 14.7388 32.9398 17.1589 32.9398 19.6945V28.5109H9.05859V19.6945C9.05859 16.8377 10.0834 14.0736 11.9442 11.9114C13.7858 9.77136 16.3265 8.34864 19.0977 7.90499L19.0977 7.90498C19.4012 7.85636 19.6485 7.63538 19.7307 7.33933L19.7307 7.33931C19.813 7.04318 19.7151 6.72628 19.4801 6.52812C18.9479 6.07937 18.643 5.4235 18.643 4.72813C18.643 3.42905 19.7001 2.37188 20.9992 2.37188C22.2983 2.37188 23.3555 3.42905 23.3555 4.72813C23.3555 5.42342 23.0505 6.07937 22.5183 6.52812L22.5183 6.52813C22.2834 6.72629 22.1855 7.04318 22.2678 7.33931C22.35 7.63547 22.5974 7.85647 22.9009 7.90499C25.2838 8.28607 27.4722 9.37165 29.23 11.045L29.23 11.0451C29.5444 11.3442 30.0419 11.3321 30.3412 11.0177C30.6405 10.7033 30.6282 10.2058 30.3138 9.90647L30.1818 10.0451L30.3138 9.90647C28.6469 8.31966 26.6362 7.19922 24.4398 6.62411C24.7564 6.05044 24.9273 5.40014 24.9273 4.72805C24.9273 2.56196 23.1654 0.8 20.9992 0.8C18.8331 0.8 17.0711 2.56197 17.0711 4.72813C17.0711 5.40063 17.2423 6.05129 17.5592 6.6252C14.9282 7.31763 12.5469 8.80109 10.7527 10.886L10.9043 11.0165L10.7527 10.886C8.64659 13.3335 7.48672 16.4617 7.48672 19.6945V28.5109H7.35938C4.94201 28.5109 2.97578 30.4776 2.97578 32.8953C2.97578 34.0661 3.43208 35.1678 4.25991 35.9956C5.08772 36.8234 6.18905 37.2797 7.35938 37.2797H9.13828C9.57233 37.2797 9.92422 36.9278 9.92422 36.4938C9.92422 36.0597 9.57233 35.7078 9.13828 35.7078H7.35938C6.60823 35.7078 5.90284 35.4155 5.37133 34.8841C4.83988 34.3527 4.54766 33.647 4.54766 32.8953C4.54766 31.3446 5.80918 30.0828 7.35938 30.0828H34.6391C35.3902 30.0828 36.0956 30.3751 36.6271 30.9065C37.1586 31.438 37.4508 32.1436 37.4508 32.8953C37.4508 34.446 36.1893 35.7078 34.6391 35.7078H11.4664C11.0324 35.7078 10.6805 36.0597 10.6805 36.4938C10.6805 36.9278 11.0324 37.2797 11.4664 37.2797H15.1706C15.5968 38.3222 16.3059 39.2491 17.2095 39.9316C18.3082 40.7612 19.6194 41.2 20.9995 41.2C22.3793 41.2 23.6903 40.7612 24.7888 39.9315L24.6683 39.772L24.7888 39.9315C25.6925 39.249 26.4015 38.3221 26.8277 37.2797H34.6391C37.0564 37.2797 39.0227 35.313 39.0227 32.8953C39.0227 31.7245 38.5664 30.6228 37.7385 29.7951C36.9107 28.9673 35.8094 28.5109 34.6391 28.5109H34.5117V19.6945C34.5117 16.8261 33.6243 14.0858 31.9456 11.7713ZM20.9995 39.6281C19.3065 39.6281 17.7522 38.7016 16.9186 37.2797H25.0796C24.2461 38.7016 22.6921 39.6281 20.9995 39.6281Z" stroke-width="0.4"></path>
    </symbol>
    <symbol xmlns="http://www.w3.org/2000/svg" viewBox="0 0 42 42" id="deal_1">
        <g clip-path="url(#clip0)">
            <path d="M37.6293 25.852C37.6325 25.8485 37.6357 25.8453 37.6389 25.8418C37.9055 25.571 37.9853 25.4361 38.3647 24.8933C43.2321 19.9586 43.2116 11.9846 38.3029 7.0758C36.7443 5.51977 36.8106 5.57745 36.7289 5.50984C32.2194 1.78574 25.9017 1.68096 21.0471 4.56039C15.5295 1.28137 8.39952 2.32119 4.04224 7.18283L3.04889 8.29089C-1.18213 13.0119 -0.986669 20.2201 3.4927 24.7049C4.03615 25.2605 8.02942 29.3435 8.0307 29.3448C8.69913 30.0129 9.56174 30.3702 10.4381 30.4182C10.4862 31.2949 10.8438 32.1572 11.5116 32.8253C12.18 33.4935 13.0426 33.8511 13.919 33.8988C13.9671 34.7755 14.3244 35.6381 14.9925 36.3062C16.049 37.3627 17.5585 37.628 18.8348 37.1778C19.0123 37.6815 19.302 38.1542 19.7042 38.5563C21.1436 39.9957 23.4859 39.996 24.9253 38.5563L27.1757 36.3062C27.8432 35.6384 28.2008 34.7768 28.2489 33.9007C29.1589 33.852 30.0074 33.4745 30.6566 32.8253C31.3058 32.1761 31.683 31.3276 31.732 30.4179C32.6078 30.3695 33.4697 30.0122 34.1375 29.3445C34.8056 28.6763 35.1636 27.8141 35.2113 26.9377C36.0877 26.8896 36.9503 26.5317 37.6181 25.8636C37.6219 25.86 37.6255 25.8559 37.6293 25.852V25.852ZM35.1181 7.37157L36.5626 8.81609C39.9262 12.1797 40.4392 17.3304 38.1029 21.24C37.727 20.6645 37.9984 21.0618 30.8966 13.9209C32.1348 13.7213 33.2772 13.141 34.1795 12.2387C34.6602 11.7583 34.6602 10.979 34.1795 10.4984C33.6988 10.0177 32.9195 10.0177 32.4389 10.4984C31.0825 11.8548 28.8545 11.8762 27.4721 10.5464L27.1206 10.2084C26.7041 9.80784 26.0654 9.7508 25.5848 10.0712L19.2761 14.2773C17.7344 15.3046 15.7615 15.3254 14.2167 14.4243C19.5289 9.02533 19.9012 8.33704 21.4537 7.23025C21.4621 7.22769 28.6536 2.09271 35.1181 7.37157V7.37157ZM9.77098 25.8639L13.2522 22.3827C13.7319 21.903 14.5128 21.903 14.9925 22.3827C15.4725 22.8627 15.4725 23.6433 14.9928 24.123C14.9928 24.123 14.9928 24.1233 14.9925 24.1233L11.5116 27.6042C11.5113 27.6045 11.5109 27.6048 11.5106 27.6051C11.0319 28.0829 10.2545 28.0839 9.77451 27.6074L9.76554 27.5981C9.29161 27.1178 9.29321 26.3417 9.77098 25.8639V25.8639ZM13.2519 29.3448L16.7331 25.8636C17.2131 25.3839 17.9937 25.3839 18.4734 25.8636C18.9543 26.3449 18.9543 27.1232 18.4734 27.6042L14.9925 31.0851C14.5128 31.5648 13.7319 31.5648 13.2522 31.0851C12.7722 30.6054 12.7722 29.8248 13.2519 29.3448ZM16.7331 34.5659C16.2534 34.0859 16.2531 33.3054 16.7331 32.8253L20.214 29.3445C20.6937 28.8648 21.4746 28.8648 21.9543 29.3445C22.4352 29.8254 22.4355 30.6038 21.9543 31.0851C21.539 31.5007 18.879 34.1606 18.4734 34.5659C17.9924 35.0469 17.2141 35.0469 16.7331 34.5659V34.5659ZM25.4351 34.5659L23.185 36.816C22.705 37.2957 21.9245 37.2957 21.4444 36.816C20.9647 36.336 20.9647 35.5555 21.4444 35.0754L23.6949 32.8253C24.1745 32.3457 24.9551 32.3453 25.4351 32.8253C25.9152 33.3054 25.9152 34.0859 25.4351 34.5659V34.5659ZM34.1372 24.1233L27.1754 17.1615C26.6951 16.6809 25.9158 16.6809 25.4351 17.1615C25.1948 17.4018 25.0747 17.7168 25.0747 18.0318C25.0747 18.3465 25.1948 18.6615 25.4351 18.9018L32.3969 25.8636C32.8769 26.3436 32.8766 27.1242 32.3969 27.6039C31.9172 28.0839 31.1363 28.0839 30.6563 27.6039L23.6945 20.6424C23.2142 20.1617 22.4349 20.1617 21.9543 20.6424C21.4736 21.1227 21.4736 21.902 21.9543 22.3827L28.916 29.3445C29.397 29.8254 29.397 30.6038 28.916 31.0851C28.436 31.5648 27.6554 31.5648 27.1754 31.0851C26.508 30.4173 25.646 30.06 24.7702 30.0116C24.7212 29.1019 24.3437 28.2534 23.6945 27.6042C23.0271 26.9364 22.1651 26.5791 21.2893 26.5307C21.2403 25.621 20.8628 24.7725 20.2136 24.1233C19.5455 23.4552 18.6829 23.0976 17.8065 23.0498C17.7585 22.1731 17.4009 21.3105 16.7328 20.6424C15.2934 19.203 12.951 19.203 11.5116 20.6424L8.0307 24.1233C7.73878 24.4152 7.50743 24.7443 7.33375 25.0952C4.75008 22.4746 5.33712 23.07 5.2474 22.979C5.24419 22.9758 5.24099 22.9726 5.23779 22.9694C1.67775 19.409 1.52106 13.6832 4.88146 9.93377L5.87481 8.82538C9.17946 5.13845 14.4888 4.13421 18.8371 6.17089C18.6169 6.36604 18.4016 6.56759 18.1923 6.77652C18.1879 6.78132 11.4975 13.695 11.4975 13.695C11.0303 14.1776 11.0364 14.946 11.5116 15.4209C13.9501 17.8597 17.7908 18.2254 20.6411 16.3252L26.1449 12.6559C26.2048 12.7049 35.7214 22.226 35.8775 22.3827C36.7411 23.2466 35.8352 24.1508 35.8307 24.1656C35.3484 24.6011 34.6022 24.5879 34.1372 24.1233V24.1233Z"></path>
        </g>
        <defs>
            <clipPath id="clip0">
                <rect width="42" height="42" fill="white"></rect>
            </clipPath>
        </defs>
    </symbol>
    <symbol xmlns="http://www.w3.org/2000/svg" viewBox="0 0 42 42" id="megaphone_1">
        <path d="M10.6641 15.2578C10.2113 15.2578 9.84375 15.6253 9.84375 16.0781C9.84375 16.5309 10.2113 16.8984 10.6641 16.8984C11.1169 16.8984 11.4844 16.5309 11.4844 16.0781C11.4844 15.6253 11.1169 15.2578 10.6641 15.2578Z"></path>
        <path d="M12.774 32.4266L12.7135 32.4971L12.774 32.4266C12.3655 32.0757 12.1185 31.4216 12.1185 30.6161V25.3105H15.283C19.0612 25.6611 23.0295 27.2269 27.0846 29.9728C27.3219 31.1522 28.3062 32.0474 29.4907 32.0474C30.8541 32.0474 31.9519 30.8628 31.9519 29.4211V21.9405C33.7058 21.8841 35.1 20.3482 35.1 18.4737C35.1 16.6031 33.7027 15.0635 31.9519 15.0069V7.52632C31.9519 6.08178 30.8567 4.9 29.4907 4.9C28.1273 4.9 27.0296 6.08455 27.0296 7.52632V8.18554C23.3029 10.6112 19.0245 11.2959 15.2857 11.6368H7.2963C3.76928 11.6368 0.9 14.6875 0.9 18.4737C0.9 21.5719 2.87865 24.2753 5.62222 25.0713V33.6316C5.62222 35.5377 7.07299 37.1 8.87037 37.1H11.2315C12.3925 37.1 13.2286 36.3122 13.5482 35.3418C13.8678 34.3715 13.6773 33.2027 12.774 32.4266ZM7.2963 13.5211H14.437V23.4263H7.2963C7.07813 23.4263 6.85831 23.4097 6.6423 23.3768L6.64218 23.3767C4.38544 23.0356 2.67407 20.9317 2.67407 18.4737C2.67407 15.7351 4.7433 13.5211 7.2963 13.5211ZM11.2315 35.2158H8.87037C8.06392 35.2158 7.3963 34.5115 7.3963 33.6316V25.3105H10.3444V30.616C10.3444 31.9727 10.818 33.1699 11.6581 33.8916C11.9118 34.1096 11.9693 34.4403 11.8776 34.7209C11.786 35.0012 11.5514 35.2158 11.2315 35.2158ZM27.0296 10.3579V27.7227C23.3545 25.3961 19.7249 23.9848 16.2111 23.5208V13.439C19.653 13.084 23.4946 12.3809 27.0296 10.3579ZM30.1778 29.4211C30.1778 29.8366 29.8632 30.1632 29.4907 30.1632C29.1183 30.1632 28.8037 29.8366 28.8037 29.4211V7.52632C28.8037 7.11073 29.1183 6.78421 29.4907 6.78421C29.8637 6.78421 30.1778 7.11015 30.1778 7.52632V29.4211ZM31.9519 16.8931C32.7128 16.9484 33.3259 17.6304 33.3259 18.4737C33.3259 19.3185 32.714 19.9991 31.9519 20.0543V16.8931Z" stroke-width="0.2"></path>
        <path d="M41.1797 16.8984H37.8984C37.4455 16.8984 37.0781 17.2658 37.0781 17.7188C37.0781 18.1717 37.4455 18.5391 37.8984 18.5391H41.1797C41.6327 18.5391 42 18.1717 42 17.7188C42 17.2658 41.6327 16.8984 41.1797 16.8984Z"></path>
        <path d="M39.2533 7.46495C39.0268 7.07276 38.5251 6.93815 38.1327 7.16472L35.2912 8.80534C34.8988 9.03192 34.7644 9.53354 34.9909 9.92589C35.2182 10.3195 35.7203 10.452 36.1115 10.2261L38.9531 8.5855C39.3454 8.35893 39.4798 7.85731 39.2533 7.46495Z"></path>
        <path d="M38.953 26.8522L36.1115 25.2116C35.719 24.985 35.2175 25.1196 34.9909 25.5118C34.7644 25.9042 34.8988 26.4058 35.2912 26.6324L38.1327 28.273C38.2619 28.3476 38.4029 28.3831 38.5421 28.3831C38.8256 28.3831 39.1013 28.2359 39.2533 27.9728C39.4798 27.5804 39.3454 27.0788 38.953 26.8522Z"></path>
        <path d="M7.38281 15.2578H6.5625C4.75322 15.2578 3.28125 16.7298 3.28125 18.5391C3.28125 18.992 3.64859 19.3594 4.10156 19.3594C4.55454 19.3594 4.92188 18.992 4.92188 18.5391C4.92188 17.6344 5.65786 16.8984 6.5625 16.8984H7.38281C7.83579 16.8984 8.20312 16.5311 8.20312 16.0781C8.20312 15.6251 7.83579 15.2578 7.38281 15.2578Z"></path>
    </symbol>
    <symbol xmlns="http://www.w3.org/2000/svg" viewBox="0 0 42 43" id="star_1">
        <g clip-path="url(#clip0_6029_5299)">
            <path d="M25.1836 36.1523L21.6689 34.2921C21.3606 34.1289 20.9924 34.1289 20.684 34.2921L9.53452 40.1934L11.6639 27.6944C11.7228 27.3487 11.6091 26.9961 11.3596 26.7512L2.33939 17.8993L14.805 16.0758C15.1498 16.0253 15.4477 15.8074 15.6017 15.4929L17.2967 12.0353C17.442 11.739 17.3212 11.3802 17.0268 11.2339C16.7323 11.0876 16.376 11.2094 16.2308 11.5057L14.5661 14.9014L1.90693 16.7533C1.50537 16.812 1.17798 17.0898 1.05258 17.4784C0.92719 17.8669 1.02981 18.2854 1.3204 18.5705L10.4807 27.56L8.31826 40.2535C8.24969 40.656 8.41094 41.0553 8.73929 41.2954C8.92482 41.4312 9.14179 41.5 9.36026 41.5C9.52845 41.5 9.69751 41.4591 9.85372 41.3765L21.1765 35.3835L24.6304 37.2116C24.921 37.3652 25.2803 37.2529 25.4331 36.9604C25.5858 36.6679 25.4741 36.3062 25.1836 36.1523Z" ></path>
            <path d="M40.9464 17.318C40.8187 16.9268 40.4851 16.6472 40.0761 16.5881L27.1793 14.7238L21.4117 3.09788C21.2287 2.72909 20.8583 2.5 20.4449 2.5C20.0314 2.5 19.661 2.72909 19.478 3.09788L17.0627 7.96671C16.9147 8.26505 17.0378 8.62626 17.3377 8.77347C17.6375 8.92052 18.0006 8.79807 18.1486 8.49989L20.4449 3.87117L26.1242 15.3191C26.2812 15.6358 26.5847 15.8551 26.936 15.906L39.6355 17.7418L30.446 26.6528C30.1918 26.8993 30.0759 27.2542 30.136 27.6021L32.3053 40.1847L27.9135 37.8878C27.6176 37.7332 27.2514 37.8463 27.0958 38.1407C26.9402 38.4352 27.0541 38.7994 27.35 38.9542L31.9801 41.3757C32.1393 41.4589 32.3115 41.5 32.4829 41.5C32.7054 41.5 32.9266 41.4306 33.1155 41.2941C33.4499 41.0524 33.6143 40.6504 33.5444 40.2451L31.3414 27.4669L40.6736 18.4174C40.9696 18.1304 41.0742 17.7091 40.9464 17.318Z"></path>
            <path d="M25.1836 36.1523L21.6689 34.2921C21.3606 34.1289 20.9924 34.1289 20.684 34.2921L9.53452 40.1934L11.6639 27.6944C11.7228 27.3487 11.6091 26.9961 11.3596 26.7512L2.33939 17.8993L14.805 16.0758C15.1498 16.0253 15.4477 15.8074 15.6017 15.4929L17.2967 12.0353C17.442 11.739 17.3212 11.3802 17.0268 11.2339C16.7323 11.0876 16.376 11.2094 16.2308 11.5057L14.5661 14.9014L1.90693 16.7533C1.50537 16.812 1.17798 17.0898 1.05258 17.4784C0.92719 17.8669 1.02981 18.2854 1.3204 18.5705L10.4807 27.56L8.31826 40.2535C8.24969 40.656 8.41094 41.0553 8.73929 41.2954C8.92482 41.4312 9.14179 41.5 9.36026 41.5C9.52845 41.5 9.69751 41.4591 9.85372 41.3765L21.1765 35.3835L24.6304 37.2116C24.921 37.3652 25.2803 37.2529 25.4331 36.9604C25.5858 36.6679 25.4741 36.3062 25.1836 36.1523Z"></path>
            <path d="M40.9464 17.318C40.8187 16.9268 40.4851 16.6472 40.0761 16.5881L27.1793 14.7238L21.4117 3.09788C21.2287 2.72909 20.8583 2.5 20.4449 2.5C20.0314 2.5 19.661 2.72909 19.478 3.09788L17.0627 7.96671C16.9147 8.26505 17.0378 8.62626 17.3377 8.77347C17.6375 8.92052 18.0006 8.79807 18.1486 8.49989L20.4449 3.87117L26.1242 15.3191C26.2812 15.6358 26.5847 15.8551 26.936 15.906L39.6355 17.7418L30.446 26.6528C30.1918 26.8993 30.0759 27.2542 30.136 27.6021L32.3053 40.1847L27.9135 37.8878C27.6176 37.7332 27.2514 37.8463 27.0958 38.1407C26.9402 38.4352 27.0541 38.7994 27.35 38.9542L31.9801 41.3757C32.1393 41.4589 32.3115 41.5 32.4829 41.5C32.7054 41.5 32.9266 41.4306 33.1155 41.2941C33.4499 41.0524 33.6143 40.6504 33.5444 40.2451L31.3414 27.4669L40.6736 18.4174C40.9696 18.1304 41.0742 17.7091 40.9464 17.318Z"></path>
        </g>
        <defs>
            <clipPath id="clip0_6029_5299">
                <rect width="42" height="42" fill="white" transform="translate(0 0.5)"></rect>
            </clipPath>
        </defs>
    </symbol>
    <symbol xmlns="http://www.w3.org/2000/svg" viewBox="0 0 42 42" id="avatar_1">
        <path d="M20.848 22.6308C20.8915 22.6308 20.935 22.6308 20.9872 22.6308C21.0046 22.6308 21.022 22.6308 21.0394 22.6308C21.0655 22.6308 21.1003 22.6308 21.1264 22.6308C23.6747 22.5873 25.736 21.6914 27.2581 19.978C30.6066 16.2034 30.0499 9.73245 29.9891 9.11493C29.7716 4.47919 27.5799 2.26134 25.7708 1.22634C24.4227 0.452268 22.8484 0.0347898 21.0916 0H21.0307C21.022 0 21.0046 0 20.9959 0H20.9437C19.9783 0 18.0822 0.156554 16.2645 1.19155C14.438 2.22655 12.2115 4.4444 11.994 9.11493C11.9331 9.73245 11.3765 16.2034 14.725 19.978C16.2384 21.6914 18.2997 22.5873 20.848 22.6308ZM14.3162 9.33237C14.3162 9.30628 14.3249 9.28018 14.3249 9.26279C14.612 3.02671 19.039 2.35701 20.935 2.35701H20.9698C20.9872 2.35701 21.0133 2.35701 21.0394 2.35701C23.3877 2.40919 27.3798 3.36591 27.6494 9.26279C27.6494 9.28888 27.6494 9.31497 27.6581 9.33237C27.6668 9.39325 28.2757 15.3075 25.5099 18.4212C24.414 19.6562 22.9528 20.2651 21.0307 20.2825C21.0133 20.2825 21.0046 20.2825 20.9872 20.2825C20.9698 20.2825 20.9611 20.2825 20.9437 20.2825C19.0303 20.2651 17.5604 19.6562 16.4732 18.4212C13.7161 15.3249 14.3076 9.38455 14.3162 9.33237Z"></path>
        <path d="M38.8605 33.3637C38.8605 33.355 38.8605 33.3463 38.8605 33.3376C38.8605 33.268 38.8518 33.1984 38.8518 33.1201C38.7996 31.398 38.6866 27.3711 34.9119 26.0839C34.8858 26.0752 34.851 26.0665 34.8249 26.0578C30.9023 25.0576 27.6408 22.7962 27.606 22.7701C27.0755 22.3962 26.3449 22.5266 25.9709 23.0572C25.5969 23.5877 25.7273 24.3183 26.2579 24.6923C26.4057 24.7967 29.8673 27.2059 34.1987 28.3191C36.2252 29.041 36.4513 31.2067 36.5122 33.1897C36.5122 33.268 36.5122 33.3376 36.5209 33.4071C36.5296 34.1899 36.4774 35.3989 36.3382 36.0947C34.9293 36.8948 29.4064 39.6606 21.0046 39.6606C12.6377 39.6606 7.08001 36.8861 5.66232 36.086C5.52316 35.3902 5.46228 34.1812 5.47968 33.3984C5.47968 33.3289 5.48837 33.2593 5.48837 33.181C5.54926 31.198 5.77539 29.0323 7.8019 28.3104C12.1332 27.1972 15.5948 24.7793 15.7427 24.6836C16.2732 24.3096 16.4037 23.579 16.0297 23.0485C15.6557 22.5179 14.9251 22.3875 14.3946 22.7615C14.3598 22.7875 11.1156 25.0489 7.17568 26.0491C7.14089 26.0578 7.1148 26.0665 7.08871 26.0752C3.31401 27.3711 3.20094 31.398 3.14876 33.1114C3.14876 33.1897 3.14876 33.2593 3.14006 33.3289C3.14006 33.3376 3.14006 33.3463 3.14006 33.355C3.13136 33.8072 3.12267 36.1294 3.58363 37.2949C3.67061 37.521 3.82716 37.7124 4.0359 37.8428C4.29682 38.0168 10.5503 42.0002 21.0133 42.0002C31.4764 42.0002 37.7298 38.0081 37.9908 37.8428C38.1908 37.7124 38.3561 37.521 38.443 37.2949C38.8779 36.1381 38.8692 33.8159 38.8605 33.3637Z"></path>
    </symbol>
    <symbol xmlns="http://www.w3.org/2000/svg" viewBox="0 0 8 14" id="arrow_right">
        <path d="M1.00473 14C0.807111 14 0.613943 13.9413 0.449643 13.8315C0.285344 13.7216 0.157289 13.5655 0.0816702 13.3829C0.00605103 13.2003 -0.013738 12.9993 0.0248037 12.8054C0.0633453 12.6116 0.158488 12.4335 0.298203 12.2937L5.58765 7.00271L0.298203 1.71176C0.204228 1.61921 0.129497 1.50897 0.0783175 1.3874C0.0271381 1.26583 0.000523249 1.13532 7.63836e-06 1.00341C-0.000507972 0.871499 0.0250851 0.74079 0.0753125 0.61882C0.12554 0.49685 0.199408 0.386032 0.292657 0.292755C0.385905 0.199478 0.49669 0.125587 0.618625 0.0753425C0.740559 0.0250982 0.871229 -0.000505401 1.0031 7.55772e-06C1.13498 0.000520516 1.26545 0.0271397 1.38699 0.0783311C1.50853 0.129523 1.61873 0.204273 1.71125 0.298273L7.70722 6.29595C7.80004 6.38875 7.87367 6.49892 7.92391 6.62019C7.97414 6.74146 8 6.87144 8 7.00271C8 7.13398 7.97414 7.26395 7.92391 7.38522C7.87367 7.50649 7.80004 7.61667 7.70722 7.70946L1.71125 13.7071C1.61858 13.8001 1.50846 13.8738 1.38721 13.9241C1.26596 13.9744 1.13598 14.0002 1.00473 14Z"></path>
    </symbol>
</svg>
