<?xml version="1.0" encoding="UTF-8" standalone="no"?><svg xmlns="http://www.w3.org/2000/svg" xmlns:xlink="http://www.w3.org/1999/xlink"><symbol id="arrow-right" viewBox="0 0 9 16" xmlns="http://www.w3.org/2000/svg"><path d="M8.707 8.961a1 1 0 0 0 0-1.414L2.343 1.183A1 1 0 0 0 .93 2.597l5.657 5.657L.929 13.91a1 1 0 1 0 1.414 1.414l6.364-6.364ZM6 9.254h2v-2H6v2Z"></path></symbol><symbol id="burger" xmlns="http://www.w3.org/2000/svg" viewBox="0 0 448 512"><path d="M0 96C0 78.33 14.33 64 32 64H416C433.7 64 448 78.33 448 96C448 113.7 433.7 128 416 128H32C14.33 128 0 113.7 0 96zM0 256C0 238.3 14.33 224 32 224H416C433.7 224 448 238.3 448 256C448 273.7 433.7 288 416 288H32C14.33 288 0 273.7 0 256zM416 448H32C14.33 448 0 433.7 0 416C0 398.3 14.33 384 32 384H416C433.7 384 448 398.3 448 416C448 433.7 433.7 448 416 448z"></path></symbol><symbol id="cabinet-deal" viewBox="0 0 42 42" xmlns="http://www.w3.org/2000/svg"><path d="M37.6294 25.8521C37.6326 25.8485 37.6358 25.8453 37.639 25.8418C37.9056 25.571 37.9854 25.4361 38.3648 24.8933C43.2322 19.9586 43.2117 11.9846 38.303 7.07583C36.7444 5.5198 36.8107 5.57748 36.729 5.50987C32.2195 1.78577 25.9018 1.68099 21.0472 4.56042C15.5296 1.2814 8.39964 2.32122 4.04236 7.18286L3.04901 8.29093C-1.18201 13.0119 -0.986547 20.2201 3.49282 24.7049C4.03628 25.2605 8.02954 29.3435 8.03082 29.3448C8.69925 30.0129 9.56186 30.3702 10.4383 30.4183C10.4863 31.295 10.8439 32.1573 11.5117 32.8254C12.1801 33.4935 13.0427 33.8511 13.9191 33.8988C13.9672 34.7755 14.3245 35.6382 14.9926 36.3063C16.0491 37.3627 17.5586 37.6281 18.8349 37.1778C19.0125 37.6816 19.3021 38.1542 19.7043 38.5564C21.1437 39.9958 23.4861 39.9961 24.9254 38.5564L27.1759 36.3063C27.8433 35.6385 28.2009 34.7768 28.249 33.9008C29.159 33.852 30.0076 33.4746 30.6568 32.8254C31.306 32.1762 31.6831 31.3277 31.7321 30.4179C32.6079 30.3696 33.4699 30.0123 34.1376 29.3445C34.8058 28.6764 35.1637 27.8141 35.2114 26.9377C36.0878 26.8896 36.9504 26.5317 37.6182 25.8636C37.6221 25.8601 37.6256 25.8559 37.6294 25.8521ZM35.1182 7.3716L36.5627 8.81612C39.9263 12.1797 40.4393 17.3304 38.103 21.24C37.7272 20.6645 37.9986 21.0619 30.8968 13.921C32.1349 13.7213 33.2773 13.141 34.1796 12.2387C34.6603 11.7584 34.6603 10.9791 34.1796 10.4984C33.699 10.0178 32.9197 10.0178 32.439 10.4984C31.0826 11.8548 28.8546 11.8763 27.4723 10.5465L27.1208 10.2084C26.7042 9.80787 26.0656 9.75083 25.5849 10.0713L19.2762 14.2773C17.7346 15.3046 15.7616 15.3254 14.2168 14.4244C19.529 9.02536 19.9013 8.33707 21.4539 7.23028C21.4622 7.22772 28.6537 2.09275 35.1182 7.3716ZM9.77111 25.8639L13.2523 22.3827C13.732 21.903 14.5129 21.903 14.9926 22.3827C15.4726 22.8627 15.4726 23.6433 14.9929 24.123C14.9929 24.123 14.9929 24.1233 14.9926 24.1233L11.5117 27.6042C11.5114 27.6045 11.5111 27.6048 11.5107 27.6052C11.032 28.0829 10.2546 28.0839 9.77463 27.6074L9.76566 27.5981C9.29173 27.1178 9.29334 26.3417 9.77111 25.8639ZM13.252 29.3448L16.7332 25.8636C17.2132 25.3839 17.9938 25.3839 18.4735 25.8636C18.9545 26.3449 18.9545 27.1232 18.4735 27.6042L14.9926 31.0851C14.5129 31.5648 13.732 31.5648 13.2523 31.0851C12.7723 30.6054 12.7723 29.8248 13.252 29.3448ZM16.7332 34.566C16.2535 34.086 16.2532 33.3054 16.7332 32.8254L20.2141 29.3445C20.6938 28.8648 21.4747 28.8648 21.9544 29.3445C22.4353 29.8255 22.4357 30.6038 21.9544 31.0851C21.5391 31.5007 18.8792 34.1606 18.4735 34.566C17.9925 35.047 17.2142 35.047 16.7332 34.566ZM25.4353 34.566L23.1852 36.8161C22.7052 37.2958 21.9246 37.2958 21.4446 36.8161C20.9649 36.3361 20.9649 35.5555 21.4446 35.0755L23.695 32.8254C24.1747 32.3457 24.9552 32.3454 25.4353 32.8254C25.9153 33.3054 25.9153 34.086 25.4353 34.566ZM34.1373 24.1233L27.1755 17.1615C26.6952 16.6809 25.9159 16.6809 25.4353 17.1615C25.1949 17.4019 25.0748 17.7168 25.0748 18.0318C25.0748 18.3465 25.1949 18.6615 25.4353 18.9018L32.397 25.8636C32.8771 26.3436 32.8767 27.1242 32.397 27.6039C31.9173 28.0839 31.1364 28.0839 30.6564 27.6039L23.6947 20.6424C23.2143 20.1618 22.435 20.1618 21.9544 20.6424C21.4737 21.1228 21.4737 21.9021 21.9544 22.3827L28.9162 29.3445C29.3971 29.8255 29.3971 30.6038 28.9162 31.0851C28.4361 31.5648 27.6556 31.5648 27.1755 31.0851C26.5081 30.4173 25.6461 30.06 24.7704 30.0116C24.7213 29.1019 24.3439 28.2534 23.6947 27.6042C23.0272 26.9364 22.1652 26.5791 21.2895 26.5307C21.2404 25.621 20.863 24.7725 20.2138 24.1233C19.5457 23.4552 18.6831 23.0976 17.8067 23.0499C17.7586 22.1731 17.401 21.3105 16.7329 20.6424C15.2935 19.203 12.9511 19.203 11.5117 20.6424L8.03082 24.1233C7.73891 24.4152 7.50755 24.7443 7.33388 25.0952C4.75021 22.4747 5.33724 23.07 5.24752 22.979C5.24432 22.9758 5.24111 22.9726 5.23791 22.9694C1.67787 19.4091 1.52118 13.6832 4.88158 9.9338L5.87493 8.82541C9.17958 5.13848 14.4889 4.13424 18.8372 6.17093C18.617 6.36607 18.4017 6.56762 18.1925 6.77655C18.188 6.78135 11.4976 13.6951 11.4976 13.6951C11.0304 14.1776 11.0365 14.946 11.5117 15.4209C13.9502 17.8598 17.791 18.2254 20.6412 16.3252L26.145 12.6559C26.2049 12.7049 35.7216 22.226 35.8776 22.3827C36.7412 23.2466 35.8353 24.1509 35.8308 24.1656C35.3486 24.6011 34.6023 24.5879 34.1373 24.1233Z"></path></symbol><symbol id="cabinet-bell" viewBox="0 0 42 42" xmlns="http://www.w3.org/2000/svg"><path d="M34.6395 28.5109H34.5122V19.6945C34.5122 16.8261 33.6248 14.0858 31.9461 11.7713C31.6912 11.4199 31.2 11.3418 30.8485 11.5965L30.8484 11.5965C30.4971 11.8514 30.4188 12.3428 30.6737 12.6942C32.1566 14.7388 32.9403 17.1589 32.9403 19.6945V28.5109H9.05908V19.6945C9.05908 16.8377 10.0839 14.0736 11.9447 11.9114C13.7863 9.77136 16.3269 8.34864 19.0982 7.90499L19.0982 7.90498C19.4017 7.85636 19.649 7.63538 19.7312 7.33933L19.7312 7.33931C19.8135 7.04318 19.7156 6.72628 19.4806 6.52812C18.9484 6.07937 18.6435 5.4235 18.6435 4.72813C18.6435 3.42905 19.7006 2.37188 20.9997 2.37188C22.2988 2.37188 23.356 3.42905 23.356 4.72813C23.356 5.42342 23.051 6.07937 22.5188 6.52812L22.5188 6.52813C22.2839 6.72629 22.186 7.04318 22.2683 7.33931C22.3505 7.63548 22.5979 7.85647 22.9014 7.90499C25.2843 8.28607 27.4727 9.37165 29.2305 11.045L29.2305 11.0451C29.5449 11.3442 30.0423 11.3321 30.3417 11.0177C30.641 10.7033 30.6287 10.2058 30.3143 9.90647L30.1764 10.0513L30.3143 9.90647C28.6474 8.31966 26.6367 7.19922 24.4403 6.62411C24.7568 6.05044 24.9278 5.40014 24.9278 4.72805C24.9278 2.56196 23.1659 0.8 20.9997 0.8C18.8335 0.8 17.0716 2.56196 17.0716 4.72813C17.0716 5.40063 17.2428 6.05129 17.5597 6.6252C14.9287 7.31763 12.5473 8.80109 10.7532 10.886L10.9048 11.0165L10.7532 10.886C8.64707 13.3335 7.48721 16.4617 7.48721 19.6945V28.5109H7.35986C4.94249 28.5109 2.97627 30.4776 2.97627 32.8953C2.97627 34.0661 3.43257 35.1678 4.2604 35.9956C5.0882 36.8234 6.18954 37.2797 7.35986 37.2797H9.13877C9.57282 37.2797 9.92471 36.9278 9.92471 36.4938C9.92471 36.0597 9.57282 35.7078 9.13877 35.7078H7.35986C6.60872 35.7078 5.90333 35.4155 5.37182 34.8841C4.84036 34.3527 4.54814 33.647 4.54814 32.8953C4.54814 31.3446 5.80967 30.0828 7.35986 30.0828H34.6395C35.3907 30.0828 36.0961 30.3751 36.6276 30.9065C37.159 31.438 37.4513 32.1436 37.4513 32.8953C37.4513 34.446 36.1897 35.7078 34.6395 35.7078H11.4669C11.0328 35.7078 10.681 36.0597 10.681 36.4938C10.681 36.9278 11.0328 37.2797 11.4669 37.2797H15.1711C15.5973 38.3222 16.3064 39.2491 17.21 39.9316C18.3087 40.7612 19.6198 41.2 21 41.2C22.3798 41.2 23.6908 40.7612 24.7893 39.9315L24.6688 39.772L24.7893 39.9315C25.693 39.249 26.402 38.3221 26.8282 37.2797H34.6395C37.0569 37.2797 39.0231 35.313 39.0231 32.8953C39.0231 31.7245 38.5668 30.6228 37.739 29.7951C36.9112 28.9673 35.8099 28.5109 34.6395 28.5109ZM21 39.6281C19.307 39.6281 17.7527 38.7016 16.9191 37.2797H25.0801C24.2466 38.7016 22.6926 39.6281 21 39.6281Z"></path></symbol><symbol id="cabinet-megaphone" viewBox="0 0 42 42" xmlns="http://www.w3.org/2000/svg"><path d="M10.6641 15.2578C10.2113 15.2578 9.84375 15.6253 9.84375 16.0781C9.84375 16.5309 10.2113 16.8984 10.6641 16.8984C11.1169 16.8984 11.4844 16.5309 11.4844 16.0781C11.4844 15.6253 11.1169 15.2578 10.6641 15.2578Z"></path><path d="M12.774 32.4266L12.7088 32.5025L12.774 32.4266C12.3655 32.0757 12.1185 31.4216 12.1185 30.6161V25.3105H15.283C19.0612 25.6611 23.0295 27.2269 27.0846 29.9728C27.3219 31.1522 28.3062 32.0474 29.4907 32.0474C30.8541 32.0474 31.9519 30.8628 31.9519 29.4211V21.9405C33.7058 21.8841 35.1 20.3482 35.1 18.4737C35.1 16.6031 33.7027 15.0635 31.9519 15.0069V7.52632C31.9519 6.08178 30.8567 4.9 29.4907 4.9C28.1273 4.9 27.0296 6.08455 27.0296 7.52632V8.18554C23.3029 10.6112 19.0245 11.2959 15.2857 11.6368H7.2963C3.76928 11.6368 0.9 14.6875 0.9 18.4737C0.9 21.5719 2.87865 24.2753 5.62222 25.0713V33.6316C5.62222 35.5377 7.07299 37.1 8.87037 37.1H11.2315C12.3925 37.1 13.2286 36.3122 13.5482 35.3418C13.8678 34.3715 13.6773 33.2027 12.774 32.4266ZM7.2963 13.5211H14.437V23.4263H7.2963C7.07813 23.4263 6.85831 23.4097 6.6423 23.3768L6.64218 23.3767C4.38544 23.0356 2.67407 20.9317 2.67407 18.4737C2.67407 15.7351 4.7433 13.5211 7.2963 13.5211ZM11.2315 35.2158H8.87037C8.06392 35.2158 7.3963 34.5115 7.3963 33.6316V25.3105H10.3444V30.616C10.3444 31.9727 10.818 33.1699 11.6581 33.8916C11.9118 34.1096 11.9693 34.4403 11.8776 34.7209C11.786 35.0012 11.5514 35.2158 11.2315 35.2158ZM27.0296 10.3579V27.7227C23.3545 25.3961 19.7249 23.9848 16.2111 23.5208V13.439C19.653 13.084 23.4946 12.3809 27.0296 10.3579ZM30.1778 29.4211C30.1778 29.8366 29.8632 30.1632 29.4907 30.1632C29.1183 30.1632 28.8037 29.8366 28.8037 29.4211V7.52632C28.8037 7.11073 29.1183 6.78421 29.4907 6.78421C29.8637 6.78421 30.1778 7.11015 30.1778 7.52632V29.4211ZM31.9519 16.8931C32.7128 16.9484 33.3259 17.6304 33.3259 18.4737C33.3259 19.3185 32.714 19.9991 31.9519 20.0543V16.8931Z"></path><path d="M41.1797 16.8984H37.8984C37.4455 16.8984 37.0781 17.2658 37.0781 17.7188C37.0781 18.1717 37.4455 18.5391 37.8984 18.5391H41.1797C41.6327 18.5391 42 18.1717 42 17.7188C42 17.2658 41.6327 16.8984 41.1797 16.8984Z"></path><path d="M39.253 7.46486C39.0266 7.07267 38.5248 6.93806 38.1325 7.16463L35.2909 8.80525C34.8986 9.03182 34.7641 9.53345 34.9907 9.9258C35.218 10.3194 35.72 10.452 36.1112 10.226L38.9528 8.58541C39.3452 8.35884 39.4795 7.85722 39.253 7.46486Z"></path><path d="M38.9528 26.8521L36.1112 25.2114C35.7188 24.9849 35.2173 25.1194 34.9907 25.5117C34.7641 25.904 34.8986 26.4056 35.2909 26.6322L38.1325 28.2728C38.2617 28.3474 38.4027 28.3829 38.5418 28.3829C38.8253 28.3829 39.101 28.2358 39.253 27.9726C39.4796 27.5802 39.3451 27.0786 38.9528 26.8521Z"></path><path d="M7.38281 15.2578H6.5625C4.75322 15.2578 3.28125 16.7298 3.28125 18.5391C3.28125 18.992 3.64859 19.3594 4.10156 19.3594C4.55454 19.3594 4.92188 18.992 4.92188 18.5391C4.92188 17.6344 5.65786 16.8984 6.5625 16.8984H7.38281C7.83579 16.8984 8.20312 16.5311 8.20312 16.0781C8.20312 15.6251 7.83579 15.2578 7.38281 15.2578Z"></path></symbol><symbol id="avatar_2" viewBox="0 0 42 43" fill="none" xmlns="http://www.w3.org/2000/svg"><path d="M34.6395 29.0109H34.5122V20.1945C34.5122 17.3261 33.6248 14.5858 31.9461 12.2713C31.6912 11.9199 31.2 11.8418 30.8485 12.0965L30.8484 12.0965C30.4971 12.3514 30.4188 12.8428 30.6737 13.1942C32.1566 15.2388 32.9403 17.6589 32.9403 20.1945V29.0109H9.05908V20.1945C9.05908 17.3377 10.0839 14.5736 11.9447 12.4114C13.7863 10.2714 16.3269 8.84864 19.0982 8.40499L19.0982 8.40498C19.4017 8.35636 19.649 8.13538 19.7312 7.83933L19.7312 7.83931C19.8135 7.54318 19.7156 7.22628 19.4806 7.02812C18.9484 6.57937 18.6435 5.9235 18.6435 5.22813C18.6435 3.92905 19.7006 2.87188 20.9997 2.87188C22.2988 2.87188 23.356 3.92905 23.356 5.22813C23.356 5.92342 23.051 6.57937 22.5188 7.02812L22.5188 7.02813C22.2839 7.22629 22.186 7.54318 22.2683 7.83931C22.3505 8.13548 22.5979 8.35647 22.9014 8.40499C25.2843 8.78607 27.4727 9.87165 29.2305 11.545L29.2305 11.5451C29.5449 11.8442 30.0423 11.8321 30.3417 11.5177C30.641 11.2033 30.6287 10.7058 30.3143 10.4065L30.1764 10.5513L30.3143 10.4065C28.6474 8.81966 26.6367 7.69922 24.4403 7.12411C24.7568 6.55044 24.9278 5.90014 24.9278 5.22805C24.9278 3.06196 23.1659 1.3 20.9997 1.3C18.8335 1.3 17.0716 3.06196 17.0716 5.22813C17.0716 5.90063 17.2428 6.55129 17.5597 7.1252C14.9287 7.81763 12.5473 9.30109 10.7532 11.386L10.9048 11.5165L10.7532 11.386C8.64707 13.8335 7.48721 16.9617 7.48721 20.1945V29.0109H7.35986C4.94249 29.0109 2.97627 30.9776 2.97627 33.3953C2.97627 34.5661 3.43257 35.6678 4.2604 36.4956C5.0882 37.3234 6.18954 37.7797 7.35986 37.7797H9.13877C9.57282 37.7797 9.92471 37.4278 9.92471 36.9938C9.92471 36.5597 9.57282 36.2078 9.13877 36.2078H7.35986C6.60872 36.2078 5.90333 35.9155 5.37182 35.3841C4.84036 34.8527 4.54814 34.147 4.54814 33.3953C4.54814 31.8446 5.80967 30.5828 7.35986 30.5828H34.6395C35.3907 30.5828 36.0961 30.8751 36.6276 31.4065C37.159 31.938 37.4513 32.6436 37.4513 33.3953C37.4513 34.946 36.1897 36.2078 34.6395 36.2078H11.4669C11.0328 36.2078 10.681 36.5597 10.681 36.9938C10.681 37.4278 11.0328 37.7797 11.4669 37.7797H15.1711C15.5973 38.8222 16.3064 39.7491 17.21 40.4316C18.3087 41.2612 19.6198 41.7 21 41.7C22.3798 41.7 23.6908 41.2612 24.7893 40.4315L24.6688 40.272L24.7893 40.4315C25.693 39.749 26.402 38.8221 26.8282 37.7797H34.6395C37.0569 37.7797 39.0231 35.813 39.0231 33.3953C39.0231 32.2245 38.5668 31.1228 37.739 30.2951C36.9112 29.4673 35.8099 29.0109 34.6395 29.0109ZM21 40.1281C19.307 40.1281 17.7527 39.2016 16.9191 37.7797H25.0801C24.2466 39.2016 22.6926 40.1281 21 40.1281Z" fill="#2C2C2C" stroke="#2C2C2C" stroke-width="0.4"></path></symbol><symbol id="avatar_1" viewBox="0 0 42 43" fill="none" xmlns="http://www.w3.org/2000/svg"><g clip-path="url(#clip0_6180_6172)"><path d="M20.8478 23.1308C20.8913 23.1308 20.9348 23.1308 20.987 23.1308C21.0044 23.1308 21.0218 23.1308 21.0392 23.1308C21.0653 23.1308 21.1 23.1308 21.1261 23.1308C23.6745 23.0873 25.7358 22.1914 27.2578 20.4781C30.6064 16.7034 30.0497 10.2325 29.9888 9.61493C29.7714 4.97919 27.5796 2.76134 25.7706 1.72634C24.4225 0.952268 22.8482 0.53479 21.0913 0.5H21.0305C21.0218 0.5 21.0044 0.5 20.9957 0.5H20.9435C19.9781 0.5 18.082 0.656554 16.2643 1.69155C14.4378 2.72655 12.2113 4.9444 11.9938 9.61493C11.9329 10.2325 11.3763 16.7034 14.7248 20.4781C16.2382 22.1914 18.2995 23.0873 20.8478 23.1308ZM14.316 9.83237C14.316 9.80628 14.3247 9.78018 14.3247 9.76279C14.6117 3.52671 19.0388 2.85701 20.9348 2.85701H20.9696C20.987 2.85701 21.0131 2.85701 21.0392 2.85701C23.3875 2.90919 27.3796 3.86591 27.6492 9.76279C27.6492 9.78888 27.6492 9.81497 27.6579 9.83237C27.6666 9.89325 28.2754 15.8075 25.5097 18.9212C24.4138 20.1562 22.9526 20.7651 21.0305 20.7825C21.0131 20.7825 21.0044 20.7825 20.987 20.7825C20.9696 20.7825 20.9609 20.7825 20.9435 20.7825C19.0301 20.7651 17.5602 20.1562 16.473 18.9212C13.7159 15.8249 14.3073 9.88455 14.316 9.83237Z" fill="#2C2C2C"></path><path d="M38.8603 33.8634C38.8603 33.8547 38.8603 33.846 38.8603 33.8373C38.8603 33.7677 38.8516 33.6982 38.8516 33.6199C38.7994 31.8978 38.6863 27.8709 34.9116 26.5836C34.8855 26.5749 34.8507 26.5662 34.8246 26.5575C30.9021 25.5573 27.6405 23.296 27.6058 23.2699C27.0752 22.8959 26.3446 23.0264 25.9706 23.5569C25.5966 24.0875 25.7271 24.8181 26.2576 25.192C26.4055 25.2964 29.8671 27.7056 34.1984 28.8189C36.2249 29.5408 36.4511 31.7064 36.5119 33.6895C36.5119 33.7677 36.5119 33.8373 36.5206 33.9069C36.5293 34.6897 36.4772 35.8986 36.338 36.5944C34.929 37.3946 29.4061 40.1604 21.0044 40.1604C12.6374 40.1604 7.07976 37.3859 5.66208 36.5857C5.52292 35.8899 5.46204 34.681 5.47943 33.8982C5.47943 33.8286 5.48813 33.759 5.48813 33.6808C5.54901 31.6977 5.77515 29.5321 7.80165 28.8102C12.133 27.6969 15.5946 25.279 15.7424 25.1833C16.273 24.8094 16.4034 24.0788 16.0294 23.5482C15.6555 23.0177 14.9249 22.8872 14.3943 23.2612C14.3595 23.2873 11.1154 25.5486 7.17544 26.5488C7.14065 26.5575 7.11455 26.5662 7.08846 26.5749C3.31377 27.8709 3.2007 31.8978 3.14852 33.6112C3.14852 33.6895 3.14852 33.759 3.13982 33.8286C3.13982 33.8373 3.13982 33.846 3.13982 33.8547C3.13112 34.307 3.12242 36.6292 3.58339 37.7947C3.67036 38.0208 3.82692 38.2121 4.03566 38.3426C4.29658 38.5165 10.55 42.5 21.0131 42.5C31.4761 42.5 37.7296 38.5078 37.9905 38.3426C38.1906 38.2121 38.3558 38.0208 38.4428 37.7947C38.8777 36.6379 38.869 34.3157 38.8603 33.8634Z" fill="#2C2C2C"></path></g><defs><clipPath id="clip0_6180_6172"><rect width="42" height="42" fill="white" transform="translate(0 0.5)"></rect></clipPath></defs></symbol><symbol id="cabinet-star" viewBox="0 0 42 42" xmlns="http://www.w3.org/2000/svg"><path d="M25.1836 35.6523L21.6689 33.7921C21.3606 33.6289 20.9924 33.6289 20.684 33.7921L9.53452 39.6934L11.6639 27.1944C11.7228 26.8487 11.6091 26.4961 11.3596 26.2512L2.33939 17.3993L14.805 15.5758C15.1498 15.5253 15.4477 15.3074 15.6017 14.9929L17.2967 11.5353C17.442 11.239 17.3212 10.8802 17.0268 10.7339C16.7323 10.5876 16.376 10.7094 16.2308 11.0057L14.5661 14.4014L1.90693 16.2533C1.50537 16.312 1.17798 16.5898 1.05258 16.9784C0.92719 17.3669 1.02981 17.7854 1.3204 18.0705L10.4807 27.06L8.31826 39.7535C8.24969 40.156 8.41094 40.5553 8.73929 40.7954C8.92482 40.9312 9.14179 41 9.36026 41C9.52845 41 9.69751 40.9591 9.85372 40.8765L21.1765 34.8835L24.6304 36.7116C24.921 36.8652 25.2803 36.7529 25.4331 36.4604C25.5858 36.1679 25.4741 35.8062 25.1836 35.6523Z"></path><path d="M40.9464 16.818C40.8187 16.4268 40.4851 16.1472 40.0761 16.0881L27.1793 14.2238L21.4117 2.59788C21.2287 2.22909 20.8583 2 20.4449 2C20.0314 2 19.661 2.22909 19.478 2.59788L17.0627 7.46671C16.9147 7.76505 17.0378 8.12626 17.3377 8.27347C17.6375 8.42052 18.0006 8.29807 18.1486 7.99989L20.4449 3.37117L26.1242 14.8191C26.2812 15.1358 26.5847 15.3551 26.936 15.406L39.6355 17.2418L30.446 26.1528C30.1918 26.3993 30.0759 26.7542 30.136 27.1021L32.3053 39.6847L27.9135 37.3878C27.6176 37.2332 27.2514 37.3463 27.0958 37.6407C26.9402 37.9352 27.0541 38.2994 27.35 38.4542L31.9801 40.8757C32.1393 40.9589 32.3115 41 32.4829 41C32.7054 41 32.9266 40.9306 33.1155 40.7941C33.4499 40.5524 33.6143 40.1504 33.5444 39.7451L31.3414 26.9669L40.6736 17.9174C40.9696 17.6304 41.0742 17.2091 40.9464 16.818Z"></path><path d="M25.1836 35.6523L21.6689 33.7921C21.3606 33.6289 20.9924 33.6289 20.684 33.7921L9.53452 39.6934L11.6639 27.1944C11.7228 26.8487 11.6091 26.4961 11.3596 26.2512L2.33939 17.3993L14.805 15.5758C15.1498 15.5253 15.4477 15.3074 15.6017 14.9929L17.2967 11.5353C17.442 11.239 17.3212 10.8802 17.0268 10.7339C16.7323 10.5876 16.376 10.7094 16.2308 11.0057L14.5661 14.4014L1.90693 16.2533C1.50537 16.312 1.17798 16.5898 1.05258 16.9784C0.92719 17.3669 1.02981 17.7854 1.3204 18.0705L10.4807 27.06L8.31826 39.7535C8.24969 40.156 8.41094 40.5553 8.73929 40.7954C8.92482 40.9312 9.14179 41 9.36026 41C9.52845 41 9.69751 40.9591 9.85372 40.8765L21.1765 34.8835L24.6304 36.7116C24.921 36.8652 25.2803 36.7529 25.4331 36.4604C25.5858 36.1679 25.4741 35.8062 25.1836 35.6523Z"></path><path d="M40.9464 16.818C40.8187 16.4268 40.4851 16.1472 40.0761 16.0881L27.1793 14.2238L21.4117 2.59788C21.2287 2.22909 20.8583 2 20.4449 2C20.0314 2 19.661 2.22909 19.478 2.59788L17.0627 7.46671C16.9147 7.76505 17.0378 8.12626 17.3377 8.27347C17.6375 8.42052 18.0006 8.29807 18.1486 7.99989L20.4449 3.37117L26.1242 14.8191C26.2812 15.1358 26.5847 15.3551 26.936 15.406L39.6355 17.2418L30.446 26.1528C30.1918 26.3993 30.0759 26.7542 30.136 27.1021L32.3053 39.6847L27.9135 37.3878C27.6176 37.2332 27.2514 37.3463 27.0958 37.6407C26.9402 37.9352 27.0541 38.2994 27.35 38.4542L31.9801 40.8757C32.1393 40.9589 32.3115 41 32.4829 41C32.7054 41 32.9266 40.9306 33.1155 40.7941C33.4499 40.5524 33.6143 40.1504 33.5444 39.7451L31.3414 26.9669L40.6736 17.9174C40.9696 17.6304 41.0742 17.2091 40.9464 16.818Z"></path></symbol><symbol id="cabinet-profile" viewBox="0 0 42 42" xmlns="http://www.w3.org/2000/svg"><path d="M20.8478 22.6308C20.8913 22.6308 20.9348 22.6308 20.9869 22.6308C21.0043 22.6308 21.0217 22.6308 21.0391 22.6308C21.0652 22.6308 21.1 22.6308 21.1261 22.6308C23.6745 22.5873 25.7358 21.6914 27.2578 19.9781C30.6063 16.2034 30.0497 9.73245 29.9888 9.11493C29.7714 4.47919 27.5796 2.26134 25.7705 1.22634C24.4224 0.452268 22.8482 0.0347898 21.0913 0H21.0304C21.0217 0 21.0043 0 20.9956 0H20.9435C19.978 0 18.082 0.156554 16.2642 1.19155C14.4378 2.22655 12.2112 4.4444 11.9938 9.11493C11.9329 9.73245 11.3763 16.2034 14.7248 19.9781C16.2381 21.6914 18.2994 22.5873 20.8478 22.6308ZM14.316 9.33237C14.316 9.30628 14.3247 9.28018 14.3247 9.26279C14.6117 3.02671 19.0387 2.35701 20.9348 2.35701H20.9696C20.987 2.35701 21.013 2.35701 21.0391 2.35701C23.3874 2.40919 27.3796 3.36591 27.6492 9.26279C27.6492 9.28888 27.6492 9.31497 27.6579 9.33237C27.6666 9.39325 28.2754 15.3075 25.5096 18.4212C24.4137 19.6562 22.9526 20.2651 21.0304 20.2825C21.013 20.2825 21.0043 20.2825 20.9869 20.2825C20.9696 20.2825 20.9609 20.2825 20.9435 20.2825C19.03 20.2651 17.5602 19.6562 16.473 18.4212C13.7159 15.3249 14.3073 9.38455 14.316 9.33237Z"></path><path d="M38.8603 33.3634C38.8603 33.3547 38.8603 33.346 38.8603 33.3373C38.8603 33.2677 38.8516 33.1982 38.8516 33.1199C38.7994 31.3978 38.6863 27.3709 34.9116 26.0836C34.8855 26.0749 34.8507 26.0662 34.8246 26.0575C30.9021 25.0573 27.6405 22.796 27.6058 22.7699C27.0752 22.3959 26.3446 22.5264 25.9706 23.0569C25.5966 23.5875 25.7271 24.3181 26.2576 24.692C26.4055 24.7964 29.8671 27.2056 34.1984 28.3189C36.2249 29.0408 36.4511 31.2064 36.5119 33.1895C36.5119 33.2677 36.5119 33.3373 36.5206 33.4069C36.5293 34.1897 36.4772 35.3986 36.338 36.0944C34.929 36.8946 29.4061 39.6604 21.0044 39.6604C12.6374 39.6604 7.07976 36.8859 5.66208 36.0857C5.52292 35.3899 5.46204 34.181 5.47943 33.3982C5.47943 33.3286 5.48813 33.259 5.48813 33.1808C5.54901 31.1977 5.77515 29.0321 7.80165 28.3102C12.133 27.1969 15.5946 24.779 15.7424 24.6833C16.273 24.3094 16.4034 23.5788 16.0294 23.0482C15.6555 22.5177 14.9249 22.3872 14.3943 22.7612C14.3595 22.7873 11.1154 25.0486 7.17544 26.0488C7.14065 26.0575 7.11455 26.0662 7.08846 26.0749C3.31377 27.3709 3.2007 31.3978 3.14852 33.1112C3.14852 33.1895 3.14852 33.259 3.13982 33.3286C3.13982 33.3373 3.13982 33.346 3.13982 33.3547C3.13112 33.807 3.12242 36.1292 3.58339 37.2947C3.67036 37.5208 3.82692 37.7121 4.03566 37.8426C4.29658 38.0165 10.55 42 21.0131 42C31.4761 42 37.7296 38.0078 37.9905 37.8426C38.1906 37.7121 38.3558 37.5208 38.4428 37.2947C38.8777 36.1379 38.869 33.8157 38.8603 33.3634Z"></path></symbol><symbol id="category-consulting" viewBox="0 0 45 42" xmlns="http://www.w3.org/2000/svg"><path d="M26.2987 20.1775C26.2987 21.1351 26.927 21.9485 27.7934 22.2297C28.0908 24.9342 30.3929 27.0456 33.1805 27.0456C35.9681 27.0456 38.2701 24.9343 38.5677 22.2299C39.4352 21.949 40.0644 21.1353 40.0644 20.1775C40.0644 19.148 39.3377 18.2852 38.3693 18.0713L34.2417 9.31914C35.5385 9.1032 36.7336 8.49408 37.6818 7.54801C37.9553 7.27513 37.9558 6.83221 37.6829 6.55877C37.4101 6.28527 36.9671 6.28485 36.6937 6.55765C35.7555 7.49372 34.5078 8.00926 33.1805 8.00926C32.2226 8.00926 28.2924 7.26912 25.7714 6.406C25.7193 5.51729 25.348 4.68908 24.7122 4.05527C24.0293 3.37451 23.1246 3 22.1636 3C22.1606 3 22.1575 3 22.1545 3C20.2286 3.00476 18.6495 4.5147 18.5406 6.40684C16.0194 7.26954 12.09 8.00926 11.1318 8.00926C9.80578 8.00926 8.55885 7.49372 7.62068 6.55765C7.34724 6.28485 6.90432 6.28527 6.63145 6.55877C6.35857 6.83221 6.35906 7.27513 6.63257 7.54801C7.5806 8.49394 8.77499 9.10299 10.0707 9.319L5.94307 18.0714C4.9758 18.2855 4.25 19.1482 4.25 20.1775C4.25 21.1351 4.87829 21.9485 5.74469 22.2297C6.04212 24.9342 8.34417 27.0456 11.1318 27.0456C13.9205 27.0456 16.2234 24.9341 16.521 22.2297C17.3874 21.9486 18.0157 21.1351 18.0157 20.1775C18.0157 19.1482 17.2899 18.2854 16.3225 18.0713L12.1915 9.31536C13.8657 9.09103 16.6877 8.48806 18.7401 7.81522C18.9819 8.49856 19.4235 9.08851 19.9954 9.51402V29.997H13.3605C12.063 29.997 11.0074 31.0519 11.0074 32.3485V33.299H9.54759C8.25009 33.299 7.1944 34.3529 7.1944 35.6484V37.3004C7.1944 37.6867 7.50757 37.9999 7.8939 37.9999H19.0154C19.4017 37.9999 19.7149 37.6867 19.7149 37.3004C19.7149 36.914 19.4017 36.6009 19.0154 36.6009H8.59347V35.6484C8.59347 35.1244 9.0215 34.698 9.54766 34.698H34.7648C35.2909 34.698 35.719 35.1244 35.719 35.6484V36.6009H25.297C24.9106 36.6009 24.5975 36.914 24.5975 37.3004C24.5975 37.6867 24.9106 37.9999 25.297 37.9999H36.4184C36.8048 37.9999 37.1179 37.6867 37.1179 37.3004V35.6484C37.1179 34.3529 36.0623 33.299 34.7648 33.299H33.307V32.3485C33.307 31.0519 32.2514 29.997 30.9539 29.997H24.317V9.51843C24.4609 9.41154 24.5979 9.29326 24.7267 9.16406C25.1133 8.77661 25.4004 8.3169 25.5762 7.81577C27.6281 8.48834 30.448 9.09096 32.1211 9.31522L27.9917 18.0714C27.0244 18.2855 26.2987 19.1482 26.2987 20.1775ZM33.1805 25.6466C31.2023 25.6466 29.5544 24.2142 29.2215 22.335H37.1396C36.8067 24.2142 35.1587 25.6466 33.1805 25.6466ZM37.9016 20.936H28.4595C28.0395 20.936 27.6977 20.5957 27.6977 20.1775C27.6977 19.7592 28.0395 19.4189 28.4595 19.4189H37.8996C37.9005 19.4189 37.9012 19.419 37.9021 19.419C37.9026 19.419 37.903 19.4189 37.9035 19.4189C38.3237 19.42 38.6655 19.7597 38.6655 20.1774C38.6654 20.5958 38.3228 20.936 37.9016 20.936ZM29.5628 18.0199L33.1805 10.3487L36.7983 18.0199H29.5628ZM22.158 4.399H22.1636C22.7516 4.399 23.3058 4.62871 23.7245 5.04611C24.1453 5.4656 24.3779 6.02366 24.3794 6.61732C24.3808 7.20532 24.1524 7.75891 23.7363 8.17609C23.3155 8.59796 22.7543 8.83033 22.1562 8.83033C20.9304 8.83033 19.9331 7.83683 19.9331 6.61564C19.9331 5.39642 20.9311 4.40201 22.158 4.399ZM11.1318 25.6466C9.15363 25.6466 7.50568 24.2142 7.17279 22.335H15.0928C14.7598 24.2142 13.111 25.6466 11.1318 25.6466ZM15.8548 20.936H6.41082C5.99077 20.936 5.649 20.5958 5.649 20.1775C5.649 19.7592 5.99077 19.4189 6.41082 19.4189H15.8529C15.8537 19.4189 15.8545 19.419 15.8553 19.419C15.8558 19.419 15.8562 19.4189 15.8567 19.4189C16.2759 19.42 16.6167 19.7597 16.6167 20.1774C16.6167 20.5958 16.275 20.936 15.8548 20.936ZM7.51408 18.0199L11.132 10.3484L14.7514 18.0199H7.51408ZM31.908 32.3485V33.299H12.4064V32.3485C12.4064 31.8233 12.8344 31.396 13.3605 31.396H30.9539C31.48 31.396 31.908 31.8233 31.908 32.3485ZM22.918 29.997H21.3944V10.1482C21.6402 10.2009 21.8949 10.2293 22.1562 10.2293C22.4155 10.2293 22.6704 10.2016 22.918 10.1491V29.997Z"></path><path d="M22.1563 36.6005C21.77 36.6005 21.4568 36.9137 21.4568 37.3C21.4568 37.6864 21.77 37.9995 22.1563 37.9995H22.1603C22.5466 37.9995 22.8578 37.6864 22.8578 37.3C22.8578 36.9137 22.5426 36.6005 22.1563 36.6005Z"></path></symbol><symbol id="category-franchise" viewBox="0 0 45 42" xmlns="http://www.w3.org/2000/svg"><path d="M8.33796 24.0269C8.69385 24.0269 8.9824 23.7377 8.9824 23.3809C8.97344 19.3272 10.808 15.4904 13.9659 12.9584C14.2357 12.7642 14.2974 12.3875 14.1037 12.117C14.0878 12.0948 14.0705 12.0738 14.0518 12.054C13.8254 11.7824 13.4231 11.744 13.1497 11.9679C9.70027 14.7472 7.69377 18.9444 7.6936 23.3809C7.69352 23.7377 7.98207 24.0269 8.33796 24.0269Z"></path><path d="M26.5532 36.0431C23.8042 36.9471 20.839 36.9471 18.0899 36.0431C17.7513 35.9332 17.388 36.1192 17.2783 36.4586C17.2767 36.4637 17.2751 36.4687 17.2736 36.4737C17.1859 36.8166 17.3716 37.1704 17.7032 37.292C19.1878 37.7759 20.739 38.0229 22.3 38.0242C23.8928 38.0258 25.475 37.7639 26.9828 37.249C27.299 37.0853 27.423 36.6955 27.2597 36.3786C27.1265 36.12 26.8372 35.9826 26.5532 36.0431Z"></path><path d="M35.618 23.3812C35.618 23.738 35.9066 24.0272 36.2625 24.0272C36.6183 24.0272 36.9069 23.738 36.9069 23.3812C36.895 18.6227 34.5908 14.1632 30.7205 11.4083C30.42 11.2264 30.031 11.3007 29.8183 11.5806C29.6158 11.8741 29.6891 12.2764 29.9819 12.4794C29.9846 12.4813 29.9874 12.4832 29.9902 12.4851C33.5129 14.9914 35.6095 19.0507 35.618 23.3812Z"></path><path d="M25.737 7.79006V7.01485H24.4482V7.79006C24.4482 8.14684 24.7368 8.4361 25.0927 8.4361C25.4485 8.4361 25.737 8.14692 25.737 7.79006Z"></path><path d="M20.1521 7.79006V7.01485H18.8633V7.79006C18.8633 8.14684 19.1518 8.4361 19.5077 8.4361C19.8635 8.4361 20.1521 8.14692 20.1521 7.79006Z"></path><path d="M23.1591 7.79006V7.01485H21.4407V7.79006C21.4407 8.17767 21.9562 8.47913 22.2999 8.47913C22.6436 8.47913 23.1591 8.17767 23.1591 7.79006Z"></path><path d="M27.0259 5.72272V4.17229C27.0259 4 26.854 4 26.6392 4H17.9611C17.7892 4 17.5745 4 17.5745 4.17229V5.72272H18.3908H27.0259Z"></path><path d="M17.3167 7.91932C17.4885 7.91932 17.5745 7.79014 17.5745 7.57474V7.01485H17.1449V7.57474C17.1236 7.68323 17.1556 7.79534 17.2308 7.87621C17.2737 7.87621 17.2308 7.87621 17.2737 7.91924H17.3167V7.91932Z"></path><path d="M27.4554 7.01485H27.0259V7.66089C26.9991 7.77671 27.071 7.89245 27.1866 7.91932C27.2185 7.92674 27.2518 7.92674 27.2837 7.91932H27.3266C27.3266 7.91932 27.2837 7.87629 27.3266 7.87629C27.4175 7.80408 27.466 7.69065 27.4554 7.57483V7.01485Z"></path><path d="M26.6392 15.1979C26.854 15.1979 27.0259 15.1979 27.0259 15.0256V9.21138C26.814 9.20619 26.607 9.14684 26.4244 9.03909C26.0559 9.49413 25.5053 9.76221 24.9208 9.77128C24.4422 9.76493 23.9829 9.58077 23.632 9.2545C23.2636 9.58028 22.7913 9.76353 22.3002 9.77128C21.8216 9.76493 21.3623 9.58077 21.0114 9.2545C20.643 9.58028 20.1707 9.76353 19.6796 9.77128C19.0845 9.76452 18.5275 9.47732 18.1759 8.99606C18.004 9.12524 18.004 9.16835 17.5745 9.21138V15.0256C17.5745 15.1979 17.7892 15.1979 17.9611 15.1979H19.2929V11.8816C19.2929 11.537 19.4218 11.3217 19.7655 11.3217H24.8778C25.2216 11.3217 25.3074 11.537 25.3074 11.8816V15.1979H26.6392Z"></path><path d="M24.0184 12.6133H20.5815V15.1973H24.0184V12.6133Z"></path><path d="M12.2043 31.7353C12.567 31.7126 12.8494 31.4106 12.8487 31.0463V30.271H11.5598V31.0463C11.5591 31.4106 11.8415 31.7126 12.2043 31.7353Z"></path><path d="M9.41172 31.7353C9.75544 31.7353 10.2709 31.4339 10.2709 31.0463V30.271H8.55249V31.0463C8.55249 31.4339 9.06807 31.7353 9.41172 31.7353Z"></path><path d="M14.1375 28.9789V27.4285C14.1375 27.2562 13.9656 27.2562 13.7509 27.2562H5.07268C4.90082 27.2562 4.68604 27.2562 4.68604 27.4285V28.9789H5.50234H14.1375Z"></path><path d="M12.0323 33.0285C11.5537 33.0222 11.0945 32.838 10.7435 32.5117C10.3751 32.8375 9.90289 33.0208 9.41173 33.0285C8.93315 33.0222 8.47389 32.838 8.12293 32.5117C7.75454 32.8375 7.28229 33.0208 6.79113 33.0285C6.19611 33.0218 5.63908 32.7345 5.28747 32.2533C5.11561 32.3825 5.11561 32.4256 4.68604 32.4686V38.2828C4.68604 38.4551 4.90082 38.4551 5.07268 38.4551H6.40448V35.1388C6.40448 34.7943 6.53334 34.5789 6.87706 34.5789H11.9894C12.3331 34.5789 12.419 34.7943 12.419 35.1388V38.4551H13.7508C13.9656 38.4551 14.1374 38.4551 14.1374 38.2828V32.4686C13.9256 32.4634 13.7185 32.4041 13.536 32.2963C13.1674 32.7514 12.6169 33.0194 12.0323 33.0285Z"></path><path d="M6.61929 31.7353C6.98201 31.7126 7.26439 31.4106 7.26373 31.0463V30.271H5.97485V31.0463C5.9742 31.4106 6.25658 31.7126 6.61929 31.7353Z"></path><path d="M11.1305 35.8705H7.6936V38.4546H11.1305V35.8705Z"></path><path d="M14.5668 30.271H14.1372V30.9171C14.1104 31.0329 14.1823 31.1486 14.298 31.1755C14.3299 31.1829 14.3631 31.1829 14.395 31.1755H14.4379C14.4379 31.1755 14.395 31.1325 14.4379 31.1325C14.5289 31.0603 14.5774 30.9468 14.5668 30.831V30.271Z"></path><path d="M4.68604 30.271H4.25647V30.8309C4.23517 30.9394 4.26716 31.0515 4.3424 31.1324H4.42833C4.60019 31.1324 4.68612 31.0032 4.68612 30.7878V30.271H4.68604Z"></path><path d="M35.1886 31.7353C35.5323 31.7353 36.0478 31.4339 36.0478 31.0463V30.271H34.3293V31.0463C34.3293 31.4339 34.8448 31.7353 35.1886 31.7353Z"></path><path d="M32.3961 31.7353C32.7588 31.7126 33.0412 31.4106 33.0405 31.0463V30.271H31.7517V31.0463C31.7509 31.4106 32.0333 31.7126 32.3961 31.7353Z"></path><path d="M37.8089 33.0285C37.3304 33.0222 36.8711 32.838 36.5201 32.5117C36.1517 32.8375 35.6795 33.0208 35.1883 33.0285C34.7098 33.0222 34.2505 32.838 33.8995 32.5117C33.5312 32.8375 33.0589 33.0208 32.5677 33.0285C31.9727 33.0218 31.4157 32.7345 31.0641 32.2533C30.8922 32.3825 30.8922 32.4256 30.4626 32.4686V38.2828C30.4626 38.4551 30.6774 38.4551 30.8493 38.4551H32.1811V35.1388C32.1811 34.7943 32.3099 34.5789 32.6537 34.5789H37.766C38.1097 34.5789 38.1956 34.7943 38.1956 35.1388V38.4551H39.5274C39.7422 38.4551 39.914 38.4551 39.914 38.2828V32.4686C39.7022 32.4634 39.4952 32.4041 39.3126 32.2963C38.944 32.7514 38.3935 33.0194 37.8089 33.0285Z"></path><path d="M30.0331 30.271V30.8309C30.0118 30.9394 30.0438 31.0515 30.119 31.1324H30.2049C30.3768 31.1324 30.4627 31.0032 30.4627 30.7878V30.271H30.0331Z"></path><path d="M30.4626 27.4285V28.9789H39.9141V27.4285C39.9141 27.2562 39.7423 27.2562 39.5275 27.2562H30.8493C30.6775 27.2562 30.4626 27.2562 30.4626 27.4285Z"></path><path d="M37.981 31.7353C38.3437 31.7126 38.6261 31.4106 38.6255 31.0463V30.271H37.3367V31.0463C37.3359 31.4106 37.6182 31.7126 37.981 31.7353Z"></path><path d="M36.9069 35.8705H33.47V38.4546H36.9069V35.8705Z"></path><path d="M40.3436 30.8309V30.271H39.9141V30.9171C39.8872 31.0329 39.9592 31.1486 40.0748 31.1755C40.1067 31.1829 40.1399 31.1829 40.1718 31.1755H40.2148C40.2148 31.1755 40.1718 31.1325 40.2148 31.1325C40.3057 31.0602 40.3541 30.9468 40.3436 30.8309Z"></path></symbol><symbol id="close" viewBox="0 0 16 17" xmlns="http://www.w3.org/2000/svg"><path d="M0.823234 16.4717C0.612474 16.4717 0.401715 16.3916 0.241586 16.2302C-0.0798776 15.9088 -0.0798776 15.3876 0.241586 15.0661L14.5949 0.712777C14.9164 0.391314 15.4376 0.391314 15.759 0.712777C16.0805 1.03424 16.0805 1.55541 15.759 1.87708L1.40589 16.2302C1.24455 16.3905 1.03379 16.4717 0.823234 16.4717Z"></path><path d="M15.1776 16.4717C14.9668 16.4717 14.7563 16.3916 14.5959 16.2302L0.241586 1.87708C-0.0798776 1.55541 -0.0798776 1.03424 0.241586 0.712777C0.563049 0.391314 1.08422 0.391314 1.40589 0.712777L15.759 15.0661C16.0805 15.3876 16.0805 15.9088 15.759 16.2302C15.5977 16.3905 15.3871 16.4717 15.1776 16.4717Z"></path></symbol><symbol id="category-business" viewBox="0 0 45 42" xmlns="http://www.w3.org/2000/svg"><path d="M39.1136 22.1316C38.6227 22.1316 38.2955 22.4579 38.2955 22.9473V33.5526C38.2955 34.0421 37.9682 34.3684 37.4773 34.3684H8.0227C7.53178 34.3684 7.20454 34.042 7.20454 33.5526V22.9473C7.20454 22.4578 6.87724 22.1316 6.38639 22.1316C5.89553 22.1316 5.56823 22.4579 5.56823 22.9473V33.5526C5.56823 34.9395 6.63185 36 8.02277 36H37.4773C38.8682 36 39.9318 34.9395 39.9318 33.5526V22.9473C39.9318 22.4578 39.6045 22.1316 39.1136 22.1316Z"></path><path d="M38.2955 10.7104H7.20454C5.81362 10.7104 4.75 11.7709 4.75 13.1578V18.3789C4.75 19.5209 5.56816 20.4999 6.63184 20.7446L19.4773 23.5999V26.2104C19.4773 26.6999 19.8046 27.0262 20.2955 27.0262H25.2045C25.6955 27.0262 26.0227 26.6998 26.0227 26.2104V23.5999L38.8682 20.7446C39.9318 20.4999 40.75 19.5209 40.75 18.3788V13.1577C40.75 11.7709 39.6864 10.7104 38.2955 10.7104ZM24.3864 25.3946H21.1137V22.1315H24.3864V25.3946ZM39.1136 18.3788C39.1136 18.7867 38.8682 19.113 38.4591 19.1946L26.0227 21.9683V21.3157C26.0227 20.8262 25.6954 20.4999 25.2045 20.4999H20.2955C19.8045 20.4999 19.4773 20.8263 19.4773 21.3157V21.9683L7.04092 19.1946C6.63184 19.113 6.38638 18.7868 6.38638 18.3789V13.1578C6.38638 12.6683 6.71369 12.342 7.20454 12.342H38.2955C38.7864 12.342 39.1136 12.6684 39.1136 13.1578V18.3788Z"></path><path d="M26.8409 5H18.6591C17.2682 5 16.2046 6.06051 16.2046 7.44737V8.26313C16.2046 8.75262 16.5319 9.0789 17.0227 9.0789C17.5136 9.0789 17.8409 8.75255 17.8409 8.26313V7.44737C17.8409 6.95788 18.1682 6.6316 18.659 6.6316H26.8409C27.3318 6.6316 27.659 6.95795 27.659 7.44737V8.26313C27.659 8.75262 27.9863 9.0789 28.4772 9.0789C28.9681 9.0789 29.2953 8.75255 29.2953 8.26313V7.44737C29.2955 6.06051 28.2319 5 26.8409 5Z"></path></symbol><symbol id="category-deal" viewBox="0 0 45 42" xmlns="http://www.w3.org/2000/svg"><path d="M40.2123 7.25247C34.4336 5.66911 28.621 3.20366 23.4027 0.122739C23.1256 -0.040913 22.7816 -0.040913 22.5045 0.122739C17.1357 3.29217 11.6372 5.62423 5.69445 7.25247C5.31054 7.35755 5.04443 7.70651 5.04443 8.10461V17.1318C5.04443 26.4278 9.33293 32.5811 12.9307 36.1061C16.8038 39.9012 21.3155 42 22.9536 42C24.5915 42 29.1032 39.9012 32.9764 36.1061C36.5741 32.5812 40.8623 26.4279 40.8623 17.1318V8.10452C40.8623 7.70651 40.5962 7.35755 40.2123 7.25247ZM39.0954 17.1317C39.0954 25.8141 35.0954 31.5559 31.7397 34.8439C27.9309 38.5759 23.8587 40.2329 22.9536 40.2329C22.0486 40.2329 17.9761 38.5759 14.1672 34.8439C10.8115 31.5558 6.81146 25.8141 6.81146 17.1317V8.77521C12.4944 7.16166 17.7869 4.90983 22.9538 1.90724C27.9916 4.83017 33.5482 7.19398 39.0954 8.77488V17.1317Z"></path><path d="M15.1215 8.67625C14.9427 8.22221 14.4298 7.99917 13.9757 8.17807C12.3974 8.79995 10.7774 9.37236 9.16084 9.87948C8.79243 9.99514 8.54175 10.3364 8.54175 10.7224V14.1342C8.54175 14.6221 8.93738 15.0177 9.42522 15.0177C9.91306 15.0177 10.3087 14.6221 10.3087 14.1342V11.3681C11.7589 10.8989 13.2076 10.3799 14.6234 9.82198C15.0774 9.64323 15.3005 9.13029 15.1215 8.67625Z"></path><path d="M16.7998 8.84527C16.9183 8.84527 17.0387 8.8214 17.1541 8.77103L17.1703 8.76397C17.6173 8.56808 17.8186 8.04776 17.6227 7.60094C17.4267 7.15395 16.9034 6.95175 16.4569 7.14747L16.4426 7.15363C15.9954 7.34894 15.7934 7.86885 15.9888 8.31592C16.1337 8.64782 16.459 8.84527 16.7998 8.84527Z"></path><path d="M33.479 28.4877C33.0707 28.2208 32.5233 28.3356 32.2561 28.744C31.5281 29.8583 30.674 30.9254 29.7171 31.9152C28.9303 32.7292 28.0777 33.4878 27.183 34.1699C26.795 34.4657 26.7204 35.02 27.0161 35.4081C27.1901 35.6361 27.4532 35.756 27.7193 35.756C27.9061 35.756 28.0944 35.697 28.2544 35.575C29.2195 34.8391 30.139 34.021 30.9874 33.1434C32.0219 32.0734 32.9464 30.9184 33.7354 29.7105C34.0024 29.302 33.8874 28.7545 33.479 28.4877Z"></path><path d="M25.1316 35.5558L25.0809 35.5857C24.6587 35.8302 24.5144 36.3706 24.7589 36.7928C24.9227 37.0758 25.2192 37.2338 25.5243 37.2338C25.6744 37.2338 25.8268 37.1955 25.966 37.1147L26.0245 37.0804C26.4456 36.8338 26.587 36.2926 26.3404 35.8715C26.0937 35.4506 25.5524 35.3095 25.1316 35.5558Z"></path></symbol><symbol id="category-home" viewBox="0 0 44 42" xmlns="http://www.w3.org/2000/svg"><path d="M39.6171 17.0342L22.5526 4.18579C22.2235 3.93807 21.7765 3.93807 21.4476 4.18579L4.38289 17.0342C3.96608 17.3481 3.87552 17.95 4.18074 18.3786C4.48597 18.8072 5.07132 18.9002 5.48806 18.5865L22 6.15402L38.512 18.5864C38.6785 18.7119 38.872 18.7723 39.0638 18.7723C39.3518 18.7723 39.636 18.636 39.8192 18.3786C40.1245 17.95 40.0339 17.3481 39.6171 17.0342Z"></path><path d="M35.0956 18.8036C34.5791 18.8036 34.1602 19.2343 34.1602 19.7655V35.0761H26.6774V26.7186C26.6774 24.0664 24.5792 21.9088 22.0002 21.9088C19.4213 21.9088 17.3231 24.0666 17.3231 26.7186V35.0762H9.84021V19.7656C9.84021 19.2343 9.42136 18.8037 8.90485 18.8037C8.38833 18.8037 7.96948 19.2343 7.96948 19.7656V36.0381C7.96948 36.5693 8.38833 37 8.90485 37H18.2584C18.7503 37 19.1529 36.6092 19.1901 36.113C19.1924 36.0905 19.1938 36.066 19.1938 36.0381V26.7187C19.1938 25.1273 20.4527 23.8327 22.0002 23.8327C23.5478 23.8327 24.8067 25.1274 24.8067 26.7187V36.0381C24.8067 36.0658 24.8081 36.09 24.8104 36.1122C24.8472 36.6087 25.2499 37 25.7421 37H35.0956C35.6122 37 36.031 36.5693 36.031 36.0381V19.7656C36.0309 19.2343 35.6122 18.8036 35.0956 18.8036Z"></path></symbol><symbol id="instagram" width="40" height="40" xmlns="http://www.w3.org/2000/svg"><path d="M29.172 0H10.828C4.858 0 0 4.857 0 10.828v18.345C0 35.143 4.857 40 10.828 40h18.345C35.143 40 40 35.143 40 29.173V10.828C40 4.858 35.143 0 29.172 0zm8.483 29.173c0 4.677-3.805 8.482-8.483 8.482H10.828c-4.678 0-8.483-3.805-8.483-8.482V10.828c0-4.678 3.805-8.483 8.483-8.483h18.345c4.677 0 8.482 3.805 8.482 8.483v18.345z"></path><path d="M20 9.063C13.97 9.063 9.063 13.968 9.063 20c0 6.03 4.906 10.937 10.937 10.937 6.03 0 10.937-4.907 10.937-10.937 0-6.031-4.906-10.938-10.937-10.938zm0 19.529c-4.738 0-8.592-3.854-8.592-8.592s3.854-8.592 8.592-8.592 8.592 3.854 8.592 8.592-3.854 8.592-8.592 8.592zM31.199 5.178a3.235 3.235 0 0 0-3.232 3.232 3.235 3.235 0 0 0 3.232 3.232A3.236 3.236 0 0 0 34.43 8.41a3.235 3.235 0 0 0-3.232-3.232zm0 4.118a.888.888 0 0 1 0-1.773.888.888 0 0 1 0 1.773z"></path></symbol><symbol id="category-car" width="40" height="41" viewBox="0 0 40 41" xmlns="http://www.w3.org/2000/svg"><path d="M38.1525 18.696C37.0304 18.1101 35.8528 17.6346 34.6524 17.2828C34.3418 17.1921 34.0163 17.3698 33.9253 17.6803C33.8342 17.9909 34.0122 18.3164 34.3228 18.4074C35.4498 18.7378 36.5558 19.1843 37.6102 19.7349C37.7268 19.7957 37.8357 19.8667 37.938 19.9446C37.2982 19.951 36.6691 19.9779 36.1813 20.0723C35.0908 20.2833 34.8619 20.8378 34.8619 21.2658C34.8619 22.4699 36.4835 23.5263 38.3322 23.5263C38.4995 23.5263 38.6647 23.5194 38.8282 23.5085V24.0577H35.796C35.089 23.0299 33.9053 22.3544 32.5664 22.3544C31.2275 22.3544 30.0438 23.0299 29.337 24.0577H12.5145C11.8075 23.0299 10.6238 22.3544 9.28494 22.3544C7.94603 22.3544 6.76236 23.0299 6.05549 24.0577H1.17189V22.6616H1.96095C2.28455 22.6616 2.54689 22.3993 2.54689 22.0756V21.6335H3.89158C4.68635 21.6335 5.33299 20.9869 5.33299 20.1921V19.6878C5.33299 19.3902 5.24267 19.1042 5.07189 18.8605L3.87892 17.1585H5.29611C5.49635 17.1585 5.68283 17.0562 5.79041 16.8873C6.5215 15.7391 7.61689 14.6873 9.04603 13.7611C9.94002 13.1817 10.9066 12.7464 11.9196 12.4574C11.7413 12.5598 11.5655 12.6661 11.3933 12.7778C10.2745 13.503 9.32955 14.3124 8.58486 15.1833C8.27556 15.5451 8.20228 16.0396 8.39353 16.474C8.58345 16.9053 8.99439 17.183 9.46611 17.1989C9.46611 17.1989 28.3151 17.8357 28.3207 17.8358C28.3263 17.8358 28.332 17.8353 28.3377 17.8352C28.3537 17.8348 28.3696 17.8342 28.3853 17.8325L28.3872 17.8324C29.4853 17.7122 30.6182 17.7242 31.7546 17.868C32.076 17.909 32.3688 17.6813 32.4095 17.3603C32.4501 17.0392 32.2228 16.746 31.9017 16.7054C30.7669 16.5617 29.6338 16.54 28.5293 16.6406C27.6049 15.7778 26.7006 14.9456 25.8387 14.1642C23.7732 12.2928 21.1048 11.1802 18.3251 11.0313L15.5976 10.8852C13.0181 10.7475 10.532 11.4018 8.40861 12.7778C6.94814 13.7242 5.79666 14.8026 4.98142 15.9867C3.03267 15.9952 2.85931 15.9687 2.65345 16.0064C1.93056 16.1185 1.37494 16.7435 1.37494 17.4977V21.0408C1.37494 21.0431 1.37463 21.0453 1.37463 21.0476C1.37463 21.0499 1.37494 21.0521 1.37494 21.0544V21.4898H0.821814C0.368611 21.4898 -6.10352e-05 21.8581 -6.10352e-05 22.3109V25.8961C-6.10352e-05 26.2866 0.27783 26.6252 0.658923 26.701L5.64064 27.7074C6.21455 29.1595 7.63119 30.1899 9.28486 30.1899C10.8381 30.1899 12.183 29.2814 12.8163 27.968H14.9774C15.301 27.968 15.5633 27.7057 15.5633 27.3821C15.5633 27.0584 15.301 26.7961 14.9774 26.7961H13.1666C13.1896 26.6246 13.2026 26.45 13.2026 26.2723C13.2026 25.9113 13.1525 25.5619 13.0606 25.2297H28.7906C28.6988 25.5619 28.6487 25.9113 28.6487 26.2723C28.6487 26.45 28.6617 26.6246 28.6847 26.7961H17.7117C17.3881 26.7961 17.1258 27.0584 17.1258 27.3821C17.1258 27.7057 17.3881 27.968 17.7117 27.968H29.035C29.6683 29.2815 31.0132 30.1899 32.5663 30.1899C34.1195 30.1899 35.4645 29.2814 36.0978 27.968H37.8829C39.0503 27.968 40.0001 27.0182 40.0001 25.8508V21.7406C40 20.4574 39.292 19.291 38.1525 18.696ZM9.46603 16.0015C9.45275 15.9714 9.46767 15.9541 9.47556 15.9447C11.1212 14.0201 13.6919 12.456 16.6493 12.1149L17.8715 12.1803C18.0663 12.9018 18.3295 14.6389 17.8682 16.3101L9.50572 16.0275C9.49228 16.0271 9.47705 16.0266 9.46603 16.0015ZM26.7759 16.6111L19.0652 16.3506C19.4184 14.8406 19.3033 13.2825 19.0967 12.2789C21.304 12.5687 23.3931 13.5295 25.0518 15.0324C25.6105 15.5389 26.1873 16.0671 26.7759 16.6111ZM4.16111 19.6877V20.1921C4.16111 20.3406 4.04025 20.4615 3.89158 20.4615H2.54689V17.4975C2.54689 17.4444 2.56025 17.3948 2.58205 17.3499L4.11228 19.5331C4.14416 19.5785 4.16111 19.6321 4.16111 19.6877ZM1.17189 25.6089V25.2296H5.50924C5.39799 25.632 5.35244 26.0399 5.37197 26.4574L1.17189 25.6089ZM9.28494 29.0178C7.77095 29.0178 6.53916 27.786 6.53916 26.2721C6.53916 24.7581 7.77095 23.5263 9.28494 23.5263C10.799 23.5263 12.0308 24.7581 12.0308 26.2721C12.0308 27.786 10.799 29.0178 9.28494 29.0178ZM38.3321 22.3543C37.0078 22.3543 36.1395 21.6756 36.0428 21.3267C36.2853 21.1859 37.0543 21.1146 38.3321 21.1146C38.4706 21.1146 38.6082 21.1196 38.7442 21.1285C38.7992 21.3246 38.8281 21.5301 38.8281 21.7404V22.3347C38.6658 22.3477 38.5001 22.3543 38.3321 22.3543ZM32.5663 29.0178C31.0524 29.0178 29.8206 27.786 29.8206 26.2721C29.8206 24.7581 31.0524 23.5263 32.5663 23.5263C34.0804 23.5263 35.3122 24.7581 35.3122 26.2721C35.3122 27.786 34.0804 29.0178 32.5663 29.0178ZM37.8828 26.7959H36.448C36.471 26.6244 36.484 26.4498 36.484 26.2721C36.484 25.911 36.4339 25.5617 36.342 25.2295H38.8281V25.8506C38.8281 26.3718 38.4041 26.7959 37.8828 26.7959Z"></path><path d="M9.28397 24.3555C8.22756 24.3555 7.3681 25.2149 7.3681 26.2713C7.3681 27.3277 8.22756 28.1871 9.28397 28.1871C10.3404 28.1871 11.1998 27.3277 11.1998 26.2713C11.1998 25.2149 10.3404 24.3555 9.28397 24.3555ZM9.28397 27.0153C8.87373 27.0153 8.53998 26.6816 8.53998 26.2713C8.53998 25.8611 8.87373 25.5274 9.28397 25.5274C9.6942 25.5274 10.028 25.8611 10.028 26.2713C10.028 26.6816 9.6942 27.0153 9.28397 27.0153Z"></path><path d="M32.5662 24.3555C31.5098 24.3555 30.6503 25.2149 30.6503 26.2713C30.6503 27.3277 31.5098 28.1871 32.5662 28.1871C33.6226 28.1871 34.482 27.3277 34.482 26.2713C34.482 25.2149 33.6226 24.3555 32.5662 24.3555ZM32.5662 27.0153C32.156 27.0153 31.8222 26.6816 31.8222 26.2713C31.8222 25.8611 32.156 25.5274 32.5662 25.5274C32.9764 25.5274 33.3102 25.8611 33.3102 26.2713C33.3102 26.6816 32.9764 27.0153 32.5662 27.0153Z"></path><path d="M20.0001 18.3945C19.6765 18.3945 19.4141 18.6568 19.4141 18.9805C19.4141 19.3041 19.6765 19.5664 20.0001 19.5664H20.4063C20.7299 19.5664 20.9922 19.3041 20.9922 18.9805C20.9922 18.6568 20.7299 18.3945 20.4063 18.3945H20.0001Z"></path><path d="M11.2427 18.3945C10.9191 18.3945 10.6567 18.6568 10.6567 18.9805C10.6567 19.3041 10.9191 19.5664 11.2427 19.5664H11.6489C11.9725 19.5664 12.2349 19.3041 12.2349 18.9805C12.2349 18.6568 11.9725 18.3945 11.6489 18.3945H11.2427Z"></path></symbol><symbol id="facebook" width="40" height="40" xmlns="http://www.w3.org/2000/svg"><path d="M22.7 39.922h-6.418a1.944 1.944 0 0 1-1.944-1.94V23.533h-3.744a1.944 1.944 0 0 1-1.944-1.94v-6.191c0-1.07.872-1.94 1.944-1.94h3.744v-3.1c0-3.075.968-5.69 2.797-7.564C18.973.916 21.54-.078 24.562-.078l4.895.008c1.07.002 1.94.872 1.94 1.94v5.748c0 1.07-.871 1.94-1.943 1.94l-3.296.002c-1.005 0-1.26.201-1.316.263-.09.102-.197.39-.197 1.189v2.45h4.561c.344 0 .676.084.962.243.617.344 1 .994 1 1.697l-.002 6.191c0 1.07-.872 1.94-1.944 1.94h-4.577v14.449c0 1.07-.872 1.94-1.944 1.94zm-6.012-2.345h5.607V22.484c0-.715.583-1.296 1.298-1.296h5.223l.003-5.381h-5.226a1.298 1.298 0 0 1-1.298-1.296v-3.499c0-.916.093-1.958.786-2.741.838-.947 2.157-1.056 3.077-1.056l2.89-.001v-4.94l-4.488-.007c-4.855 0-7.872 3.102-7.872 8.094v4.15c0 .714-.582 1.296-1.298 1.296H11v5.381h4.39c.716 0 1.298.581 1.298 1.296v15.093zM29.452 2.275z"></path></symbol><symbol id="deal_1" viewBox="0 0 42 43" fill="none" xmlns="http://www.w3.org/2000/svg"><g clip-path="url(#clip0_6180_6154)"><path d="M37.6294 26.352C37.6326 26.3485 37.6358 26.3453 37.6391 26.3418C37.9057 26.071 37.9854 25.9361 38.3648 25.3933C43.2323 20.4586 43.2117 12.4846 38.303 7.5758C36.7444 6.01977 36.8107 6.07745 36.729 6.00984C32.2195 2.28574 25.9018 2.18096 21.0472 5.06039C15.5297 1.78137 8.39966 2.82119 4.04238 7.68283L3.04903 8.79089C-1.182 13.5119 -0.986531 20.7201 3.49283 25.2049C4.03629 25.7605 8.02956 29.8435 8.03084 29.8448C8.69926 30.5129 9.56188 30.8702 10.4383 30.9182C10.4863 31.7949 10.8439 32.6572 11.5117 33.3253C12.1802 33.9935 13.0428 34.3511 13.9192 34.3988C13.9672 35.2755 14.3245 36.1381 14.9926 36.8062C16.0491 37.8627 17.5587 38.128 18.835 37.6778C19.0125 38.1815 19.3021 38.6542 19.7043 39.0563C21.1437 40.4957 23.4861 40.496 24.9255 39.0563L27.1759 36.8062C27.8433 36.1384 28.201 35.2768 28.249 34.4007C29.1591 34.352 30.0076 33.9745 30.6568 33.3253C31.306 32.6761 31.6831 31.8276 31.7322 30.9179C32.6079 30.8695 33.4699 30.5122 34.1377 29.8445C34.8058 29.1763 35.1637 28.3141 35.2114 27.4377C36.0878 27.3896 36.9504 27.0317 37.6182 26.3636C37.6221 26.36 37.6256 26.3559 37.6294 26.352ZM35.1182 7.87157L36.5627 9.31609C39.9263 12.6797 40.4393 17.8304 38.103 21.74C37.7272 21.1645 37.9986 21.5618 30.8968 14.4209C32.1349 14.2213 33.2773 13.641 34.1796 12.7387C34.6603 12.2583 34.6603 11.479 34.1796 10.9984C33.699 10.5177 32.9197 10.5177 32.439 10.9984C31.0826 12.3548 28.8546 12.3762 27.4723 11.0464L27.1208 10.7084C26.7042 10.3078 26.0656 10.2508 25.5849 10.5712L19.2762 14.7773C17.7346 15.8046 15.7617 15.8254 14.2168 14.9243C19.529 9.52533 19.9014 8.83704 21.4539 7.73025C21.4622 7.72769 28.6537 2.59271 35.1182 7.87157ZM9.77112 26.3639L13.2523 22.8827C13.732 22.403 14.5129 22.403 14.9926 22.8827C15.4726 23.3627 15.4726 24.1433 14.9929 24.623C14.9929 24.623 14.9929 24.6233 14.9926 24.6233L11.5117 28.1042C11.5114 28.1045 11.5111 28.1048 11.5108 28.1051C11.032 28.5829 10.2547 28.5839 9.77465 28.1074L9.76567 28.0981C9.29175 27.6178 9.29335 26.8417 9.77112 26.3639ZM13.252 29.8448L16.7332 26.3636C17.2132 25.8839 17.9938 25.8839 18.4735 26.3636C18.9545 26.8449 18.9545 27.6232 18.4735 28.1042L14.9926 31.5851C14.5129 32.0648 13.732 32.0648 13.2523 31.5851C12.7723 31.1054 12.7723 30.3248 13.252 29.8448ZM16.7332 35.0659C16.2535 34.5859 16.2532 33.8054 16.7332 33.3253L20.2141 29.8445C20.6938 29.3648 21.4747 29.3648 21.9544 29.8445C22.4354 30.3254 22.4357 31.1038 21.9544 31.5851C21.5391 32.0007 18.8792 34.6606 18.4735 35.0659C17.9925 35.5469 17.2142 35.5469 16.7332 35.0659ZM25.4353 35.0659L23.1852 37.316C22.7052 37.7957 21.9246 37.7957 21.4446 37.316C20.9649 36.836 20.9649 36.0555 21.4446 35.5754L23.695 33.3253C24.1747 32.8457 24.9553 32.8453 25.4353 33.3253C25.9153 33.8054 25.9153 34.5859 25.4353 35.0659ZM34.1373 24.6233L27.1756 17.6615C26.6952 17.1809 25.9159 17.1809 25.4353 17.6615C25.195 17.9018 25.0748 18.2168 25.0748 18.5318C25.0748 18.8465 25.195 19.1615 25.4353 19.4018L32.3971 26.3636C32.8771 26.8436 32.8767 27.6242 32.3971 28.1039C31.9174 28.5839 31.1365 28.5839 30.6565 28.1039L23.6947 21.1424C23.2143 20.6617 22.435 20.6617 21.9544 21.1424C21.4737 21.6227 21.4737 22.402 21.9544 22.8827L28.9162 29.8445C29.3971 30.3254 29.3971 31.1038 28.9162 31.5851C28.4362 32.0648 27.6556 32.0648 27.1756 31.5851C26.5081 30.9173 25.6461 30.56 24.7704 30.5116C24.7213 29.6019 24.3439 28.7534 23.6947 28.1042C23.0272 27.4364 22.1652 27.0791 21.2895 27.0307C21.2405 26.121 20.863 25.2725 20.2138 24.6233C19.5457 23.9552 18.6831 23.5976 17.8067 23.5498C17.7586 22.6731 17.401 21.8105 16.7329 21.1424C15.2935 19.703 12.9511 19.703 11.5117 21.1424L8.03084 24.6233C7.73892 24.9152 7.50757 25.2443 7.33389 25.5952C4.75022 22.9746 5.33726 23.57 5.24754 23.479C5.24433 23.4758 5.24113 23.4726 5.23792 23.4694C1.67789 19.909 1.52119 14.1832 4.8816 10.4338L5.87495 9.32538C9.1796 5.63845 14.4889 4.63421 18.8372 6.67089C18.6171 6.86604 18.4017 7.06759 18.1925 7.27652C18.188 7.28132 11.4976 14.195 11.4976 14.195C11.0304 14.6776 11.0365 15.446 11.5117 15.9209C13.9502 18.3597 17.791 18.7254 20.6412 16.8252L26.145 13.1559C26.205 13.2049 35.7216 22.726 35.8776 22.8827C36.7412 23.7466 35.8353 24.6508 35.8308 24.6656C35.3486 25.1011 34.6023 25.0879 34.1373 24.6233Z" fill="#2C2C2C"></path></g><defs><clipPath id="clip0_6180_6154"><rect width="42" height="42" fill="white" transform="translate(0 0.5)"></rect></clipPath></defs></symbol><symbol id="arrow_right" viewBox="0 0 10 17" fill="none" xmlns="http://www.w3.org/2000/svg"><path d="M1 1.02832L8 8.02832L1 15.0283" stroke="#C4C4C4" stroke-width="2" stroke-linecap="round"></path></symbol><symbol id="megaphone_1" width="42" height="43" viewBox="0 0 42 43" fill="none" xmlns="http://www.w3.org/2000/svg"><path d="M10.6641 15.7578C10.2113 15.7578 9.84375 16.1253 9.84375 16.5781C9.84375 17.0309 10.2113 17.3984 10.6641 17.3984C11.1169 17.3984 11.4844 17.0309 11.4844 16.5781C11.4844 16.1253 11.1169 15.7578 10.6641 15.7578Z" fill="#2C2C2C"></path><path d="M12.774 32.9266L12.7088 33.0025L12.774 32.9266C12.3655 32.5757 12.1185 31.9216 12.1185 31.1161V25.8105H15.283C19.0612 26.1611 23.0295 27.7269 27.0846 30.4728C27.3219 31.6522 28.3062 32.5474 29.4907 32.5474C30.8541 32.5474 31.9519 31.3628 31.9519 29.9211V22.4405C33.7058 22.3841 35.1 20.8482 35.1 18.9737C35.1 17.1031 33.7027 15.5635 31.9519 15.5069V8.02632C31.9519 6.58178 30.8567 5.4 29.4907 5.4C28.1273 5.4 27.0296 6.58455 27.0296 8.02632V8.68554C23.3029 11.1112 19.0245 11.7959 15.2857 12.1368H7.2963C3.76928 12.1368 0.9 15.1875 0.9 18.9737C0.9 22.0719 2.87865 24.7753 5.62222 25.5713V34.1316C5.62222 36.0377 7.07299 37.6 8.87037 37.6H11.2315C12.3925 37.6 13.2286 36.8122 13.5482 35.8418C13.8678 34.8715 13.6773 33.7027 12.774 32.9266ZM7.2963 14.0211H14.437V23.9263H7.2963C7.07813 23.9263 6.85831 23.9097 6.6423 23.8768L6.64218 23.8767C4.38544 23.5356 2.67407 21.4317 2.67407 18.9737C2.67407 16.2351 4.7433 14.0211 7.2963 14.0211ZM11.2315 35.7158H8.87037C8.06392 35.7158 7.3963 35.0115 7.3963 34.1316V25.8105H10.3444V31.116C10.3444 32.4727 10.818 33.6699 11.6581 34.3916C11.9118 34.6096 11.9693 34.9403 11.8776 35.2209C11.786 35.5012 11.5514 35.7158 11.2315 35.7158ZM27.0296 10.8579V28.2227C23.3545 25.8961 19.7249 24.4848 16.2111 24.0208V13.939C19.653 13.584 23.4946 12.8809 27.0296 10.8579ZM30.1778 29.9211C30.1778 30.3366 29.8632 30.6632 29.4907 30.6632C29.1183 30.6632 28.8037 30.3366 28.8037 29.9211V8.02632C28.8037 7.61073 29.1183 7.28421 29.4907 7.28421C29.8637 7.28421 30.1778 7.61015 30.1778 8.02632V29.9211ZM31.9519 17.3931C32.7128 17.4484 33.3259 18.1304 33.3259 18.9737C33.3259 19.8185 32.714 20.4991 31.9519 20.5543V17.3931Z" fill="#2C2C2C" stroke="#2C2C2C" stroke-width="0.2"></path><path d="M41.1797 17.3984H37.8984C37.4455 17.3984 37.0781 17.7658 37.0781 18.2188C37.0781 18.6717 37.4455 19.0391 37.8984 19.0391H41.1797C41.6327 19.0391 42 18.6717 42 18.2188C42 17.7658 41.6327 17.3984 41.1797 17.3984Z" fill="#2C2C2C"></path><path d="M39.253 7.96495C39.0265 7.57276 38.5248 7.43815 38.1325 7.66472L35.2909 9.30534C34.8985 9.53192 34.7641 10.0335 34.9907 10.4259C35.218 10.8195 35.72 10.952 36.1112 10.7261L38.9528 9.0855C39.3451 8.85893 39.4795 8.35731 39.253 7.96495Z" fill="#2C2C2C"></path><path d="M38.9528 27.352L36.1112 25.7114C35.7188 25.4848 35.2172 25.6193 34.9907 26.0116C34.7641 26.404 34.8985 26.9056 35.2909 27.1322L38.1324 28.7728C38.2616 28.8473 38.4027 28.8829 38.5418 28.8829C38.8253 28.8829 39.101 28.7357 39.253 28.4725C39.4796 28.0802 39.3451 27.5786 38.9528 27.352Z" fill="#2C2C2C"></path><path d="M7.38281 15.7578H6.5625C4.75322 15.7578 3.28125 17.2298 3.28125 19.0391C3.28125 19.492 3.64859 19.8594 4.10156 19.8594C4.55454 19.8594 4.92188 19.492 4.92188 19.0391C4.92188 18.1344 5.65786 17.3984 6.5625 17.3984H7.38281C7.83579 17.3984 8.20312 17.0311 8.20312 16.5781C8.20312 16.1251 7.83579 15.7578 7.38281 15.7578Z" fill="#2C2C2C"></path></symbol><symbol id="polygon_left" width="14px" height="15px" viewBox="0 0 14 15" xmlns="http://www.w3.org/2000/svg"><path d="M0.599365 7.23096L13.3994 0.302753L13.3994 14.1592L0.599365 7.23096Z"></path></symbol><symbol id="category-franchise-start" viewBox="0 0 44 42" xmlns="http://www.w3.org/2000/svg"><path d="M37.593 16.853L35.3898 16.6785C35.1727 16.0058 34.9039 15.3481 34.5876 14.7153L36.0503 13.0347C36.948 12.0033 36.8938 10.4379 35.9269 9.471L33.6378 7.18184C32.6804 6.22446 31.1236 6.16294 30.0936 7.0417L28.4121 8.47643C27.7829 8.15384 27.1278 7.87849 26.4569 7.65448L26.3029 5.43267C26.2082 4.06854 25.063 3 23.6957 3H20.4582C19.1042 3 17.9599 4.05729 17.853 5.40701L17.6785 7.61018C16.9598 7.842 16.2594 8.13225 15.5881 8.47643L13.9065 7.0417C12.8765 6.16294 11.3197 6.22446 10.3623 7.18184L8.07313 9.47107C7.1062 10.438 7.05205 12.0034 7.94973 13.0348L9.41245 14.7153C9.09611 15.3481 8.8273 16.0058 8.61025 16.6785L6.40701 16.853C5.05729 16.9599 4 18.1043 4 19.4582V22.6957C4 24.063 5.06861 25.2082 6.43267 25.3028L8.65441 25.4567C8.87842 26.1277 9.15384 26.7827 9.47643 27.4119L8.0417 29.0935C7.16294 30.1235 7.22453 31.6803 8.18184 32.6376L10.471 34.9268C11.4379 35.8937 13.0032 35.9479 14.0347 35.0501C14.2596 34.8544 14.2833 34.5133 14.0875 34.2883C13.8917 34.0633 13.5505 34.0397 13.3257 34.2355C12.7204 34.7623 11.802 34.7304 11.2347 34.1631L8.9455 31.874C8.38377 31.3122 8.34763 30.3987 8.86323 29.7944L10.5361 27.8338C10.6815 27.6634 10.7066 27.4207 10.599 27.2241C10.1757 26.4504 9.83087 25.6301 9.57402 24.786C9.50884 24.5718 9.31816 24.42 9.09477 24.4045L6.50734 24.2252C5.70698 24.1698 5.08 23.4978 5.08 22.6955V19.458C5.08 18.6637 5.70037 17.9922 6.4923 17.9295L9.06102 17.726C9.28434 17.7083 9.47355 17.5545 9.53655 17.3396C9.78461 16.4937 10.1211 15.6701 10.5369 14.8916C10.6424 14.694 10.615 14.4517 10.4679 14.2827L8.76438 12.3258C8.23759 11.7206 8.26945 10.8021 8.83673 10.2347L11.126 7.94557C11.6878 7.38384 12.6012 7.3477 13.2055 7.86337L15.1662 9.53618C15.3366 9.68166 15.5793 9.70669 15.7759 9.59911C16.5878 9.1548 17.4505 8.79734 18.3397 8.53662C18.5548 8.47362 18.7085 8.28434 18.7262 8.06102L18.9297 5.4923C18.9924 4.70037 19.6638 4.08 20.4583 4.08H23.6957C24.498 4.08 25.17 4.70698 25.2254 5.50734L25.4047 8.09477C25.4202 8.31816 25.572 8.50884 25.7863 8.57402C26.6304 8.83087 27.4507 9.17576 28.2243 9.59904C28.4208 9.70662 28.6634 9.68159 28.834 9.53611L30.7946 7.8633C31.399 7.34763 32.3124 7.38377 32.8742 7.9455L35.1633 10.2347C35.7306 10.802 35.7625 11.7205 35.2357 12.3257L33.5322 14.2828C33.3851 14.4519 33.3576 14.6941 33.4632 14.8917C33.8789 15.6702 34.2155 16.4939 34.4635 17.3397C34.5265 17.5547 34.7157 17.7084 34.939 17.7261L37.5078 17.9296C38.2997 17.9923 38.9201 18.6637 38.9201 19.4582V22.6957C38.9201 23.4979 38.2931 24.1699 37.4927 24.2254L34.9052 24.4047C34.6818 24.4201 34.4912 24.5719 34.426 24.7862C34.1691 25.6303 33.8243 26.4506 33.401 27.2242C33.2934 27.4209 33.3184 27.6634 33.4639 27.834L35.1368 29.7945C35.6524 30.3988 35.6162 31.3123 35.0546 31.874L32.7653 34.1632C32.1981 34.7306 31.2796 34.7623 30.6744 34.2356L28.7172 32.5321C28.5482 32.385 28.306 32.3576 28.1083 32.463C27.3683 32.8583 26.5871 33.1822 25.7863 33.4258C25.572 33.4911 25.4202 33.6817 25.4047 33.9051L25.2254 36.4925C25.17 37.2929 24.498 37.9199 23.6957 37.9199H20.4583C19.6639 37.9199 18.9924 37.2996 18.9297 36.5076L18.7262 33.9389C18.7085 33.7156 18.5548 33.5264 18.3398 33.4634C17.4937 33.2152 16.6702 32.8788 15.8918 32.463C15.6288 32.3226 15.3015 32.4219 15.1611 32.685C15.0206 32.9481 15.1199 33.2752 15.383 33.4157C16.1165 33.8074 16.8871 34.1342 17.6784 34.3897L17.8529 36.5929C17.9599 37.9427 19.1043 39 20.4582 39H23.6957C25.063 39 26.2082 37.9314 26.3028 36.5673L26.4568 34.3455C27.082 34.1367 27.6943 33.8828 28.2847 33.5876L29.9652 35.0503C30.9966 35.9481 32.5621 35.8939 33.5289 34.9269L35.8181 32.6378C36.7755 31.6804 36.837 30.1236 35.9582 29.0936L34.5234 27.4121C34.846 26.7829 35.1214 26.1277 35.3455 25.4568L37.5672 25.3029C38.9314 25.2082 40 24.063 40 22.6957V19.4582C40 18.1043 38.9427 16.9599 37.593 16.853Z"></path><path d="M37.593 16.853L35.3898 16.6785C35.1727 16.0058 34.9039 15.3481 34.5876 14.7153L36.0503 13.0347C36.948 12.0033 36.8938 10.4379 35.9269 9.471L33.6378 7.18184C32.6804 6.22446 31.1236 6.16294 30.0936 7.0417L28.4121 8.47643C27.7829 8.15384 27.1278 7.87849 26.4569 7.65448L26.3029 5.43267C26.2082 4.06854 25.063 3 23.6957 3H20.4582C19.1042 3 17.9599 4.05729 17.853 5.40701L17.6785 7.61018C16.9598 7.842 16.2594 8.13225 15.5881 8.47643L13.9065 7.0417C12.8765 6.16294 11.3197 6.22446 10.3623 7.18184L8.07313 9.47107C7.1062 10.438 7.05205 12.0034 7.94973 13.0348L9.41245 14.7153C9.09611 15.3481 8.8273 16.0058 8.61025 16.6785L6.40701 16.853C5.05729 16.9599 4 18.1043 4 19.4582V22.6957C4 24.063 5.06861 25.2082 6.43267 25.3028L8.65441 25.4567C8.87842 26.1277 9.15384 26.7827 9.47643 27.4119L8.0417 29.0935C7.16294 30.1235 7.22453 31.6803 8.18184 32.6376L10.471 34.9268C11.4379 35.8937 13.0032 35.9479 14.0347 35.0501C14.2596 34.8544 14.2833 34.5133 14.0875 34.2883C13.8917 34.0633 13.5505 34.0397 13.3257 34.2355C12.7204 34.7623 11.802 34.7304 11.2347 34.1631L8.9455 31.874C8.38377 31.3122 8.34763 30.3987 8.86323 29.7944L10.5361 27.8338C10.6815 27.6634 10.7066 27.4207 10.599 27.2241C10.1757 26.4504 9.83087 25.6301 9.57402 24.786C9.50884 24.5718 9.31816 24.42 9.09477 24.4045L6.50734 24.2252C5.70698 24.1698 5.08 23.4978 5.08 22.6955V19.458C5.08 18.6637 5.70037 17.9922 6.4923 17.9295L9.06102 17.726C9.28434 17.7083 9.47355 17.5545 9.53655 17.3396C9.78461 16.4937 10.1211 15.6701 10.5369 14.8916C10.6424 14.694 10.615 14.4517 10.4679 14.2827L8.76438 12.3258C8.23759 11.7206 8.26945 10.8021 8.83673 10.2347L11.126 7.94557C11.6878 7.38384 12.6012 7.3477 13.2055 7.86337L15.1662 9.53618C15.3366 9.68166 15.5793 9.70669 15.7759 9.59911C16.5878 9.1548 17.4505 8.79734 18.3397 8.53662C18.5548 8.47362 18.7085 8.28434 18.7262 8.06102L18.9297 5.4923C18.9924 4.70037 19.6638 4.08 20.4583 4.08H23.6957C24.498 4.08 25.17 4.70698 25.2254 5.50734L25.4047 8.09477C25.4202 8.31816 25.572 8.50884 25.7863 8.57402C26.6304 8.83087 27.4507 9.17576 28.2243 9.59904C28.4208 9.70662 28.6634 9.68159 28.834 9.53611L30.7946 7.8633C31.399 7.34763 32.3124 7.38377 32.8742 7.9455L35.1633 10.2347C35.7306 10.802 35.7625 11.7205 35.2357 12.3257L33.5322 14.2828C33.3851 14.4519 33.3576 14.6941 33.4632 14.8917C33.8789 15.6702 34.2155 16.4939 34.4635 17.3397C34.5265 17.5547 34.7157 17.7084 34.939 17.7261L37.5078 17.9296C38.2997 17.9923 38.9201 18.6637 38.9201 19.4582V22.6957C38.9201 23.4979 38.2931 24.1699 37.4927 24.2254L34.9052 24.4047C34.6818 24.4201 34.4912 24.5719 34.426 24.7862C34.1691 25.6303 33.8243 26.4506 33.401 27.2242C33.2934 27.4209 33.3184 27.6634 33.4639 27.834L35.1368 29.7945C35.6524 30.3988 35.6162 31.3123 35.0546 31.874L32.7653 34.1632C32.1981 34.7306 31.2796 34.7623 30.6744 34.2356L28.7172 32.5321C28.5482 32.385 28.306 32.3576 28.1083 32.463C27.3683 32.8583 26.5871 33.1822 25.7863 33.4258C25.572 33.4911 25.4202 33.6817 25.4047 33.9051L25.2254 36.4925C25.17 37.2929 24.498 37.9199 23.6957 37.9199H20.4583C19.6639 37.9199 18.9924 37.2996 18.9297 36.5076L18.7262 33.9389C18.7085 33.7156 18.5548 33.5264 18.3398 33.4634C17.4937 33.2152 16.6702 32.8788 15.8918 32.463C15.6288 32.3226 15.3015 32.4219 15.1611 32.685C15.0206 32.9481 15.1199 33.2752 15.383 33.4157C16.1165 33.8074 16.8871 34.1342 17.6784 34.3897L17.8529 36.5929C17.9599 37.9427 19.1043 39 20.4582 39H23.6957C25.063 39 26.2082 37.9314 26.3028 36.5673L26.4568 34.3455C27.082 34.1367 27.6943 33.8828 28.2847 33.5876L29.9652 35.0503C30.9966 35.9481 32.5621 35.8939 33.5289 34.9269L35.8181 32.6378C36.7755 31.6804 36.837 30.1236 35.9582 29.0936L34.5234 27.4121C34.846 26.7829 35.1214 26.1277 35.3455 25.4568L37.5672 25.3029C38.9314 25.2082 40 24.063 40 22.6957V19.4582C40 18.1043 38.9427 16.9599 37.593 16.853Z"></path><path d="M37.593 16.853L35.3898 16.6785C35.1727 16.0058 34.9039 15.3481 34.5876 14.7153L36.0503 13.0347C36.948 12.0033 36.8938 10.4379 35.9269 9.471L33.6378 7.18184C32.6804 6.22446 31.1236 6.16294 30.0936 7.0417L28.4121 8.47643C27.7829 8.15384 27.1278 7.87849 26.4569 7.65448L26.3029 5.43267C26.2082 4.06854 25.063 3 23.6957 3H20.4582C19.1042 3 17.9599 4.05729 17.853 5.40701L17.6785 7.61018C16.9598 7.842 16.2594 8.13225 15.5881 8.47643L13.9065 7.0417C12.8765 6.16294 11.3197 6.22446 10.3623 7.18184L8.07313 9.47107C7.1062 10.438 7.05205 12.0034 7.94973 13.0348L9.41245 14.7153C9.09611 15.3481 8.8273 16.0058 8.61025 16.6785L6.40701 16.853C5.05729 16.9599 4 18.1043 4 19.4582V22.6957C4 24.063 5.06861 25.2082 6.43267 25.3028L8.65441 25.4567C8.87842 26.1277 9.15384 26.7827 9.47643 27.4119L8.0417 29.0935C7.16294 30.1235 7.22453 31.6803 8.18184 32.6376L10.471 34.9268C11.4379 35.8937 13.0032 35.9479 14.0347 35.0501C14.2596 34.8544 14.2833 34.5133 14.0875 34.2883C13.8917 34.0633 13.5505 34.0397 13.3257 34.2355C12.7204 34.7623 11.802 34.7304 11.2347 34.1631L8.9455 31.874C8.38377 31.3122 8.34763 30.3987 8.86323 29.7944L10.5361 27.8338C10.6815 27.6634 10.7066 27.4207 10.599 27.2241C10.1757 26.4504 9.83087 25.6301 9.57402 24.786C9.50884 24.5718 9.31816 24.42 9.09477 24.4045L6.50734 24.2252C5.70698 24.1698 5.08 23.4978 5.08 22.6955V19.458C5.08 18.6637 5.70037 17.9922 6.4923 17.9295L9.06102 17.726C9.28434 17.7083 9.47355 17.5545 9.53655 17.3396C9.78461 16.4937 10.1211 15.6701 10.5369 14.8916C10.6424 14.694 10.615 14.4517 10.4679 14.2827L8.76438 12.3258C8.23759 11.7206 8.26945 10.8021 8.83673 10.2347L11.126 7.94557C11.6878 7.38384 12.6012 7.3477 13.2055 7.86337L15.1662 9.53618C15.3366 9.68166 15.5793 9.70669 15.7759 9.59911C16.5878 9.1548 17.4505 8.79734 18.3397 8.53662C18.5548 8.47362 18.7085 8.28434 18.7262 8.06102L18.9297 5.4923C18.9924 4.70037 19.6638 4.08 20.4583 4.08H23.6957C24.498 4.08 25.17 4.70698 25.2254 5.50734L25.4047 8.09477C25.4202 8.31816 25.572 8.50884 25.7863 8.57402C26.6304 8.83087 27.4507 9.17576 28.2243 9.59904C28.4208 9.70662 28.6634 9.68159 28.834 9.53611L30.7946 7.8633C31.399 7.34763 32.3124 7.38377 32.8742 7.9455L35.1633 10.2347C35.7306 10.802 35.7625 11.7205 35.2357 12.3257L33.5322 14.2828C33.3851 14.4519 33.3576 14.6941 33.4632 14.8917C33.8789 15.6702 34.2155 16.4939 34.4635 17.3397C34.5265 17.5547 34.7157 17.7084 34.939 17.7261L37.5078 17.9296C38.2997 17.9923 38.9201 18.6637 38.9201 19.4582V22.6957C38.9201 23.4979 38.2931 24.1699 37.4927 24.2254L34.9052 24.4047C34.6818 24.4201 34.4912 24.5719 34.426 24.7862C34.1691 25.6303 33.8243 26.4506 33.401 27.2242C33.2934 27.4209 33.3184 27.6634 33.4639 27.834L35.1368 29.7945C35.6524 30.3988 35.6162 31.3123 35.0546 31.874L32.7653 34.1632C32.1981 34.7306 31.2796 34.7623 30.6744 34.2356L28.7172 32.5321C28.5482 32.385 28.306 32.3576 28.1083 32.463C27.3683 32.8583 26.5871 33.1822 25.7863 33.4258C25.572 33.4911 25.4202 33.6817 25.4047 33.9051L25.2254 36.4925C25.17 37.2929 24.498 37.9199 23.6957 37.9199H20.4583C19.6639 37.9199 18.9924 37.2996 18.9297 36.5076L18.7262 33.9389C18.7085 33.7156 18.5548 33.5264 18.3398 33.4634C17.4937 33.2152 16.6702 32.8788 15.8918 32.463C15.6288 32.3226 15.3015 32.4219 15.1611 32.685C15.0206 32.9481 15.1199 33.2752 15.383 33.4157C16.1165 33.8074 16.8871 34.1342 17.6784 34.3897L17.8529 36.5929C17.9599 37.9427 19.1043 39 20.4582 39H23.6957C25.063 39 26.2082 37.9314 26.3028 36.5673L26.4568 34.3455C27.082 34.1367 27.6943 33.8828 28.2847 33.5876L29.9652 35.0503C30.9966 35.9481 32.5621 35.8939 33.5289 34.9269L35.8181 32.6378C36.7755 31.6804 36.837 30.1236 35.9582 29.0936L34.5234 27.4121C34.846 26.7829 35.1214 26.1277 35.3455 25.4568L37.5672 25.3029C38.9314 25.2082 40 24.063 40 22.6957V19.4582C40 18.1043 38.9427 16.9599 37.593 16.853Z"></path><path d="M25.6326 14.814C25.3042 14.6208 24.8812 14.7304 24.688 15.0589C24.4947 15.3873 24.6043 15.8102 24.9328 16.0035C26.6967 17.0413 27.7926 18.9563 27.7926 21C27.7926 24.194 25.1939 26.7927 22 26.7927C18.806 26.7927 16.2073 24.1939 16.2073 21C16.2073 17.806 18.806 15.2073 22 15.2073C22.381 15.2073 22.69 14.8984 22.69 14.5173C22.69 14.1362 22.381 13.8273 22 13.8273C18.0448 13.8273 14.8273 17.0448 14.8273 21C14.8273 24.9551 18.0448 28.1726 22 28.1726C25.9551 28.1726 29.1726 24.9551 29.1726 21C29.1726 18.4688 27.8163 16.0989 25.6326 14.814ZM25.6326 14.814L25.5565 14.9433L25.6326 14.814Z"></path></symbol><symbol id="polygon_right" width="14px" height="15px" viewBox="0 0 14 15" xmlns="http://www.w3.org/2000/svg"><path d="M13.0667 7.55957L0.266668 14.4878L0.266668 0.631367L13.0667 7.55957Z"></path></symbol><symbol id="search" width="24" height="25" viewBox="0 0 24 25" xmlns="http://www.w3.org/2000/svg"><path d="M9.90161 20.2661C4.45207 20.2661 0.0185547 15.8326 0.0185547 10.3831C0.0185547 4.93351 4.45207 0.5 9.90161 0.5C15.3512 0.5 19.7847 4.93351 19.7847 10.3831C19.7847 15.8326 15.3512 20.2661 9.90161 20.2661ZM9.90161 2.37357C5.48515 2.37357 1.89212 5.9666 1.89212 10.3831C1.89212 14.7995 5.48515 18.3925 9.90161 18.3925C14.3181 18.3925 17.9111 14.7995 17.9111 10.3831C17.9111 5.9666 14.3181 2.37357 9.90161 2.37357ZM23.7259 24.2256C24.0917 23.8598 24.0917 23.2666 23.7259 22.9008L19.5338 18.7087C19.1679 18.3428 18.5747 18.3428 18.2089 18.7087C17.8431 19.0745 17.8431 19.6677 18.2089 20.0335L22.401 24.2256C22.5839 24.4085 22.8237 24.5 23.0635 24.5C23.3032 24.5 23.5429 24.4085 23.7259 24.2256Z"></path></symbol><symbol id="telegram" width="40" height="40" viewBox="0 0 40 40" xmlns="http://www.w3.org/2000/svg"><path d="M0.691676 18.6595L10.4733 23.5345C10.8517 23.7212 11.2983 23.7078 11.66 23.4962L20.3667 18.4345L15.0967 23.1045C14.8283 23.3428 14.675 23.6828 14.675 24.0412V35.4162C14.675 36.6162 16.2067 37.1212 16.925 36.1678L21.1533 30.5462L31.61 36.5012C32.3433 36.9228 33.2833 36.4995 33.4533 35.6612L39.975 3.16117C40.17 2.1845 39.1983 1.38784 38.295 1.75117L0.795009 16.3762C-0.211658 16.7695 -0.276658 18.1778 0.691676 18.6595ZM37.075 4.91117L31.3433 33.4728L21.435 27.8295C20.895 27.5212 20.2 27.6578 19.8167 28.1645L17.175 31.6762V24.6028L31.4267 11.9762C32.555 10.9778 31.2583 9.20284 29.97 9.9595L10.9867 20.9962L4.33334 17.6812L37.075 4.91117Z"></path></symbol><symbol id="times" xmlns="http://www.w3.org/2000/svg" viewBox="0 0 320 512"><path d="M310.6 361.4c12.5 12.5 12.5 32.75 0 45.25C304.4 412.9 296.2 416 288 416s-16.38-3.125-22.62-9.375L160 301.3L54.63 406.6C48.38 412.9 40.19 416 32 416S15.63 412.9 9.375 406.6c-12.5-12.5-12.5-32.75 0-45.25l105.4-105.4L9.375 150.6c-12.5-12.5-12.5-32.75 0-45.25s32.75-12.5 45.25 0L160 210.8l105.4-105.4c12.5-12.5 32.75-12.5 45.25 0s12.5 32.75 0 45.25l-105.4 105.4L310.6 361.4z"></path></symbol><symbol id="star_1" viewBox="0 0 42 43" fill="none" xmlns="http://www.w3.org/2000/svg"><g clip-path="url(#clip0_6029_5299)"><path d="M25.1836 36.1523L21.6689 34.2921C21.3606 34.1289 20.9924 34.1289 20.684 34.2921L9.53452 40.1934L11.6639 27.6944C11.7228 27.3487 11.6091 26.9961 11.3596 26.7512L2.33939 17.8993L14.805 16.0758C15.1498 16.0253 15.4477 15.8074 15.6017 15.4929L17.2967 12.0353C17.442 11.739 17.3212 11.3802 17.0268 11.2339C16.7323 11.0876 16.376 11.2094 16.2308 11.5057L14.5661 14.9014L1.90693 16.7533C1.50537 16.812 1.17798 17.0898 1.05258 17.4784C0.92719 17.8669 1.02981 18.2854 1.3204 18.5705L10.4807 27.56L8.31826 40.2535C8.24969 40.656 8.41094 41.0553 8.73929 41.2954C8.92482 41.4312 9.14179 41.5 9.36026 41.5C9.52845 41.5 9.69751 41.4591 9.85372 41.3765L21.1765 35.3835L24.6304 37.2116C24.921 37.3652 25.2803 37.2529 25.4331 36.9604C25.5858 36.6679 25.4741 36.3062 25.1836 36.1523Z" fill="#2C2C2C"></path><path d="M40.9464 17.318C40.8187 16.9268 40.4851 16.6472 40.0761 16.5881L27.1793 14.7238L21.4117 3.09788C21.2287 2.72909 20.8583 2.5 20.4449 2.5C20.0314 2.5 19.661 2.72909 19.478 3.09788L17.0627 7.96671C16.9147 8.26505 17.0378 8.62626 17.3377 8.77347C17.6375 8.92052 18.0006 8.79807 18.1486 8.49989L20.4449 3.87117L26.1242 15.3191C26.2812 15.6358 26.5847 15.8551 26.936 15.906L39.6355 17.7418L30.446 26.6528C30.1918 26.8993 30.0759 27.2542 30.136 27.6021L32.3053 40.1847L27.9135 37.8878C27.6176 37.7332 27.2514 37.8463 27.0958 38.1407C26.9402 38.4352 27.0541 38.7994 27.35 38.9542L31.9801 41.3757C32.1393 41.4589 32.3115 41.5 32.4829 41.5C32.7054 41.5 32.9266 41.4306 33.1155 41.2941C33.4499 41.0524 33.6143 40.6504 33.5444 40.2451L31.3414 27.4669L40.6736 18.4174C40.9696 18.1304 41.0742 17.7091 40.9464 17.318Z" fill="#2C2C2C"></path><path d="M25.1836 36.1523L21.6689 34.2921C21.3606 34.1289 20.9924 34.1289 20.684 34.2921L9.53452 40.1934L11.6639 27.6944C11.7228 27.3487 11.6091 26.9961 11.3596 26.7512L2.33939 17.8993L14.805 16.0758C15.1498 16.0253 15.4477 15.8074 15.6017 15.4929L17.2967 12.0353C17.442 11.739 17.3212 11.3802 17.0268 11.2339C16.7323 11.0876 16.376 11.2094 16.2308 11.5057L14.5661 14.9014L1.90693 16.7533C1.50537 16.812 1.17798 17.0898 1.05258 17.4784C0.92719 17.8669 1.02981 18.2854 1.3204 18.5705L10.4807 27.56L8.31826 40.2535C8.24969 40.656 8.41094 41.0553 8.73929 41.2954C8.92482 41.4312 9.14179 41.5 9.36026 41.5C9.52845 41.5 9.69751 41.4591 9.85372 41.3765L21.1765 35.3835L24.6304 37.2116C24.921 37.3652 25.2803 37.2529 25.4331 36.9604C25.5858 36.6679 25.4741 36.3062 25.1836 36.1523Z" stroke="#2C2C2C"></path><path d="M40.9464 17.318C40.8187 16.9268 40.4851 16.6472 40.0761 16.5881L27.1793 14.7238L21.4117 3.09788C21.2287 2.72909 20.8583 2.5 20.4449 2.5C20.0314 2.5 19.661 2.72909 19.478 3.09788L17.0627 7.96671C16.9147 8.26505 17.0378 8.62626 17.3377 8.77347C17.6375 8.92052 18.0006 8.79807 18.1486 8.49989L20.4449 3.87117L26.1242 15.3191C26.2812 15.6358 26.5847 15.8551 26.936 15.906L39.6355 17.7418L30.446 26.6528C30.1918 26.8993 30.0759 27.2542 30.136 27.6021L32.3053 40.1847L27.9135 37.8878C27.6176 37.7332 27.2514 37.8463 27.0958 38.1407C26.9402 38.4352 27.0541 38.7994 27.35 38.9542L31.9801 41.3757C32.1393 41.4589 32.3115 41.5 32.4829 41.5C32.7054 41.5 32.9266 41.4306 33.1155 41.2941C33.4499 41.0524 33.6143 40.6504 33.5444 40.2451L31.3414 27.4669L40.6736 18.4174C40.9696 18.1304 41.0742 17.7091 40.9464 17.318Z" stroke="#2C2C2C"></path></g><defs><clipPath id="clip0_6029_5299"><rect fill="white" transform="translate(0 0.5)"></rect></clipPath></defs></symbol><symbol id="search_logo" width="128" height="49" viewBox="0 0 128 49" fill="none" xmlns="http://www.w3.org/2000/svg"><path d="M23.6023 36.5479C23.6023 39.8299 22.4342 42.6607 20.1385 45.0402C17.8024 47.4196 15.0233 48.5684 11.8011 48.5684C9.58591 48.5684 7.49151 47.953 5.55821 46.7632C3.6652 45.5735 2.17495 43.9325 1.16803 41.8402C0.886092 41.1838 0.845815 40.6094 1.08748 40.0351C1.28886 39.4197 1.65135 38.9684 2.25551 38.6812C2.81938 38.353 3.42354 38.312 4.02769 38.5171C4.63184 38.7222 5.07489 39.1325 5.35683 39.7069C6.68597 42.4556 8.82064 43.8094 11.8011 43.8094C13.7344 43.8094 15.4261 43.112 16.7955 41.7171C18.2052 40.2812 18.9301 38.5992 18.9704 36.671V34.0453C16.7955 35.6864 14.3789 36.5479 11.8414 36.5479C8.57898 36.5479 5.79988 35.3582 3.46381 33.0197C1.12775 30.6812 0 27.8505 0 24.5274C0 21.1633 1.12775 18.3326 3.42354 15.9941C5.71932 13.6557 8.49843 12.5069 11.8011 12.5069C15.0636 12.5069 17.8427 13.6557 20.1385 15.9941C22.4745 18.3736 23.6023 21.2044 23.6023 24.5274V36.5479ZM11.8011 31.7889C13.7344 31.7889 15.4261 31.0505 16.8358 29.6146C18.2454 28.1787 18.9704 26.4556 18.9704 24.4864C18.9704 22.4761 18.2454 20.7531 16.8358 19.3172C15.3455 17.9223 13.6941 17.2249 11.8011 17.2249C9.82757 17.2249 8.13594 17.9223 6.76652 19.3172C5.35683 20.7531 4.63184 22.4761 4.63184 24.4864C4.63184 26.4556 5.35683 28.1787 6.76652 29.6146C8.13594 31.0915 9.82757 31.7889 11.8011 31.7889Z" fill="#1F75FE"></path><path d="M37.8603 36.5479C34.6382 36.5479 31.8591 35.3581 29.523 33.0197C27.1869 30.6402 26.0592 27.8095 26.0592 24.5274C26.0592 21.2044 27.2272 18.3736 29.523 15.9941C31.8188 13.6557 34.5979 12.5069 37.8603 12.5069C41.163 12.5069 43.9421 13.6557 46.2379 15.9941C48.5337 18.3326 49.6615 21.1633 49.6615 24.5274C49.6615 27.8505 48.5337 30.6812 46.2379 33.0197C43.9019 35.3581 41.1227 36.5479 37.8603 36.5479ZM37.8603 17.2249C35.8867 17.2249 34.1951 17.9223 32.8257 19.3172C31.416 20.7531 30.691 22.4761 30.691 24.4864C30.691 26.4556 31.416 28.1787 32.8257 29.6146C34.1951 31.0505 35.8867 31.7889 37.8603 31.7889C39.8339 31.7889 41.5255 31.0505 42.9352 29.6146C44.3046 28.0966 44.9893 26.4146 44.9893 24.4864C44.9893 22.5582 44.3046 20.7941 42.9352 19.3172C41.4852 17.9223 39.7533 17.2249 37.8603 17.2249Z" fill="#1F75FE"></path><path d="M52.36 2.90681C52.36 2.2504 52.6017 1.71707 53.085 1.22477C53.528 0.773487 54.0919 0.568359 54.7363 0.568359C55.3002 0.568359 55.8641 0.773487 56.3877 1.22477C56.8307 1.7581 57.0321 2.33246 57.0321 2.90681V14.8452C59.1668 13.2042 61.5431 12.3837 64.1611 12.3837C67.4638 12.3837 70.243 13.5324 72.5387 15.8709C74.8345 18.2093 75.9623 21.0401 75.9623 24.4042C75.9623 27.7272 74.8345 30.558 72.5387 32.8965C70.2027 35.2759 67.4236 36.4246 64.1611 36.4246C60.939 36.4246 58.1599 35.2349 55.8238 32.8965C53.4877 30.517 52.36 27.6862 52.36 24.4042V2.90681ZM56.9918 24.4452C56.9918 26.4555 57.7168 28.1785 59.1265 29.5734C60.4959 31.0093 62.1876 31.7477 64.1611 31.7477C66.1347 31.7477 67.8263 31.0093 69.236 29.5734C70.6054 28.0554 71.2901 26.3734 71.2901 24.4452C71.2901 22.517 70.6054 20.7529 69.236 19.276C67.7458 17.8811 66.0542 17.1837 64.1611 17.1837C62.1876 17.1837 60.4959 17.8811 59.1265 19.276C57.7168 20.7119 56.9918 22.435 56.9918 24.4042V24.4452Z" fill="#1F75FE"></path><path d="M81.0371 7.74765C80.3927 7.74765 79.8288 7.54253 79.3858 7.09125C78.9025 6.59894 78.6608 6.06561 78.6608 5.4092C78.6608 4.75279 78.9025 4.21946 79.3858 3.72715C79.8691 3.23485 80.3927 2.9887 81.0371 2.9887C81.6816 2.9887 82.2052 3.23485 82.6885 3.72715C83.1315 4.17843 83.3329 4.75279 83.3329 5.4092C83.3329 6.06561 83.1315 6.63996 82.6885 7.09125C82.2454 7.54253 81.6816 7.74765 81.0371 7.74765ZM78.7011 14.8861C78.7011 14.2297 78.9427 13.6964 79.4261 13.204C79.8691 12.7528 80.433 12.5476 81.0774 12.5476C81.6413 12.5476 82.2052 12.7528 82.7288 13.204C83.1718 13.7374 83.3732 14.3117 83.3732 14.8861V34.2091C83.3732 34.8655 83.1718 35.4399 82.7288 35.8911C82.2454 36.3834 81.7218 36.6296 81.0774 36.6296C80.433 36.6296 79.8691 36.3834 79.4261 35.8911C78.9427 35.4399 78.7011 34.8655 78.7011 34.2091V14.8861Z" fill="#1F75FE"></path><path d="M103.834 31.7888C104.398 31.7888 104.962 31.9939 105.485 32.4452C105.928 32.9785 106.13 33.5529 106.13 34.1272C106.13 34.7016 105.928 35.2759 105.485 35.8093C105.002 36.3016 104.478 36.5477 103.834 36.5477H89.2134C88.2064 36.5477 87.5217 36.0964 87.0787 35.1939C86.6759 34.0862 86.7565 33.2247 87.3204 32.6503L99.0812 17.2247H89.0925C88.4481 17.2247 87.9245 16.9786 87.4412 16.4863C86.9981 15.9529 86.7967 15.3786 86.7967 14.8042C86.7967 14.2299 86.9981 13.6555 87.4412 13.1222C87.9648 12.6709 88.5287 12.4658 89.0925 12.4658H103.713C104.76 12.4658 105.445 12.917 105.848 13.8196C106.331 14.7222 106.25 15.5427 105.606 16.3222L93.8452 31.7888H103.834Z" fill="#1F75FE"></path><path d="M128 38.6402C128 41.3479 127.033 43.6863 125.14 45.5735C123.207 47.5017 120.952 48.4863 118.293 48.4863C116.4 48.4863 114.709 47.994 113.178 47.0094C111.607 45.9838 110.399 44.6299 109.593 42.9479C109.312 42.2915 109.271 41.7171 109.513 41.1427C109.714 40.5274 110.077 40.0761 110.681 39.7889C111.245 39.5017 111.809 39.4607 112.413 39.7069C113.057 39.953 113.5 40.3633 113.742 40.8966C114.749 42.8248 116.279 43.7684 118.293 43.7684C119.743 43.7684 120.952 43.2761 121.918 42.2915C122.885 41.3069 123.368 40.0761 123.368 38.6402V35.1941C121.918 36.0966 120.307 36.5479 118.535 36.5479C115.917 36.5479 113.702 35.6043 111.889 33.7582C110.077 31.871 109.11 29.6146 109.07 26.989V15.0505C109.07 14.4762 109.271 13.9018 109.714 13.3685C110.238 12.9172 110.802 12.7121 111.366 12.7121C111.93 12.7121 112.493 12.9172 113.017 13.3685C113.46 13.9018 113.661 14.4762 113.661 15.0505V26.9479C113.661 28.3018 114.145 29.4915 115.111 30.4351C116.038 31.3787 117.166 31.871 118.495 31.871C119.824 31.871 120.992 31.3787 121.918 30.4351C122.845 29.4915 123.328 28.3018 123.328 26.9479V15.0505C123.328 14.4762 123.529 13.9018 123.972 13.3685C124.496 12.9172 125.06 12.7121 125.624 12.7121C126.228 12.7121 126.792 12.9172 127.315 13.3685C127.758 13.9018 127.96 14.4762 127.96 15.0505V38.6402H128Z" fill="#1F75FE"></path><path d="M14.097 8.36337H9.50539C8.25681 8.36337 7.20961 7.33774 7.20961 6.02492C7.20961 4.75313 8.21653 3.68647 9.50539 3.68647H14.097C15.3455 3.68647 16.3927 4.7121 16.3927 6.02492C16.3927 7.33774 15.3455 8.36337 14.097 8.36337Z" fill="#1F75FE"></path></symbol><symbol id="youtube" width="40" height="40" viewBox="0 0 40 40" xmlns="http://www.w3.org/2000/svg"><path d="M26.1568 18.2029L17.3198 13.3677C16.8117 13.0897 16.2111 13.1001 15.7131 13.3952C15.2147 13.6906 14.9175 14.2124 14.9175 14.7917V24.3791C14.9175 24.9555 15.2129 25.4765 15.7079 25.7722C15.9664 25.9266 16.2529 26.0041 16.5401 26.0041C16.8032 26.0041 17.0668 25.9391 17.3095 25.8085L26.1467 21.0566C26.6713 20.7743 26.9988 20.229 27.0012 19.633C27.0033 19.037 26.6798 18.4892 26.1568 18.2029V18.2029ZM17.2615 23.173V16.0075L23.8661 19.6214L17.2615 23.173Z"></path><path d="M39.7057 11.9944L39.7038 11.9761C39.6699 11.6542 39.3327 8.79039 37.9405 7.33379C36.3313 5.62053 34.507 5.4124 33.6296 5.31261C33.557 5.30437 33.4905 5.29674 33.431 5.28881L33.3611 5.28148C28.073 4.89696 20.0869 4.84447 20.0069 4.84417L19.9999 4.84386L19.9929 4.84417C19.9129 4.84447 11.9268 4.89696 6.59116 5.28148L6.52067 5.28881C6.4639 5.29644 6.40134 5.30346 6.33329 5.31139C5.46598 5.41149 3.66118 5.61992 2.04742 7.39513C0.721433 8.83617 0.338133 11.6386 0.298766 11.9535L0.294188 11.9944C0.282286 12.1284 0 15.3178 0 18.5197V21.5129C0 24.7148 0.282286 27.9042 0.294188 28.0384L0.296325 28.0586C0.330199 28.3754 0.667112 31.1866 2.05291 32.6438C3.56597 34.2997 5.4791 34.5188 6.50815 34.6366C6.67081 34.6553 6.81089 34.6711 6.90641 34.6879L6.99887 34.7007C10.0521 34.9913 19.6252 35.1344 20.031 35.1402L20.0433 35.1405L20.0555 35.1402C20.1354 35.1399 28.1212 35.0874 33.4093 34.7029L33.4792 34.6955C33.546 34.6867 33.6211 34.6788 33.7035 34.6702C34.5659 34.5787 36.3609 34.3885 37.9524 32.6374C39.2784 31.1961 39.662 28.3937 39.7011 28.079L39.7057 28.0381C39.7176 27.9039 40.0001 24.7148 40.0001 21.5129V18.5197C39.9998 15.3178 39.7176 12.1287 39.7057 11.9944V11.9944ZM37.6558 21.5129C37.6558 24.4764 37.397 27.5285 37.3726 27.8086C37.2731 28.5804 36.8688 30.3535 36.2227 31.0557C35.2266 32.1516 34.2034 32.2602 33.4563 32.3393C33.366 32.3487 33.2823 32.3579 33.2067 32.3674C28.0919 32.7372 20.4073 32.794 20.0533 32.7961C19.6563 32.7903 10.2233 32.646 7.26316 32.371C7.11148 32.3463 6.9476 32.3274 6.77488 32.3078C5.89872 32.2074 4.69938 32.0701 3.77715 31.0557L3.75548 31.0325C3.12072 30.3712 2.72796 28.7132 2.62816 27.8178C2.60955 27.606 2.34405 24.5179 2.34405 21.5129V18.5197C2.34405 15.5595 2.60222 12.5108 2.62725 12.2248C2.74596 11.3157 3.15795 9.65007 3.77715 8.97686C4.80375 7.84771 5.88621 7.72258 6.60215 7.63988C6.67051 7.63195 6.73429 7.62462 6.79319 7.61699C11.9824 7.24529 19.7222 7.19005 19.9999 7.18792C20.2776 7.18975 28.0147 7.24529 33.1578 7.61699C33.221 7.62493 33.29 7.63286 33.3641 7.64141C34.1005 7.72533 35.2135 7.85228 36.2349 8.94176L36.2444 8.95183C36.8791 9.61315 37.2719 11.3002 37.3717 12.2135C37.3894 12.4134 37.6558 15.5082 37.6558 18.5197V21.5129Z"></path></symbol><symbol id="smart-drop-down" width="11" height="10" viewBox="0 0 11 10" fill="none" xmlns="http://www.w3.org/2000/svg"><path d="M5.5 9.61108L0.303847 0.611085L10.6962 0.611084L5.5 9.61108Z" fill="#1F75FE"></path></symbol><symbol id="logo" viewBox="0 0 132 51" xmlns="http://www.w3.org/2000/svg"><path d="M24.1618 37.9787C24.1618 41.3975 22.9661 44.3462 20.6159 46.8248C18.2244 49.3034 15.3794 50.5 12.0809 50.5C9.81316 50.5 7.66911 49.859 5.68998 48.6197C3.75209 47.3804 2.22651 45.671 1.19572 43.4915C0.907099 42.8077 0.865867 42.2094 1.11326 41.6111C1.31942 40.9701 1.6905 40.5 2.30898 40.2009C2.88622 39.859 3.5047 39.8163 4.12318 40.03C4.74165 40.2436 5.1952 40.671 5.48382 41.2693C6.84447 44.1325 9.02975 45.5428 12.0809 45.5428C14.06 45.5428 15.7918 44.8163 17.1936 43.3633C18.6368 41.8676 19.3789 40.1154 19.4202 38.1069V35.3718C17.1936 37.0812 14.7197 37.9787 12.1221 37.9787C8.78236 37.9787 5.93737 36.7394 3.54593 34.3035C1.15449 31.8676 0 28.9189 0 25.4574C0 21.9531 1.15449 19.0044 3.5047 16.5685C5.85491 14.1326 8.6999 12.936 12.0809 12.936C15.4207 12.936 18.2657 14.1326 20.6159 16.5685C23.0073 19.0471 24.1618 21.9958 24.1618 25.4574V37.9787ZM12.0809 33.0214C14.06 33.0214 15.7918 32.2522 17.2349 30.7565C18.678 29.2608 19.4202 27.4659 19.4202 25.4146C19.4202 23.3206 18.678 21.5257 17.2349 20.03C15.7093 18.577 14.0188 17.8505 12.0809 17.8505C10.0605 17.8505 8.32881 18.577 6.92693 20.03C5.48382 21.5257 4.74165 23.3206 4.74165 25.4146C4.74165 27.4659 5.48382 29.2608 6.92693 30.7565C8.32881 32.2949 10.0605 33.0214 12.0809 33.0214Z"></path><path d="M38.7579 37.9787C35.4593 37.9787 32.6143 36.7394 30.2229 34.3035C27.8315 31.8249 26.677 28.8761 26.677 25.4574C26.677 21.9958 27.8727 19.0471 30.2229 16.5685C32.5731 14.1326 35.4181 12.936 38.7579 12.936C42.1389 12.936 44.9839 14.1326 47.3341 16.5685C49.6843 19.0044 50.8388 21.9531 50.8388 25.4574C50.8388 28.9189 49.6843 31.8676 47.3341 34.3035C44.9426 36.7394 42.0976 37.9787 38.7579 37.9787ZM38.7579 17.8505C36.7375 17.8505 35.0058 18.577 33.6039 20.03C32.1608 21.5257 31.4186 23.3206 31.4186 25.4146C31.4186 27.4659 32.1608 29.2608 33.6039 30.7565C35.0058 32.2522 36.7375 33.0214 38.7579 33.0214C40.7782 33.0214 42.51 32.2522 43.9531 30.7565C45.3549 29.1753 46.0559 27.4232 46.0559 25.4146C46.0559 23.4061 45.3549 21.5685 43.9531 20.03C42.4687 18.577 40.6958 17.8505 38.7579 17.8505Z"></path><path d="M53.6013 2.93589C53.6013 2.25213 53.8487 1.69658 54.3435 1.18376C54.797 0.713675 55.3742 0.5 56.034 0.5C56.6112 0.5 57.1884 0.713675 57.7245 1.18376C58.178 1.73931 58.3842 2.3376 58.3842 2.93589V15.3717C60.5695 13.6623 63.0021 12.8077 65.6822 12.8077C69.0632 12.8077 71.9082 14.0042 74.2584 16.4401C76.6086 18.876 77.7631 21.8247 77.7631 25.329C77.7631 28.7905 76.6086 31.7392 74.2584 34.1751C71.867 36.6537 69.022 37.8503 65.6822 37.8503C62.3837 37.8503 59.5387 36.611 57.1472 34.1751C54.7558 31.6965 53.6013 28.7478 53.6013 25.329V2.93589ZM58.3429 25.3717C58.3429 27.4657 59.0851 29.2606 60.5282 30.7136C61.9301 32.2093 63.6618 32.9785 65.6822 32.9785C67.7026 32.9785 69.4343 32.2093 70.8774 30.7136C72.2793 29.1324 72.9802 27.3803 72.9802 25.3717C72.9802 23.3632 72.2793 21.5256 70.8774 19.9871C69.3518 18.5341 67.6201 17.8076 65.6822 17.8076C63.6618 17.8076 61.9301 18.5341 60.5282 19.9871C59.0851 21.4828 58.3429 23.2777 58.3429 25.329V25.3717Z"></path><path d="M82.9583 7.97843C82.2986 7.97843 81.7213 7.76476 81.2678 7.29467C80.773 6.78185 80.5256 6.2263 80.5256 5.54254C80.5256 4.85878 80.773 4.30323 81.2678 3.79041C81.7626 3.27759 82.2986 3.02118 82.9583 3.02118C83.618 3.02118 84.154 3.27759 84.6488 3.79041C85.1023 4.26049 85.3085 4.85878 85.3085 5.54254C85.3085 6.2263 85.1023 6.82459 84.6488 7.29467C84.1952 7.76476 83.618 7.97843 82.9583 7.97843ZM80.5668 15.4143C80.5668 14.7305 80.8142 14.175 81.309 13.6622C81.7626 13.1921 82.3398 12.9784 82.9995 12.9784C83.5768 12.9784 84.154 13.1921 84.69 13.6622C85.1436 14.2177 85.3497 14.816 85.3497 15.4143V35.5424C85.3497 36.2262 85.1436 36.8245 84.69 37.2946C84.1952 37.8074 83.6592 38.0638 82.9995 38.0638C82.3398 38.0638 81.7626 37.8074 81.309 37.2946C80.8142 36.8245 80.5668 36.2262 80.5668 35.5424V15.4143Z"></path><path d="M106.295 33.0213C106.873 33.0213 107.45 33.2349 107.986 33.705C108.44 34.2606 108.646 34.8589 108.646 35.4571C108.646 36.0554 108.44 36.6537 107.986 37.2093C107.491 37.7221 106.955 37.9785 106.295 37.9785H91.3283C90.2975 37.9785 89.5966 37.5084 89.1431 36.5683C88.7307 35.4144 88.8132 34.517 89.3904 33.9187L101.43 17.8504H91.2046C90.5449 17.8504 90.0089 17.594 89.5141 17.0811C89.0606 16.5256 88.8544 15.9273 88.8544 15.329C88.8544 14.7307 89.0606 14.1324 89.5141 13.5769C90.0501 13.1068 90.6274 12.8931 91.2046 12.8931H106.172C107.244 12.8931 107.945 13.3632 108.357 14.3034C108.852 15.2435 108.769 16.0982 108.11 16.9102L96.07 33.0213H106.295Z"></path><path d="M131.034 40.1582C131.034 42.9787 130.045 45.4146 128.107 47.3804C126.128 49.3889 123.819 50.4145 121.098 50.4145C119.16 50.4145 117.428 49.9017 115.861 48.8761C114.253 47.8077 113.016 46.3975 112.192 44.6453C111.903 43.9616 111.862 43.3633 112.109 42.765C112.315 42.124 112.686 41.6539 113.305 41.3547C113.882 41.0556 114.459 41.0129 115.078 41.2693C115.738 41.5257 116.191 41.953 116.438 42.5086C117.469 44.5171 119.036 45.5 121.098 45.5C122.582 45.5 123.819 44.9872 124.809 43.9616C125.798 42.9359 126.293 41.6539 126.293 40.1582V36.5684C124.808 37.5086 123.159 37.9787 121.345 37.9787C118.665 37.9787 116.397 36.9958 114.542 35.0727C112.686 33.1069 111.697 30.7565 111.656 28.0215V15.5856C111.656 14.9873 111.862 14.389 112.315 13.8335C112.851 13.3634 113.429 13.1497 114.006 13.1497C114.583 13.1497 115.16 13.3634 115.696 13.8335C116.15 14.389 116.356 14.9873 116.356 15.5856V27.9787C116.356 29.389 116.851 30.6283 117.84 31.6112C118.789 32.5941 119.943 33.1069 121.304 33.1069C122.664 33.1069 123.86 32.5941 124.809 31.6112C125.757 30.6283 126.252 29.389 126.252 27.9787V15.5856C126.252 14.9873 126.458 14.389 126.911 13.8335C127.447 13.3634 128.025 13.1497 128.602 13.1497C129.22 13.1497 129.798 13.3634 130.334 13.8335C130.787 14.389 130.993 14.9873 130.993 15.5856V40.1582H131.034Z"></path><path d="M14.4312 8.61981H9.73074C8.45255 8.61981 7.38053 7.55143 7.38053 6.18392C7.38053 4.85914 8.41132 3.74803 9.73074 3.74803H14.4312C15.7093 3.74803 16.7814 4.8164 16.7814 6.18392C16.7814 7.55143 15.7093 8.61981 14.4312 8.61981Z"></path></symbol></svg>