<svg width="42" height="43" viewBox="0 0 42 43" fill="none" xmlns="http://www.w3.org/2000/svg">
    <path d="M10.664 15.758a.82.82 0 1 0 0 1.641.82.82 0 0 0 0-1.641z" fill="#2C2C2C"/>
    <path d="m12.774 32.927-.06.07.06-.07c-.408-.351-.655-1.005-.655-1.81V25.81h3.164c3.778.35 7.746 1.916 11.802 4.662.237 1.18 1.221 2.074 2.406 2.074 1.363 0 2.46-1.184 2.46-2.626v-7.48c1.755-.057 3.149-1.593 3.149-3.467 0-1.87-1.397-3.41-3.148-3.467v-7.48c0-1.445-1.095-2.627-2.461-2.627-1.364 0-2.461 1.185-2.461 2.626v.66c-3.727 2.425-8.006 3.11-11.744 3.45h-7.99C3.77 12.137.9 15.189.9 18.975c0 3.098 1.979 5.801 4.722 6.597v8.56c0 1.907 1.451 3.469 3.248 3.469h2.362c1.16 0 1.997-.788 2.316-1.758.32-.97.13-2.14-.774-2.915zM7.296 14.02h7.141v9.905h-7.14c-.219 0-.439-.016-.655-.05-2.257-.34-3.968-2.444-3.968-4.902 0-2.739 2.07-4.953 4.622-4.953zm3.936 21.695H8.87c-.806 0-1.474-.705-1.474-1.584V25.81h2.948v5.305c0 1.357.474 2.554 1.314 3.276a.766.766 0 0 1 .22.829c-.092.28-.327.495-.646.495zM27.03 10.858v17.365c-3.675-2.327-7.305-3.738-10.819-4.202V13.939c3.442-.355 7.284-1.058 10.819-3.081zm3.148 19.063c0 .416-.315.742-.687.742-.373 0-.687-.326-.687-.742V8.026c0-.415.314-.742.687-.742.373 0 .687.326.687.742v21.895zm1.774-12.528c.76.055 1.374.737 1.374 1.58 0 .846-.612 1.526-1.374 1.581v-3.16z" fill="#2C2C2C" stroke="#2C2C2C" stroke-width=".2"/>
    <path d="M41.18 17.398h-3.282a.82.82 0 0 0 0 1.641h3.282a.82.82 0 0 0 0-1.64zM39.253 7.965a.82.82 0 0 0-1.12-.3l-2.842 1.64a.82.82 0 1 0 .82 1.421l2.842-1.64a.82.82 0 0 0 .3-1.121zM38.953 27.352l-2.842-1.64a.82.82 0 0 0-.82 1.42l2.842 1.641a.816.816 0 0 0 1.12-.3.82.82 0 0 0-.3-1.12zM7.383 15.758h-.82a3.285 3.285 0 0 0-3.282 3.281.82.82 0 0 0 1.64 0c0-.905.737-1.64 1.641-1.64h.82a.82.82 0 0 0 0-1.641z" fill="#2C2C2C"/>
</svg>
