<svg width="42" height="43" viewBox="0 0 42 43" fill="none" xmlns="http://www.w3.org/2000/svg">
    <g clip-path="url(#a)" fill="#2C2C2C">
        <path d="M20.847 23.13h.278c2.549-.043 4.61-.939 6.132-2.652 3.349-3.775 2.792-10.246 2.731-10.863-.217-4.636-2.41-6.854-4.218-7.889C24.422.952 22.848.535 21.09.5h-.147c-.966 0-2.862.157-4.68 1.192-1.826 1.035-4.053 3.252-4.27 7.923-.06.617-.617 7.088 2.731 10.863 1.513 1.713 3.575 2.61 6.123 2.653zM14.315 9.833c0-.026.009-.052.009-.07.287-6.235 4.714-6.905 6.61-6.905H21.039c2.348.052 6.34 1.009 6.61 6.906 0 .026 0 .052.008.07.009.06.618 5.974-2.148 9.088-1.096 1.235-2.557 1.844-4.48 1.861h-.086c-1.914-.017-3.384-.626-4.47-1.86-2.758-3.097-2.166-9.037-2.158-9.09z"/>
        <path d="M38.86 33.863v-.026c0-.07-.01-.14-.01-.218-.051-1.722-.164-5.749-3.94-7.036-.025-.009-.06-.017-.086-.026-3.923-1-7.184-3.262-7.219-3.288a1.173 1.173 0 1 0-1.348 1.922c.148.105 3.61 2.514 7.94 3.627 2.027.722 2.253 2.888 2.314 4.87 0 .079 0 .149.009.218.009.783-.044 1.992-.183 2.688-1.409.8-6.932 3.566-15.333 3.566-8.367 0-13.925-2.775-15.343-3.575-.139-.696-.2-1.905-.182-2.688 0-.07.008-.139.008-.217.061-1.983.287-4.149 2.314-4.87 4.331-1.114 7.793-3.532 7.94-3.627a1.173 1.173 0 1 0-1.348-1.922c-.034.026-3.278 2.287-7.218 3.287-.035.009-.061.018-.087.026-3.775 1.296-3.888 5.323-3.94 7.036 0 .079 0 .148-.009.218v.026c-.009.452-.017 2.775.444 3.94.087.226.243.417.452.548.26.174 6.514 4.157 16.977 4.157 10.463 0 16.717-3.992 16.978-4.157.2-.13.365-.322.452-.548.435-1.157.426-3.48.417-3.931z"/>
    </g>
    <defs>
        <clipPath id="a">
            <path fill="#fff" transform="translate(0 .5)" d="M0 0h42v42H0z"/>
        </clipPath>
    </defs>
</svg>
