<svg width="42" height="43" viewBox="0 0 42 43" fill="none" xmlns="http://www.w3.org/2000/svg">
    <g clip-path="url(#a)">
        <path d="m37.63 26.352.009-.01c.267-.271.346-.406.726-.949 4.867-4.934 4.847-12.908-.062-17.817-1.559-1.556-1.492-1.499-1.574-1.566-4.51-3.724-10.827-3.829-15.682-.95A13.543 13.543 0 0 0 4.042 7.683L3.05 8.79c-4.231 4.72-4.036 11.93.444 16.414l4.538 4.64a3.678 3.678 0 0 0 2.407 1.073 3.678 3.678 0 0 0 1.074 2.407 3.676 3.676 0 0 0 2.407 1.074 3.692 3.692 0 0 0 4.916 3.279 3.696 3.696 0 0 0 6.09 1.379l2.25-2.25A3.676 3.676 0 0 0 28.25 34.4a3.663 3.663 0 0 0 2.408-1.076 3.665 3.665 0 0 0 1.075-2.407 3.677 3.677 0 0 0 2.406-1.073 3.675 3.675 0 0 0 1.073-2.407 3.677 3.677 0 0 0 2.407-1.074l.011-.012zm-2.512-18.48 1.445 1.444c3.363 3.364 3.876 8.514 1.54 12.424-.376-.575-.105-.178-7.206-7.32 1.238-.199 2.38-.779 3.282-1.681a1.23 1.23 0 1 0-1.74-1.74 3.565 3.565 0 0 1-4.967.047l-.351-.338a1.23 1.23 0 0 0-1.536-.137l-6.309 4.206a4.791 4.791 0 0 1-5.06.147c5.313-5.399 5.685-6.087 7.238-7.194.008-.002 7.2-5.137 13.664.142zM9.771 26.364l3.481-3.481c.48-.48 1.26-.48 1.74 0s.48 1.26 0 1.74l-3.48 3.481-.001.001a1.232 1.232 0 0 1-1.736.002l-.01-.009a1.232 1.232 0 0 1 .006-1.734zm3.48 3.48 3.482-3.48a1.23 1.23 0 1 1 1.74 1.74l-3.48 3.481c-.48.48-1.261.48-1.74 0-.48-.48-.48-1.26-.001-1.74zm3.482 5.222c-.48-.48-.48-1.26 0-1.74l3.481-3.482a1.23 1.23 0 1 1 1.74 1.74c-.415.417-3.075 3.077-3.48 3.482a1.23 1.23 0 0 1-1.74 0zm8.702 0-2.25 2.25c-.48.48-1.26.48-1.74 0s-.48-1.26 0-1.74l2.25-2.25a1.232 1.232 0 0 1 1.74 1.74zm8.702-10.443-6.962-6.962a1.23 1.23 0 1 0-1.74 1.74l6.962 6.963a1.232 1.232 0 0 1-1.74 1.74l-6.962-6.962a1.23 1.23 0 1 0-1.74 1.74l6.961 6.962a1.23 1.23 0 1 1-1.74 1.741 3.676 3.676 0 0 0-2.406-1.073 3.665 3.665 0 0 0-1.075-2.408 3.676 3.676 0 0 0-2.406-1.073 3.665 3.665 0 0 0-1.075-2.408 3.676 3.676 0 0 0-2.407-1.073 3.677 3.677 0 0 0-1.074-2.408 3.696 3.696 0 0 0-5.221 0L8.03 24.623a3.678 3.678 0 0 0-.697.972L5.247 23.48a9.486 9.486 0 0 1-.366-13.045l.994-1.109a11.123 11.123 0 0 1 12.962-2.654c-.22.195-.435.397-.645.606l-6.694 6.918a1.23 1.23 0 0 0 .014 1.726 7.254 7.254 0 0 0 9.13.904l5.503-3.67c.06.05 9.576 9.571 9.732 9.728.864.864-.042 1.768-.046 1.783a1.231 1.231 0 0 1-1.694-.043z" fill="#2C2C2C"/>
    </g>
    <defs>
        <clipPath id="a">
            <path fill="#fff" transform="translate(0 .5)" d="M0 0h42v42H0z"/>
        </clipPath>
    </defs>
</svg>
