<svg width="42" height="40" viewBox="0 0 42 40" fill="none" xmlns="http://www.w3.org/2000/svg">
<path d="M25.1836 34.1523L21.6689 32.2921C21.3606 32.1289 20.9924 32.1289 20.684 32.2921L9.53452 38.1934L11.6639 25.6944C11.7228 25.3487 11.6091 24.9961 11.3596 24.7512L2.33939 15.8993L14.805 14.0758C15.1498 14.0253 15.4477 13.8074 15.6017 13.4929L17.2967 10.0353C17.442 9.73898 17.3212 9.38017 17.0268 9.23394C16.7323 9.08762 16.376 9.20942 16.2308 9.5057L14.5661 12.9014L1.90693 14.7533C1.50537 14.812 1.17798 15.0898 1.05258 15.4784C0.92719 15.8669 1.02981 16.2854 1.3204 16.5705L10.4807 25.56L8.31826 38.2535C8.24969 38.656 8.41094 39.0553 8.73929 39.2954C8.92482 39.4312 9.14179 39.5 9.36026 39.5C9.52845 39.5 9.69751 39.4591 9.85372 39.3765L21.1765 33.3835L24.6304 35.2116C24.921 35.3652 25.2803 35.2529 25.4331 34.9604C25.5858 34.6679 25.4741 34.3062 25.1836 34.1523Z" fill="#2C2C2C"/>
<path d="M40.9464 15.318C40.8187 14.9268 40.4851 14.6472 40.0761 14.5881L27.1793 12.7238L21.4117 1.09788C21.2287 0.729088 20.8583 0.5 20.4449 0.5C20.0314 0.5 19.661 0.729088 19.478 1.09788L17.0627 5.96671C16.9147 6.26505 17.0378 6.62626 17.3377 6.77347C17.6375 6.92052 18.0006 6.79807 18.1486 6.49989L20.4449 1.87117L26.1242 13.3191C26.2812 13.6358 26.5847 13.8551 26.936 13.906L39.6355 15.7418L30.446 24.6528C30.1918 24.8993 30.0759 25.2542 30.136 25.6021L32.3053 38.1847L27.9135 35.8878C27.6176 35.7332 27.2514 35.8463 27.0958 36.1407C26.9402 36.4352 27.0541 36.7994 27.35 36.9542L31.9801 39.3757C32.1393 39.4589 32.3115 39.5 32.4829 39.5C32.7054 39.5 32.9266 39.4306 33.1155 39.2941C33.4499 39.0524 33.6143 38.6504 33.5444 38.2451L31.3414 25.4669L40.6736 16.4174C40.9696 16.1304 41.0742 15.7091 40.9464 15.318Z" fill="#2C2C2C"/>
<path d="M25.1836 34.1523L21.6689 32.2921C21.3606 32.1289 20.9924 32.1289 20.684 32.2921L9.53452 38.1934L11.6639 25.6944C11.7228 25.3487 11.6091 24.9961 11.3596 24.7512L2.33939 15.8993L14.805 14.0758C15.1498 14.0253 15.4477 13.8074 15.6017 13.4929L17.2967 10.0353C17.442 9.73898 17.3212 9.38017 17.0268 9.23394C16.7323 9.08762 16.376 9.20942 16.2308 9.5057L14.5661 12.9014L1.90693 14.7533C1.50537 14.812 1.17798 15.0898 1.05258 15.4784C0.92719 15.8669 1.02981 16.2854 1.3204 16.5705L10.4807 25.56L8.31826 38.2535C8.24969 38.656 8.41094 39.0553 8.73929 39.2954C8.92482 39.4312 9.14179 39.5 9.36026 39.5C9.52845 39.5 9.69751 39.4591 9.85372 39.3765L21.1765 33.3835L24.6304 35.2116C24.921 35.3652 25.2803 35.2529 25.4331 34.9604C25.5858 34.6679 25.4741 34.3062 25.1836 34.1523Z" stroke="#2C2C2C"/>
<path d="M40.9464 15.318C40.8187 14.9268 40.4851 14.6472 40.0761 14.5881L27.1793 12.7238L21.4117 1.09788C21.2287 0.729088 20.8583 0.5 20.4449 0.5C20.0314 0.5 19.661 0.729088 19.478 1.09788L17.0627 5.96671C16.9147 6.26505 17.0378 6.62626 17.3377 6.77347C17.6375 6.92052 18.0006 6.79807 18.1486 6.49989L20.4449 1.87117L26.1242 13.3191C26.2812 13.6358 26.5847 13.8551 26.936 13.906L39.6355 15.7418L30.446 24.6528C30.1918 24.8993 30.0759 25.2542 30.136 25.6021L32.3053 38.1847L27.9135 35.8878C27.6176 35.7332 27.2514 35.8463 27.0958 36.1407C26.9402 36.4352 27.0541 36.7994 27.35 36.9542L31.9801 39.3757C32.1393 39.4589 32.3115 39.5 32.4829 39.5C32.7054 39.5 32.9266 39.4306 33.1155 39.2941C33.4499 39.0524 33.6143 38.6504 33.5444 38.2451L31.3414 25.4669L40.6736 16.4174C40.9696 16.1304 41.0742 15.7091 40.9464 15.318Z" stroke="#2C2C2C"/>
</svg>
