<svg width="40" height="41" viewBox="0 0 40 41" fill="none" xmlns="http://www.w3.org/2000/svg">
<rect width="40" height="41" fill="#E5E5E5"/>
<rect x="-606" y="-5458" width="1920" height="6273" fill="white"/>
<g clip-path="url(#clip0_0_1)">
<g clip-path="url(#clip1_0_1)">
<path d="M15.666 24.5742H16.9993V25.9076H15.666V24.5742Z" fill="#7A7A7A"/>
<path d="M11.666 24.5742H12.9993V25.9076H11.666V24.5742Z" fill="#7A7A7A"/>
<path d="M7.66602 24.5742H8.99935V25.9076H7.66602V24.5742Z" fill="#7A7A7A"/>
<path d="M19.667 24.5742H21.0003V25.9076H19.667V24.5742Z" fill="#7A7A7A"/>
<path d="M19.0007 13.9075H20.3818L20.736 18.6243L22.0654 18.5241L21.7194 13.9075H36.2819L34.3818 39.2409H29.6673V40.5742H35.0007C35.3503 40.5752 35.641 40.306 35.6673 39.9577L37.6195 13.9075H39.0007C39.3688 13.9075 39.6673 13.609 39.6673 13.2409V9.90755C39.6673 9.53938 39.3688 9.24088 39.0007 9.24088H31.0007V1.24089C31.0007 0.872721 30.7021 0.574219 30.334 0.574219H27.6673C27.2992 0.574219 27.0007 0.872721 27.0007 1.24089V9.24088H19.0007C18.6325 9.24088 18.334 9.53938 18.334 9.90755V13.2409C18.334 13.609 18.6325 13.9075 19.0007 13.9075ZM28.334 1.90755H29.6673V9.24088H28.334V1.90755ZM19.6673 10.5742H38.334V12.5742H19.6673V10.5742Z" fill="#7A7A7A"/>
<path d="M3.66732 40.5732H25.0007C26.8408 40.571 28.3317 39.0801 28.334 37.2399V34.5732C28.334 34.2051 28.0355 33.9066 27.6673 33.9066H27.6501C28.5618 32.7292 28.5618 31.084 27.6501 29.9066H27.6673C28.0355 29.9066 28.334 29.6081 28.334 29.2399C28.335 26.6045 27.292 24.0755 25.4333 22.2074L25.1901 18.5293L23.8568 18.6172L24.016 21.0225C22.3486 19.8617 20.3656 19.2396 18.334 19.2399H10.334C4.8138 19.2461 0.340169 23.7197 0.333984 29.2399C0.333984 29.6081 0.632487 29.9066 1.00065 29.9066H1.0179C0.10612 31.084 0.10612 32.7292 1.0179 33.9066H1.00065C0.632487 33.9066 0.333984 34.2051 0.333984 34.5732V37.2399C0.336263 39.0801 1.82715 40.571 3.66732 40.5732ZM27.0007 37.2399C27.0007 38.3444 26.1051 39.2399 25.0007 39.2399H3.66732C2.56283 39.2399 1.66732 38.3444 1.66732 37.2399V35.2399H27.0007V37.2399ZM20.3841 33.9066L25.7005 30.04C26.6068 30.377 27.141 31.3148 26.9688 32.2663C26.7966 33.2175 25.9674 33.9085 25.0007 33.9066H20.3841ZM18.3174 33.7614L12.5339 29.9066H23.6172L18.3174 33.7614ZM10.334 20.5732H18.334C22.86 20.5785 26.6217 24.0612 26.9753 28.5732H1.69271C2.04622 24.0612 5.80827 20.5785 10.334 20.5732ZM1.66732 31.9066C1.66732 30.8021 2.56283 29.9066 3.66732 29.9066H10.1341L16.1341 33.9066H3.66732C2.56283 33.9066 1.66732 33.0111 1.66732 31.9066Z" fill="#7A7A7A"/>
<path d="M17.666 21.9082H18.9993V23.2415H17.666V21.9082Z" fill="#7A7A7A"/>
<path d="M13.666 21.9082H14.9993V23.2415H13.666V21.9082Z" fill="#7A7A7A"/>
<path d="M9.66602 21.9082H10.9993V23.2415H9.66602V21.9082Z" fill="#7A7A7A"/>
<path d="M23.668 15.9544L24.998 15.8594L25.0934 17.1927L23.7633 17.2878L23.668 15.9544Z" fill="#7A7A7A"/>
</g>
</g>
<defs>
<clipPath id="clip0_0_1">
<rect width="1074" height="296" fill="white" transform="translate(-366 -127.426)"/>
</clipPath>
<clipPath id="clip1_0_1">
<rect width="40" height="40" fill="white" transform="translate(0 0.574219)"/>
</clipPath>
</defs>
</svg>
