<svg width="36" height="41" viewBox="0 0 36 41" fill="none" xmlns="http://www.w3.org/2000/svg">
<rect width="36" height="41" fill="#E5E5E5"/>
<rect x="-242" y="-5458" width="1920" height="6273" fill="white"/>
<g clip-path="url(#clip0_0_1)">
<g clip-path="url(#clip1_0_1)">
<path d="M35.0985 8.74611C34.9722 7.89689 34.4019 7.16564 33.6099 6.83768L18.939 0.762129C18.3336 0.511582 17.6669 0.511582 17.0615 0.762129L2.39052 6.83768C1.59857 7.16564 1.02818 7.89689 0.90193 8.74611C0.593884 10.8185 0.0774773 16.3013 1.92951 22.4399C2.95951 25.8537 4.57349 28.9954 6.72662 31.7777C9.31131 35.1176 12.703 37.9736 16.8076 40.2662C17.1754 40.4715 17.5878 40.5742 18.0002 40.5742C18.4126 40.5742 18.825 40.4715 19.1928 40.2661C23.2974 37.9735 26.6891 35.1175 29.2738 31.7776C31.4269 28.9953 33.0408 25.8536 34.0708 22.4398C35.9229 16.3013 35.4065 10.8185 35.0985 8.74611ZM32.9503 22.1017C30.7497 29.3953 25.929 35.1628 18.6221 39.2442C18.2387 39.4583 17.7622 39.4584 17.3786 39.2442C10.0715 35.1629 5.25076 29.3953 3.05021 22.1017C1.26654 16.1896 1.76342 10.9125 2.05982 8.91815C2.12592 8.47346 2.42427 8.09064 2.83842 7.91924L17.5094 1.84369C17.6676 1.77814 17.834 1.74533 18.0003 1.74533C18.1665 1.74533 18.3329 1.77814 18.4912 1.84369L33.1622 7.91924C33.5763 8.09072 33.8746 8.47346 33.9406 8.91815C34.2371 10.9126 34.7339 16.1897 32.9503 22.1017Z" fill="#7A7A7A"/>
<path d="M30.5783 9.58879L24.8441 7.24863C24.5447 7.1266 24.2031 7.27012 24.0811 7.56941C23.9591 7.86871 24.1026 8.21035 24.4019 8.33246L30.136 10.6726C30.4304 10.7927 30.6422 11.0594 30.6888 11.3686C30.9256 12.9385 31.3225 17.0925 29.8976 21.7468C28.1398 27.4881 24.287 32.0294 18.4463 35.2445C18.1709 35.396 17.8287 35.396 17.5534 35.2445C11.7126 32.0294 7.85977 27.4882 6.10203 21.7468C4.67695 17.0925 5.07383 12.9386 5.31063 11.3686C5.35727 11.0593 5.56906 10.7927 5.86352 10.6726L17.6468 5.86379C17.871 5.77223 18.1285 5.77215 18.3528 5.86379L21.8917 7.30809C22.1911 7.43012 22.5327 7.28652 22.6548 6.9873C22.7769 6.68801 22.6333 6.34637 22.334 6.22426L18.795 4.77996C18.2821 4.57066 17.7173 4.57082 17.2045 4.77996L5.42117 9.58879C4.74688 9.86395 4.26094 10.4791 4.15313 11.194C3.90445 12.843 3.48742 17.2057 4.98266 22.0894C5.81446 24.8064 7.11781 27.3067 8.85656 29.5208C10.9424 32.177 13.6785 34.4477 16.9889 36.2699C17.3007 36.4415 17.6502 36.5273 17.9998 36.5273C18.3493 36.5272 18.6989 36.4415 19.0106 36.2699C22.3211 34.4478 25.0572 32.177 27.143 29.5208C28.8816 27.3067 30.185 24.8063 31.0168 22.0894C32.512 17.2056 32.095 12.8429 31.8462 11.194C31.7384 10.479 31.2526 9.86395 30.5783 9.58879Z" fill="#7A7A7A"/>
<path d="M16.8345 27.6715H19.1676C20.0027 27.6715 20.6823 26.9952 20.6823 26.164V23.5768C20.6823 23.391 20.8366 23.2398 21.0263 23.2398H23.6338C24.4691 23.2398 25.1485 22.5636 25.1485 21.7324V19.4176C25.1485 18.5863 24.4691 17.9101 23.6338 17.9101H21.0263C20.8366 17.9101 20.6823 17.759 20.6823 17.5732V14.9859C20.6823 14.1548 20.0028 13.4785 19.1676 13.4785H16.8345C15.9994 13.4785 15.3198 14.1547 15.3198 14.9859V17.5732C15.3198 17.7589 15.1655 17.9101 14.9758 17.9101H12.3682C11.533 17.9101 10.8535 18.5863 10.8535 19.4176V21.7324C10.8535 22.4868 11.4198 23.1294 12.1706 23.2271C12.4913 23.2693 12.7848 23.0427 12.8266 22.7223C12.8683 22.4017 12.6422 22.1081 12.3217 22.0663C12.1521 22.0442 12.0241 21.9007 12.0241 21.7325V19.4177C12.0241 19.2319 12.1785 19.0807 12.3682 19.0807H14.9758C15.8109 19.0807 16.4905 18.4045 16.4905 17.5733V14.986C16.4905 14.8003 16.6448 14.6491 16.8345 14.6491H19.1676C19.3573 14.6491 19.5116 14.8002 19.5116 14.986V17.5733C19.5116 18.4045 20.1911 19.0807 21.0262 19.0807H23.6337C23.8235 19.0807 23.9779 19.2318 23.9779 19.4177V21.7325C23.9779 21.9182 23.8235 22.0694 23.6337 22.0694H21.0262C20.1911 22.0694 19.5116 22.7456 19.5116 23.5769V26.1641C19.5116 26.3498 19.3573 26.501 19.1676 26.501H16.8345C16.6448 26.501 16.4905 26.3499 16.4905 26.1641V23.5769C16.4905 22.7457 15.811 22.0694 14.9758 22.0694C14.6525 22.0694 14.3905 22.3314 14.3905 22.6547C14.3905 22.978 14.6525 23.24 14.9758 23.24C15.1655 23.24 15.3198 23.3911 15.3198 23.577V26.1641C15.3199 26.9952 15.9994 27.6715 16.8345 27.6715Z" fill="#7A7A7A"/>
</g>
</g>
<defs>
<clipPath id="clip0_0_1">
<rect width="1074" height="296" fill="white" transform="translate(-2 -127.426)"/>
</clipPath>
<clipPath id="clip1_0_1">
<rect width="40" height="40" fill="white" transform="translate(-2 0.574219)"/>
</clipPath>
</defs>
</svg>
