<svg width="40" height="35" viewBox="0 0 40 35" fill="none" xmlns="http://www.w3.org/2000/svg">
<rect width="40" height="35" fill="#E5E5E5"/>
<rect x="-240" y="-5589" width="1920" height="6273" fill="white"/>
<g clip-path="url(#clip0_0_1)">
<path d="M27.9834 8.48828V9.42656C27.9834 9.75016 28.2457 10.0125 28.5693 10.0125C28.8929 10.0125 29.1553 9.75016 29.1553 9.42656V8.48828C29.1553 8.16469 28.8929 7.90234 28.5693 7.90234C28.2457 7.90234 27.9834 8.16469 27.9834 8.48828Z" fill="#7A7A7A"/>
<path d="M3.58082 5.55812C4.87361 5.55812 5.92531 4.50642 5.92531 3.21363C5.92531 1.92084 4.87361 0.869141 3.58082 0.869141C2.28811 0.869141 1.23633 1.92084 1.23633 3.21363C1.23633 4.50634 2.28803 5.55812 3.58082 5.55812ZM3.58082 2.041C4.22745 2.041 4.75346 2.567 4.75346 3.21363C4.75346 3.86018 4.22745 4.38627 3.58082 4.38627C2.93427 4.38627 2.40818 3.86026 2.40818 3.21363C2.40818 2.567 2.93419 2.041 3.58082 2.041Z" fill="#7A7A7A"/>
<path d="M9.44194 10.2476C11.0578 10.2476 12.3724 8.93297 12.3724 7.31714C12.3724 5.70131 11.0578 4.38672 9.44194 4.38672C7.82572 4.38672 6.51074 5.70131 6.51074 7.31714C6.51074 8.93297 7.82572 10.2476 9.44194 10.2476ZM9.44194 5.55857C10.4116 5.55857 11.2005 6.34747 11.2005 7.31714C11.2005 8.28681 10.4116 9.0757 9.44194 9.0757C8.47188 9.0757 7.6826 8.28681 7.6826 7.31714C7.6826 6.34747 8.47188 5.55857 9.44194 5.55857Z" fill="#7A7A7A"/>
<path d="M38.0667 10.8339H35.6932C35.2084 9.16373 34.337 7.62001 33.1448 6.33073C32.925 6.09316 32.5543 6.07855 32.3167 6.29839C32.0791 6.51807 32.0646 6.88877 32.2843 7.12634C36.3086 11.4785 35.7389 18.3335 31.0587 21.9736C30.8418 22.1423 30.7713 22.4391 30.8891 22.6874C33.157 27.4638 29.702 33.1078 24.2936 33.1078H13.4494C10.0515 33.1078 6.87611 31.7653 4.50811 29.3277C4.28264 29.0956 3.91171 29.0903 3.67961 29.3157C3.4475 29.5412 3.44211 29.9121 3.66766 30.1442C6.1948 32.7456 9.68973 34.2796 13.4494 34.2796H24.2937C30.3496 34.2796 34.3967 28.1254 32.1353 22.609C33.3937 21.5452 34.4092 20.2143 35.099 18.7253C39.0108 17.6679 39.8202 14.3778 39.986 12.9877C40.1227 11.8431 39.2226 10.8339 38.0667 10.8339ZM38.8224 12.8488C38.669 14.1344 38.0419 16.2741 35.6457 17.2996C36.173 15.5792 36.2771 13.7636 35.9657 12.0057H38.0667C38.5256 12.0058 38.8755 12.4041 38.8224 12.8488Z" fill="#7A7A7A"/>
<path d="M1.26069 23.2538C0.920146 21.6856 1.58021 20.0821 2.89222 19.1912C3.95447 22.4321 6.09732 24.5327 9.4332 25.6068C10.495 25.949 13.6685 26.9709 14.341 27.1872C17.993 28.3637 21.9331 26.2794 22.9571 22.5064C23.8667 19.1535 22.0251 15.5866 18.7654 14.3864C17.4657 13.9054 16.065 13.835 14.7466 14.1741C14.6948 11.571 15.62 9.10684 17.3921 7.16805C20.6949 3.55459 26.1565 2.80797 30.3071 5.46987C30.5795 5.64463 30.942 5.56542 31.1166 5.293C31.2913 5.02058 31.2122 4.65817 30.9398 4.48348C26.3034 1.5101 20.21 2.34805 16.5271 6.37751C14.4608 8.63818 13.4272 11.5388 13.5901 14.5866C13.4238 14.6635 13.257 14.7478 13.1025 14.8345C10.8118 16.1213 7.97229 16.1986 5.50655 15.0414C4.36899 14.5076 3.37237 14.1125 2.69613 14.6867C2.11739 15.1781 2.07091 16.1587 2.55418 18.0219C0.650931 19.1181 -0.356395 21.3281 0.115316 23.5009C0.452107 25.0702 1.05358 26.5506 1.90318 27.9009C2.07473 28.1735 2.43598 28.2578 2.71113 28.0848C2.98503 27.9124 3.06737 27.5507 2.89503 27.2768C2.11864 26.0432 1.56896 24.69 1.26069 23.2538ZM3.4533 15.5838C3.57635 15.5432 3.94861 15.605 5.00859 16.1024C7.81627 17.4201 11.0565 17.328 13.6761 15.8564C15.1573 15.025 16.8834 14.9397 18.3594 15.4859C21.0553 16.4786 22.578 19.4276 21.826 22.1997C20.9812 25.3127 17.7309 27.0482 14.7001 26.0719C14.0274 25.8555 10.8543 24.8337 9.79249 24.4915C6.74145 23.5091 4.81844 21.5596 3.91423 18.5341C3.7708 18.0463 3.1787 16.0077 3.4533 15.5838Z" fill="#7A7A7A"/>
</g>
<defs>
<clipPath id="clip0_0_1">
<rect width="1074" height="296" fill="white" transform="translate(0 -258.426)"/>
</clipPath>
</defs>
</svg>
