<svg width="40" height="41" viewBox="0 0 40 41" fill="none" xmlns="http://www.w3.org/2000/svg">
<rect width="40" height="41" fill="#E5E5E5"/>
<rect x="-240" y="-5394" width="1920" height="6273" fill="white"/>
<g clip-path="url(#clip0_0_1)">
<path d="M39.4141 5.22852H19.0695C18.7458 5.22852 18.4835 5.49086 18.4835 5.81445C18.4835 6.13805 18.7458 6.40039 19.0695 6.40039H38.8281V10.8476H1.17188V6.40039H16.3993C16.723 6.40039 16.9852 6.13805 16.9852 5.81445C16.9852 5.49086 16.723 5.22852 16.3993 5.22852H0.585938C0.262266 5.22852 0 5.49086 0 5.81445V35.3345C0 35.6581 0.262266 35.9205 0.585938 35.9205H24.993C25.3167 35.9205 25.579 35.6581 25.579 35.3345C25.579 35.0109 25.3167 34.7486 24.993 34.7486H1.17188V32.5669H38.8281V34.7486H27.6632C27.3395 34.7486 27.0773 35.0109 27.0773 35.3345C27.0773 35.6581 27.3395 35.9205 27.6632 35.9205H39.4141C39.7377 35.9205 40 35.6581 40 35.3345V5.81445C40 5.49094 39.7377 5.22852 39.4141 5.22852ZM38.8281 31.3951H1.17188V12.0195H38.8281V31.3951Z" fill="#7A7A7A"/>
<path d="M4.01414 8.03711H4.00586C3.68219 8.03711 3.41992 8.29945 3.41992 8.62305C3.41992 8.94664 3.68219 9.20898 4.00586 9.20898H4.01414C4.33781 9.20898 4.60008 8.94664 4.60008 8.62305C4.60008 8.29938 4.33781 8.03711 4.01414 8.03711Z" fill="#7A7A7A"/>
<path d="M6.18797 8.03711H6.17969C5.85602 8.03711 5.59375 8.29945 5.59375 8.62305C5.59375 8.94664 5.85602 9.20898 6.17969 9.20898H6.18797C6.51164 9.20898 6.77391 8.94664 6.77391 8.62305C6.77391 8.29938 6.51164 8.03711 6.18797 8.03711Z" fill="#7A7A7A"/>
<path d="M8.3618 8.03711H8.35352C8.02984 8.03711 7.76758 8.29945 7.76758 8.62305C7.76758 8.94664 8.02984 9.20898 8.35352 9.20898H8.3618C8.68547 9.20898 8.94774 8.94664 8.94774 8.62305C8.94774 8.29938 8.68547 8.03711 8.3618 8.03711Z" fill="#7A7A7A"/>
<path d="M36.303 8.03711H29.7715C29.4478 8.03711 29.1855 8.29945 29.1855 8.62305C29.1855 8.94664 29.4478 9.20898 29.7715 9.20898H36.303C36.6267 9.20898 36.889 8.94664 36.889 8.62305C36.889 8.29938 36.6267 8.03711 36.303 8.03711Z" fill="#7A7A7A"/>
<path d="M27.6745 8.03711H26.2363C25.9127 8.03711 25.6504 8.29945 25.6504 8.62305C25.6504 8.94664 25.9127 9.20898 26.2363 9.20898H27.6745C27.9981 9.20898 28.2604 8.94664 28.2604 8.62305C28.2604 8.29938 27.9981 8.03711 27.6745 8.03711Z" fill="#7A7A7A"/>
<path d="M33.6549 19.8105H30.9449C30.6213 19.8105 30.359 20.0729 30.359 20.3965C30.359 20.7201 30.6213 20.9824 30.9449 20.9824H33.069V25.1111H7.63281V20.9824H28.2748C28.5985 20.9824 28.8608 20.7201 28.8608 20.3965C28.8608 20.0729 28.5985 19.8105 28.2748 19.8105H7.04688C6.7232 19.8105 6.46094 20.0729 6.46094 20.3965V25.697C6.46094 26.0206 6.7232 26.283 7.04688 26.283H33.6549C33.9786 26.283 34.2409 26.0206 34.2409 25.697V20.3965C34.2409 20.073 33.9786 19.8105 33.6549 19.8105Z" fill="#7A7A7A"/>
<path d="M11.7426 21.8873C11.4802 21.6249 11.1315 21.4805 10.7605 21.4805C10.3895 21.4805 10.0407 21.6249 9.77837 21.8873C9.38509 22.2806 9.27892 22.8528 9.45704 23.3441L9.12774 23.6734C8.89884 23.9023 8.89884 24.2733 9.12767 24.5021C9.24212 24.6165 9.39212 24.6737 9.54204 24.6737C9.69196 24.6737 9.84196 24.6166 9.95642 24.5021L10.2851 24.1734C10.4356 24.2282 10.5956 24.2583 10.7605 24.2583C11.1315 24.2583 11.4802 24.1138 11.7426 23.8515C12.2841 23.31 12.2841 22.4289 11.7426 21.8873ZM10.9139 23.0229C10.8587 23.0782 10.7941 23.0864 10.7605 23.0864C10.7269 23.0864 10.6623 23.0782 10.607 23.0229C10.5224 22.9382 10.5224 22.8005 10.607 22.7159C10.6623 22.6606 10.7269 22.6524 10.7605 22.6524C10.7941 22.6524 10.8587 22.6606 10.9139 22.7159C10.9985 22.8005 10.9985 22.9383 10.9139 23.0229Z" fill="#7A7A7A"/>
<path d="M18.6977 27.291H12.3262C12.0025 27.291 11.7402 27.5534 11.7402 27.877C11.7402 28.2005 12.0025 28.4629 12.3262 28.4629H18.6977C19.0214 28.4629 19.2837 28.2005 19.2837 27.877C19.2837 27.5534 19.0214 27.291 18.6977 27.291Z" fill="#7A7A7A"/>
<path d="M27.6743 27.291H21.3027C20.9791 27.291 20.7168 27.5534 20.7168 27.877C20.7168 28.2005 20.9791 28.4629 21.3027 28.4629H27.6743C27.998 28.4629 28.2602 28.2005 28.2602 27.877C28.2602 27.5534 27.998 27.291 27.6743 27.291Z" fill="#7A7A7A"/>
<path d="M25.6038 14.7539H14.3965C14.0728 14.7539 13.8105 15.0163 13.8105 15.3398V18.0742C13.8105 18.3978 14.0729 18.6602 14.3965 18.6602H25.6038C25.9274 18.6602 26.1897 18.3978 26.1897 18.0742V15.3398C26.1897 15.0162 25.9274 14.7539 25.6038 14.7539ZM25.0178 17.4883H14.9824V15.9258H25.0178V17.4883Z" fill="#7A7A7A"/>
</g>
<defs>
<clipPath id="clip0_0_1">
<rect width="1074" height="296" fill="white" transform="translate(0 -63.4258)"/>
</clipPath>
</defs>
</svg>
