<svg width="40" height="41" viewBox="0 0 40 41" fill="none" xmlns="http://www.w3.org/2000/svg">
<rect width="40" height="41" fill="#E5E5E5"/>
<rect x="-972" y="-5586" width="1920" height="6273" fill="white"/>
<g clip-path="url(#clip0_0_1)">
<g clip-path="url(#clip1_0_1)">
<path d="M28.7177 15.2905H11.2813C10.9576 15.2905 10.6953 15.0281 10.6953 14.7045V9.9375C10.6953 8.9682 11.4839 8.17969 12.4531 8.17969H27.5458C28.515 8.17969 29.3036 8.9682 29.3036 9.9375V14.7045C29.3036 15.0281 29.0413 15.2905 28.7177 15.2905ZM11.8672 14.1186H28.1317V9.9375C28.1317 9.61438 27.8689 9.35156 27.5458 9.35156H12.4531C12.13 9.35156 11.8672 9.61438 11.8672 9.9375V14.1186Z" fill="#7A7A7A"/>
<path d="M25.0531 29.9824H14.9453C14.1915 29.9824 13.5781 29.3691 13.5781 28.6152V21.4941C13.5781 20.7403 14.1915 20.127 14.9453 20.127H25.0531C25.807 20.127 26.4203 20.7403 26.4203 21.4941V28.6152C26.4203 29.3691 25.807 29.9824 25.0531 29.9824ZM14.9453 21.2988C14.8376 21.2988 14.75 21.3865 14.75 21.4941V28.6152C14.75 28.7229 14.8376 28.8105 14.9453 28.8105H25.0531C25.1609 28.8105 25.2484 28.7229 25.2484 28.6152V21.4941C25.2484 21.3865 25.1609 21.2988 25.0531 21.2988H14.9453Z" fill="#7A7A7A"/>
<path d="M22.9871 24.1484H17.0137C16.69 24.1484 16.4277 23.8861 16.4277 23.5625C16.4277 23.2389 16.69 22.9766 17.0137 22.9766H22.9872C23.3108 22.9766 23.5731 23.2389 23.5731 23.5625C23.573 23.8861 23.3108 24.1484 22.9871 24.1484Z" fill="#7A7A7A"/>
<path d="M22.9871 27.1348H17.0137C16.69 27.1348 16.4277 26.8724 16.4277 26.5488C16.4277 26.2252 16.69 25.9629 17.0137 25.9629H22.9872C23.3108 25.9629 23.5731 26.2252 23.5731 26.5488C23.573 26.8724 23.3108 27.1348 22.9871 27.1348Z" fill="#7A7A7A"/>
<path d="M39.4141 31.9368H37.013V26.1137C37.013 24.4983 35.6987 23.1841 34.0833 23.1841H32.5328V19.6684H35.3495C36.3187 19.6684 37.1073 18.8799 37.1073 17.9106V11.2941C37.1073 10.3823 36.4093 9.63055 35.5196 9.54469V6.49258C35.5196 5.52328 36.3082 4.73477 37.2774 4.73477H37.9204C38.2441 4.73477 38.5063 4.47242 38.5063 4.14883V1.16211C38.5063 0.838516 38.2441 0.576172 37.9204 0.576172H36.6344C33.7942 0.576172 31.4727 2.83336 31.3661 5.64789C30.8752 5.27687 30.2645 5.05633 29.6031 5.05633H16.2008C15.8771 5.05633 15.6148 5.31867 15.6148 5.64227C15.6148 5.96586 15.8771 6.2282 16.2008 6.2282H29.6031C30.5723 6.2282 31.3609 7.01672 31.3609 7.98601V23.1841H29.5462V19.9329C29.5462 18.3174 28.232 17.0032 26.6165 17.0032H24.2634C23.9397 17.0032 23.6774 17.2655 23.6774 17.5891C23.6774 17.9127 23.9397 18.1751 24.2634 18.1751H26.6165C27.5857 18.1751 28.3743 18.9636 28.3743 19.9329V31.9368H11.6258V19.9329C11.6258 18.9636 12.4144 18.1751 13.3836 18.1751H21.7102C22.0338 18.1751 22.2961 17.9127 22.2961 17.5891C22.2961 17.2655 22.0338 17.0032 21.7102 17.0032H13.3836C11.7681 17.0032 10.4539 18.3174 10.4539 19.9329V23.1841H8.63906V7.98601C8.63906 7.01672 9.42766 6.2282 10.3969 6.2282H13.6469C13.9705 6.2282 14.2328 5.96586 14.2328 5.64227C14.2328 5.31867 13.9705 5.05633 13.6469 5.05633H10.3969C9.73555 5.05633 9.12484 5.2768 8.63391 5.64789C8.52742 2.83336 6.20578 0.576172 3.36563 0.576172H2.07961C1.75602 0.576172 1.49367 0.838516 1.49367 1.16211V4.14883C1.49367 4.47242 1.75602 4.73477 2.07961 4.73477H2.72266C3.69187 4.73477 4.48047 5.52328 4.48047 6.49258V9.5482C3.60586 9.64851 2.92414 10.393 2.92414 11.2941V17.9106C2.92414 18.8799 3.71273 19.6684 4.68195 19.6684H7.46719V23.1841H5.91672C4.30125 23.1841 2.98703 24.4983 2.98703 26.1137V31.9368H0.585938C0.262266 31.9368 0 32.1991 0 32.5227V35.5094C0 35.8049 0.22 36.0542 0.513203 36.0909L4.48039 36.5869V38.818C4.48039 39.7873 5.26898 40.5759 6.2382 40.5759H9.86789C10.8371 40.5759 11.6257 39.7873 11.6257 38.818V37.4803L12.4601 37.5846C12.4842 37.5877 18.7234 37.5891 18.7234 37.5891C19.0471 37.5891 19.3094 37.3268 19.3094 37.0032C19.3094 36.6796 19.0471 36.4173 18.7234 36.4173H12.5693L1.17188 34.9922V33.1087H38.8281V34.9922L27.4306 36.4173H21.2766C20.9529 36.4173 20.6906 36.6796 20.6906 37.0032C20.6906 37.3268 20.9529 37.5891 21.2766 37.5891C21.2766 37.5891 27.5158 37.5876 27.5399 37.5846L28.3743 37.4803V38.818C28.3743 39.7873 29.1629 40.5759 30.1321 40.5759H33.7618C34.731 40.5759 35.5196 39.7873 35.5196 38.818V36.5869L39.4868 36.0909C39.78 36.0542 40 35.8049 40 35.5094V32.5227C40 32.1991 39.7377 31.9368 39.4141 31.9368ZM32.5328 5.84961C32.5328 3.58797 34.3728 1.74805 36.6344 1.74805H37.3345V3.56289C35.8008 3.6032 34.3555 4.61883 34.3477 6.49258V9.53633H32.5329V5.84961H32.5328ZM32.5328 10.7083L35.3495 10.7082C35.6727 10.7082 35.9355 10.971 35.9355 11.2941V17.9106C35.9355 18.2337 35.6727 18.4966 35.3495 18.4966H32.5328V10.7083ZM5.65234 36.7334L10.4539 37.3337V38.818C10.4539 39.1412 10.1911 39.404 9.86797 39.404H6.23828C5.91516 39.404 5.65234 39.1412 5.65234 38.818V36.7334ZM10.4539 28.9501H7.1457V27.1352H10.4539V28.9501ZM2.66555 3.56289V1.74805H3.36563C5.62719 1.74805 7.46719 3.58797 7.46719 5.84961V9.53633H5.65234V6.49258C5.64453 4.46258 4.17969 3.56414 2.66555 3.56289ZM4.68195 18.4966C4.35883 18.4966 4.09602 18.2337 4.09602 17.9106V11.2941C4.09602 10.971 4.35883 10.7082 4.68195 10.7082H7.46719V18.4965H4.68195V18.4966ZM4.15891 26.1137C4.15891 25.1444 4.9475 24.3559 5.91672 24.3559H10.4538V25.9634H6.55977C6.23617 25.9634 5.97383 26.2257 5.97383 26.5493V29.536C5.97383 29.8596 6.23617 30.1219 6.55977 30.1219H10.4539V31.9367H4.15891V26.1137ZM29.5461 27.1352H32.8543V28.9501H29.5461V27.1352ZM29.5461 30.1219H33.4402C33.7973 30.0884 33.9927 29.8931 34.0262 29.536V26.5493C34.0262 26.2257 33.7639 25.9634 33.4402 25.9634H29.5461V24.3559H34.0832C35.0524 24.3559 35.841 25.1444 35.841 26.1137V31.9368H29.5461V30.1219ZM34.3477 38.818C34.3477 39.1412 34.0848 39.404 33.7617 39.404H30.132C29.8089 39.404 29.5461 39.1412 29.5461 38.818V37.3337L34.3477 36.7334V38.818Z" fill="#7A7A7A"/>
</g>
</g>
<defs>
<clipPath id="clip0_0_1">
<rect width="1074" height="296" fill="white" transform="translate(-732 -255.426)"/>
</clipPath>
<clipPath id="clip1_0_1">
<rect width="40" height="40" fill="white" transform="translate(0 0.574219)"/>
</clipPath>
</defs>
</svg>
