<svg width="40" height="39" viewBox="0 0 40 39" fill="none" xmlns="http://www.w3.org/2000/svg">
<rect width="40" height="39" fill="#E5E5E5"/>
<rect x="-240" y="-5523" width="1920" height="6273" fill="white"/>
<g clip-path="url(#clip0_0_1)">
<path d="M38.4507 27.1733C38.4624 27.1495 38.4728 27.1251 38.4811 27.1001C40.851 21.6303 40.4275 14.9245 37.3495 9.79922C38.9927 7.83481 36.8583 5.02164 34.5241 6.11011C34.1139 5.69093 33.6832 5.28918 33.2369 4.90932C34.1129 2.52792 31.1892 0.574364 29.3684 2.35362C24.0761 -0.31878 17.4936 -0.284936 12.2305 2.44405C10.3582 0.459937 7.21386 2.58732 8.34743 5.07674C7.69823 5.64443 7.08373 6.25768 6.51714 6.90618C6.02793 7.46612 6.91419 8.23358 7.40004 7.67755C7.92716 7.0743 8.49828 6.50365 9.10153 5.97481C10.2681 6.81621 11.9596 6.38758 12.5995 5.10324C14.7115 5.71117 16.7284 6.58368 18.6078 7.7035C18.4504 8.27087 18.5147 8.90452 18.7846 9.42827C17.2378 10.7644 15.8449 12.2759 14.6352 13.9324C13.5186 13.595 12.2877 14.1597 11.8021 15.2173C9.33945 15.2305 6.86917 15.4954 4.44384 16.008C4.22968 15.6089 3.905 15.2782 3.51138 15.0567C3.96706 13.2797 4.6888 11.5893 5.66096 10.0264C6.04833 9.40342 5.07054 8.75585 4.66543 9.40709C3.63183 11.0688 2.86413 12.8658 2.3786 14.7548C-0.429723 14.8025 -0.90119 18.6875 1.7723 19.4349C1.73291 24.9642 4.12354 30.3399 8.26904 34.0019C7.40426 36.3379 10.2117 38.2647 12.0644 36.6171C17.4715 39.4922 24.305 39.4926 29.7123 36.618C31.5967 38.4817 34.6148 36.3996 33.5534 33.9633C35.6899 32.0645 37.3497 29.7421 38.4507 27.1733ZM37.7121 25.8622C36.0894 24.2501 34.3136 22.7876 32.4176 21.5038C32.6869 20.6604 32.4529 19.7114 31.8241 19.0888C33.4184 16.438 34.67 13.5956 35.551 10.6263C35.8446 10.6273 36.1268 10.5732 36.3869 10.4752C39.0865 15.0345 39.5802 20.913 37.7121 25.8622ZM10.7367 32.489C10.2434 27.6567 11.1091 22.8358 13.2517 18.4792C14.5828 18.8946 16.0215 18.0192 16.28 16.6529C20.3221 17.1512 24.215 18.3379 27.8684 20.186C27.6927 20.869 27.8382 21.6221 28.2567 22.1902C24.1387 27.4074 18.7028 31.3332 12.4815 33.5832C12.1045 32.9863 11.4706 32.5687 10.7367 32.489ZM28.966 20.78C28.966 20.1158 29.5025 19.5754 30.1619 19.5754C31.7484 19.6414 31.7479 21.9189 30.1619 21.9847C29.5025 21.9847 28.966 21.4443 28.966 20.78ZM36.7521 8.24929C36.7521 8.91358 36.2156 9.45399 35.5562 9.45399C33.9696 9.38794 33.97 7.11041 35.5562 7.0446C36.2156 7.0446 36.7521 7.585 36.7521 8.24929ZM33.6283 6.87116C32.818 8.00957 33.1941 9.65525 34.4156 10.3319C33.5621 13.196 32.3522 15.9377 30.813 18.4951C30.4912 18.4025 30.134 18.3796 29.8031 18.4302C28.1943 14.9947 25.8533 11.9002 22.9935 9.42843C23.2637 8.90436 23.3281 8.2718 23.1706 7.70365C24.9807 6.62519 26.9196 5.77527 28.9472 5.17108C29.6211 6.47215 31.4289 6.83951 32.5512 5.86554C32.9232 6.18553 33.2833 6.5217 33.6283 6.87116ZM19.6932 8.34004C19.6932 7.67575 20.2297 7.13534 20.8891 7.13534C22.4757 7.20139 22.4752 9.47884 20.8891 9.54465C20.2297 9.54465 19.6932 9.00425 19.6932 8.34004ZM31.0318 2.83915C31.6913 2.83915 32.2278 3.37956 32.2278 4.04385C32.162 5.642 29.9015 5.64161 29.8359 4.04385C29.8359 3.37956 30.3724 2.83915 31.0318 2.83915ZM10.4802 5.24846C9.82076 5.24846 9.28427 4.70806 9.28427 4.04377C9.35008 2.44554 11.6106 2.44608 11.6762 4.04377C11.6762 4.70806 11.1396 5.24846 10.4802 5.24846ZM12.8464 3.95388C12.8403 3.79115 12.8179 3.63272 12.7807 3.47984C17.6879 0.942189 23.8183 0.89795 28.7633 3.36182C28.6997 3.57434 28.665 3.79905 28.6638 4.03173C26.5311 4.66265 24.4918 5.55384 22.588 6.68615C21.6728 5.73955 20.1058 5.73923 19.1904 6.68608C17.2064 5.506 15.0768 4.58871 12.8464 3.95388ZM19.5608 10.307C20.3535 10.848 21.4245 10.8481 22.2173 10.307C24.9476 12.6644 27.1843 15.6154 28.7249 18.8923C28.6205 18.9726 28.5229 19.0614 28.4332 19.1577C24.5815 17.204 20.4712 15.9619 16.2017 15.4621C16.0865 15.1132 15.8929 14.8 15.6417 14.5435C16.7876 12.9869 18.1025 11.5653 19.5608 10.307ZM13.9537 15.004C14.6131 15.004 15.1496 15.5444 15.1496 16.2087C15.0838 17.807 12.8232 17.8065 12.7577 16.2087C12.7577 15.5444 13.2942 15.004 13.9537 15.004ZM1.16124 17.1314C1.16124 16.4671 1.69774 15.9267 2.35718 15.9267C3.94369 15.9928 3.94322 18.2702 2.35718 18.336C1.69782 18.3361 1.16124 17.7957 1.16124 17.1314ZM2.94464 19.4344C2.94464 19.4344 4.72522 19.0461 4.72522 17.1469C4.72522 17.1469 9.29419 16.4166 11.593 16.3909C11.6361 16.9588 11.8787 17.4713 12.2506 17.8581C9.96614 22.454 9.0447 27.5495 9.5751 32.6556C9.34672 32.7508 9.13646 32.8809 8.9506 33.0391C5.12611 29.613 2.94464 23.8726 2.94464 19.4344ZM10.4802 36.0565C9.82076 36.0565 9.28427 35.5161 9.28427 34.8518C9.28427 34.1875 9.82076 33.6471 10.4802 33.6471C11.1308 33.6471 11.6762 34.2107 11.6762 34.8518C11.6762 35.5161 11.1396 36.0565 10.4802 36.0565ZM20.8891 37.6101C18.044 37.6101 15.2305 36.9287 12.7159 35.6351C12.818 35.3425 12.863 35.0092 12.8432 34.6988C19.2788 32.379 24.9025 28.3251 29.1628 22.9345C29.5128 23.0987 29.9012 23.174 30.287 23.1538C30.5475 24.1204 30.7533 25.1066 30.8991 26.0926C31.0108 26.8475 32.1709 26.6788 32.0589 25.9212C31.9041 24.8741 31.6849 23.8269 31.4065 22.8013C31.5467 22.7141 31.6769 22.6124 31.7955 22.4986C33.7517 23.8267 35.5756 25.3512 37.2278 27.0385C36.2031 29.3036 34.7117 31.3547 32.8169 33.0494C32.6295 32.9087 32.4206 32.7956 32.1963 32.7151C32.3116 31.6253 32.3617 30.5249 32.3449 29.4366C32.333 28.6708 31.1606 28.6888 31.1726 29.4547C31.1889 30.5008 31.1404 31.5586 31.0291 32.6062C29.6465 32.826 28.7423 34.2597 29.1232 35.6033C26.5928 36.9174 23.7576 37.6101 20.8891 37.6101ZM31.401 36.1584C30.7415 36.1584 30.205 35.618 30.205 34.9537C30.2709 33.3555 32.5314 33.3561 32.597 34.9537C32.597 35.618 32.0605 36.1584 31.401 36.1584Z" fill="#7A7A7A"/>
</g>
<defs>
<clipPath id="clip0_0_1">
<rect width="1074" height="296" fill="white" transform="translate(0 -192.426)"/>
</clipPath>
</defs>
</svg>
