<svg width="40" height="41" viewBox="0 0 40 41" fill="none" xmlns="http://www.w3.org/2000/svg">
<rect width="40" height="41" fill="#E5E5E5"/>
<rect x="-606" y="-5394" width="1920" height="6273" fill="white"/>
<g clip-path="url(#clip0_0_1)">
<g clip-path="url(#clip1_0_1)">
<path d="M29.3346 35.7253C32.0272 35.7253 34.2177 33.5347 34.2177 30.8422V27.7753C34.9432 27.5302 35.4671 26.8436 35.4671 26.0365C35.4671 25.0245 34.6438 24.2012 33.6318 24.2012C32.6198 24.2012 31.7965 25.0245 31.7965 26.0365C31.7965 26.8436 32.3204 27.5302 33.0458 27.7753V30.8422C33.0458 32.8886 31.3809 34.5534 29.3346 34.5534C27.2883 34.5534 25.6234 32.8885 25.6234 30.8422V27.7753C26.3488 27.5302 26.8727 26.8436 26.8727 26.0365C26.8727 25.0245 26.0494 24.2012 25.0374 24.2012C24.0254 24.2012 23.2021 25.0245 23.2021 26.0365C23.2021 26.8436 23.7261 27.5302 24.4515 27.7753V30.8422C24.4515 33.5347 26.6421 35.7253 29.3346 35.7253ZM33.6318 25.373C33.9976 25.373 34.2952 25.6706 34.2952 26.0364C34.2952 26.4022 33.9976 26.6998 33.6318 26.6998C33.266 26.6998 32.9684 26.4022 32.9684 26.0364C32.9684 25.6706 33.266 25.373 33.6318 25.373ZM25.0374 25.373C25.4032 25.373 25.7008 25.6706 25.7008 26.0364C25.7008 26.4022 25.4031 26.6998 25.0374 26.6998C24.6717 26.6998 24.3741 26.4022 24.3741 26.0364C24.3741 25.6706 24.6717 25.373 25.0374 25.373Z" fill="#7A7A7A"/>
<path d="M2.89773 40.5741H37.6399C38.5364 40.5741 39.2351 39.7943 39.1374 38.9035L38.4533 32.661C38.4181 32.3392 38.1294 32.1076 37.807 32.1424C37.4854 32.1777 37.2532 32.467 37.2884 32.7886L37.9725 39.0311C37.9942 39.2292 37.8393 39.4022 37.6399 39.4022H21.0299H21.0291C20.8312 39.4022 20.6747 39.2308 20.6965 39.0311L22.3863 23.6111C22.4049 23.4412 22.548 23.313 22.719 23.313H35.9501C36.1211 23.313 36.2641 23.4412 36.2828 23.6111L36.9888 30.0542C37.0241 30.3758 37.3114 30.6079 37.6351 30.5729C37.9567 30.5376 38.1889 30.2483 38.1537 29.9266L37.4477 23.4835C37.3638 22.7183 36.72 22.1412 35.9501 22.1412H29.4676L28.5627 13.8839C28.449 12.8455 27.5755 12.0626 26.5309 12.0626H24.1997V8.7213C24.1997 4.229 20.5449 0.574219 16.0526 0.574219C11.5603 0.574219 7.90551 4.229 7.90551 8.7213V12.0626H5.57436C4.52972 12.0626 3.65618 12.8455 3.54243 13.8839L0.865877 38.3075C0.733451 39.5165 1.68199 40.5741 2.89773 40.5741ZM2.03083 38.4351L4.70738 14.0116C4.75598 13.5686 5.12872 13.2345 5.57443 13.2345H7.90559V15.4164C7.1401 15.6642 6.58485 16.3836 6.58485 17.2306C6.58485 18.2819 7.44018 19.1373 8.49154 19.1373C9.54289 19.1373 10.3982 18.2819 10.3982 17.2306C10.3982 16.3836 9.84298 15.6642 9.07749 15.4164V13.2345H14.6854C15.0091 13.2345 15.2714 12.9721 15.2714 12.6485C15.2714 12.3249 15.0091 12.0626 14.6854 12.0626H9.07749V8.7213C9.07749 4.87519 12.2066 1.74612 16.0527 1.74612C19.8988 1.74612 23.0278 4.87519 23.0278 8.7213V12.0626H17.4199C17.0962 12.0626 16.8339 12.3249 16.8339 12.6485C16.8339 12.9721 17.0962 13.2345 17.4199 13.2345H23.0278V15.4164C22.2624 15.6642 21.7072 16.3836 21.7072 17.2306C21.7072 18.2819 22.5624 19.1373 23.6138 19.1373C24.6651 19.1373 25.5205 18.2819 25.5205 17.2306C25.5205 16.3836 24.9652 15.6642 24.1997 15.4164V13.2345H26.531C26.9766 13.2345 27.3494 13.5685 27.398 14.0116L28.2888 22.1412H22.7191C21.9491 22.1412 21.3053 22.7183 21.2215 23.4836L19.5317 38.9036C19.5132 39.0714 19.5281 39.26 19.5605 39.4023H2.89773C2.37818 39.4022 1.97419 38.9528 2.03083 38.4351ZM8.49146 16.4958C8.8967 16.4958 9.22624 16.8254 9.22624 17.2306C9.22624 17.6357 8.89663 17.9654 8.49146 17.9654C8.08629 17.9654 7.75668 17.6357 7.75668 17.2306C7.75668 16.8254 8.08622 16.4958 8.49146 16.4958ZM23.6137 16.4958C24.019 16.4958 24.3485 16.8254 24.3485 17.2306C24.3485 17.6357 24.0189 17.9654 23.6137 17.9654C23.2086 17.9654 22.879 17.6357 22.879 17.2306C22.879 16.8254 23.2086 16.4958 23.6137 16.4958Z" fill="#7A7A7A"/>
</g>
</g>
<defs>
<clipPath id="clip0_0_1">
<rect width="1074" height="296" fill="white" transform="translate(-366 -63.4258)"/>
</clipPath>
<clipPath id="clip1_0_1">
<rect width="40" height="40" fill="white" transform="translate(0 0.574219)"/>
</clipPath>
</defs>
</svg>
