<svg width="40" height="25" viewBox="0 0 40 25" fill="none" xmlns="http://www.w3.org/2000/svg">
<rect width="40" height="25" fill="#E5E5E5"/>
<rect x="-606" y="-5524" width="1920" height="6273" fill="white"/>
<g clip-path="url(#clip0_0_1)">
<path d="M37.4153 25.2305C37.0915 25.2305 36.8293 25.4929 36.8293 25.8164V35.1578H24.7517V24.0687C24.7517 23.3146 24.1383 22.7012 23.3845 22.7012H16.6157C15.8619 22.7012 15.2485 23.3149 15.2485 24.0687V35.1578H3.1709V25.8164C3.1709 25.4929 2.90875 25.2305 2.58496 25.2305C2.26117 25.2305 1.99902 25.4929 1.99902 25.8164V35.4313C1.99902 35.9266 2.40216 36.3297 2.89746 36.3297H37.1028C37.5981 36.3297 38.0012 35.9266 38.0012 35.4313V25.8164C38.0012 25.4929 37.7391 25.2305 37.4153 25.2305ZM16.4204 35.1578V24.0687C16.4204 23.9609 16.508 23.873 16.6157 23.873H23.3845C23.4922 23.873 23.5798 23.9609 23.5798 24.0687V35.1578H16.4204Z" fill="#7A7A7A"/>
<path d="M34.6317 32.842C35.3195 32.842 35.8792 32.2823 35.8792 31.5944V25.2004C35.8792 24.5125 35.3195 23.9531 34.6317 23.9531H27.3804C26.6925 23.9531 26.1328 24.5125 26.1328 25.2004V31.5944C26.1328 32.2823 26.6925 32.842 27.3804 32.842H34.6317ZM27.3047 31.5944V25.2004C27.3047 25.1589 27.3386 25.125 27.3804 25.125H34.6317C34.6735 25.125 34.7073 25.1589 34.7073 25.2004V31.5944C34.7073 31.6362 34.6735 31.6701 34.6317 31.6701H27.3804C27.3386 31.6701 27.3047 31.6362 27.3047 31.5944Z" fill="#7A7A7A"/>
<path d="M12.6199 32.842C13.3078 32.842 13.8675 32.2823 13.8675 31.5944V25.2004C13.8675 24.5125 13.3078 23.9531 12.6199 23.9531H5.36865C4.68079 23.9531 4.12109 24.5125 4.12109 25.2004V31.5944C4.12109 32.2823 4.68079 32.842 5.36865 32.842H12.6199ZM5.29297 31.5944V25.2004C5.29297 25.1589 5.32684 25.125 5.36865 25.125H12.6199C12.6617 25.125 12.6956 25.1589 12.6956 25.2004V31.5944C12.6956 31.6362 12.6617 31.6701 12.6199 31.6701H5.36865C5.32684 31.6701 5.29297 31.6362 5.29297 31.5944Z" fill="#7A7A7A"/>
<path d="M38.2782 9.47815C38.2782 8.85223 38.7875 8.3432 39.4141 8.3432C39.7379 8.3432 40 8.08075 40 7.75726V6.32355C40 6.00006 39.7379 5.73761 39.4141 5.73761H29.7415C29.4177 5.73761 29.1556 6.00006 29.1556 6.32355C29.1556 6.64734 29.4177 6.90948 29.7415 6.90948H38.8281V7.2467C38.0258 7.45728 37.3926 8.09021 37.1817 8.89221H27.9639V3.6908C27.9639 2.11884 26.6849 0.839844 25.1129 0.839844H14.8874C13.3151 0.839844 12.0364 2.11884 12.0364 3.6908V5.73761H0.585938C0.262146 5.73761 0 6.00006 0 6.32355V7.75726C0 8.08075 0.262146 8.3432 0.585938 8.3432C1.21246 8.3432 1.7218 8.85223 1.7218 9.47815C1.7218 9.68964 1.8338 9.87488 2.00165 9.97803V13.9801H0.947266C0.45166 13.9801 0.048523 14.3832 0.048523 14.8785V18.0692C0.048523 18.5645 0.45166 18.9676 0.947266 18.9676H2.00165V23.4766C2.00165 23.8 2.26379 24.0625 2.58759 24.0625C2.91138 24.0625 3.17352 23.8 3.17352 23.4766V18.9676H36.875V23.4775C36.875 23.801 37.1371 24.0634 37.4609 24.0634C37.7844 24.0634 38.0469 23.801 38.0469 23.4775V18.9676H39.1013C39.5969 18.9676 40 18.5645 40 18.0692V14.8785C40 14.3832 39.5969 13.9801 39.1013 13.9801H38.0469V9.94476C38.1873 9.83765 38.2782 9.66858 38.2782 9.47815ZM13.208 3.6908C13.208 2.76489 13.9615 2.01172 14.8871 2.01172H25.1126C26.0385 2.01172 26.7917 2.76489 26.7917 3.6908V10.0839C26.7917 11.0098 26.0385 11.763 25.1126 11.763H14.8874C13.9615 11.763 13.2083 11.0098 13.2083 10.0839V3.6908H13.208ZM38.8281 17.7957H1.2204V15.152H38.8281V17.7957ZM3.17352 13.9801V10.0641H10.2789C10.6027 10.0641 10.8649 9.80194 10.8649 9.47815C10.8649 9.15466 10.6027 8.89221 10.2789 8.89221H2.8183C2.60742 8.09021 1.97418 7.45728 1.17188 7.2467V6.90948H12.0361V10.0842C12.0361 11.6562 13.3151 12.9352 14.8871 12.9352H25.1126C26.6849 12.9352 27.9636 11.6562 27.9636 10.0842V10.0644H36.8747V13.9801H3.17352Z" fill="#7A7A7A"/>
<path d="M15.8024 4.34961H16.5205L17.2572 7.87134C17.4 8.55371 18.0098 9.04932 18.7071 9.04932H22.1864C22.7989 9.04932 23.3558 8.66418 23.5722 8.09137L24.7212 5.04968C24.8305 4.76007 24.7908 4.43536 24.615 4.18115C24.4392 3.92664 24.1493 3.77466 23.8402 3.77466H18.9192C18.5957 3.77466 18.3333 4.0368 18.3333 4.3606C18.3333 4.68408 18.5957 4.94653 18.9192 4.94653H23.5075L22.476 7.67725C22.4309 7.79687 22.3146 7.87744 22.1867 7.87744H18.7071C18.5615 7.87744 18.4343 7.77368 18.4044 7.63147L17.6646 4.09601C17.5532 3.56378 17.0781 3.17773 16.5342 3.17773H15.8027C15.4789 3.17773 15.2168 3.43988 15.2168 3.76367C15.2168 4.08716 15.4789 4.34961 15.8024 4.34961Z" fill="#7A7A7A"/>
<path d="M18.8086 9.54102H18.6523C18.3286 9.54102 18.0664 9.80316 18.0664 10.127C18.0664 10.4504 18.3286 10.7129 18.6523 10.7129H18.8086C19.1324 10.7129 19.3945 10.4504 19.3945 10.127C19.3945 9.80316 19.1324 9.54102 18.8086 9.54102Z" fill="#7A7A7A"/>
<path d="M21.3477 9.54102H21.1914C20.8676 9.54102 20.6055 9.80316 20.6055 10.127C20.6055 10.4504 20.8676 10.7129 21.1914 10.7129H21.3477C21.6714 10.7129 21.9336 10.4504 21.9336 10.127C21.9336 9.80316 21.6714 9.54102 21.3477 9.54102Z" fill="#7A7A7A"/>
</g>
<defs>
<clipPath id="clip0_0_1">
<rect width="1074" height="296" fill="white" transform="translate(-366 -193.426)"/>
</clipPath>
</defs>
</svg>
