<svg width="38" height="41" viewBox="0 0 38 41" fill="none" xmlns="http://www.w3.org/2000/svg">
<rect width="38" height="41" fill="#E5E5E5"/>
<rect x="-1339" y="-5330" width="1920" height="6273" fill="white"/>
<g clip-path="url(#clip0_0_1)">
<g clip-path="url(#clip1_0_1)">
<path d="M32.1941 27.93V24.5962C32.1941 24.272 31.9312 24.0091 31.607 24.0091C31.2828 24.0091 31.0199 24.272 31.0199 24.5962V27.93C27.8004 28.2273 25.2707 30.9423 25.2707 34.238C25.2707 36.3658 26.326 38.2505 27.9395 39.4001H22.2851C20.8004 39.4001 19.405 38.7448 18.4569 37.6024C17.5086 36.46 17.1217 34.9678 17.3952 33.5085L18.504 27.5921H24.6911C25.8781 27.5921 26.8438 26.6264 26.8438 25.4395V17.6728C27.6377 17.4852 28.4629 17.3857 29.3079 17.3857C30.2519 17.3857 31.02 18.1537 31.02 19.0977V22.2479C31.02 22.5721 31.2828 22.835 31.6071 22.835C31.9313 22.835 32.1942 22.5721 32.1942 22.2479V19.0977C32.1942 17.9217 31.4869 16.9085 30.4757 16.4591V13.3451C30.4757 13.0209 30.2128 12.758 29.8885 12.758H29.8796V4.8682C29.8796 2.50047 27.9533 0.574219 25.5857 0.574219C23.8939 0.574219 22.355 1.57227 21.6649 3.11703L18.3275 10.589C18.1952 10.885 18.328 11.2322 18.624 11.3645C18.9201 11.4969 19.2672 11.3639 19.3995 11.0679L22.737 3.59594C23.2383 2.47359 24.3565 1.74844 25.5856 1.74844C27.3059 1.74844 28.7054 3.14797 28.7054 4.8682V12.758H27.5312V4.8682C27.5312 3.79539 26.6584 2.92258 25.5856 2.92258C24.8191 2.92258 24.1218 3.37477 23.8091 4.07477L10.402 34.09H9.11604L18.4415 13.2125C18.5738 12.9165 18.441 12.5693 18.1449 12.437C17.8487 12.3045 17.5017 12.4376 17.3694 12.7336L7.83011 34.09H7.51354C6.75823 34.09 6.1437 34.7045 6.1437 35.4598V36.6869H4.15136C2.23354 36.6869 0.557527 37.9833 0.0754959 39.8395C0.0297928 40.0154 0.0682303 40.2025 0.179324 40.3462C0.290496 40.4899 0.46198 40.5741 0.643699 40.5741H9.87636C10.2006 40.5741 10.4635 40.3113 10.4635 39.987C10.4635 39.6627 10.2006 39.3999 9.87636 39.3999H1.50932C2.0387 38.4662 3.03862 37.8609 4.15136 37.8609H14.1053C14.9452 37.8609 15.6793 38.4287 15.8904 39.2418L15.9315 39.3999H12.2248C11.9006 39.3999 11.6377 39.6628 11.6377 39.987C11.6377 40.3113 11.9006 40.5741 12.2248 40.5741H16.6905C16.8722 40.5741 17.0437 40.49 17.1549 40.3462C17.266 40.2025 17.3044 40.0154 17.2587 39.8395L17.0268 38.9467C16.6814 37.6161 15.48 36.6868 14.1052 36.6868H12.8118V35.4598C12.8118 34.7851 12.3211 34.2241 11.6782 34.1117L24.8811 4.55359C25.0051 4.27602 25.2817 4.09672 25.5856 4.09672C26.011 4.09672 26.357 4.44281 26.357 4.8682V12.758H26.2566C25.9324 12.758 25.6695 13.0209 25.6695 13.3452V16.7816C21.6088 18.089 18.4453 21.5309 17.625 25.9081L16.241 33.2923C15.903 35.0959 16.3814 36.9403 17.5533 38.3523C18.7254 39.7644 20.45 40.5742 22.2851 40.5742H31.607C35.1008 40.5742 37.9432 37.7318 37.9432 34.238C37.9432 30.9422 35.4135 28.2273 32.1941 27.93ZM7.31776 36.687V35.4599C7.31776 35.352 7.40557 35.2642 7.51347 35.2642H11.442C11.5499 35.2642 11.6377 35.352 11.6377 35.4599V36.687H7.31776ZM26.8438 13.9322H29.3014V16.2116C28.4616 16.212 27.6392 16.3011 26.8438 16.4695V13.9322ZM25.6696 18.0223V25.4394C25.6696 25.9789 25.2307 26.4178 24.691 26.4178H18.724L18.779 26.1244C19.4941 22.3097 22.1837 19.2834 25.6696 18.0223ZM31.607 39.4001C28.7606 39.4001 26.445 37.0844 26.445 34.238C26.445 31.3917 28.7607 29.076 31.607 29.076C34.4533 29.076 36.769 31.3917 36.769 34.238C36.769 37.0844 34.4533 39.4001 31.607 39.4001Z" fill="#7A7A7A"/>
<path d="M31.6077 31.6016C30.1536 31.6016 28.9707 32.7845 28.9707 34.2385C28.9707 35.6926 30.1537 36.8755 31.6077 36.8755C33.0616 36.8755 34.2446 35.6925 34.2446 34.2385C34.2446 32.7845 33.0616 31.6016 31.6077 31.6016ZM31.6077 35.7013C30.8011 35.7013 30.1448 35.0451 30.1448 34.2385C30.1448 33.4319 30.8011 32.7757 31.6077 32.7757C32.4142 32.7757 33.0705 33.4319 33.0705 34.2385C33.0705 35.0452 32.4142 35.7013 31.6077 35.7013Z" fill="#7A7A7A"/>
</g>
</g>
<defs>
<clipPath id="clip0_0_1">
<rect width="342" height="151" fill="white" transform="translate(-1 0.574219)"/>
</clipPath>
<clipPath id="clip1_0_1">
<rect width="40" height="40" fill="white" transform="translate(-1 0.574219)"/>
</clipPath>
</defs>
</svg>
