<svg width="40" height="21" viewBox="0 0 40 21" fill="none" xmlns="http://www.w3.org/2000/svg">
<rect width="40" height="21" fill="#E5E5E5"/>
<rect x="-240" y="-5340" width="1920" height="6273" fill="white"/>
<g clip-path="url(#clip0_0_1)">
<g clip-path="url(#clip1_0_1)">
<path d="M38.1526 8.74096C37.0305 8.15502 35.8528 7.67955 34.6524 7.32776C34.3419 7.23698 34.0163 7.41471 33.9253 7.72526C33.8343 8.0358 34.0123 8.36135 34.3228 8.45237C35.4498 8.78268 36.5559 9.22924 37.6102 9.77979C37.7269 9.84065 37.8358 9.91158 37.938 9.98955C37.2983 9.99596 36.6691 10.0228 36.1813 10.1172C35.0909 10.3282 34.862 10.8828 34.862 11.3107C34.862 12.5149 36.4836 13.5712 38.3323 13.5712C38.4995 13.5712 38.6648 13.5643 38.8283 13.5534V14.1026H35.796C35.0891 13.0749 33.9054 12.3993 32.5665 12.3993C31.2276 12.3993 30.0439 13.0749 29.337 14.1026H12.5145C11.8076 13.0749 10.6239 12.3993 9.285 12.3993C7.94609 12.3993 6.76242 13.0749 6.05555 14.1026H1.17195V12.7065H1.96102C2.28461 12.7065 2.54695 12.4442 2.54695 12.1206V11.6784H3.89164C4.68641 11.6784 5.33305 11.0318 5.33305 10.2371V9.73268C5.33305 9.4351 5.24273 9.14909 5.07195 8.90541L3.87898 7.20346H5.29617C5.49641 7.20346 5.68289 7.10112 5.79047 6.93221C6.52156 5.78401 7.61695 4.73221 9.04609 3.80604C9.94008 3.22666 10.9066 2.79127 11.9197 2.50229C11.7413 2.60471 11.5655 2.71104 11.3934 2.82268C10.2745 3.54791 9.32961 4.35729 8.58492 5.22822C8.27563 5.59002 8.20234 6.08455 8.39359 6.51893C8.58352 6.95018 8.99445 7.22791 9.46617 7.24385C9.46617 7.24385 28.3152 7.88065 28.3208 7.88073C28.3264 7.88073 28.332 7.88026 28.3377 7.8801C28.3538 7.87971 28.3697 7.87908 28.3853 7.87744L28.3873 7.87737C29.4854 7.75713 30.6183 7.76908 31.7547 7.91291C32.0761 7.95393 32.3689 7.72619 32.4095 7.40518C32.4502 7.08416 32.2228 6.79096 31.9017 6.75033C30.767 6.60666 29.6338 6.58494 28.5294 6.68549C27.6049 5.82276 26.7007 4.99057 25.8387 4.20916C23.7733 2.33776 21.1048 1.2251 18.3252 1.07619L15.5977 0.930101C13.0182 0.792445 10.5321 1.44674 8.40867 2.82276C6.9482 3.76916 5.79672 4.84752 4.98148 6.03166C3.03273 6.0401 2.85938 6.01362 2.65352 6.05135C1.93062 6.16346 1.375 6.78846 1.375 7.5426V11.0857C1.375 11.088 1.37469 11.0903 1.37469 11.0925C1.37469 11.0948 1.375 11.0971 1.375 11.0993V11.5347H0.821875C0.368672 11.5347 0 11.9031 0 12.3558V15.941C0 16.3315 0.277891 16.6701 0.658984 16.7459L5.6407 17.7523C6.21461 19.2044 7.63125 20.2349 9.28492 20.2349C10.8381 20.2349 12.183 19.3263 12.8163 18.0129H14.9774C15.301 18.0129 15.5634 17.7506 15.5634 17.427C15.5634 17.1033 15.301 16.841 14.9774 16.841H13.1666C13.1897 16.6696 13.2027 16.4949 13.2027 16.3172C13.2027 15.9562 13.1526 15.6068 13.0607 15.2746H28.7907C28.6988 15.6068 28.6488 15.9562 28.6488 16.3172C28.6488 16.4949 28.6618 16.6696 28.6848 16.841H17.7118C17.3882 16.841 17.1259 17.1033 17.1259 17.427C17.1259 17.7506 17.3882 18.0129 17.7118 18.0129H29.0351C29.6684 19.3264 31.0133 20.2349 32.5664 20.2349C34.1196 20.2349 35.4645 19.3263 36.0978 18.0129H37.883C39.0504 18.0129 40.0002 17.0631 40.0002 15.8957V11.7856C40.0001 10.5024 39.2921 9.33588 38.1526 8.74096ZM9.46609 6.04643C9.45281 6.01635 9.46773 5.99901 9.47563 5.98963C11.1213 4.06502 13.692 2.50096 16.6494 2.15979L17.8716 2.22526C18.0663 2.94674 18.3296 4.68385 17.8683 6.35502L9.50578 6.07244C9.49234 6.07198 9.47711 6.07151 9.46609 6.04643ZM26.7759 6.65604L19.0652 6.39549C19.4184 4.88549 19.3034 3.32744 19.0967 2.32385C21.3041 2.61362 23.3932 3.5744 25.0519 5.07729C25.6105 5.58377 26.1873 6.11205 26.7759 6.65604ZM4.16117 9.7326V10.237C4.16117 10.3856 4.04031 10.5064 3.89164 10.5064H2.54695V7.54244C2.54695 7.48932 2.56031 7.43971 2.58211 7.39487L4.11234 9.57799C4.14422 9.62346 4.16117 9.67698 4.16117 9.7326ZM1.17195 15.6538V15.2745H5.5093C5.39805 15.6769 5.3525 16.0848 5.37203 16.5023L1.17195 15.6538ZM9.285 19.0628C7.77102 19.0628 6.53922 17.831 6.53922 16.317C6.53922 14.803 7.77102 13.5712 9.285 13.5712C10.7991 13.5712 12.0309 14.803 12.0309 16.317C12.0309 17.831 10.7991 19.0628 9.285 19.0628ZM38.3322 12.3992C37.0078 12.3992 36.1396 11.7205 36.0428 11.3716C36.2854 11.2308 37.0544 11.1596 38.3322 11.1596C38.4707 11.1596 38.6083 11.1645 38.7442 11.1734C38.7992 11.3696 38.8282 11.575 38.8282 11.7853V12.3796C38.6659 12.3926 38.5002 12.3992 38.3322 12.3992ZM32.5664 19.0628C31.0524 19.0628 29.8206 17.831 29.8206 16.317C29.8206 14.803 31.0524 13.5712 32.5664 13.5712C34.0805 13.5712 35.3123 14.803 35.3123 16.317C35.3123 17.831 34.0805 19.0628 32.5664 19.0628ZM37.8829 16.8408H36.448C36.4711 16.6693 36.4841 16.4947 36.4841 16.317C36.4841 15.956 36.434 15.6066 36.3421 15.2744H38.8282V15.8955C38.8282 16.4167 38.4041 16.8408 37.8829 16.8408Z" fill="#7A7A7A"/>
<path d="M9.28403 14.4004C8.22762 14.4004 7.36816 15.2598 7.36816 16.3162C7.36816 17.3726 8.22762 18.232 9.28403 18.232C10.3404 18.232 11.1999 17.3726 11.1999 16.3162C11.1999 15.2598 10.3404 14.4004 9.28403 14.4004ZM9.28403 17.0602C8.87379 17.0602 8.54004 16.7265 8.54004 16.3163C8.54004 15.906 8.87379 15.5723 9.28403 15.5723C9.69426 15.5723 10.028 15.906 10.028 16.3163C10.028 16.7265 9.69426 17.0602 9.28403 17.0602Z" fill="#7A7A7A"/>
<path d="M32.5662 14.4004C31.5098 14.4004 30.6504 15.2598 30.6504 16.3162C30.6504 17.3726 31.5098 18.232 32.5662 18.232C33.6227 18.232 34.4821 17.3726 34.4821 16.3162C34.4821 15.2598 33.6227 14.4004 32.5662 14.4004ZM32.5662 17.0602C32.156 17.0602 31.8223 16.7265 31.8223 16.3163C31.8223 15.906 32.156 15.5723 32.5662 15.5723C32.9765 15.5723 33.3102 15.906 33.3102 16.3163C33.3102 16.7265 32.9765 17.0602 32.5662 17.0602Z" fill="#7A7A7A"/>
<path d="M20 8.43945C19.6764 8.43945 19.4141 8.70172 19.4141 9.02539C19.4141 9.34906 19.6764 9.61133 20 9.61133H20.4063C20.7298 9.61133 20.9922 9.34906 20.9922 9.02539C20.9922 8.70172 20.7298 8.43945 20.4063 8.43945H20Z" fill="#7A7A7A"/>
<path d="M11.2432 8.43945C10.9196 8.43945 10.6572 8.70172 10.6572 9.02539C10.6572 9.34906 10.9196 9.61133 11.2432 9.61133H11.6494C11.973 9.61133 12.2354 9.34906 12.2354 9.02539C12.2354 8.70172 11.973 8.43945 11.6494 8.43945H11.2432Z" fill="#7A7A7A"/>
</g>
</g>
<defs>
<clipPath id="clip0_0_1">
<rect width="1074" height="296" fill="white" transform="translate(0 -9.42578)"/>
</clipPath>
<clipPath id="clip1_0_1">
<rect width="40" height="40" fill="white" transform="translate(0 -9.42578)"/>
</clipPath>
</defs>
</svg>
