<svg width="38" height="41" viewBox="0 0 38 41" fill="none" xmlns="http://www.w3.org/2000/svg">
<rect width="38" height="41" fill="#E5E5E5"/>
<rect x="-973" y="-5394" width="1920" height="6273" fill="white"/>
<g clip-path="url(#clip0_0_1)">
<g clip-path="url(#clip1_0_1)">
<path d="M36.6444 8.47463H17.0333C16.6368 6.88829 15.1998 5.70946 13.4924 5.70946H13.2383L11.2319 0.967266C11.1312 0.728985 10.8976 0.574219 10.6389 0.574219C10.3802 0.574219 10.1466 0.729063 10.0458 0.967266L8.03951 5.70946H6.49107C6.13536 5.70946 5.84708 5.99782 5.84708 6.35345V8.47455H1.3559C1.0002 8.47455 0.711914 8.76291 0.711914 9.11853V14.2539C0.711914 14.6096 1.0002 14.8979 1.3559 14.8979H5.84724V16.3607C5.84724 16.7164 6.13552 17.0047 6.49122 17.0047H7.42732V35.8628H3.06762C2.71192 35.8628 2.42364 36.1512 2.42364 36.5068V39.9303C2.42364 40.2859 2.71192 40.5743 3.06762 40.5743H12.0455C12.4012 40.5743 12.6894 40.2859 12.6894 39.9303C12.6894 39.5747 12.4012 39.2863 12.0455 39.2863H3.71161V37.1508H17.5662V39.2863H14.1062C13.7505 39.2863 13.4622 39.5747 13.4622 39.9303C13.4622 40.2859 13.7505 40.5743 14.1062 40.5743H18.2102C18.5659 40.5743 18.8541 40.2859 18.8541 39.9303V36.5068C18.8541 36.1512 18.5659 35.8628 18.2102 35.8628H13.8505V17.0046H16.4984C16.8541 17.0046 17.1424 16.7163 17.1424 16.3607V14.8978H32.8403V20.7404H32.454C32.0983 20.7404 31.81 21.0288 31.81 21.3844C31.81 21.74 32.0983 22.0284 32.454 22.0284H32.8403V23.6686C32.8403 24.0242 33.1286 24.3125 33.4843 24.3125C34.1275 24.3125 34.6509 24.8358 34.6509 25.479C34.6509 26.1222 34.1275 26.6456 33.4843 26.6456C32.8411 26.6456 32.3178 26.1222 32.3178 25.479C32.3178 25.1234 32.0295 24.835 31.6738 24.835C31.3181 24.835 31.0298 25.1234 31.0298 25.479C31.0298 26.8324 32.1308 27.9336 33.4843 27.9336C34.8378 27.9336 35.9389 26.8325 35.9389 25.479C35.9389 24.3485 35.1703 23.3939 34.1283 23.1103V22.0284H34.5146C34.8703 22.0284 35.1586 21.74 35.1586 21.3844C35.1586 21.0288 34.8703 20.7404 34.5146 20.7404H34.1283V14.8978H36.6445C37.0002 14.8978 37.2885 14.6095 37.2885 14.2539V9.11853C37.2884 8.76291 37.0001 8.47463 36.6444 8.47463ZM1.99989 13.6099V10.6734L4.93645 13.6099H1.99989ZM5.84708 12.6992L2.91051 9.7626H5.84708V12.6992ZM10.6389 2.87102L11.8398 5.70954H9.43803L10.6389 2.87102ZM12.5625 35.8627H9.62592L12.5625 32.9262V35.8627ZM8.71521 34.9521V27.7911L12.2958 31.3715L8.71521 34.9521ZM12.5625 29.8168L8.98193 26.2362L12.5625 22.6557V29.8168ZM8.71521 24.6815V17.9154L12.0983 21.2985L8.71521 24.6815ZM12.5625 19.9412L9.62592 17.0046H12.5625V19.9412ZM15.8544 12.7756H11.2169V10.8667C11.2169 10.5111 10.9287 10.2228 10.5729 10.2228C10.2172 10.2228 9.92896 10.5111 9.92896 10.8667V13.4196C9.92896 13.7753 10.2172 14.0636 10.5729 14.0636H15.8544V15.7167H7.13505V6.99751H9.92888V8.76306C9.92888 9.11869 10.2172 9.40705 10.5729 9.40705C10.9286 9.40705 11.2169 9.11869 11.2169 8.76306V6.99751H12.8094C12.8101 6.99751 12.8109 6.99767 12.8117 6.99767C12.8128 6.99767 13.4924 6.99751 13.4924 6.99751C14.7948 6.99751 15.8544 8.05712 15.8544 9.35947V12.7756H15.8544ZM17.1423 12.6992V9.7626H20.0789L17.1423 12.6992ZM18.0531 13.6099L21.4362 10.2269L24.8191 13.6099H18.0531ZM22.7934 9.7626H29.9544L26.3738 13.3432L22.7934 9.7626ZM27.9286 13.6099L31.5092 10.0294L35.0897 13.6099H27.9286ZM36.0004 12.6992L33.0639 9.7626H36.0004V12.6992Z" fill="#7A7A7A"/>
</g>
</g>
<defs>
<clipPath id="clip0_0_1">
<rect width="1074" height="296" fill="white" transform="translate(-733 -63.4258)"/>
</clipPath>
<clipPath id="clip1_0_1">
<rect width="40" height="40" fill="white" transform="translate(-1 0.574219)"/>
</clipPath>
</defs>
</svg>
