<svg width="40" height="41" viewBox="0 0 40 41" fill="none" xmlns="http://www.w3.org/2000/svg">
<rect width="40" height="41" fill="#E5E5E5"/>
<rect x="-606" y="-5586" width="1920" height="6273" fill="white"/>
<g clip-path="url(#clip0_0_1)">
<g clip-path="url(#clip1_0_1)">
<path d="M36.8917 28.1695C37.4077 28.1695 37.8275 27.7507 37.8275 27.2359V25.614H39.0553C39.5761 25.614 39.9999 25.1902 39.9999 24.6693V22.5256C39.9999 22.0048 39.576 21.5809 39.0553 21.5809H37.3669V15.1405C37.5322 15.1816 37.7017 15.2034 37.8724 15.2034C38.0579 15.2034 38.2448 15.1789 38.429 15.1294C38.9778 14.982 39.4349 14.6309 39.7151 14.1426C39.9982 13.6535 40.0732 13.0818 39.9263 12.5327C39.7793 11.9834 39.4285 11.5251 38.9385 11.2423L21.1382 0.965625C20.8122 0.776016 20.4185 0.675781 19.9998 0.675781C19.581 0.675781 19.1874 0.776016 18.8631 0.964687L1.06049 11.2426C0.0469764 11.8292 -0.301149 13.1298 0.284086 14.1419C0.566898 14.632 1.02471 14.9828 1.57338 15.1298C1.92698 15.2245 2.2901 15.2265 2.63495 15.1405V21.5809H0.946586C0.425648 21.5809 0.00189829 22.0047 0.00189829 22.5255V24.6692C0.00189829 25.1901 0.425726 25.6139 0.946586 25.6139H2.17424V27.2359C2.17424 27.7507 2.59307 28.1694 3.10784 28.1694H3.81299V33.8848H3.10784C2.59307 33.8848 2.17424 34.3045 2.17424 34.8205V36.4403H0.946586C0.425648 36.4403 0.00189829 36.8641 0.00189829 37.385V39.5287C0.00189829 40.0495 0.425726 40.4734 0.946586 40.4734H18.7774C19.101 40.4734 19.3634 40.211 19.3634 39.8874C19.3634 39.5638 19.1011 39.3015 18.7774 39.3015H1.1737V37.6122H38.8281V39.3015H21.4813C21.1577 39.3015 20.8953 39.5638 20.8953 39.8874C20.8953 40.211 21.1576 40.4734 21.4813 40.4734H39.0553C39.5761 40.4734 39.9999 40.0495 39.9999 39.5287V37.385C39.9999 36.8641 39.576 36.4403 39.0553 36.4403H37.8275V34.8205C37.8275 34.3045 37.4077 33.8848 36.8917 33.8848H36.1867V28.1694H36.8917V28.1695ZM2.59807 13.9041C2.37885 14.0305 2.12276 14.0637 1.87651 13.9978C1.63049 13.9319 1.42534 13.7751 1.29909 13.5562C1.29893 13.5559 1.29885 13.5558 1.2987 13.5555C1.03651 13.1025 1.19299 12.5198 1.64698 12.2571L19.4507 1.97859C19.5937 1.89539 19.7939 1.84766 19.9998 1.84766C20.2088 1.84766 20.4038 1.89414 20.5506 1.97953L38.3528 12.2573C38.5716 12.3835 38.7284 12.5889 38.7944 12.8356C38.8603 13.082 38.8271 13.3377 38.6999 13.5575C38.5749 13.7754 38.3707 13.9317 38.125 13.9978C37.8787 14.064 37.6228 14.0309 37.404 13.9043L20.2928 4.02516C20.2021 3.97281 20.101 3.94664 19.9998 3.94664C19.8986 3.94664 19.7974 3.97281 19.7068 4.02516L2.59807 13.9041ZM1.1737 22.7528H18.7774C19.101 22.7528 19.3634 22.4905 19.3634 22.1669C19.3634 21.8433 19.1011 21.5809 18.7774 21.5809H3.80674V14.5593L19.9998 5.20914L36.1951 14.5594V21.5809H21.3839C21.0603 21.5809 20.7979 21.8433 20.7979 22.1669C20.7979 22.4905 21.0602 22.7528 21.3839 22.7528H38.8281V24.4421H1.1737V22.7528ZM16.3671 26.9977V25.614H23.6324V26.9977H16.3671ZM21.9915 28.1695V33.8848H18.0081V28.1695H21.9915ZM3.34612 26.9977V25.614H10.6092V26.9977H3.34612ZM8.97049 28.1695V33.8848H4.98487V28.1695H8.97049ZM10.6092 36.4404H3.34612V35.0567H10.6092V36.4404ZM15.1953 34.8206V36.4404H11.781V34.8206C11.781 34.3046 11.3622 33.8848 10.8474 33.8848H10.1423V28.1695H10.8474C11.3622 28.1695 11.781 27.7507 11.781 27.2359V25.614H15.1953V27.2359C15.1953 27.7508 15.6151 28.1695 16.131 28.1695H16.8362V33.8848H16.131C15.6151 33.8848 15.1953 34.3046 15.1953 34.8206ZM23.6324 36.4404H16.3671V35.0567H23.6324V36.4404ZM28.2185 34.8206V36.4404H24.8042V34.8206C24.8042 34.3046 24.3844 33.8848 23.8685 33.8848H23.1634V28.1695H23.8685C24.3844 28.1695 24.8042 27.7507 24.8042 27.2359V25.614H28.2185V27.2359C28.2185 27.7508 28.6384 28.1695 29.1544 28.1695H29.8595V33.8848H29.1544C28.6384 33.8848 28.2185 34.3046 28.2185 34.8206ZM36.6557 35.0567V36.4404H29.3904V35.0567H36.6557ZM31.0314 33.8848V28.1695H35.0148V33.8848H31.0314ZM29.3904 26.9977V25.614H36.6557V26.9977H29.3904Z" fill="#7A7A7A"/>
<path d="M22.4231 13.5359C22.4231 12.1785 21.3189 11.0742 19.9616 11.0742C18.6042 11.0742 17.5 12.1785 17.5 13.5359C17.5 14.8932 18.6042 15.9975 19.9616 15.9975C21.3189 15.9975 22.4231 14.8932 22.4231 13.5359ZM18.6719 13.5359C18.6719 12.8247 19.2505 12.2461 19.9616 12.2461C20.6727 12.2461 21.2512 12.8247 21.2512 13.5359C21.2512 14.247 20.6727 14.8256 19.9616 14.8256C19.2505 14.8256 18.6719 14.247 18.6719 13.5359Z" fill="#7A7A7A"/>
</g>
</g>
<defs>
<clipPath id="clip0_0_1">
<rect width="1074" height="296" fill="white" transform="translate(-366 -255.426)"/>
</clipPath>
<clipPath id="clip1_0_1">
<rect width="40" height="40" fill="white" transform="translate(0 0.574219)"/>
</clipPath>
</defs>
</svg>
