<svg width="40" height="37" viewBox="0 0 40 37" fill="none" xmlns="http://www.w3.org/2000/svg">
<rect width="40" height="37" fill="#E5E5E5"/>
<rect x="-606" y="-5332" width="1920" height="6273" fill="white"/>
<g clip-path="url(#clip0_0_1)">
<path d="M38.8041 11.5384V4.43938C39.2362 4.02352 39.5059 3.43992 39.5059 2.79422C39.5059 1.53453 38.4812 0.509766 37.2215 0.509766C36.5758 0.509766 35.9922 0.779531 35.5763 1.21164H18.1263C17.2537 1.21164 16.5437 1.92156 16.5437 2.79422C16.5437 3.66688 17.2537 4.3768 18.1263 4.3768H18.2181V9.63625H17.6001C17.0616 9.63625 16.6235 10.0743 16.6235 10.6128V12.9411C16.6235 13.4796 17.0616 13.9177 17.6001 13.9177H22.3999C22.9384 13.9177 23.3765 13.4796 23.3765 12.9411V10.6128C23.3765 10.0743 22.9384 9.63625 22.3999 9.63625H21.7819V4.3768H28.5156C28.8393 4.3768 29.1016 4.11453 29.1016 3.79086C29.1016 3.46719 28.8393 3.20492 28.5156 3.20492H18.1264C17.9 3.20492 17.7157 3.0207 17.7157 2.79422C17.7157 2.56773 17.8999 2.38352 18.1264 2.38352H34.9748C34.9505 2.51688 34.9371 2.65398 34.9371 2.79422C34.9371 2.93453 34.9505 3.07156 34.9749 3.20492H31.25C30.9263 3.20492 30.6641 3.46719 30.6641 3.79086C30.6641 4.11453 30.9263 4.3768 31.25 4.3768H35.577C35.5973 4.39797 35.6177 4.41906 35.6389 4.43938V11.5384C34.9658 11.6231 34.443 12.198 34.443 12.8937V16.8916H27.4847C27.0323 16.8916 26.6644 17.2596 26.6644 17.712V24.9443H24.7716V17.712C24.7716 17.2596 24.4037 16.8916 23.9513 16.8916H16.0486C15.5962 16.8916 15.2283 17.2596 15.2283 17.712V24.9443H13.3355V22.3251C13.3355 22.0014 13.0733 21.7391 12.7496 21.7391C12.4259 21.7391 12.1637 22.0014 12.1637 22.3251V24.9443H4.96398V18.0635H12.1637V19.5907C12.1637 19.9144 12.4259 20.1766 12.7496 20.1766C13.0733 20.1766 13.3355 19.9144 13.3355 19.5907V17.712C13.3355 17.2596 12.9676 16.8916 12.5152 16.8916H4.61242C4.16008 16.8916 3.79211 17.2596 3.79211 17.712V24.961C1.67055 25.1449 0 26.9295 0 29.0978V29.6166C0 31.503 1.26437 33.0985 2.98984 33.6031V35.6638C2.98984 36.2023 3.42789 36.6404 3.96641 36.6404H27.4219C27.7455 36.6404 28.0078 36.3781 28.0078 36.0545C28.0078 35.7308 27.7455 35.4685 27.4219 35.4685H4.16172V33.7702H35.8383V35.4685H30.1562C29.8326 35.4685 29.5703 35.7308 29.5703 36.0545C29.5703 36.3781 29.8326 36.6404 30.1562 36.6404H36.0336C36.5721 36.6404 37.0102 36.2023 37.0102 35.6638V33.6031C38.7356 33.0985 40 31.503 40 29.6166V12.8937C40 12.198 39.4772 11.6231 38.8041 11.5384ZM22.2046 12.7458H17.7954V10.8081H22.2046V12.7458ZM20.61 9.63625H19.3901V4.3768H20.61V9.63625ZM37.6322 11.5265H36.8108V5.04102C36.9441 5.06531 37.0812 5.07867 37.2215 5.07867C37.3617 5.07867 37.4988 5.06531 37.6322 5.04102V11.5265ZM38.3341 2.79422C38.3341 3.40773 37.835 3.9068 37.2216 3.9068C36.6081 3.9068 36.109 3.40766 36.109 2.79422C36.109 2.18078 36.6081 1.68164 37.2216 1.68164C37.835 1.68164 38.3341 2.1807 38.3341 2.79422ZM30.7514 18.0635H32.1209V20.5618H30.7514V18.0635ZM27.8363 18.0635H29.5795V20.9134C29.5795 21.3657 29.9475 21.7337 30.3998 21.7337H32.4724C32.9248 21.7337 33.2927 21.3657 33.2927 20.9134V18.0635H35.0359V24.9443H27.8362V18.0635H27.8363ZM19.3152 18.0635H20.6847V20.5618H19.3152V18.0635ZM16.4002 18.0635H18.1434V20.9134C18.1434 21.3657 18.5113 21.7337 18.9637 21.7337H21.0363C21.4886 21.7337 21.8566 21.3657 21.8566 20.9134V18.0635H23.5998V24.9443H16.4001V18.0635H16.4002ZM38.8281 29.6166C38.8281 31.2607 37.4905 32.5983 35.8465 32.5983H4.15352C2.50945 32.5983 1.17188 31.2607 1.17188 29.6166V29.0978C1.17188 27.4538 2.50945 26.1162 4.15352 26.1162H35.8465C37.4905 26.1162 38.8281 27.4538 38.8281 29.0978V29.6166ZM38.8281 26.2113C38.1512 25.5127 37.2326 25.0498 36.2079 24.961V17.712C36.2079 17.3385 35.9569 17.0233 35.6149 16.9244V12.8937C35.6149 12.7859 35.7025 12.6984 35.8102 12.6984H38.6328C38.7405 12.6984 38.8281 12.7859 38.8281 12.8937V26.2113Z" fill="#7A7A7A"/>
<path d="M4.67605 27.0723C3.41637 27.0723 2.3916 28.097 2.3916 29.3567C2.3916 30.6164 3.41637 31.6412 4.67605 31.6412C5.93574 31.6412 6.96051 30.6164 6.96051 29.3567C6.96051 28.097 5.93574 27.0723 4.67605 27.0723ZM4.67605 30.4693C4.06254 30.4693 3.56348 29.9702 3.56348 29.3567C3.56348 28.7433 4.06262 28.2441 4.67605 28.2441C5.28949 28.2441 5.78863 28.7433 5.78863 29.3567C5.78863 29.9702 5.28957 30.4693 4.67605 30.4693Z" fill="#7A7A7A"/>
<path d="M16.9348 27.0723C15.6752 27.0723 14.6504 28.097 14.6504 29.3567C14.6504 30.6164 15.6752 31.6412 16.9348 31.6412C18.1945 31.6412 19.2193 30.6164 19.2193 29.3567C19.2193 28.097 18.1946 27.0723 16.9348 27.0723ZM16.9348 30.4693C16.3213 30.4693 15.8223 29.9702 15.8223 29.3567C15.8223 28.7433 16.3214 28.2441 16.9348 28.2441C17.5483 28.2441 18.0474 28.7433 18.0474 29.3567C18.0474 29.9702 17.5484 30.4693 16.9348 30.4693Z" fill="#7A7A7A"/>
<path d="M23.0647 27.0723C21.805 27.0723 20.7803 28.097 20.7803 29.3567C20.7803 30.6164 21.805 31.6412 23.0647 31.6412C24.3244 31.6412 25.3492 30.6164 25.3492 29.3567C25.3492 28.097 24.3244 27.0723 23.0647 27.0723ZM23.0647 30.4693C22.4512 30.4693 21.9521 29.9702 21.9521 29.3567C21.9521 28.7433 22.4513 28.2441 23.0647 28.2441C23.6782 28.2441 24.1773 28.7433 24.1773 29.3567C24.1773 29.9702 23.6782 30.4693 23.0647 30.4693Z" fill="#7A7A7A"/>
<path d="M29.1946 27.0723C27.9349 27.0723 26.9102 28.097 26.9102 29.3567C26.9102 30.6164 27.9349 31.6412 29.1946 31.6412C30.4543 31.6412 31.4791 30.6164 31.4791 29.3567C31.4791 28.097 30.4543 27.0723 29.1946 27.0723ZM29.1946 30.4693C28.5811 30.4693 28.082 29.9702 28.082 29.3567C28.082 28.7433 28.5812 28.2441 29.1946 28.2441C29.808 28.2441 30.3072 28.7433 30.3072 29.3567C30.3072 29.9702 29.808 30.4693 29.1946 30.4693Z" fill="#7A7A7A"/>
<path d="M10.8059 27.0723C9.54625 27.0723 8.52148 28.097 8.52148 29.3567C8.52148 30.6164 9.54625 31.6412 10.8059 31.6412C12.0656 31.6412 13.0904 30.6164 13.0904 29.3567C13.0904 28.097 12.0656 27.0723 10.8059 27.0723ZM10.8059 30.4693C10.1924 30.4693 9.69336 29.9702 9.69336 29.3567C9.69336 28.7433 10.1925 28.2441 10.8059 28.2441C11.4194 28.2441 11.9185 28.7433 11.9185 29.3567C11.9185 29.9702 11.4195 30.4693 10.8059 30.4693Z" fill="#7A7A7A"/>
<path d="M35.3235 27.0723C34.0638 27.0723 33.0391 28.097 33.0391 29.3567C33.0391 30.6164 34.0638 31.6412 35.3235 31.6412C36.5832 31.6412 37.608 30.6164 37.608 29.3567C37.608 28.097 36.5832 27.0723 35.3235 27.0723ZM35.3235 30.4693C34.71 30.4693 34.2109 29.9702 34.2109 29.3567C34.2109 28.7433 34.7101 28.2441 35.3235 28.2441C35.937 28.2441 36.4361 28.7433 36.4361 29.3567C36.4361 29.9702 35.937 30.4693 35.3235 30.4693Z" fill="#7A7A7A"/>
</g>
<defs>
<clipPath id="clip0_0_1">
<rect width="1074" height="296" fill="white" transform="translate(-366 -1.42578)"/>
</clipPath>
</defs>
</svg>
