<svg width="40" height="29" viewBox="0 0 40 29" fill="none" xmlns="http://www.w3.org/2000/svg">
<rect width="40" height="29" fill="#E5E5E5"/>
<rect x="-972" y="-5528" width="1920" height="6273" fill="white"/>
<g clip-path="url(#clip0_0_1)">
<path d="M39.2281 6.84902L30.7843 3.99534C30.4778 3.89221 30.1452 4.05628 30.0415 4.36286C29.9379 4.66944 30.1025 5.00204 30.409 5.10564L38.7723 7.93213L34.8355 9.85139C34.6721 9.74114 34.4887 9.65653 34.2897 9.60457L22.4816 6.51853C22.1063 4.58756 19.7288 3.77712 18.2685 5.15134C17.7631 5.627 17.4732 6.29774 17.4732 6.99161V7.00442C17.4773 7.82142 18.1536 8.48607 18.9807 8.48607H21.0194C21.5459 8.48607 22.0724 8.21137 22.3454 7.69423L33.3573 10.5722C29.8778 12.2686 22.0669 16.0767 21.0712 16.5622C20.3684 16.9048 19.5853 16.8823 18.9288 16.5622L1.22764 7.93213L19.2173 1.85224C19.7219 1.68161 20.278 1.68161 20.7826 1.85224L27.8062 4.22605C28.1129 4.32958 28.4453 4.16527 28.549 3.85853C28.6526 3.55195 28.4881 3.21935 28.1815 3.11576L21.1579 0.741945C20.4111 0.489664 19.5888 0.489664 18.842 0.741945L0.771752 6.84902C-0.188304 7.17373 -0.27495 8.50342 0.637525 8.94821L9.91135 13.4696C9.40117 15.8951 8.62221 18.5064 7.7756 20.8242C7.42902 21.7721 7.72763 22.8265 8.51846 23.4481C11.1948 25.5516 14.357 27.1765 17.5981 28.2211C19.1211 28.7118 20.8194 28.7307 22.4015 28.2211C25.6436 27.1761 28.8061 25.5505 31.4811 23.4481C32.2748 22.8241 32.5693 21.7692 32.2239 20.8242C31.3952 18.5578 30.6056 15.9295 30.0882 13.4698L34.4505 11.343V20.1623C33.7049 20.2194 33.1154 20.843 33.1154 21.6029V23.3105C33.1154 23.5642 33.2255 23.7921 33.3998 23.9509L33.1821 27.2419C33.1396 27.8848 33.6508 28.4312 34.2954 28.4312H35.7778C36.422 28.4312 36.9335 27.885 36.891 27.2419L36.6734 23.9509C36.8476 23.7921 36.9578 23.5643 36.9578 23.3105V21.6029C36.9578 20.8429 36.3681 20.2193 35.6225 20.1622V11.3303C35.6225 11.1502 35.5942 10.9757 35.5436 10.8101L39.3624 8.94828C40.2737 8.50396 40.1898 7.1742 39.2281 6.84902ZM21.0194 7.31413H18.9807C18.7997 7.31413 18.646 7.16959 18.6451 7.00145V6.99161C18.6451 6.61408 18.7966 6.26367 19.0717 6.00475C19.9155 5.21057 21.2984 5.78224 21.3532 6.92449C21.3662 7.19803 21.1901 7.31413 21.0194 7.31413ZM30.4635 19.3179C27.2975 21.7957 22.8046 23.5682 21.257 23.8632C20.9391 23.9238 20.7306 24.2307 20.7912 24.5486C20.8518 24.8666 21.1596 25.0751 21.4766 25.0144C23.0953 24.7057 27.5305 22.9821 30.86 20.4904C30.9419 20.724 31.0367 20.9899 31.1232 21.2265C31.2951 21.6968 31.1478 22.2192 30.7569 22.5267C27.6012 25.0067 24.2759 26.3856 22.0421 27.1054C20.7078 27.5355 19.2585 27.5248 17.9575 27.1054C15.7236 26.3855 12.3984 25.0067 9.24272 22.5267C8.85184 22.2194 8.70433 21.6971 8.87645 21.2264C8.87988 21.2171 8.88324 21.2075 8.88668 21.1981C8.97184 20.9648 9.06622 20.7001 9.13959 20.4903C12.3904 22.9223 16.8135 24.6886 18.5225 25.0146C18.8408 25.0751 19.1473 24.8667 19.2079 24.5489C19.2685 24.231 19.06 23.9241 18.7422 23.8635C17.2812 23.5849 12.7728 21.8499 9.53609 19.3178C10.012 17.8625 10.5634 15.9922 10.9969 13.9988L18.4151 17.6154C19.4028 18.097 20.5585 18.1159 21.5848 17.6154L29.0026 13.999C29.4361 15.9923 29.9875 17.8626 30.4635 19.3179ZM34.3554 27.2592L34.5592 24.1778H35.5138L35.7176 27.2592H34.3554ZM35.7858 21.6028V23.0058H34.2873V21.6028C34.2873 21.4541 34.4129 21.3285 34.5616 21.3285H35.5114C35.66 21.3285 35.7858 21.4541 35.7858 21.6028Z" fill="#7A7A7A"/>
</g>
<defs>
<clipPath id="clip0_0_1">
<rect width="1074" height="296" fill="white" transform="translate(-732 -197.426)"/>
</clipPath>
</defs>
</svg>
