<svg width="40" height="31" viewBox="0 0 40 31" fill="none" xmlns="http://www.w3.org/2000/svg">
<rect width="40" height="31" fill="#E5E5E5"/>
<rect x="-972" y="-5335" width="1920" height="6273" fill="white"/>
<g clip-path="url(#clip0_0_1)">
<path d="M38.3614 4.32049H36.4851V2.7613C36.4851 1.52518 35.4795 0.519531 34.2434 0.519531H32.4552C31.219 0.519531 30.2135 1.52518 30.2135 2.7613V9.17979H27.2168V7.45657C27.2168 6.20593 26.1994 5.18857 24.9488 5.18857C24.4574 5.18857 24.0026 5.3462 23.631 5.61282C23.2656 4.84927 22.4854 4.32049 21.5839 4.32049C20.7317 4.32049 19.9879 4.79298 19.6005 5.48977C19.2176 5.19458 18.7387 5.01806 18.2189 5.01806C17.4301 5.01806 16.7347 5.42334 16.3283 6.0362C15.9315 5.69581 15.4165 5.48954 14.854 5.48954C13.6033 5.48954 12.586 6.5069 12.586 7.75754V9.17994H9.78677V7.527C9.78677 7.20354 9.5246 6.94145 9.20122 6.94145C8.87785 6.94145 8.61568 7.20354 8.61568 7.527V21.1297C8.61568 21.7201 8.13538 22.2003 7.54507 22.2003H5.75659C5.16621 22.2003 4.68598 21.7201 4.68598 21.1297V2.7613C4.68598 2.17092 5.16628 1.69062 5.75659 1.69062H7.54484C8.13522 1.69062 8.61544 2.17092 8.61544 2.7613V5.03149C8.61544 5.35494 8.87761 5.61703 9.20099 5.61703C9.52436 5.61703 9.78653 5.35494 9.78653 5.03149V2.7613C9.78653 1.52518 8.78088 0.519531 7.54484 0.519531H5.75659C4.52047 0.519531 3.5149 1.52518 3.5149 2.7613V4.32049H1.63858C0.735052 4.32049 0 5.05554 0 5.95899V17.9319C0 18.8354 0.735052 19.5704 1.63858 19.5704H3.5149V21.1296C3.5149 22.3657 4.52055 23.3713 5.75659 23.3713H7.54484C8.78096 23.3713 9.78653 22.3657 9.78653 21.1296V14.7111H11.7931V15.7803C11.7931 16.3298 11.9854 16.8662 12.3345 17.2906L14.153 19.5015V30.0418C14.153 30.3653 14.4151 30.6274 14.7385 30.6274C15.0619 30.6274 15.324 30.3653 15.324 30.0418V19.2916C15.324 19.156 15.2769 19.0245 15.1907 18.9196L13.2389 16.5466C13.0617 16.3313 12.9642 16.0591 12.9642 15.7803V14.7111L24.0378 14.7788C24.3612 14.7788 24.6233 14.5167 24.6233 14.1933C24.6233 13.8698 24.3612 13.6077 24.0378 13.6077H21.3736C20.8239 13.6077 20.3767 13.1605 20.3767 12.611C20.3767 12.0614 20.8239 11.6142 21.3736 11.6142H26.4082C26.7542 11.6142 27.0356 11.8955 27.0356 12.2415V15.7803C27.0356 16.0591 26.938 16.3313 26.7609 16.5465L24.8091 18.9196C24.7229 19.0244 24.6757 19.1558 24.6757 19.2916V20.8359C24.6757 21.1594 24.9379 21.4215 25.2613 21.4215C25.5846 21.4215 25.8468 21.1594 25.8468 20.8359V19.5014L27.6653 17.2906C28.0143 16.8661 28.2066 16.3297 28.2066 15.7803V14.7111H30.2132V21.1295C30.2132 22.3656 31.2189 23.3712 32.4549 23.3712H34.2432C35.4793 23.3712 36.4849 22.3656 36.4849 21.1295V19.5704H38.3612C39.2647 19.5704 39.9998 18.8353 39.9998 17.9318V5.95899C40 5.05554 39.2649 4.32049 38.3614 4.32049ZM1.63858 18.3994C1.38079 18.3994 1.17109 18.1896 1.17109 17.9319V5.95899C1.17109 5.70119 1.38079 5.49157 1.63858 5.49157H3.5149V18.3994H1.63858ZM24.9487 6.35966C25.5536 6.35966 26.0457 6.85175 26.0457 7.45657V9.63659C26.0457 9.94576 25.9145 10.2367 25.69 10.4432H24.2074C23.9829 10.2367 23.8517 9.94576 23.8517 9.63659V7.45657C23.8517 6.85175 24.3438 6.35966 24.9487 6.35966ZM20.4868 6.58849C20.4868 5.98366 20.9789 5.49157 21.5837 5.49157C22.1886 5.49157 22.6807 5.98366 22.6807 6.58849V9.63659C22.6807 9.94576 22.5495 10.2367 22.325 10.4432H21.3736C21.212 10.4432 21.0546 10.4615 20.903 10.4952C20.6423 10.2894 20.4867 9.9762 20.4867 9.63659V6.58849H20.4868ZM17.1218 7.28599C17.1218 6.68116 17.6139 6.18907 18.2187 6.18907C18.8236 6.18907 19.3157 6.68116 19.3157 7.28599V9.63651C19.3157 10.2414 18.8236 10.7335 18.2187 10.7335C17.6138 10.7335 17.1218 10.2414 17.1218 9.63651V7.28599ZM13.7568 7.75746C13.7568 7.15264 14.2489 6.66055 14.8537 6.66055C15.4586 6.66055 15.9507 7.15264 15.9507 7.75746V9.63659C15.9507 10.2415 15.4586 10.7336 14.8537 10.7336C14.2489 10.7336 13.7568 10.2415 13.7568 9.63659V7.75746ZM9.78661 10.3509H12.7017C13.0017 11.2525 13.8528 11.9046 14.8538 11.9046C15.5207 11.9046 16.1212 11.6151 16.5366 11.1554C16.9519 11.615 17.552 11.9046 18.2188 11.9046C18.7019 11.9046 19.149 11.7513 19.5172 11.4929C19.3197 11.8196 19.2059 12.2022 19.2059 12.611C19.2059 12.9433 19.2812 13.2583 19.4154 13.54H9.78661V10.3509ZM28.2069 13.5401V12.2416C28.2069 11.4658 27.7131 10.8033 27.0234 10.5515C27.0523 10.486 27.078 10.419 27.1006 10.3509H30.2135V13.5401H28.2069ZM38.8289 17.9319C38.8289 18.1897 38.6192 18.3994 38.3614 18.3994H36.4851V16.7072C36.4851 16.3838 36.2229 16.1217 35.8996 16.1217C35.5762 16.1217 35.314 16.3838 35.314 16.7072V21.1296C35.314 21.72 34.8337 22.2002 34.2434 22.2002H32.4552C31.8648 22.2002 31.3846 21.72 31.3846 21.1296V2.7613C31.3846 2.17092 31.8649 1.69062 32.4552 1.69062H34.2434C34.8338 1.69062 35.314 2.17092 35.314 2.7613V14.2118C35.314 14.5352 35.5762 14.7973 35.8996 14.7973C36.2229 14.7973 36.4851 14.5352 36.4851 14.2118V5.49157H38.3614C38.6192 5.49157 38.8289 5.70127 38.8289 5.95899V17.9319Z" fill="#7A7A7A"/>
<path d="M25.2613 22.7461C24.9379 22.7461 24.6758 23.0082 24.6758 23.3316V30.042C24.6758 30.3655 24.9379 30.6276 25.2613 30.6276C25.5847 30.6276 25.8469 30.3655 25.8469 30.042V23.3316C25.8469 23.0082 25.5848 22.7461 25.2613 22.7461Z" fill="#7A7A7A"/>
</g>
<defs>
<clipPath id="clip0_0_1">
<rect width="1074" height="296" fill="white" transform="translate(-732 -4.42578)"/>
</clipPath>
</defs>
</svg>
