<svg width="40" height="37" viewBox="0 0 40 37" fill="none" xmlns="http://www.w3.org/2000/svg">
<rect width="40" height="37" fill="#E5E5E5"/>
<rect x="-972" y="-5460" width="1920" height="6273" fill="white"/>
<g clip-path="url(#clip0_0_1)">
<path d="M38.6305 0.505859H1.36953C0.614375 0.505859 0 1.12023 0 1.87539V27.1627C0 27.9179 0.614375 28.5323 1.36953 28.5323H9.07086L9.22891 29.2677C9.39703 30.0506 10.033 30.6458 10.8023 30.7831C10.4861 31.3505 10.3051 32.0031 10.3051 32.6975C10.3051 34.8728 12.0748 36.6426 14.2502 36.6426C16.4255 36.6426 18.1952 34.8728 18.1952 32.6975C18.1952 32.0155 18.0212 31.3735 17.7153 30.8133H20.9917C20.6859 31.3735 20.5118 32.0155 20.5118 32.6975C20.5118 34.8728 22.2816 36.6426 24.4569 36.6426C26.6322 36.6426 28.402 34.8728 28.402 32.6975C28.402 32.0109 28.2253 31.365 27.9156 30.8021C28.7476 30.7165 29.4526 30.0981 29.631 29.2677L33.8938 9.42734H38.826V27.1627C38.826 27.2706 38.7383 27.3584 38.6304 27.3584H32.2352C31.9109 27.3584 31.6482 27.6211 31.6482 27.9453C31.6482 28.2695 31.9109 28.5323 32.2352 28.5323H38.6304C39.3855 28.5323 39.9999 27.9179 39.9999 27.1627V1.87539C40 1.12023 39.3856 0.505859 38.6305 0.505859ZM14.2502 35.4687C12.7221 35.4687 11.4789 34.2255 11.4789 32.6974C11.4789 31.1694 12.722 29.9262 14.2502 29.9262C15.7783 29.9262 17.0214 31.1694 17.0214 32.6974C17.0214 34.2255 15.7782 35.4687 14.2502 35.4687ZM24.457 35.4687C22.9289 35.4687 21.6857 34.2255 21.6857 32.6974C21.6857 31.1694 22.9289 29.9262 24.457 29.9262C25.985 29.9262 27.2282 31.1694 27.2282 32.6974C27.2281 34.2255 25.9849 35.4687 24.457 35.4687ZM37.1569 8.25344C37.5505 7.89531 37.7978 7.37922 37.7978 6.80648C37.7978 5.72766 36.9202 4.85 35.8413 4.85H33.9949C32.1873 4.85 30.5996 6.13281 30.2198 7.90016L30.1439 8.25336H24.6013C24.2771 8.25336 24.0144 8.51609 24.0144 8.84031C24.0144 9.16453 24.2771 9.42727 24.6013 9.42727H29.8918L29.2961 12.2H7.9832C7.3893 12.2 6.83461 12.465 6.46133 12.927C6.08813 13.3888 5.94562 13.9868 6.07039 14.5675L7.51758 21.3032C7.5857 21.6202 7.89766 21.8214 8.21469 21.7538C8.53156 21.6857 8.73328 21.3736 8.66523 21.0567L7.21805 14.321C7.1682 14.0887 7.22516 13.8495 7.37445 13.6647C7.52375 13.48 7.74563 13.374 7.9832 13.374H29.7703C30.047 13.374 30.286 13.1808 30.3442 12.9103L31.3677 8.1468C31.632 6.91672 32.737 6.02398 33.9951 6.02398H35.8415C36.273 6.02398 36.6241 6.37508 36.6241 6.80656C36.6241 7.23805 36.273 7.58914 35.8415 7.58914H33.9951C33.4698 7.58914 33.0083 7.96195 32.8978 8.4757L28.4834 29.0212C28.4065 29.3794 28.0848 29.6395 27.7184 29.6395H26.9459C26.2665 29.0855 25.4 28.7525 24.457 28.7525C23.5141 28.7525 22.6476 29.0855 21.9681 29.6395H16.7392C16.0598 29.0855 15.1933 28.7525 14.2503 28.7525C13.3073 28.7525 12.4409 29.0855 11.7614 29.6395H11.1419C10.7755 29.6395 10.4537 29.3794 10.3767 29.0212L9.17211 23.4149C9.10406 23.0979 8.79227 22.8969 8.475 22.9643C8.15805 23.0324 7.95641 23.3445 8.02445 23.6614L8.81883 27.3584H1.36953C1.26164 27.3584 1.17391 27.2707 1.17391 27.1628V9.42734H21.8865C22.2107 9.42734 22.4734 9.16461 22.4734 8.84039C22.4734 8.51617 22.2107 8.25344 21.8865 8.25344H1.17391V1.87531C1.17391 1.76742 1.26172 1.67969 1.36953 1.67969H38.6305C38.7384 1.67969 38.8261 1.76742 38.8261 1.87531V8.25344H37.1569Z" fill="#7A7A7A"/>
<path d="M4.33789 6.08984C4.97 6.08984 5.48242 5.57742 5.48242 4.94531C5.48242 4.31321 4.97 3.80078 4.33789 3.80078C3.70578 3.80078 3.19336 4.31321 3.19336 4.94531C3.19336 5.57742 3.70578 6.08984 4.33789 6.08984Z" fill="#7A7A7A"/>
<path d="M7.81836 6.08984C8.45047 6.08984 8.96289 5.57742 8.96289 4.94531C8.96289 4.31321 8.45047 3.80078 7.81836 3.80078C7.18625 3.80078 6.67383 4.31321 6.67383 4.94531C6.67383 5.57742 7.18625 6.08984 7.81836 6.08984Z" fill="#7A7A7A"/>
<path d="M11.2998 6.08984C11.9319 6.08984 12.4443 5.57742 12.4443 4.94531C12.4443 4.31321 11.9319 3.80078 11.2998 3.80078C10.6677 3.80078 10.1553 4.31321 10.1553 4.94531C10.1553 5.57742 10.6677 6.08984 11.2998 6.08984Z" fill="#7A7A7A"/>
<path d="M21.08 24.7402H17.6279C17.4639 24.7402 17.3073 24.8088 17.1962 24.9295C17.0851 25.0502 17.0295 25.2119 17.043 25.3753L17.221 27.5363C17.2461 27.8408 17.5004 28.0752 17.8059 28.0752H20.9021C21.2075 28.0752 21.462 27.8409 21.487 27.5363L21.6649 25.3753C21.6783 25.2119 21.6228 25.0502 21.5117 24.9295C21.4005 24.8089 21.244 24.7402 21.08 24.7402ZM20.3614 26.9013H18.3465L18.2652 25.9141H20.4428L20.3614 26.9013Z" fill="#7A7A7A"/>
<path d="M9.56885 17.8109C9.62697 18.0813 9.86604 18.2745 10.1427 18.2745H14.2503C14.5837 18.2818 14.8698 17.9711 14.8352 17.6395L14.6573 15.4784C14.6322 15.174 14.3778 14.9396 14.0724 14.9396H9.67838C9.31565 14.9306 9.01948 15.2972 9.10455 15.6499L9.56885 17.8109ZM13.5318 16.1135L13.6131 17.1006H10.617L10.4049 16.1135H13.5318Z" fill="#7A7A7A"/>
<path d="M11.7842 24.7402C11.6069 24.7402 11.439 24.8204 11.3276 24.9583C11.2162 25.0963 11.1731 25.2771 11.2104 25.4505L11.6747 27.6115C11.7328 27.882 11.9719 28.0752 12.2485 28.0752H15.0574C15.2215 28.0752 15.378 28.0066 15.4891 27.8859C15.6002 27.7652 15.6558 27.6035 15.6423 27.4401L15.4644 25.2791C15.4393 24.9746 15.1849 24.7402 14.8794 24.7402H11.7842ZM12.7227 26.9013L12.5106 25.9141H14.3388L14.4201 26.9013H12.7227Z" fill="#7A7A7A"/>
<path d="M10.7315 19.8398C10.5541 19.8398 10.3864 19.92 10.2749 20.0579C10.1635 20.1959 10.1204 20.3767 10.1576 20.5501L10.6219 22.7112C10.68 22.9816 10.9191 23.1748 11.1958 23.1748H14.6541C14.8181 23.1748 14.9747 23.1063 15.0858 22.9855C15.1969 22.8648 15.2525 22.7032 15.239 22.5398L15.061 20.3787C15.0359 20.0742 14.7816 19.8398 14.4761 19.8398H10.7315ZM11.67 22.0009L11.4579 21.0137H13.9355L14.0167 22.0009H11.67Z" fill="#7A7A7A"/>
<path d="M16.4133 17.7357C16.4384 18.0401 16.6928 18.2745 16.9983 18.2745H21.7083C22.0137 18.2745 22.2682 18.0402 22.2932 17.7357L22.4711 15.5747C22.5054 15.243 22.2197 14.9323 21.8861 14.9396H16.8202C16.487 14.9323 16.2005 15.243 16.2353 15.5747L16.4133 17.7357ZM21.249 16.1135L21.1676 17.1006H17.5388L17.4576 16.1135H21.249Z" fill="#7A7A7A"/>
<path d="M24.0536 23.1748H27.6648C27.9414 23.1748 28.1805 22.9816 28.2387 22.7112L28.703 20.5501C28.7402 20.3767 28.6971 20.1959 28.5856 20.0579C28.4742 19.92 28.3064 19.8398 28.1291 19.8398H24.2316C23.9261 19.8398 23.6717 20.0741 23.6467 20.3787L23.4688 22.5398C23.4553 22.7032 23.5109 22.8648 23.622 22.9855C23.733 23.1062 23.8896 23.1748 24.0536 23.1748ZM24.7721 21.0137H27.4026L27.1905 22.0009H24.6908L24.7721 21.0137Z" fill="#7A7A7A"/>
<path d="M24.4569 18.2745H28.7174C28.994 18.2745 29.2331 18.0813 29.2913 17.8109L29.7556 15.6499C29.8406 15.2972 29.5444 14.9306 29.1817 14.9396H24.6348C24.3294 14.9396 24.0749 15.1739 24.0499 15.4784L23.872 17.6395C23.8372 17.9711 24.1234 18.2818 24.4569 18.2745ZM25.1754 16.1135H28.4552L28.2431 17.1006H25.094L25.1754 16.1135Z" fill="#7A7A7A"/>
<path d="M21.4826 19.8398H17.2236C17.0596 19.8398 16.903 19.9084 16.7919 20.0291C16.6808 20.1498 16.6252 20.3115 16.6387 20.4749L16.8166 22.636C16.8417 22.9405 17.0961 23.1748 17.4015 23.1748H21.3046C21.6101 23.1748 21.8646 22.9405 21.8896 22.636L22.0675 20.4749C22.0809 20.3115 22.0253 20.1498 21.9143 20.0291C21.8032 19.9084 21.6466 19.8398 21.4826 19.8398ZM20.764 22.0009H17.9421L17.8609 21.0137H20.8453L20.764 22.0009Z" fill="#7A7A7A"/>
<path d="M23.6503 28.0732H26.612C26.8887 28.0732 27.1277 27.88 27.1859 27.6095L27.6503 25.4485C27.6875 25.2752 27.6444 25.0943 27.5329 24.9563C27.4215 24.8184 27.2537 24.7383 27.0764 24.7383H23.8283C23.5228 24.7383 23.2683 24.9726 23.2433 25.2771L23.0655 27.4381C23.052 27.6016 23.1076 27.7632 23.2187 27.8839C23.3297 28.0046 23.4863 28.0732 23.6503 28.0732ZM24.3689 25.9123H26.3499L26.1378 26.8994H24.2876L24.3689 25.9123Z" fill="#7A7A7A"/>
<path d="M14.2496 31.6895C13.6932 31.6895 13.2422 32.1405 13.2422 32.6969C13.2422 33.2533 13.6932 33.7044 14.2496 33.7044C14.806 33.7044 15.257 33.2533 15.257 32.6969C15.257 32.1405 14.806 31.6895 14.2496 31.6895Z" fill="#7A7A7A"/>
<path d="M24.4566 31.6895C23.9002 31.6895 23.4492 32.1405 23.4492 32.6969C23.4492 33.2533 23.9002 33.7044 24.4566 33.7044C25.013 33.7044 25.4641 33.2533 25.4641 32.6969C25.4641 32.1405 25.013 31.6895 24.4566 31.6895Z" fill="#7A7A7A"/>
</g>
<defs>
<clipPath id="clip0_0_1">
<rect width="1074" height="296" fill="white" transform="translate(-732 -129.426)"/>
</clipPath>
</defs>
</svg>
