<svg width="42" height="43" viewBox="0 0 42 43" fill="none" xmlns="http://www.w3.org/2000/svg">
    <path d="m31.946 12.271-.162.118.162-.118a.786.786 0 1 0-1.272.923 11.847 11.847 0 0 1 2.266 7v8.817H9.059v-8.816a11.947 11.947 0 0 1 10.04-11.79h-.001a.786.786 0 0 0 .382-1.377 2.35 2.35 0 0 1-.837-1.8 2.36 2.36 0 0 1 2.356-2.356 2.36 2.36 0 0 1 2.357 2.356 2.35 2.35 0 0 1-.838 1.8.786.786 0 0 0 .383 1.377 11.86 11.86 0 0 1 6.329 3.14.786.786 0 0 0 1.084-1.139l-.132.14.132-.14a13.436 13.436 0 0 0-5.874-3.282A3.932 3.932 0 0 0 21 1.3a3.932 3.932 0 0 0-3.44 5.825 13.537 13.537 0 0 0-6.807 4.261l.151.13-.151-.13a13.51 13.51 0 0 0-3.266 8.809v8.816h-.128a4.389 4.389 0 0 0-4.383 4.384c0 1.171.456 2.273 1.284 3.1a4.356 4.356 0 0 0 3.1 1.285h1.778a.786.786 0 0 0 0-1.572H7.36a2.792 2.792 0 0 1-1.988-.824 2.793 2.793 0 0 1-.823-1.989 2.815 2.815 0 0 1 2.811-2.812h27.28c.751 0 1.457.292 1.988.824.532.531.824 1.237.824 1.988a2.815 2.815 0 0 1-2.812 2.813H11.466a.786.786 0 0 0 0 1.572h3.705a6.35 6.35 0 0 0 2.038 2.652A6.242 6.242 0 0 0 21 41.7a6.24 6.24 0 0 0 3.79-1.269l-.12-.159.12.16a6.35 6.35 0 0 0 2.039-2.652h7.811a4.389 4.389 0 0 0 4.384-4.385c0-1.17-.457-2.272-1.285-3.1a4.356 4.356 0 0 0-3.099-1.284h-.127v-8.816c0-2.869-.888-5.61-2.566-7.924zM20.999 40.128a4.76 4.76 0 0 1-4.08-2.348h8.16A4.76 4.76 0 0 1 21 40.128z" fill="#2C2C2C" stroke="#2C2C2C" stroke-width=".4"/>
</svg>
