<svg width="27" height="25" viewBox="0 0 27 25" fill="none" xmlns="http://www.w3.org/2000/svg">
<path d="M5.19132 24.6641C3.88371 24.6641 2.68508 24.1737 1.75886 23.2475C0.832636 22.3213 0.342285 21.1226 0.342285 19.815C0.342285 18.5074 0.832636 17.3088 1.75886 16.3826L15.5977 2.54374C18.1039 0.0375018 22.2447 0.0375018 24.7509 2.54374C25.9495 3.74238 26.6578 5.37688 26.6578 7.12036C26.6578 8.86383 26.004 10.4439 24.7509 11.697L14.399 22.0489L13.3094 20.9592L23.6612 10.6073C25.5682 8.70039 25.5682 5.54034 23.6612 3.63341C21.7543 1.72649 18.5943 1.72649 16.6873 3.63341L2.84853 17.4722C2.19472 18.0715 1.86782 18.9433 1.86782 19.815C1.86782 20.6868 2.19472 21.5585 2.84853 22.1578C4.15613 23.4654 6.2265 23.4654 7.53411 22.1578L17.886 11.8059C18.5398 11.1521 18.5398 10.0625 17.886 9.40867C17.2322 8.75487 16.1425 8.75487 15.4887 9.40867L8.5693 16.3281L7.47963 15.2384L14.399 8.319C15.6522 7.06588 17.668 7.06588 18.9212 8.319C20.1743 9.57212 20.1743 11.588 18.9212 12.8411L8.5693 23.193C7.69756 24.1737 6.49892 24.6641 5.19132 24.6641Z" fill="white"/>
</svg>
