<svg width="24" height="24" viewBox="0 0 24 24" fill="none" xmlns="http://www.w3.org/2000/svg">
<path d="M1.50016 21.75C1.42304 21.7608 1.34479 21.7608 1.26766 21.75C1.11103 21.6991 0.975486 21.5981 0.881958 21.4626C0.78843 21.3271 0.742115 21.1645 0.750164 21V20.25C0.750461 16.8609 1.95867 13.5828 4.15794 11.0042C6.35722 8.42551 9.40355 6.71513 12.7502 6.18V3C12.7502 2.86072 12.789 2.72418 12.8622 2.6057C12.9354 2.48722 13.0402 2.39147 13.1648 2.32918C13.2893 2.26689 13.4288 2.24052 13.5675 2.25303C13.7062 2.26554 13.8387 2.31643 13.9502 2.4L22.9502 9.15C23.0433 9.21986 23.1189 9.31045 23.171 9.41459C23.2231 9.51873 23.2502 9.63357 23.2502 9.75C23.2502 9.86643 23.2231 9.98127 23.171 10.0854C23.1189 10.1896 23.0433 10.2801 22.9502 10.35L13.9502 17.1C13.8387 17.1836 13.7062 17.2345 13.5675 17.247C13.4288 17.2595 13.2893 17.2331 13.1648 17.1708C13.0402 17.1085 12.9354 17.0128 12.8622 16.8943C12.789 16.7758 12.7502 16.6393 12.7502 16.5V13.6875C9.11839 14.2802 5.86619 16.2795 3.69766 19.2525L2.10766 21.4425C2.03784 21.538 1.9464 21.6157 1.84082 21.6692C1.73524 21.7226 1.6185 21.7503 1.50016 21.75ZM14.2502 4.5V6.84C14.2513 7.02541 14.1837 7.20467 14.0604 7.34317C13.9372 7.48167 13.767 7.56961 13.5827 7.59C10.7547 7.89853 8.11106 9.14398 6.07249 11.1282C4.03393 13.1124 2.7175 15.7214 2.33266 18.54L2.45266 18.3825C3.73611 16.6202 5.37666 15.1483 7.2673 14.0628C9.15793 12.9772 11.2562 12.3025 13.4252 12.0825C13.5297 12.0728 13.6351 12.0851 13.7346 12.1187C13.8341 12.1523 13.9254 12.2064 14.0027 12.2775C14.0804 12.3476 14.1425 12.4332 14.1851 12.5288C14.2278 12.6244 14.2499 12.7278 14.2502 12.8325V15L21.2477 9.75L14.2502 4.5Z" fill="#7A7A7A"/>
</svg>
