<svg width="56" height="56" viewBox="0 0 56 56" fill="none" xmlns="http://www.w3.org/2000/svg">
<path d="M41.9827 18.796C41.1207 17.8871 39.6836 17.8471 38.7733 18.7112L24.2799 32.4563L17.3669 25.3586C16.4914 24.4603 15.0558 24.4406 14.1568 25.3163C13.2585 26.1911 13.2396 27.6281 14.1143 28.5264L22.59 37.2284C23.0342 37.6847 23.6245 37.9147 24.2163 37.9147C24.7779 37.9147 25.3394 37.7074 25.7791 37.292L41.898 22.0055C42.8076 21.1427 42.8461 19.7057 41.9827 18.796Z" fill="#64C628"/>
<path d="M28 0C12.5606 0 0 12.5606 0 28C0 43.4394 12.5606 56 28 56C43.4394 56 56 43.4394 56 28C56 12.5606 43.4394 0 28 0ZM28 51.4595C15.0648 51.4595 4.54048 40.9361 4.54048 28C4.54048 15.0648 15.0647 4.54048 28 4.54048C40.936 4.54048 51.4595 15.0647 51.4595 28C51.4595 40.936 40.936 51.4595 28 51.4595Z" fill="#64C628"/>
</svg>
